<?xml version="1.0" encoding="utf-8"?>
<!-- Generator: Adobe Illustrator 18.1.0, SVG Export Plug-In . SVG Version: 6.00 Build 0)  -->
<svg version="1.1" id="Layer_1" xmlns="http://www.w3.org/2000/svg" xmlns:xlink="http://www.w3.org/1999/xlink" x="0px" y="0px"
	 viewBox="0 0 150 150" 
enableBackground="new 0 0 150 150" xml:space="preserve">
<g>
	<path fill="#FFFFFF" d="M413.1,748.5h-3.4l-2-2.7h-0.1l0-0.2c0-0.2,0-0.4,0-0.5c-0.1-0.6-0.1-1.2-0.2-1.8c-0.1-0.6-0.1-1.1-0.2-1.7
		c0-0.5-0.1-1.1-0.2-1.6c-0.1-1.2-0.2-2.4-0.4-3.6c-0.2-1.5-0.3-3.1-0.5-4.6c-0.1-1.2-0.2-2.4-0.4-3.7c-0.1-0.6-0.1-1.2-0.2-1.7
		c-0.2-1.8-0.4-3.6-0.6-5.4c-0.1-0.6-0.1-1.2-0.2-1.8c0-0.2-0.1-0.5-0.1-0.7c-0.1-0.6-0.1-1.2-0.2-1.7c0-0.4-0.1-0.8-0.1-1.3
		c-0.1-1.2-0.2-2.4-0.4-3.6c-0.1-0.6-0.1-1.2-0.2-1.8c-0.1-0.5-0.1-1.1-0.2-1.7l-0.4-3.4c-0.1-0.5-0.1-1.1-0.2-1.6
		c-0.1-0.4-0.1-0.8-0.1-1.2c-0.1-0.6-0.1-1.2-0.2-1.7c-0.1-0.5-0.1-1-0.2-1.5c-0.1-0.6-0.1-1.2-0.2-1.7c-0.1-0.6-0.1-1.2-0.2-1.8
		c-0.2-2.3-0.5-4.6-0.7-7c0-0.5-0.1-1-0.2-1.6c-0.2-1.8-0.4-3.6-0.6-5.4c0-0.6-0.1-1.1-0.2-1.7c-0.1-0.5-0.1-1-0.2-1.6
		c0-0.6-0.1-1.2-0.2-1.7c-0.1-0.6-0.1-1.1-0.2-1.7c0-0.4-0.1-0.8-0.1-1.2c-0.1-0.5-0.1-1.1-0.2-1.6c0-0.5-0.1-0.9-0.2-1.4
		c0-0.5-0.1-0.9-0.1-1.4c-0.1-0.5-0.1-1.1-0.2-1.6l-0.1-0.6c0-0.5-0.1-0.9-0.2-1.4l-0.1-0.7c-0.7-6.8-1.5-13.6-2.2-20.4
		c-0.6-5.5-0.1-4.1,1-8.9c0.3-1.2,0.7-2,0.1-2.3c-0.7-0.4-1.7-0.6-2.7-0.7c-0.1-4.1-0.1-11.5-0.1-14.2h0c0,0,3.1,0.3,3.8-0.3
		c0,0-7.1-6.6-15.7-8h0c-0.3-0.1-0.7-0.1-1-0.1c0.1-0.3,0.1-0.5,0.1-0.8c0-1.6-1-2.9-2.4-2.9s-2.4,1.3-2.4,2.9c0,0.3,0,0.6,0.1,0.8
		c-0.8,0.1-1.6,0.3-2.4,0.5c0,0,0,0,0,0c-7.7,1.9-14.3,7.7-14.3,7.7c0,0,0,0,0.1,0c0.7,0.4,2.8,0.3,3.5,0.3l0,0.3
		c0.2,4.9,0.1,9.1,0,13.8c-1.2,0.2-2.4,0.5-2.9,0.9c-0.7,0.5,1,5.2,1.3,6.1c0.9,2.9-3,33.1-3.6,38.3c-0.2,1.8-0.4,3.6-0.6,5.3
		c-0.2,1.8-0.4,3.6-0.6,5.4c-1.3,11.9-2.6,23.8-3.8,35.7c-0.8,7.3-1.6,14.5-2.3,21.8h0l-2,2.7h-3.1c-0.6,0-1.1,0.5-1.1,1.1
		c0,0.6,0.5,1.2,1.1,1.1c22-2.5,44.1-2.7,66.3,0h0.1c0.5,0,1-0.5,1-1.1C414.2,749,413.7,748.5,413.1,748.5 M395.1,617.3L395.1,617.3
		c0,0,0,0.1,0,0.1V617.3z M393.6,631.8c-14.1-0.7-25.5,0.2-26.8,0c0-0.6,0.1-2.2,0.2-2.7c1.1-0.2,2.3-0.2,3.4-0.5
		c0.3-0.1,0.5-0.1,0.4-0.5c-0.1-0.2-0.6-0.2-0.8-0.2c-0.9-0.1-1.9-0.2-2.8-0.4c0-0.6,0.1-1.2,0.2-1.8c1.1-0.1,2.3-0.2,3.4-0.5
		c0.1-0.2,0.1-0.3,0-0.5c-1-0.2-2.2-0.3-3.2-0.5c0.2-3,0.2-1.5,2.7-2.3c1.9-0.6-2.2-1-2.2-1c-0.4-0.2-0.2-2.2,0.3-2.3
		c4.9-0.7,14.8-0.5,20-0.2c1.4,0.1,2.8,0.1,4.3,0.2c0.3,3.1,0,2.2-3.2,2.2c-2.6,0-5,0.1-7.5,0.6c1.8,1.3,3.5,0.6,5.7,0.7
		c1.8,0.1,3.5,0.2,5.3,0.4c0.1,0.5,0.1,1,0.2,1.5c-3.1,0.2-8.6,0-11.2,0.6l-0.3,0.1c-0.1,0.2,0,0.4,0.2,0.5c1.1,0.2,2.8,0.2,3.9,0.2
		c0.7,0,7.5,0.3,7.5,0.4c0,0,0.2,1.5,0.1,1.5c0,0.1-2.4,0.2-2.7,0.2c-2.7,0.1-5.7,0.2-8.4,0.4c-0.2,0-1.4,0.5-0.6,0.6
		c0.3,0,0.9,0.1,1.2,0.1c3.2,0.2,6.8,0.2,10.1,0.5c0.1,0,0.6,0,0.6,0.1C393.7,629.3,393.5,631.6,393.6,631.8 M391.6,637.8
		c-0.5-0.3,0.2-1.3,0.5-0.5C392.2,637.7,392,637.9,391.6,637.8 M387.2,635.1c-0.4,0.7-0.9,0.4-0.4-0.1
		C387.1,634.6,387.5,634.5,387.2,635.1 M384.1,636.6c0.1,0.7-0.9,1.5-0.9,0.5C383.2,636.5,383.5,636.3,384.1,636.6 M384,635.1
		c-0.2,0.3-0.5,0-0.7-0.2C383.1,634.3,384.3,634.6,384,635.1 M381.2,633.2c1.3,0,1.8,0.6,1.3,1.8C382,635.8,379.7,633.2,381.2,633.2
		 M381.1,635.8c-0.1,0.4-0.4,0.4-0.7,0.2C379.9,635.5,381.3,635,381.1,635.8 M378.6,635.4c-0.6,0.4-1.3,0.2-0.8-0.7
		C378.5,633.8,380.1,634.4,378.6,635.4 M378.3,633.1c0.3-0.2,0.5,0.6,0,0.3C378.1,633.4,378.2,633.2,378.3,633.1 M378.6,636.3
		c0.3-0.2,0.5,0,0.7,0.2C380.2,637.5,377.6,637.4,378.6,636.3 M375.9,636.1c0.1,0,0.3-0.1,0.5,0c0.4,0,0.4,1.4,0.1,1.3
		C376.4,637.4,374.9,636.3,375.9,636.1 M375.4,634.9c0.2-0.8,1.6-0.2,0.7,0.3C375.8,635.3,375.3,635.4,375.4,634.9 M376.7,632.6
		c0.4-0.2,0.5,0.4,0.5,0.8c0,0.1,0.1,0.2,0,0.3h-0.1C376.3,633.3,375.4,633.1,376.7,632.6 M373.3,635.9c0.7-0.7,0.6-0.8,1.3,0.1
		c0.4,0.5,0.7,0.8,0.2,1.4c-0.4,0.5-0.5,1.1-0.7,1.8c-0.7-0.3-1-0.7-1.5-1.3l-0.1-0.1C372.4,636.9,372.8,636.4,373.3,635.9
		 M373.6,632.6c0.5-0.2,0.7,1.3,0.8,1.6c0.1,0.3-1.2,0.5-1.5-1l0-0.1C372.8,632.2,373.2,632.8,373.6,632.6 M369.9,636.9L369.9,636.9
		c0.7-0.5,3.6,1,1.4,1.3C370.3,638.2,368.9,638.2,369.9,636.9 M370.6,632.5c0.6-0.4,1,0.4,0.9,1
		C370.5,634.5,368.9,633.8,370.6,632.5 M367.2,634.9c-0.6-0.3,0-1.1,0.4-1.4c0.2-0.1,0.7-0.5,0.9-0.3
		C368.9,633.5,369.3,635.9,367.2,634.9 M366.5,638.6c0-0.2,0.1-0.4,0.2-0.6c0.2-0.5,0.3-0.6,0.8-0.9
		C367.8,639.5,366.3,639.3,366.5,638.6 M368.2,636c0.2,0,0.3,0,0.5,0c0.4,0.1,0.4,1.1,0.2,1C368.7,636.9,367.3,636.1,368.2,636
		 M363.2,658c1.6-0.2,3.6-0.4,5.2-0.6c0-0.3,0-0.4,0-0.7c-1.5-0.3-3.4-0.4-4.9-0.6c0-0.7,0.1-1.4,0.2-2.1c1.3-0.3,2.8-0.3,4.1-0.5
		c0.4-0.1,0.5-0.2,0.4-0.6c-0.1-0.3-0.7-0.2-0.9-0.3c-1.1-0.1-2.3-0.3-3.4-0.5c0.1-0.7,0.1-1.4,0.2-2.2c1.3-0.2,2.8-0.3,4.1-0.6
		c0.1-0.3,0.1-0.4,0-0.6c-1.2-0.3-2.7-0.4-3.9-0.6c0.3-3.6,0.2-1.8,3.3-2.7c2.3-0.7-2.7-1.2-2.7-1.2c-0.4-0.2-0.2-2.6,0.4-2.8
		c5.9-0.9,17.9-0.6,24.2-0.3c1.7,0.1,3.4,0.2,5.2,0.3c0.4,3.8-0.1,2.7-3.8,2.7c-3.1,0-6,0.1-9,0.8c2.1,1.6,4.3,0.8,6.9,0.9
		c2.1,0.1,4.3,0.3,6.4,0.4c0.1,0.6,0.1,1.2,0.2,1.9c-3.7,0.3-10.4-0.1-13.6,0.8l-0.3,0.1c-0.2,0.2,0,0.5,0.2,0.6
		c1.3,0.2,3.4,0.2,4.8,0.2c0.9,0,9,0.4,9.1,0.5c0,0,0.2,1.8,0.2,1.8c0,0.1-2.9,0.2-3.3,0.2c-3.3,0.2-6.9,0.3-10.2,0.5
		c-0.3,0-1.7,0.6-0.7,0.7c0.3,0,1.1,0.1,1.5,0.1c3.9,0.2,8.3,0.3,12.2,0.5c0.1,0,0.7,0,0.8,0.1c0.1,0.1,0.2,1.6,0.2,1.9
		c-4.7,0.2-10,0.4-14.7,0.7c-0.3,0-0.3,0-0.3,0.5c0,0.4,0.1,0.2,0.6,0.3c3.8,0.2,8.1,0.3,11.8,0.5c0.3,0,2.6,0.1,2.8,0.2
		c0.1,0,0.1,1.2,0.2,1.4c0,0.6,0.2,0.5-0.5,0.4c-10.6-0.7-22.1-0.9-33,0C363.1,659.3,363.1,658.7,363.2,658 M388.3,672.3
		c0.2-0.3,0.6-0.7,0.9-0.4C389.5,672.4,387.9,673.2,388.3,672.3 M388,666.6c-0.5-0.3,0.2-1.3,0.5-0.5
		C388.7,666.5,388.4,666.7,388,666.6 M389.6,681.9c0.2-0.2,0.7-0.5,0.6,0C389.9,682.7,388.7,682.7,389.6,681.9 M386.9,682.5
		c-0.2,0.1-0.8,0.6-0.7,0C386.4,681.4,388,681.5,386.9,682.5 M386.5,674.9c0.2,0-0.1,0.3-0.1,0.3
		C386.1,675.6,386.2,674.9,386.5,674.9 M387,679.7c-0.3-0.2,0-0.4,0.2-0.6C387.9,678.8,387.5,679.8,387,679.7 M383.6,663.9
		c-0.4,0.7-0.9,0.4-0.4-0.1C383.6,663.4,383.9,663.4,383.6,663.9 M383.6,676.6c-0.5,0.5-0.7-0.7-0.2-0.7
		C383.8,676.1,383.9,676.4,383.6,676.6 M383.9,678.4l0.2,0.4c0.3,0.8-0.7,1.1-1.2,0.4C382.8,678.8,383.4,677.9,383.9,678.4
		 M384.6,671.5c-0.1,0.2-0.4,0.6-0.6,0.4C383.5,671.5,384.7,670.8,384.6,671.5 M384.5,682c0.4,0.5,0,0.9-0.5,1.1
		C382.1,684.1,383.4,681.2,384.5,682 M378.1,681.1l0-0.2c0-0.7,0.2-0.9,0.6-1.5c1.2,0.3,1.4,0.7,2,1.8
		C381.3,682.5,378.3,681.7,378.1,681.1 M379.7,683c-0.1,0.2-0.4,0.4-0.5,0.2C378.9,682.7,379.9,682.5,379.7,683 M375,664.2
		c-0.6,0.4-1.3,0.2-0.8-0.7C374.9,662.6,376.5,663.2,375,664.2 M374.7,662c0.3-0.2,0.5,0.6,0,0.3C374.5,662.2,374.6,662.1,374.7,662
		 M375.1,665.1c0.3-0.2,0.5,0,0.7,0.2C376.6,666.3,374,666.2,375.1,665.1 M376.5,667c0,0.4-0.3,0.5-0.6,0.3
		C375.4,667,376.5,666.2,376.5,667 M374.9,669c-1.1,0-0.3-1.1,0-1.1C375.2,668.2,375.7,669,374.9,669 M375.2,670.8
		c0.2,0.6,0.4,1-0.4,0.8c-0.9-0.2-1.7-0.4-1-1.3l0.1,0l0.1,0C374.9,670.6,375,670,375.2,670.8 M373.8,674c-0.1-0.4,0.4-0.8,0.7-1
		C375.1,673.8,375,674.9,373.8,674 M374.4,676.3c0.4,0,0.7,1.1,0.8,1.4c-0.5-0.2-1-0.5-1.4-0.8C373.4,676.5,374.1,676.3,374.4,676.3
		 M374.6,679.4c-0.4,0.2-0.5-0.1-0.5-0.5C374.2,677.8,375.2,678.9,374.6,679.4 M374.1,681.4c0.3-0.5,1.2-1.7,1.7-2
		c0.5-0.2,0.7,1.3,0.7,1.6C376.8,682.6,373.7,682.3,374.1,681.4 M376.6,682.7c0.5-1.1,1.3-0.4,1.1,0.6
		C377.3,683.7,376.2,683.4,376.6,682.7 M377.5,679c-0.7,0.5-0.6,0-0.4-0.5C377.8,677.5,378.6,678.2,377.5,679 M377.3,675.5l-0.3,0
		l-0.3,0c-0.9-0.1-0.9-1.1,0.3-1.3C378.7,674,378.1,675.4,377.3,675.5 M378.9,663.9c-0.5,0.7-2.8-1.9-1.3-1.8
		C378.9,662.1,379.4,662.7,378.9,663.9 M377.9,661.1c0.2-0.4,0.4,0.3,0.1,0.3C377.9,661.3,377.8,661.2,377.9,661.1 M378.1,672.8
		c-0.5,0.1-0.9-0.1-0.9-0.7C377.3,670.9,379.1,672.3,378.1,672.8 M377.2,669.1c0.1-0.3,0.3-0.5,0.5-0.3
		C378.2,669.3,377.1,669.7,377.2,669.1 M377.9,666.3c-0.2-0.2-0.9-0.5,0-0.7c0.7-0.1,1.6,0.7,0.8,1.6
		C378.5,667.3,378.2,666.6,377.9,666.3 M379.2,676.3c-0.1,0.2-0.5,0.7-0.7,0.3C378.2,675.9,379.6,675.4,379.2,676.3 M377.5,664.6
		c-0.1,0.4-0.4,0.4-0.7,0.2C376.4,664.3,377.7,663.8,377.5,664.6 M380.5,665.4c0.1,0.7-0.9,1.5-0.9,0.5
		C379.7,665.3,379.9,665.2,380.5,665.4 M380.4,664c-0.2,0.3-0.5,0-0.7-0.2C379.5,663.2,380.7,663.4,380.4,664 M379.9,669.4
		c-0.1,0.1-0.2,0.2-0.3,0.1C379.5,669.3,380.1,668.9,379.9,669.4 M379.6,670.9c0.5-0.1,0.7,2,0.1,1.1
		C379.6,671.8,379.2,670.9,379.6,670.9 M380.6,678.5c0.3-0.9,1.8-0.7,1.4,0C381.5,679.3,379.9,680.1,380.6,678.5 M381.4,674.9
		c-0.6-0.3-0.8-0.9-0.2-1.2C382.3,673.2,383.4,675.4,381.4,674.9 M381,661.4c0-0.3,0.3-0.1,0.4,0C381.9,661.8,380.9,662.2,381,661.4
		 M382.3,668.3c0.1,0.9-1.5,0.2-0.9-0.4C381.8,667.5,382.1,668,382.3,668.3 M370.3,678.8c-0.5-0.3-0.7-0.2-0.5-0.6
		c0.2-0.3,0.5-0.8,0.8-1c0.4-0.1,1.6-0.1,2,0c0.3,0.1,0.4,1,0.3,1.3C372.8,679.3,371,679.1,370.3,678.8 M371.4,681.7
		c-0.5,0.4-1,0.7-1.6,0.2c-0.2-0.1,0.4-1.4,0.7-1.3l0.1,0C370.9,681,371.2,681.3,371.4,681.7 M364.3,671.3c0.2,0,0.3,0,0.5,0
		c0.4,0.1,0.4,1.1,0.2,1C364.8,672.3,363.3,671.4,364.3,671.3 M363.6,663.7c-0.6-0.3,0-1.1,0.4-1.4c0.2-0.1,0.7-0.5,0.9-0.3
		C365.3,662.3,365.8,664.7,363.6,663.7 M364.6,677.9c0.7,0.3,0.6,0.2,0.6,0.6c-0.1,1.1-0.1,1.1-0.8,0.6c-0.3-0.2-0.5-0.4-0.8-0.6
		C362.5,677.6,363.9,677.7,364.6,677.9 M365.3,681.9c0.5,1.1,0.4,1.4-0.7,0.5c-0.2-0.2-0.4-0.3-0.6-0.6
		C364.4,681.6,365,681.4,365.3,681.9 M365.3,674l-0.3-0.1c-0.3-0.2,0.5-1.2,0.7-0.9C366.1,674,366.4,674.2,365.3,674 M366.3,665.7
		L366.3,665.7c0.7-0.5,3.6,1,1.4,1.3C366.8,667.1,365.4,667,366.3,665.7 M367,661.3c0.6-0.4,1,0.4,0.9,1
		C366.9,663.3,365.3,662.6,367,661.3 M369.8,664.5c0,0.2-0.1,0.2-0.3,0.1C367,663.3,370,663.1,369.8,664.5 M368,676.2l-0.6,0.2
		c-0.6,0.1-0.5-0.3-0.8-0.8c-0.1-0.2,0.9-0.6,1.2-0.6c0.7,0,0.5-0.1,0.9,0.5C369.1,676.1,368.6,676.1,368,676.2 M368.3,680.7
		c-0.3,0.1-1.2-0.9-1.1-1c0.1,0,1-0.1,1.1,0.3C368.4,680.3,368.4,680.5,368.3,680.7 M366.1,669.3c-0.1-0.1-0.5-2,1.1-0.6
		C367.6,669.4,366.4,669.5,366.1,669.3 M366.4,670.9c0.4-0.2,0.5,0.4,0.5,0.8c0,0.1,0.1,0.2,0,0.3H367
		C366,671.7,365.1,671.5,366.4,670.9 M366.4,677.9c0.2,0.2,1.3,0.9,1,1.2l-0.1,0.1c-0.5,0.3-0.9,0.5-1.5,0.1
		C365.6,679.1,366.3,678.1,366.4,677.9 M368.2,681.8c0.2,0.1,0.4,0.4,0.6,0.6c0.2,0.3,0.2,0.7,0.3,1.1c-0.3-0.1-2-0.6-2-0.9
		C367,682.5,367.6,681.5,368.2,681.8 M368.6,669.5l-0.1-0.1c-0.1-0.8,0.3-1.2,0.8-1.8c0.7-0.7,0.6-0.8,1.3,0.1
		c0.4,0.5,0.7,0.8,0.2,1.4c-0.4,0.5-0.5,1.1-0.7,1.8C369.4,670.5,369.1,670,368.6,669.5 M372.5,664.1c-0.3,0.1-0.9,0.2-0.7-0.3
		C372.1,662.9,373.4,663.6,372.5,664.1 M372.8,667.9c-0.1,0-1.6-1.1-0.5-1.3c0.1,0,0.3-0.1,0.5,0
		C373.1,666.6,373.1,667.9,372.8,667.9 M372.8,669.3c0.1,0,0.6,0.6,0.1,1l-0.2,0.1C370.8,670.9,372.1,669.1,372.8,669.3
		 M372.9,675.2c0.1,0.7-2.4,1.1-3.1-2l0-0.3c-0.2-1.9,0.7-0.7,1.5-1C372.2,671.6,372.8,674.6,372.9,675.2 M371,661.9
		c-0.9,0.3-0.5-0.9,0.1-0.7C371.6,661.4,371.5,661.8,371,661.9 M372.4,681.9c0.4-0.2,0.9,1.2,0.4,0.8
		C372.7,682.6,372.1,682,372.4,681.9 M372.9,680.5c0.3-0.1,0.4,0,0.5,0.2C373.8,681.5,372.2,680.8,372.9,680.5 M363,667.4
		c0-0.2,0.1-0.4,0.2-0.6c0.2-0.5,0.3-0.6,0.8-0.9C364.2,668.4,362.8,668.2,363,667.4 M362.1,671.8c0.6-0.2,0.9,0.2,0.9,0.7
		C362.9,672.8,361.9,672.1,362.1,671.8 M363,674.2c0.1,0.2,0.5,1,0.5,1.2c-0.2,0-1.4-0.6-1.6-0.8C361.6,674.1,362.5,673.5,363,674.2
		 M361.7,678.9l0.1,0.4c0.1,0.6-1,0.2-1.1-0.1C360.7,679.1,361.4,677.6,361.7,678.9 M361.9,681.8c0.6,1.1,0.5,1.1-0.5,0.6
		c-0.2-0.1-0.5-0.3-0.6-0.4C360.4,681.7,361.3,680.9,361.9,681.8 M358.6,700.6c1.9-0.2,4.5-0.4,6.3-0.5c0.3,0,1.3-0.1,1.1-0.6
		c-0.2-0.4-2.8-0.4-3.2-0.5c-1.3-0.1-2.7-0.2-4-0.4l0.2-2c0.7-0.1,6.8-0.5,7-0.7c0.1-0.1,0.1-0.5-0.1-0.5c-0.6-0.2-3-0.3-3.7-0.4
		c-1-0.1-2-0.2-3-0.3c0.1-0.7,0.1-1.4,0.2-2c0.6-0.1,6.4-0.5,6.5-0.7c0,0,0.1-0.6-0.1-0.7c-0.3-0.1-1.7-0.1-2-0.2
		c-1.4-0.2-2.8-0.3-4.2-0.4l-0.1,0c-0.1,0,0-0.1,0-0.3c0.1-0.6,0.1-1.2,0.2-1.8c1.6-0.2,4-0.3,5.6-0.5c0.1,0,0.4-0.1,0.5-0.2
		c0-0.1,0.1-0.4,0-0.5c-0.2-0.2-4.2-0.5-4.8-0.5c-0.4,0-0.7-0.1-1.1-0.1c0.1-0.8,0.2-1.6,0.3-2.3c13-0.5,25.9-0.5,38.8,0l0.3,2.4
		c-5.5,0.2-11.2,0.4-16.6,0.7c-0.3,0-1.2-0.1-1.3,0.2c-0.2,0.6,0.9,0.6,1.3,0.6c0.9,0,2,0,3,0c1.6,0.1,3.2,0.1,4.8,0.2
		c2.8,0.1,5.5,0.2,8.3,0.3c0.3,0,0.5,0,0.8,0l0.2,1.9c-5.5,0.2-11.4,0.3-16.9,0.6c-0.2,0-1.4,0-1.5,0.2c-0.1,0.2-0.1,0.5,0.2,0.6
		c0.7,0.1,2.2,0.1,2.9,0.1h0.7c4.4,0.2,9.1,0.4,13.5,0.5l1.4,0.1l0.2,1.8c-2.1,0.1-18.6,0.5-19.2,0.8c-0.1,0.1-0.1,0.5,0,0.6
		c0.2,0.1,2.5,0.2,2.8,0.2c0.3,0,0.5,0,0.8,0c1.9,0.1,4.4,0.1,6.3,0.2c0.9,0,1.7,0.1,2.6,0.1c0.9,0,1.8,0.1,2.8,0.1
		c1.4,0.1,2.8,0.1,4.1,0.2l0.2,1.9c-0.9,0-1.8,0-2.8,0.1c-2.8,0.1-5.5,0.2-8.3,0.3c-0.9,0-8.6,0.2-8.8,0.3c-0.3,0.2,0,0.6,0.4,0.7
		c0.7,0.1,2.2,0.1,3,0.1h0.1l0.3,0c0.2,0,0.4,0,0.7,0c4.9,0.2,10.7,0.4,15.6,0.5l0.3,2.5c-14.3-0.9-28.6-1-42.9,0L358.6,700.6z
		 M386.9,717.2c0.2,0-0.1,0.3-0.1,0.4C386.5,717.8,386.6,717.1,386.9,717.2 M386.8,707c0-0.3,0.5-0.7,0.3-0.1
		C387.1,707,387,707.1,386.8,707 M387.2,722.4c0.7-0.4,0.3,0.6-0.2,0.5C386.7,722.8,387,722.5,387.2,722.4 M383.6,707.2
		c-0.4,0.7-0.9,0.4-0.4-0.1C383.6,706.7,383.9,706.6,383.6,707.2 M384.3,717.6c0.2,0.5-1.4,1.4-0.9,0.4
		C383.5,717.7,383.9,717.3,384.3,717.6 M384.5,725.3c0.4,0.5,0,0.9-0.5,1.1C382.1,727.4,383.4,724.4,384.5,725.3 M384.8,723.4
		c0.2-0.2,0.7-0.5,0.6,0C385.2,724.2,383.9,724.2,384.8,723.4 M384.8,712.2c0.1-0.3,0.3-0.5,0.5-0.3
		C385.9,712.4,384.8,712.8,384.8,712.2 M375.9,724.4l0-0.2c0-0.7,0.2-0.9,0.7-1.5c1.3,0.3,1.6,0.7,2.2,1.8
		C379.4,725.7,376.1,724.9,375.9,724.4 M377.7,726.6c-0.4,0.4-1.4,0.1-1.1-0.6C377.1,724.9,377.9,725.6,377.7,726.6 M373.9,707.6
		c-0.6,0.4-1.3,0.2-0.7-0.7C373.8,706,375.4,706.6,373.9,707.6 M372.8,717.4c-0.1-0.4,0.4-0.8,0.8-1
		C374.2,717.2,374.1,718.3,372.8,717.4 M373.4,708.6c0.9,1-2,0.9-0.8-0.2C372.9,708.2,373.2,708.4,373.4,708.6 M372.2,705.6
		c-0.2-0.1-0.1-0.2,0-0.4C372.6,705,372.8,705.8,372.2,705.6 M372.5,711.1c0.3,0.3,0.8,1.1,0,1.1
		C371.2,712.2,372.1,711.1,372.5,711.1 M372.8,714c0.2,0.6,0.4,1-0.4,0.8c-1-0.2-1.8-0.4-1.1-1.3l0.1-0.1l0.1,0
		C372.4,713.8,372.5,713.3,372.8,714 M371.9,719.5c0.4,0,0.8,1.1,0.9,1.4c-0.6-0.2-1.1-0.5-1.6-0.8
		C370.8,719.7,371.6,719.5,371.9,719.5 M371.6,724.6c0.3-0.5,1.3-1.7,1.9-2c0.6-0.2,0.8,1.3,0.8,1.6
		C374.4,725.8,371.1,725.5,371.6,724.6 M374,722.2c0.1-1.1,1.1,0,0.5,0.5C374.2,722.8,374,722.5,374,722.2 M375.4,711.4
		c0,0.4-0.3,0.5-0.6,0.3C374.4,711.4,375.4,710.6,375.4,711.4 M377.5,722.2c-0.7,0.5-0.6,0-0.4-0.5
		C377.8,720.8,378.6,721.5,377.5,722.2 M377.9,704.3c0.2-0.4,0.4,0.3,0.1,0.3C377.9,704.6,377.8,704.4,377.9,704.3 M377.5,712.3
		c-0.1-0.2-0.5-1.1-0.1-1.1C377.9,711.1,378,713.3,377.5,712.3 M377.5,707.9c-0.1,0.4-0.4,0.4-0.7,0.2
		C376.4,707.6,377.7,707.1,377.5,707.9 M376.2,715.1l-0.3,0l-0.3,0c-0.9-0.1-0.8-1.1,0.3-1.3C377.5,713.6,377,714.9,376.2,715.1
		 M376.7,717c-0.5,0.1-1-0.1-0.9-0.7C375.8,715.2,377.6,716.6,376.7,717 M375.7,709.6c-0.2-0.2-1-0.5,0-0.7c0.7-0.1,1.7,0.7,0.9,1.6
		C376.4,710.5,376.1,709.9,375.7,709.6 M376.8,707.1c-0.5,0.7-3-1.9-1.4-1.8C376.8,705.3,377.4,705.9,376.8,707.1 M375.2,718.7
		c1.1-0.6,2.2,1.6,0.2,1.2C374.8,719.6,374.7,719,375.2,718.7 M378.6,717.8c0.4-0.4,0.7,0.1,0.9,0.4
		C379.6,719.1,378,718.4,378.6,717.8 M379.5,726.5c-0.1,0.2-0.1,0.2-0.3-0.1C378.9,726,379.7,726,379.5,726.5 M378.7,715.6
		c-0.1-0.3,0.4-1.3,1-0.8l0.2,0.4C380.1,716.1,379.2,716.3,378.7,715.6 M380.5,708.7c0.1,0.7-0.9,1.5-0.9,0.5
		C379.7,708.6,379.9,708.4,380.5,708.7 M380.4,707.3c-0.2,0.3-0.5,0-0.7-0.2C379.5,706.4,380.7,706.7,380.4,707.3 M380.7,713.2
		c-0.1,0.2-0.5,0.7-0.7,0.3C379.6,712.9,381.1,712.4,380.7,713.2 M380.6,721.8c0.3-0.9,1.8-0.7,1.4-0.1
		C381.5,722.6,379.9,723.4,380.6,721.8 M381.9,715.7c0.3,0.1,0.4,0.4,0.2,0.7C381.6,716.9,381.4,715.6,381.9,715.7 M381.8,718.9
		c-0.1,0.2-0.4,0.7-0.6,0.4C380.7,718.9,381.9,718.3,381.8,718.9 M381.4,710.6c-0.5-0.3,0.2-1.3,0.5-0.5
		C382,710.5,381.8,710.7,381.4,710.6 M381,704.7c0-0.3,0.3-0.1,0.4,0C381.9,705.1,380.9,705.4,381,704.7 M381.3,724.5
		c0.2-1,1.9-0.9,0.7,0C381.8,724.6,381.2,725,381.3,724.5 M367.4,722c-0.6-0.3-0.8-0.3-0.6-0.6c0.2-0.3,0.5-0.9,0.9-1
		c0.5-0.1,1.8-0.1,2.2,0c0.4,0.1,0.4,1,0.3,1.3C370.1,722.6,368.1,722.3,367.4,722 M368.6,725c-0.6,0.4-1.1,0.7-1.8,0.2
		c-0.2-0.1,0.4-1.4,0.8-1.3l0.1,0C368.1,724.2,368.4,724.6,368.6,725 M360.1,706.9c-0.7-0.3,0-1.1,0.4-1.4c0.2-0.1,0.8-0.5,1-0.3
		C361.9,705.5,362.5,708,360.1,706.9 M361.6,715.5c-0.2,0-1.7-0.9-0.7-1c0.2,0,0.4,0,0.6,0C361.8,714.6,361.8,715.6,361.6,715.5
		 M360.4,709.1c0.4,2.5-1.2,2.3-1,1.5c0-0.2,0.1-0.4,0.2-0.6C359.8,709.6,360,709.5,360.4,709.1 M361.2,721.2
		c0.7,0.2,0.7,0.2,0.6,0.6c-0.1,1.1-0.1,1.1-0.8,0.6c-0.3-0.2-0.6-0.4-0.9-0.6C358.9,720.9,360.5,720.9,361.2,721.2 M361.9,725.1
		c0.5,1.1,0.5,1.4-0.7,0.5c-0.3-0.2-0.4-0.3-0.6-0.6C361,724.8,361.6,724.7,361.9,725.1 M362,717.3l-0.3-0.1c-0.4-0.2,0.5-1.3,0.7-1
		C362.8,717.2,363.2,717.4,362,717.3 M363.1,708.9L363.1,708.9c0.8-0.5,3.9,0.9,1.5,1.2C363.6,710.3,362,710.3,363.1,708.9
		 M363.8,704.6c0.7-0.4,1,0.4,1,0.9C363.7,706.5,361.9,705.8,363.8,704.6 M366.9,707.7c0,0.2-0.1,0.2-0.3,0.1
		C363.8,706.5,367,706.4,366.9,707.7 M364.9,719.5l-0.7,0.2c-0.6,0.1-0.5-0.3-0.8-0.8c-0.1-0.2,1-0.6,1.3-0.6c0.7-0.1,0.6-0.1,1,0.5
		C366.1,719.3,365.6,719.3,364.9,719.5 M365.3,723.9c-0.3,0.1-1.3-0.9-1.2-0.9c0.1,0,1.1-0.1,1.2,0.3
		C365.4,723.5,365.3,723.7,365.3,723.9 M362.9,712.5c-0.1-0.1-0.5-2,1.2-0.6C364.4,712.6,363.1,712.8,362.9,712.5 M363.2,714.2
		c0.5-0.2,0.5,0.4,0.6,0.8c0,0.1,0,0.2,0,0.3h-0.1C362.8,714.9,361.8,714.7,363.2,714.2 M363.2,721.1c0.2,0.2,1.4,1,1.1,1.2
		l-0.2,0.1c-0.5,0.3-1,0.5-1.6,0.1C362.3,722.4,363.1,721.3,363.2,721.1 M365.1,725c0.2,0.1,0.5,0.4,0.6,0.6
		c0.2,0.3,0.2,0.8,0.3,1.1c-0.3-0.1-2.2-0.6-2.1-0.9C363.9,725.8,364.4,724.7,365.1,725 M365.5,712.7l-0.1-0.1
		c-0.1-0.8,0.3-1.2,0.9-1.8c0.7-0.7,0.6-0.8,1.4,0c0.5,0.6,0.7,0.9,0.3,1.4c-0.5,0.5-0.5,1.1-0.8,1.8
		C366.4,713.7,366.1,713.3,365.5,712.7 M369.9,707.3c-0.3,0.1-0.9,0.2-0.8-0.3C369.4,706.2,370.8,706.8,369.9,707.3 M370.1,711.1
		c-0.1,0-1.7-1.1-0.6-1.3c0.2,0,0.4-0.1,0.5,0C370.5,709.8,370.5,711.1,370.1,711.1 M370.1,712.6c0.1,0,0.7,0.6,0.2,1l-0.2,0.1
		C368,714.1,369.4,712.3,370.1,712.6 M370.2,718.5c0.1,0.7-2.6,1.1-3.4-2l0-0.3c-0.3-1.9,0.8-0.7,1.7-1
		C369.5,714.8,370.1,717.9,370.2,718.5 M368.2,705.1c-1,0.3-0.6-0.9,0.1-0.7C368.8,704.7,368.7,705,368.2,705.1 M369.7,725.1
		c0.4-0.2,1,1.2,0.5,0.8C370,725.8,369.4,725.2,369.7,725.1 M370.3,723.7c0.3-0.1,0.5,0.1,0.6,0.2
		C371.3,724.7,369.5,724.1,370.3,723.7 M359.4,715.7c0,0.3-1.1-0.4-0.9-0.7C359.1,714.9,359.4,715.2,359.4,715.7 M359.4,717.4
		c0.1,0.2,0.6,0.9,0.5,1.2c-0.2,0-1.5-0.6-1.7-0.8C357.9,717.4,358.9,716.7,359.4,717.4 M358,722.1l0.1,0.4c0.1,0.6-1.1,0.2-1.1-0.1
		C356.9,722.3,357.7,720.8,358,722.1 M358.2,725.1c0.6,1.1,0.6,1.1-0.5,0.6c-0.2-0.1-0.5-0.3-0.7-0.4
		C356.6,724.9,357.7,724.1,358.2,725.1 M384,734.1c-0.9-0.9-1.7-1.6-3-1.9c-3.5-0.8-6.3,1.7-6.6,5.2v8.3h-20.7l0.3-2.4
		c1.1-0.1,2.3-0.2,3.4-0.3c0.7,0,1.3-0.1,2-0.1c0.4,0,3.6-0.1,3.7-0.4c0.2-0.4-0.5-0.5-0.8-0.5c-2.2-0.2-5.9-0.3-8.1-0.5l0.2-2.1
		h0.1c1.2-0.1,2.4-0.2,3.5-0.3c0.8-0.1,3.8-0.1,4.4-0.3c0.3-0.1,0.4-0.5,0.3-0.7c-0.1-0.2-7.4-0.6-8.1-0.6l0.1-0.4
		c0-0.6,0.1-1.2,0.2-1.7h0.1c0.8-0.1,6.8-0.4,7.1-0.5c0.3-0.1,0.4-0.5,0.2-0.7c-0.3-0.2-6.5-0.6-7.3-0.6c0.1-0.7,0.2-1.5,0.2-2.2
		c1.6-0.2,4-0.2,5.6-0.4c0.4,0,1.3,0,1.5-0.4c0.3-0.4-0.2-0.5-0.5-0.5c-1.8-0.3-4.6-0.3-6.4-0.5c0-0.7,0.1-1.4,0.2-2
		c16,0.4,32.1,0.4,48.1,0l0.2,2h-0.1c-1.8,0.1-3.7,0.1-5.5,0.2c-2.8,0.1-5.5,0.2-8.3,0.3c-0.7,0-1.5,0-2.2,0.1c-1.4,0-4.5,0-5.9,0.1
		c-0.4,0-1.9,0-2.1,0.4c-0.2,0.4,0.4,0.5,0.7,0.5c1.9,0.2,5.8,0.1,7.8,0.2c5.3,0.1,10.6,0.3,15.9,0.5l0.2,1.9
		c-1.8,0.1-3.6,0.1-5.4,0.2c-0.9,0-1.8,0.1-2.7,0.1c-1.8,0-3.7,0.1-5.5,0.2c-2.1,0.1-4.1,0.1-6.2,0.2
		C384.3,734.3,384.2,734.4,384,734.1 M384.6,735.1c0.1-0.1,5.7,0.2,6.3,0.2c3.7,0.1,7.4,0.2,11,0.3c0.9,0,1.8,0,2.8,0.1l0.2,1.9
		c-2.8,0.1-5.5,0.2-8.3,0.3c-2.8,0.1-5.5,0.2-8.3,0.2c-1,0-2.2,0.1-3.2,0.1c0-0.8,0-1.4-0.2-2.1
		C384.9,735.9,384.6,735.2,384.6,735.1 M385.2,739.1c1.1-0.1,2.3,0,3.4,0.1c1.8,0.1,3.7,0.1,5.5,0.2c0.9,0,1.9,0.1,2.8,0.1
		c1.8,0.1,3.7,0.1,5.5,0.2c0.9,0,1.9,0.1,2.8,0.1l0.2,1.9c-0.1,0-0.3,0-0.4,0c-2.8,0.1-5.5,0.2-8.3,0.2c-0.9,0-1.8,0.1-2.8,0.1
		c-0.8,0-8.6,0.3-8.7,0.2C385.1,742.1,385.1,739.4,385.2,739.1 M388.2,745.8c-0.8,0-1.9,0.1-2.7,0c-0.4,0-0.3,0-0.4-0.3
		c0-0.2,0-2.3,0-2.3c0.1-0.1,3.6,0.1,4,0.1l10.9,0.3c1.8,0.1,3.7,0.1,5.5,0.2l0.2,2.1H388.2z"/>
	<path fill="#FFFFFF" d="M360.1,766.8c-0.2-0.1-0.4-0.2-0.7-0.1c-0.2,0.1-0.4,0.2-0.6,0.4l-1.9,2.9c-0.1,0.1-0.3,0.2-0.4,0.2
		c-0.1,0-0.3-0.1-0.4-0.3l-0.5-0.8v0l-1.3-2c-0.1-0.2-0.3-0.3-0.6-0.4c-0.2-0.1-0.5,0-0.7,0.1c-0.2,0.1-0.3,0.3-0.4,0.6
		c-0.1,0.2,0,0.5,0.1,0.7l2.6,3.9c0,0.1,0.1,0.1,0.1,0.2c0,0.1,0,0.1,0.1,0.1c0.1,0.2,0.1,0.4,0.1,0.6c0,0.2,0,0.5,0,0.7h0v3.2
		c0,0.2,0.1,0.5,0.3,0.6c0.2,0.2,0.4,0.3,0.6,0.3c0.3,0,0.5-0.1,0.7-0.3c0.2-0.2,0.3-0.4,0.3-0.6v-3.2c0-0.2,0-0.4,0-0.7
		c0-0.2,0-0.5,0.1-0.6l0.2-0.3l0.7-1v0l1.9-2.9c0.1-0.2,0.2-0.4,0.1-0.7C360.4,767.1,360.3,766.9,360.1,766.8"/>
	<path fill="#FFFFFF" d="M302.9,791.7c-0.4,0-0.9,0.2-1.2,0.5c0,0-0.1,0.1-0.1,0.1c0,0-0.1,0.1-0.1,0.1c-0.8,0.8-1.9,1.3-3.3,1.4
		c-0.7,0.1-1.4,0-2.1-0.2c-0.7-0.2-1.2-0.5-1.7-0.9c-0.5-0.4-0.9-0.9-1.2-1.4c-0.3-0.5-0.5-1.1-0.6-1.8c-0.8-9.1-1.2-13.7-2-22.8
		c0-0.4-0.2-0.8-0.5-1.1c-0.3-0.3-0.7-0.5-1.2-0.5c-0.5-0.1-0.9,0-1.4,0.2c-0.4,0.2-0.7,0.5-0.9,0.8c-2.1,3.8-3.2,5.7-5.2,9.5
		c-0.1,0.2-0.2,0.3-0.3,0.5c-0.2,0.5-0.6,0.7-1,0.8c-0.4,0-0.8-0.1-1.1-0.6c-0.2-0.2-0.3-0.3-0.4-0.5c-0.2-0.3-0.3-0.4-0.6-0.7
		c-2.6-3-3.8-4.5-6.4-7.5c-0.3-0.3-0.7-0.5-1.1-0.6c-0.4-0.1-0.9-0.1-1.3,0.1c-0.5,0.2-0.8,0.4-1.1,0.8c-0.2,0.4-0.3,0.7-0.3,1.2
		c0.8,7.4,1.2,11.1,2,18.5c0.1,0.5,0.3,0.9,0.7,1.2c0.4,0.3,0.9,0.4,1.5,0.4c0.6-0.1,1-0.3,1.4-0.7c0.4-0.4,0.5-0.9,0.5-1.4
		c-0.2-2-0.3-3-0.5-5.1c0,0,0,0,0,0c-0.1-1.3-0.2-2-0.4-3.3c0-0.3,0-0.6,0.1-0.8c0.1-0.2,0.3-0.4,0.5-0.4c0.2-0.1,0.4-0.1,0.7,0
		c0.2,0.1,0.5,0.3,0.7,0.5c0.9,1,1.3,1.5,2.2,2.5c0.7,0.8,1,1.2,1.7,2c0.2,0.3,0.5,0.5,0.8,0.6c0.3,0.1,0.7,0.1,1,0.1c0,0,0,0,0,0
		c0.4,0,0.7-0.1,1-0.3c0.3-0.2,0.5-0.4,0.7-0.7c0.5-1,0.8-1.5,1.4-2.6c0.6-1,0.9-1.5,1.4-2.5c0.1-0.3,0.3-0.5,0.5-0.6
		c0.2-0.1,0.4-0.2,0.6-0.2c0.2,0,0.4,0.1,0.5,0.3c0.2,0.2,0.3,0.4,0.3,0.6c0.5,5.1,0.7,7.6,1.2,12.7c0.1,1.1,0.4,2.2,1,3.2
		c0.6,1,1.3,1.8,2.2,2.5c0.9,0.7,1.9,1.2,3.1,1.5c1.2,0.3,2.4,0.5,3.7,0.4c1.2-0.1,2.3-0.4,3.3-0.8c1-0.4,1.9-1,2.7-1.7
		c0.1-0.1,0.2-0.2,0.3-0.3c0.3-0.4,0.4-0.8,0.4-1.3c0-0.5-0.3-0.9-0.7-1.3C304,791.8,303.5,791.6,302.9,791.7"/>
	<path fill="#FFFFFF" d="M315.9,783c-3.5-7.2-5.3-10.8-8.9-18.1c-0.2-0.3-0.4-0.6-0.8-0.8c-0.4-0.2-0.8-0.3-1.2-0.2
		c-0.5,0-0.9,0.2-1.2,0.4c-0.3,0.2-0.6,0.6-0.7,0.9c-2.5,7.6-3.7,11.5-6.1,19.1c-0.1,0.5-0.1,1,0.2,1.4c0.3,0.4,0.7,0.7,1.2,0.8
		c0.2,0.1,0.4,0.1,0.7,0.1c0.4,0,0.8-0.2,1.1-0.4c0.3-0.2,0.6-0.6,0.7-1c0.2-0.6,0.3-1,0.5-1.6c0.1-0.4,0.4-0.8,0.9-1.2
		c0.5-0.4,1-0.6,1.6-0.6c0.3,0,0.4,0,0.7-0.1c1.2-0.1,1.9-0.1,3.1-0.2c0.3,0,0.5,0,0.8-0.1c0.5,0,1.1,0.1,1.6,0.4
		c0.5,0.3,0.9,0.6,1.1,1c0.3,0.6,0.4,0.9,0.7,1.5c0.2,0.5,0.6,0.8,1.1,1c0.5,0.2,1.1,0.2,1.6,0c0.5-0.2,0.9-0.5,1.1-1
		C316.1,783.9,316.1,783.4,315.9,783 M308,777.4c-0.2,0.3-0.6,0.5-1.2,0.6c-0.2,0-0.4,0-0.6,0c-0.2,0-0.4,0-0.6,0
		c-0.2,0-0.3,0-0.5,0c-0.5,0-1-0.1-1.3-0.4c-0.3-0.3-0.4-0.7-0.2-1.2c0.4-1.3,0.6-2,1.1-3.3c0.1-0.2,0.1-0.2,0.1-0.4
		c0.2-0.5,0.4-0.8,0.6-0.8c0.3,0,0.5,0.2,0.7,0.7c0.7,1.4,1,2.1,1.7,3.5C308.2,776.6,308.2,777,308,777.4"/>
	<path fill="#FFFFFF" d="M340,780.9c-0.4-0.3-0.9-0.5-1.5-0.5c-1.3,0.1-2.3-0.3-2.9-1.1c0,0-0.1-0.1-0.1-0.1c0,0,0-0.1-0.1-0.1v0
		c-0.2-0.2-0.3-0.5-0.5-0.8c-0.1-0.2-0.1-0.6,0-1.1c0.1-0.5,0.4-0.9,1-1.4c1-0.8,1.8-1.7,2.3-2.8c0.6-1.1,0.8-2.3,0.8-3.5
		c0-1.1-0.3-2.1-0.8-3c-0.5-0.9-1.2-1.7-2-2.4c-0.9-0.7-1.8-1.2-3-1.6c-1.1-0.4-2.3-0.5-3.6-0.4c-3.2,0.2-4.8,0.2-8,0.4
		c-0.6,0-1.1,0.2-1.5,0.6c-0.4,0.4-0.6,0.8-0.6,1.3c0.5,7.6,0.7,11.3,1.1,18.9c0,0.5,0.3,1,0.7,1.3c0.4,0.3,0.9,0.5,1.5,0.4
		c0.6,0,1.1-0.2,1.4-0.6c0.4-0.4,0.6-0.8,0.5-1.4c-0.1-1.3-0.1-2-0.2-3.3c0-0.5,0.2-0.9,0.6-1.2c0.3-0.3,0.8-0.5,1.3-0.6
		c0.8,0,1.2-0.1,1.9-0.1c0.4,0,0.7,0,1,0.1c0.3,0.1,0.5,0.2,0.6,0.3c0.2,0.1,0.3,0.2,0.4,0.3c0.1,0.1,0.1,0.2,0.2,0.3
		c0.6,1.8,1.5,3.2,2.9,4.1c1.4,0.9,3.1,1.4,5.1,1.3c0.6,0,1.1-0.2,1.5-0.6c0.4-0.4,0.6-0.8,0.6-1.4
		C340.7,781.7,340.5,781.3,340,780.9 M326.3,774.3c-0.5,0-0.9-0.2-1.3-0.5c-0.4-0.3-0.6-0.7-0.7-1.1c-0.1-2.6-0.2-4-0.4-6.6
		c2.3-0.1,3.5-0.2,5.8-0.3c0.1,0,0.2,0,0.4,0c0.5,0,1,0.1,1.5,0.2c0.6,0.2,1.1,0.5,1.6,0.8c0.4,0.3,0.8,0.8,1.1,1.3
		c0.3,0.5,0.4,1,0.4,1.6c0,0.6-0.1,1.1-0.3,1.6c-0.2,0.5-0.5,1-1,1.4c-0.4,0.4-0.9,0.7-1.5,1c-0.6,0.2-1.2,0.4-1.8,0.4
		c-1.5,0.1-2.3,0.1-3.7,0.2C326.4,774.3,326.4,774.3,326.3,774.3"/>
	<path fill="#FFFFFF" d="M421.6,789.1c-0.2-0.5-0.6-0.8-1.1-0.9c-0.5-0.2-1-0.2-1.5,0c-1.4,0.6-2.7,1-3.9,1.4
		c-1.2,0.3-2.4,0.6-3.5,0.7c-1.1,0.1-2.2,0.2-3.3,0.2c-1.1,0-2.2-0.1-3.3-0.2c-2.4-0.3-4.5-0.9-6.4-1.7c-1.8-0.9-3.4-2-4.8-3.3
		c-1.4-1.3-2.6-2.8-3.7-4.4c-1-1.7-2-3.4-2.8-5.3c-0.6-1.4-0.9-2.2-1.4-3.6c-0.1-0.4-0.3-0.7-0.4-1c-0.1-0.2-0.1-0.2-0.2-0.4
		c-1.3-3.3-2-4.9-3.3-8.1c-0.2-0.4-0.4-0.6-0.8-0.9c-0.4-0.2-0.8-0.3-1.2-0.3c-0.5,0-0.9,0.1-1.2,0.3c-0.4,0.2-0.6,0.5-0.8,0.9
		c-3,7.4-4.5,11.2-7.5,18.6c-0.2,0.5-0.2,1,0.1,1.4c0.2,0.5,0.6,0.8,1.2,0.9c0.2,0.1,0.4,0.1,0.7,0.1c0.4,0,0.8-0.1,1.2-0.3
		c0.4-0.2,0.6-0.5,0.8-0.9c0.2-0.6,0.4-0.9,0.6-1.6c0.2-0.4,0.5-0.8,1.1-1.1c0.5-0.3,1-0.5,1.6-0.5h0.7c1.3,0,1.9,0,3.1,0
		c0.5,0,0.7,0,1.2,0c0.5,0,1,0.1,1.5,0.4c0.5,0.3,0.8,0.6,1.1,1c0.4,0.8,0.9,1.5,1.4,2.3c0.5,0.8,1,1.5,1.6,2.2
		c1.8,2.3,4,4.2,6.5,5.6c2.8,1.7,6,2.7,9.5,3.1c1.3,0.2,2.4,0.2,3.6,0.3c1.5,0,2.9,0,4.2-0.2c1.4-0.2,2.8-0.4,4.2-0.8
		c1.4-0.4,2.8-0.9,4.3-1.5c0.5-0.2,0.8-0.5,1-1C421.9,790,421.8,789.6,421.6,789.1 M382,774.9c-0.1,0.2-0.3,0.3-0.5,0.4
		c0,0,0,0-0.1,0c0,0-0.1,0-0.1,0c-0.1,0-0.1,0-0.2,0c-0.1,0-0.2,0-0.4,0h-1.6c-0.1,0-0.1,0-0.2,0c-0.1,0-0.1,0-0.2,0
		c-0.1,0-0.2,0-0.3-0.1c-0.1,0-0.1,0-0.2-0.1c0,0,0,0,0,0c-0.1,0-0.1-0.1-0.2-0.1l0,0c-0.1,0-0.1-0.1-0.2-0.2
		c-0.3-0.3-0.3-0.7-0.1-1.2c0.5-1.3,0.8-1.9,1.3-3.2c0.1-0.2,0.1-0.2,0.1-0.4c0.1-0.2,0.2-0.4,0.3-0.5c0,0,0-0.1,0.1-0.1
		c0,0,0.1-0.1,0.1-0.1c0,0,0,0,0.1,0c0,0,0.1,0,0.1,0c0,0,0.1,0,0.1,0c0,0,0,0,0.1,0c0,0,0.1,0,0.1,0c0,0,0.1,0,0.1,0.1
		c0.2,0.1,0.3,0.3,0.4,0.6c0.6,1.4,0.9,2.1,1.5,3.6C382.3,774.2,382.3,774.6,382,774.9"/>
	<path fill="#FFFFFF" d="M412.9,780.6c-0.4-0.4-0.9-0.6-1.5-0.6c-1.3,0-2.2-0.5-2.8-1.3c0,0-0.1-0.1-0.1-0.1c0,0,0-0.1-0.1-0.1v0
		c-0.2-0.2-0.3-0.5-0.4-0.8c-0.1-0.2-0.1-0.6,0-1.1c0.1-0.5,0.5-0.9,1.1-1.3c1-0.7,1.9-1.6,2.5-2.6c0.6-1,1-2.2,1-3.5
		c0-1.1-0.2-2.1-0.6-3.1c-0.4-1-1.1-1.8-1.8-2.6c-0.8-0.7-1.7-1.3-2.8-1.8c-1.1-0.4-2.3-0.7-3.5-0.7c-3.2-0.1-4.8-0.1-8-0.1
		c-0.6,0-1.1,0.2-1.5,0.5c-0.4,0.4-0.6,0.8-0.6,1.3c-0.1,7.6-0.1,11.3-0.2,18.9c0,0.5,0.2,1,0.6,1.3c0.4,0.4,0.9,0.5,1.5,0.6
		c0.6,0,1.1-0.2,1.5-0.5c0.4-0.3,0.6-0.8,0.6-1.3c0-1.3,0-2,0.1-3.3c0.1-0.5,0.3-0.9,0.6-1.2c0.4-0.3,0.8-0.5,1.3-0.5
		c0.8,0,1.2,0,1.9,0c0.4,0,0.7,0.1,1,0.1c0.3,0.1,0.5,0.2,0.6,0.3c0.2,0.1,0.3,0.2,0.3,0.3c0.1,0.1,0.1,0.2,0.1,0.3
		c0.4,1.9,1.3,3.3,2.6,4.3c1.3,1,3,1.6,5,1.6c0.6,0,1.1-0.1,1.5-0.5c0.4-0.4,0.6-0.8,0.7-1.3C413.5,781.5,413.3,781,412.9,780.6
		 M405.4,772.8c-0.6,0.2-1.2,0.3-1.8,0.3c-1.5,0-2.3,0-3.8-0.1c-0.5,0-0.9-0.2-1.3-0.6c-0.4-0.3-0.6-0.7-0.6-1.2
		c0-2.7,0.1-4,0.1-6.6c2.3,0,3.5,0.1,5.8,0.1c0.6,0,1.3,0.1,1.8,0.4c0.6,0.2,1.1,0.5,1.5,0.9c0.4,0.4,0.8,0.8,1,1.3
		c0.2,0.5,0.3,1.1,0.3,1.6c0,0.6-0.2,1.1-0.4,1.6c-0.3,0.5-0.6,0.9-1.1,1.3C406.5,772.3,406,772.6,405.4,772.8"/>
	<path fill="#FFFFFF" d="M441.5,769.7c-0.5-1.4-1.4-2.6-2.5-3.8c-1.2-1.1-2.5-2-4-2.6c-1.5-0.6-3.1-1-4.8-1.1
		c-1.7-0.1-3.4,0.1-4.9,0.6c-1.5,0.5-2.9,1.2-4.2,2.3c-1.3,1-2.2,2.2-2.9,3.5c-0.7,1.3-1,2.7-1.1,4.2c-0.1,3,1,5.7,3.4,8
		c1.2,1.1,2.5,2,3.9,2.6c1.5,0.6,3,1,4.7,1c1.7,0.1,3.3-0.1,4.8-0.6s2.9-1.2,4.2-2.2c1.3-1,2.2-2.1,2.9-3.4c0.7-1.3,1.1-2.7,1.2-4.2
		C442.3,772.5,442.1,771,441.5,769.7 M437.2,776.6c-0.5,0.9-1.1,1.6-1.9,2.2c-0.8,0.6-1.7,1.1-2.7,1.4c-1,0.3-2.1,0.5-3.3,0.4
		c-1.1-0.1-2.2-0.3-3.2-0.7c-1-0.4-1.9-1-2.6-1.7c-0.7-0.7-1.3-1.5-1.7-2.4c-0.4-0.9-0.6-1.9-0.5-2.9c0-1,0.3-2,0.8-2.9
		c0.5-0.9,1.1-1.6,1.9-2.3c0.8-0.6,1.7-1.1,2.8-1.5c1-0.3,2.1-0.5,3.3-0.4c1.2,0.1,2.3,0.3,3.3,0.7c1,0.4,1.9,1,2.6,1.7
		c0.7,0.7,1.3,1.5,1.7,2.5c0.4,0.9,0.6,1.9,0.5,2.9S437.7,775.7,437.2,776.6"/>
	<path fill="#FFFFFF" d="M450,783.9c0.1-2,0.2-3.1,0.3-5.1c0,0,0,0,0,0c0.1-1.3,0.1-2,0.2-3.4c0-0.3,0.1-0.6,0.3-0.8
		c0.2-0.2,0.3-0.3,0.5-0.3c0.2,0,0.4,0,0.7,0.1c0.2,0.1,0.4,0.3,0.6,0.6c0.7,1.1,1,1.7,1.7,2.8c0.5,0.9,0.8,1.4,1.3,2.3
		c0.2,0.3,0.4,0.5,0.7,0.7c0.3,0.2,0.6,0.3,1,0.3c0,0,0,0,0,0c0.4,0,0.7,0,1-0.2c0.3-0.1,0.6-0.3,0.8-0.6c0.7-0.9,1.1-1.4,1.8-2.3
		c0.7-0.9,1.1-1.3,1.9-2.2c0.2-0.3,0.4-0.4,0.6-0.5c0.2-0.1,0.4-0.1,0.6-0.1c0.2,0.1,0.3,0.2,0.5,0.4c0.1,0.2,0.2,0.4,0.2,0.7
		c-0.3,3.4-0.4,5.1-0.7,8.5c0,0.5,0.1,1,0.5,1.4c0.4,0.4,0.8,0.6,1.4,0.7c0.6,0,1.1-0.1,1.5-0.4c0.4-0.3,0.7-0.7,0.7-1.3
		c0.6-7.4,1-11.1,1.6-18.6c0-0.4-0.1-0.8-0.3-1.2c-0.3-0.3-0.6-0.6-1.1-0.7c-0.5-0.1-0.9-0.2-1.4-0.1c-0.4,0.1-0.8,0.3-1.1,0.7
		c-2.7,3.4-4.1,5-6.8,8.4c-0.1,0.2-0.2,0.3-0.4,0.4c-0.3,0.4-0.7,0.6-1.1,0.5c-0.4,0-0.7-0.3-1-0.7c-0.1-0.2-0.2-0.3-0.4-0.6
		c-0.2-0.3-0.3-0.5-0.4-0.8c-2-3.4-3-5.1-5-8.5c-0.2-0.4-0.6-0.6-1-0.8c-0.4-0.2-0.9-0.2-1.3-0.2c-0.5,0.1-0.9,0.3-1.2,0.6
		c-0.3,0.3-0.5,0.7-0.5,1.1c-0.5,7.4-0.7,11.2-1.2,18.6c0,0.5,0.1,1,0.5,1.4c0.4,0.4,0.9,0.6,1.4,0.6c0.6,0,1.1-0.1,1.5-0.4
		C449.8,784.8,450,784.4,450,783.9"/>
	<path fill="#FFFFFF" d="M492,787c-2.2-7.7-3.3-11.6-5.7-19.3c-0.1-0.4-0.3-0.7-0.7-0.9c-0.3-0.3-0.7-0.4-1.2-0.5s-0.9,0-1.3,0.2
		c-0.4,0.2-0.7,0.5-0.8,0.8c-3.8,7.1-5.7,10.7-9.4,17.8c-0.2,0.5-0.3,0.9-0.1,1.4c0.2,0.5,0.6,0.8,1.1,1c0.2,0.1,0.4,0.2,0.7,0.2
		c0.4,0,0.8,0,1.2-0.2c0.4-0.2,0.7-0.5,0.8-0.8c0.3-0.6,0.5-0.9,0.8-1.5c0.2-0.4,0.6-0.7,1.1-1c0.5-0.3,1.1-0.4,1.7-0.3
		c0.3,0,0.4,0,0.7,0.1c1.2,0.1,1.9,0.2,3.1,0.3c0.3,0,0.5,0,0.8,0.1c0.5,0.1,1.1,0.3,1.5,0.6c0.5,0.4,0.8,0.8,0.9,1.2
		c0.2,0.7,0.3,1,0.5,1.6c0.1,0.5,0.5,0.9,1,1.1c0.5,0.3,1,0.3,1.6,0.2c0.6-0.1,1-0.4,1.3-0.8C492.1,787.9,492.1,787.5,492,787
		 M485.2,780.1c-0.3,0.3-0.7,0.4-1.3,0.4c-0.2,0-0.4,0-0.6-0.1c-0.2,0-0.4,0-0.6-0.1c-0.2,0-0.3,0-0.5,0c-0.5,0-0.9-0.3-1.2-0.6
		c-0.2-0.4-0.2-0.8,0-1.2c0.7-1.2,1-1.8,1.6-3.1c0.1-0.1,0.1-0.2,0.2-0.4c0.2-0.5,0.5-0.7,0.8-0.6c0.3,0,0.5,0.3,0.6,0.8
		c0.4,1.5,0.7,2.2,1.1,3.7C485.5,779.4,485.5,779.8,485.2,780.1"/>
</g>
<polygon fill="#FFFFFF" points="177.4,1952.4 174.1,1952.4 174.1,2004 210.6,2004 210.6,2000.8 177.4,2000.8 "/>
<polygon fill="#FFFFFF" points="235.5,2004 243.6,2004 239.5,1994.6 "/>
<polygon fill="#FFFFFF" points="237.5,1952.4 215.1,2004 218.7,2004 239.5,1956.1 260.4,2004 263.9,2004 241.5,1952.4 "/>
<polygon fill="#FFFFFF" points="321.7,2004 329.8,2004 325.8,1994.6 "/>
<polygon fill="#FFFFFF" points="323.8,1952.4 301.4,2004 304.9,2004 325.8,1956.1 346.6,2004 350.2,2004 327.8,1952.4 "/>
<path fill="#FFFFFF" d="M386.3,1982.4l-22.5-30h-3.2v51.6h3.2v-46.1l20.4,27.2l-6,8v3.1h16.1v-3.1l-6-8l20.4-27.2v46.1h3.2v-51.6
	h-3.2L386.3,1982.4z M382.5,1993l3.9-5.2l3.9,5.2H382.5z"/>
<polygon fill="#FFFFFF" points="442.9,2004 451,2004 446.9,1994.6 "/>
<polygon fill="#FFFFFF" points="448.9,1952.4 444.9,1952.4 422.5,2004 426.1,2004 446.9,1956.1 467.8,2004 471.3,2004 449.1,1952.7 
	"/>
<path fill="#FFFFFF" d="M500.5,1952.4h-18.6v51.6h18.6c14.2,0,25.8-11.6,25.8-25.8C526.3,1964,514.7,1952.4,500.5,1952.4
	 M523,1978.2c0,12.4-10.1,22.6-22.6,22.6h-15.3v-45.1h15.3C512.9,1955.6,523,1965.8,523,1978.2"/>
<polygon fill="#FFFFFF" points="551.7,2004 559.8,2004 555.8,1994.6 "/>
<polygon fill="#FFFFFF" points="557.9,1952.7 557.8,1952.4 553.8,1952.4 531.4,2004 535,2004 555.8,1956.1 576.6,2004 580.2,2004 
	"/>
<path fill="#FFFFFF" d="M465.6,2032.4c-6.9,4.5-14.2,9.7-22.1,12.5c-2.9,1-5.9,1.2-7.9-1.5c-3.2-4.2,0.9-10.5,3.8-13.6
	c2.6-2.9,7.2-6.1,10.7-2.4c5,5.2-6.7,9.7-9.9,11.2c0,0,0,0,0,0c-0.3,0.6-0.5,1.3-0.7,2c5.2-0.7,17.9-6.9,23.1-10.9
	C464.4,2028.2,467.2,2031.3,465.6,2032.4"/>
<path fill="#FFFFFF" d="M482.3,2029.1c-3.4,2.6-6.8,5.1-10.2,7.7c2.5,2.5,5.6,4.4,8.7,5.2c2.2,0.6-1.5,4.9-3.6,4.4
	c-3.6-1-7.1-3.2-9.8-6.1c-2.4,1.8-4.8,3.7-7.3,5.5c-1.8,1.4-5.7-2.8-4.1-4.1c2.7-2,5.4-4.1,8.1-6.1c-1.3-2.6-2-5.4-1.7-8.3
	c0.2-2,5-4.9,4.8-2.1c-0.2,2.4,0.4,4.8,1.5,7c3.2-2.4,6.3-4.8,9.5-7.2C480.1,2023.6,484,2027.8,482.3,2029.1"/>
<path fill="#FFFFFF" d="M509.1,2032.1c-2,5.3-7.6,12.2-13.8,12.1c-1.1,0-2.4-1.3-3.1-2.5c-5.1,7.9-9.1,16.8-12.1,25.6
	c-0.8,2.3-5.2-1.3-4.5-3.3c4.6-13.6,9.2-27.1,13.8-40.7c0.8-2.3,5.2,1.3,4.5,3.3c-0.6,1.8-1.2,3.5-1.8,5.3c1.9-2.5,4.1-4.9,6.5-6.9
	c2.8-2.4,5.9-4.2,9.1-1.2C510.1,2025.9,510.2,2029.2,509.1,2032.1 M504.8,2027.4c-0.2,0.1-0.4,0.3-0.6,0.4c-0.5,0.4-1,0.8-1.5,1.2
	c-2.1,1.8-4,3.8-5.7,6c-1.2,1.4-2.3,2.9-3.3,4.5c4.7-0.5,9-6.3,10.7-10.2C504.6,2028.7,504.7,2028,504.8,2027.4"/>
<path fill="#FFFFFF" d="M530.3,2031.3c-0.9,0.1-1.8-0.6-2.5-1.4c-1.2,0-3.7,1.9-4.4,2.4c-1.3,1-2.5,2.1-3.6,3.3
	c-2.4,2.6-4.5,5.6-6,8.8c-1,2.3-5.3-1.4-4.5-3.3c1.9-5.2,4-10.3,5.9-15.5c0.7-1.9,3.9,0.3,4.5,2.2c4-3.1,8.3-4,11.3,1.1
	C531.7,2030,531.5,2031.2,530.3,2031.3"/>
<path fill="#FFFFFF" d="M562,2032.4c-6.9,4.5-14.2,9.7-22.1,12.5c-2.9,1-5.9,1.2-7.9-1.5c-3.2-4.2,0.9-10.5,3.8-13.6
	c2.6-2.9,7.2-6.1,10.7-2.4c5,5.2-6.7,9.7-9.9,11.2c0,0,0,0,0,0c-0.3,0.6-0.5,1.3-0.7,2c5.2-0.7,17.9-6.9,23.1-10.9
	C560.8,2028.2,563.7,2031.3,562,2032.4"/>
<path fill="#FFFFFF" d="M577.1,2032.5c-3.2,1.3-6.3,2.9-9,5.1c0.4,1.2,0.5,2.5,0.3,3.9c-0.6,4.2-4.9,9.7-9.3,6.1
	c-4.8-4-1.4-8.9,3.5-12.8c-1.2-1.5-2.7-2.8-3.6-4.6c-1.6-3.1-1-8,3.5-7.7c1.3,0.1,2.6,1.2,3.2,2.4c0.4,0.8,0.5,2.4-0.8,2.3
	c-2.8-0.2-2,3-0.9,4.3c0.4,0.5,0.8,1,1.3,1.4c4.4-2.1,8.6-3.2,10.4-3.9C577.5,2028.1,579.3,2031.6,577.1,2032.5"/>
<path fill="#FFFFFF" d="M593.8,2032.5c-3.2,1.3-6.3,2.9-9,5.1c0.4,1.2,0.5,2.5,0.3,3.9c-0.6,4.2-4.9,9.7-9.3,6.1
	c-4.8-4-1.4-8.9,3.5-12.8c-1.2-1.5-2.7-2.8-3.6-4.6c-1.6-3.1-1-8,3.5-7.7c1.3,0.1,2.6,1.2,3.2,2.4c0.4,0.8,0.5,2.4-0.8,2.3
	c-2.8-0.2-2,3-0.9,4.3c0.4,0.5,0.8,1,1.3,1.4c4.4-2.1,8.6-3.2,10.4-3.9C594.2,2028.1,596,2031.6,593.8,2032.5"/>
<path fill="#FFFFFF" d="M417.4,2030.2c-10.3,2.7-20.7,4.8-31.3,6.3c-5.3,0.8-10.6,1.4-15.9,1.8c-2.7,0.2-5.3,0.4-8,0.5
	c-2.7,0.1-5.3,0.3-8,0.3c-21.3,0.6-42.7-1.5-63.7-5.4c-20.8-3.9-41.8-6.3-62.9-7.7c-21.1-1.4-42.3-1.9-63.4-0.5
	c-0.6,0-1.1-0.4-1.1-1c0-0.6,0.4-1.1,1-1.1c10.6-1,21.2-1.3,31.9-1.4c10.6,0,21.3,0.2,31.9,0.9c10.6,0.6,21.2,1.5,31.8,2.7
	c10.6,1.2,21.1,2.6,31.6,4.6c20.8,3.8,41.8,5.6,62.9,5.3c2.6,0,5.3-0.1,7.9-0.3c2.6-0.1,5.3-0.3,7.9-0.5c5.3-0.3,10.5-0.8,15.7-1.5
	c10.5-1.3,20.9-3,31.2-5.2c0.6-0.1,1.1,0.2,1.2,0.8C418.3,2029.5,417.9,2030,417.4,2030.2"/>
<path fill="#FFFFFF" d="M187.2,2058.3v9.5h-1.4v-6.5c0-0.1,0-0.2,0-0.3c0-0.1,0-0.3,0-0.4l-3,5.6c-0.1,0.2-0.3,0.4-0.5,0.4h-0.2
	c-0.3,0-0.4-0.1-0.5-0.4l-3.1-5.6c0,0.1,0,0.3,0,0.4c0,0.1,0,0.2,0,0.4v6.5h-1.4v-9.5h1.2c0.1,0,0.2,0,0.3,0c0.1,0,0.1,0.1,0.2,0.2
	l3,5.5c0.1,0.1,0.1,0.3,0.2,0.4c0.1,0.1,0.1,0.3,0.2,0.4c0.1-0.1,0.1-0.3,0.2-0.4c0.1-0.1,0.1-0.3,0.2-0.4l3-5.5
	c0.1-0.1,0.1-0.2,0.2-0.2c0.1,0,0.2,0,0.3,0H187.2z"/>
<path fill="#FFFFFF" d="M209.3,2067.8h-1.2c-0.1,0-0.2,0-0.3-0.1c-0.1-0.1-0.1-0.2-0.2-0.3l-0.8-2.1h-4.1l-0.8,2.1
	c0,0.1-0.1,0.2-0.2,0.2c-0.1,0.1-0.2,0.1-0.3,0.1h-1.2l3.8-9.5h1.6L209.3,2067.8z M206.4,2064.2l-1.3-3.5c-0.1-0.3-0.2-0.6-0.3-1
	c0,0.2-0.1,0.4-0.2,0.6c-0.1,0.2-0.1,0.3-0.2,0.5l-1.3,3.5H206.4z"/>
<path fill="#FFFFFF" d="M229.4,2067.8h-1.4c-0.3,0-0.5-0.1-0.6-0.3l-2.2-3.2c-0.1-0.1-0.2-0.2-0.2-0.2c-0.1,0-0.2-0.1-0.4-0.1h-0.9
	v3.8h-1.5v-9.5h2.8c0.6,0,1.2,0.1,1.6,0.2c0.4,0.1,0.8,0.3,1.1,0.5c0.3,0.2,0.5,0.5,0.6,0.8c0.1,0.3,0.2,0.7,0.2,1.1
	c0,0.3,0,0.6-0.1,0.9c-0.1,0.3-0.2,0.5-0.4,0.8c-0.2,0.2-0.4,0.4-0.7,0.6c-0.3,0.2-0.6,0.3-0.9,0.4c0.2,0.1,0.4,0.3,0.5,0.5
	L229.4,2067.8z M225,2062.9c0.4,0,0.7,0,0.9-0.1c0.3-0.1,0.5-0.2,0.7-0.4c0.2-0.2,0.3-0.3,0.4-0.6c0.1-0.2,0.1-0.4,0.1-0.7
	c0-0.5-0.2-0.9-0.5-1.2c-0.3-0.3-0.9-0.4-1.6-0.4h-1.3v3.3H225z"/>
<path fill="#FFFFFF" d="M244,2062.4h0.4c0.2,0,0.3,0,0.4-0.1c0.1,0,0.2-0.1,0.3-0.2l2.9-3.4c0.1-0.1,0.2-0.2,0.3-0.3
	c0.1-0.1,0.2-0.1,0.4-0.1h1.3l-3.4,4c-0.1,0.1-0.2,0.2-0.3,0.3c-0.1,0.1-0.2,0.1-0.3,0.2c0.1,0,0.2,0.1,0.4,0.2
	c0.1,0.1,0.2,0.2,0.3,0.3l3.5,4.5h-1.3c-0.1,0-0.2,0-0.2,0c-0.1,0-0.1,0-0.2-0.1c-0.1,0-0.1-0.1-0.1-0.1c0,0-0.1-0.1-0.1-0.1l-3-3.6
	c0-0.1-0.1-0.1-0.1-0.1c0,0-0.1-0.1-0.2-0.1c-0.1,0-0.1,0-0.2-0.1c-0.1,0-0.2,0-0.3,0H244v4.2h-1.5v-9.5h1.5V2062.4z"/>
<polygon fill="#FFFFFF" points="269.1,2066.5 269.1,2067.8 263.2,2067.8 263.2,2058.3 269.1,2058.3 269.1,2059.6 264.7,2059.6 
	264.7,2062.4 268.2,2062.4 268.2,2063.6 264.7,2063.6 264.7,2066.5 "/>
<polygon fill="#FFFFFF" points="289.1,2059.6 286.2,2059.6 286.2,2067.8 284.6,2067.8 284.6,2059.6 281.7,2059.6 281.7,2058.3 
	289.1,2058.3 "/>
<rect x="316.7" y="2063.2" fill="#FFFFFF" width="3.3" height="1.2"/>
<path fill="#FFFFFF" d="M357.2,2063.1c0,0.7-0.1,1.3-0.3,1.9c-0.2,0.6-0.5,1.1-1,1.5c-0.4,0.4-0.9,0.7-1.5,1
	c-0.6,0.2-1.2,0.3-1.9,0.3h-3.6v-9.5h3.6c0.7,0,1.4,0.1,1.9,0.3c0.6,0.2,1.1,0.6,1.5,1c0.4,0.4,0.7,0.9,1,1.5
	C357.1,2061.7,357.2,2062.4,357.2,2063.1 M355.6,2063.1c0-0.5-0.1-1-0.2-1.5c-0.1-0.4-0.4-0.8-0.6-1.1c-0.3-0.3-0.6-0.5-1-0.7
	c-0.4-0.2-0.8-0.2-1.3-0.2h-2v7h2c0.5,0,0.9-0.1,1.3-0.2s0.7-0.4,1-0.7c0.3-0.3,0.5-0.7,0.6-1.1
	C355.6,2064.1,355.6,2063.6,355.6,2063.1"/>
<polygon fill="#FFFFFF" points="376.7,2066.5 376.7,2067.8 370.8,2067.8 370.8,2058.3 376.7,2058.3 376.7,2059.6 372.3,2059.6 
	372.3,2062.4 375.8,2062.4 375.8,2063.6 372.3,2063.6 372.3,2066.5 "/>
<polygon fill="#FFFFFF" points="395.7,2066.5 395.7,2067.8 390.2,2067.8 390.2,2058.3 391.7,2058.3 391.7,2066.5 "/>
<rect x="408.8" y="2058.3" fill="#FFFFFF" width="1.5" height="9.5"/>
<g>
	<path fill="#FFFFFF" d="M131.1,123.3l-7.3-21.9h-15.1v-7.5h14.9V77.4c0-13.6-3.9-23-11.8-28.8c-6-4.3-14-6.5-25.5-6.9v-7.5h-7.5
		v-7.5h14.9v-7.5H56.3v7.5h14.9v7.5h-7.5v7.5c-11.4,0.4-19.5,2.6-25.4,6.9c-8,5.8-11.9,15.2-11.9,28.8v16.6h14.9v7.5H26.2l-7.3,21.9
		h-7.4v7.5h127.1v-7.5L131.1,123.3L131.1,123.3z M33.9,77.4c0-11,2.9-18.5,8.8-22.8c5.2-3.8,13.1-5.5,24.8-5.5h3.7v-7.5h7.5v7.5h3.7
		c11.8,0,19.7,1.8,24.9,5.5c5.9,4.3,8.7,11.7,8.7,22.8v9.1H33.9V77.4z M48.8,93.9h52.3v7.5H48.8V93.9z M31.6,108.9h86.8l4.8,14.5
		H26.8L31.6,108.9z"/>
</g>
<path fill="#FFFFFF" d="M1134.4-50.2c-0.2-1.1-1.1-1.9-2.2-2c-10.8-1.3-20.8-1-29.6,0.9c-11.3,2.5-21,7.7-28.8,15.6
	c-12.2,12.2-12.2,32,0,44.2c1.2,1.2,2.4,2.2,3.7,3.2v21.9c0,1.4,1.2,2.6,2.6,2.6s2.6-1.2,2.6-2.6V14.7c4.1,1.9,8.5,2.9,13.1,2.9
	c8.4,0,16.2-3.2,22.1-9.1c9.2-9.2,7.3-21.9,6.7-29c-1-10.9-1.8-20.3,8.6-26.9C1134.1-48,1134.6-49.1,1134.4-50.2z M1077.4-32
	c9.2-9.2,21.2-14.4,35.7-15.5c-6.2,3-12.3,7.5-17.5,13c-10.3,10.9-16.5,24.8-17.9,39.6C1067.3-5,1067.1-21.8,1077.4-32L1077.4-32z
	 M1119.4-20.1c0.8,9.3,1.6,18.1-5.2,24.9c-4.9,4.9-11.4,7.6-18.4,7.6c-4.7,0-9.2-1.2-13.1-3.5c0.5-14.9,6.4-29,16.7-39.8
	c4.7-5,10.2-9.1,16-11.9c2.8-1.4,5.6-2.4,8.4-3.1c-2.1,2.6-3.4,5.6-4.2,9.1C1118.4-31.5,1118.9-25.7,1119.4-20.1L1119.4-20.1z"/>
</svg>
