<?xml version="1.0" encoding="utf-8"?>
<!-- Generator: Adobe Illustrator 18.1.0, SVG Export Plug-In . SVG Version: 6.00 Build 0)  -->
<svg version="1.1" id="Layer_1" xmlns="http://www.w3.org/2000/svg" xmlns:xlink="http://www.w3.org/1999/xlink" x="0px" y="0px"
	 viewBox="0 0 100 100" 
enableBackground="new 0 0 100 100" xml:space="preserve">
<g>
	<path fill="#4A7871" d="M62.8,68h-1.3l-0.8-1h0l0-0.1c0-0.1,0-0.1,0-0.2c0-0.2-0.1-0.5-0.1-0.7c0-0.2,0-0.4-0.1-0.7
		c0-0.2,0-0.4-0.1-0.6c0-0.5-0.1-0.9-0.2-1.4c-0.1-0.6-0.1-1.2-0.2-1.8c0-0.5-0.1-0.9-0.2-1.4c0-0.2,0-0.4-0.1-0.7
		c-0.1-0.7-0.2-1.4-0.2-2.1c0-0.2-0.1-0.5-0.1-0.7c0-0.1,0-0.2,0-0.3c0-0.2,0-0.4-0.1-0.7c0-0.2,0-0.3-0.1-0.5
		c0-0.5-0.1-0.9-0.1-1.4c0-0.2-0.1-0.5-0.1-0.7c0-0.2,0-0.4-0.1-0.6L59,51.2c0-0.2,0-0.4-0.1-0.6c0-0.2,0-0.3,0-0.5
		c0-0.2-0.1-0.4-0.1-0.7c0-0.2,0-0.4-0.1-0.6c0-0.2,0-0.4-0.1-0.7c0-0.2,0-0.5-0.1-0.7c-0.1-0.9-0.2-1.8-0.3-2.7
		c0-0.2,0-0.4-0.1-0.6c-0.1-0.7-0.2-1.4-0.2-2.1c0-0.2,0-0.4-0.1-0.7c0-0.2,0-0.4-0.1-0.6c0-0.2,0-0.4-0.1-0.7c0-0.2,0-0.4-0.1-0.7
		c0-0.2,0-0.3,0-0.5c0-0.2,0-0.4-0.1-0.6c0-0.2,0-0.4-0.1-0.5c0-0.2,0-0.4-0.1-0.5c0-0.2,0-0.4-0.1-0.6l0-0.2c0-0.2,0-0.4-0.1-0.5
		l0-0.3c-0.3-2.6-0.6-5.2-0.8-7.9c-0.2-2.1,0-1.6,0.4-3.4c0.1-0.5,0.3-0.8,0-0.9c-0.3-0.1-0.6-0.2-1-0.3c0-1.6,0-4.4,0-5.5h0
		c0,0,1.2,0.1,1.5-0.1c0,0-2.7-2.5-6-3.1h0c-0.1,0-0.3,0-0.4-0.1c0-0.1,0-0.2,0-0.3c0-0.6-0.4-1.1-0.9-1.1s-0.9,0.5-0.9,1.1
		c0,0.1,0,0.2,0,0.3c-0.3,0-0.6,0.1-0.9,0.2c0,0,0,0,0,0c-2.9,0.7-5.5,3-5.5,3c0,0,0,0,0,0c0.3,0.2,1.1,0.1,1.3,0.1l0,0.1
		c0.1,1.9,0,3.5,0,5.3c-0.5,0.1-0.9,0.2-1.1,0.4c-0.3,0.2,0.4,2,0.5,2.3c0.3,1.1-1.2,12.7-1.4,14.7c-0.1,0.7-0.1,1.4-0.2,2.1
		c-0.1,0.7-0.2,1.4-0.2,2.1c-0.5,4.6-1,9.1-1.5,13.7c-0.3,2.8-0.6,5.6-0.9,8.4h0l-0.8,1h-1.2c-0.2,0-0.4,0.2-0.4,0.4
		c0,0.2,0.2,0.4,0.4,0.4c8.4-1,17-1,25.5,0h0c0.2,0,0.4-0.2,0.4-0.4C63.2,68.2,63,68,62.8,68 M55.8,17.5L55.8,17.5
		C55.8,17.5,55.8,17.6,55.8,17.5L55.8,17.5z M55.3,23.1c-5.4-0.3-9.8,0.1-10.3,0c0-0.2,0-0.8,0.1-1c0.4-0.1,0.9-0.1,1.3-0.2
		c0.1,0,0.2-0.1,0.1-0.2c0-0.1-0.2-0.1-0.3-0.1c-0.3,0-0.7-0.1-1.1-0.1c0-0.2,0-0.5,0.1-0.7c0.4-0.1,0.9-0.1,1.3-0.2
		c0-0.1,0-0.1,0-0.2c-0.4-0.1-0.9-0.1-1.2-0.2c0.1-1.1,0.1-0.6,1-0.9c0.7-0.2-0.9-0.4-0.9-0.4c-0.1-0.1-0.1-0.8,0.1-0.9
		c1.9-0.3,5.7-0.2,7.7-0.1c0.5,0,1.1,0.1,1.6,0.1c0.1,1.2,0,0.9-1.2,0.9c-1,0-1.9,0-2.9,0.2c0.7,0.5,1.4,0.2,2.2,0.3
		c0.7,0,1.4,0.1,2,0.1c0,0.2,0,0.4,0.1,0.6c-1.2,0.1-3.3,0-4.3,0.2l-0.1,0c-0.1,0.1,0,0.2,0.1,0.2c0.4,0.1,1.1,0.1,1.5,0.1
		c0.3,0,2.9,0.1,2.9,0.1c0,0,0.1,0.6,0.1,0.6c0,0-0.9,0.1-1,0.1c-1,0.1-2.2,0.1-3.2,0.2c-0.1,0-0.5,0.2-0.2,0.2c0.1,0,0.4,0,0.5,0
		c1.2,0.1,2.6,0.1,3.9,0.2c0,0,0.2,0,0.2,0C55.3,22.1,55.2,23,55.3,23.1 M54.5,25.4c-0.2-0.1,0.1-0.5,0.2-0.2
		C54.7,25.3,54.6,25.4,54.5,25.4 M52.8,24.4c-0.1,0.3-0.4,0.1-0.2-0.1C52.8,24.2,52.9,24.1,52.8,24.4 M51.6,24.9
		c0,0.3-0.4,0.6-0.3,0.2C51.3,24.9,51.4,24.8,51.6,24.9 M51.6,24.4c-0.1,0.1-0.2,0-0.3-0.1C51.2,24.1,51.7,24.2,51.6,24.4
		 M50.5,23.6c0.5,0,0.7,0.2,0.5,0.7C50.8,24.6,49.9,23.6,50.5,23.6 M50.5,24.6c0,0.2-0.2,0.2-0.3,0.1C50,24.5,50.5,24.3,50.5,24.6
		 M49.5,24.5c-0.2,0.2-0.5,0.1-0.3-0.3C49.5,23.8,50.1,24.1,49.5,24.5 M49.4,23.6c0.1-0.1,0.2,0.2,0,0.1
		C49.3,23.7,49.4,23.6,49.4,23.6 M49.5,24.8c0.1-0.1,0.2,0,0.3,0.1C50.1,25.3,49.1,25.2,49.5,24.8 M48.5,24.7c0.1,0,0.1,0,0.2,0
		c0.2,0,0.2,0.5,0,0.5C48.6,25.2,48.1,24.8,48.5,24.7 M48.3,24.3c0.1-0.3,0.6-0.1,0.3,0.1C48.4,24.4,48.2,24.5,48.3,24.3 M48.8,23.4
		c0.2-0.1,0.2,0.1,0.2,0.3c0,0.1,0,0.1,0,0.1h0C48.6,23.7,48.3,23.6,48.8,23.4 M47.5,24.6c0.3-0.3,0.2-0.3,0.5,0
		c0.2,0.2,0.3,0.3,0.1,0.5c-0.2,0.2-0.2,0.4-0.3,0.7c-0.3-0.1-0.4-0.3-0.6-0.5l0-0.1C47.1,25,47.3,24.9,47.5,24.6 M47.6,23.4
		c0.2-0.1,0.3,0.5,0.3,0.6c0,0.1-0.5,0.2-0.6-0.4l0-0.1C47.3,23.2,47.4,23.5,47.6,23.4 M46.2,25L46.2,25c0.3-0.2,1.4,0.4,0.5,0.5
		C46.3,25.6,45.8,25.5,46.2,25 M46.4,23.4c0.2-0.2,0.4,0.2,0.3,0.4C46.4,24.1,45.7,23.8,46.4,23.4 M45.1,24.3
		c-0.2-0.1,0-0.4,0.1-0.5c0.1,0,0.3-0.2,0.4-0.1C45.7,23.7,45.9,24.7,45.1,24.3 M44.9,25.7c0-0.1,0-0.2,0.1-0.2
		c0.1-0.2,0.1-0.2,0.3-0.4C45.3,26.1,44.8,26,44.9,25.7 M45.5,24.7c0.1,0,0.1,0,0.2,0c0.1,0,0.2,0.4,0.1,0.4
		C45.7,25.1,45.1,24.7,45.5,24.7 M43.6,33.2c0.6-0.1,1.4-0.1,2-0.2c0-0.1,0-0.2,0-0.3c-0.6-0.1-1.3-0.1-1.9-0.2c0-0.3,0-0.5,0.1-0.8
		c0.5-0.1,1.1-0.1,1.6-0.2c0.2,0,0.2-0.1,0.2-0.2c0-0.1-0.3-0.1-0.4-0.1c-0.4-0.1-0.9-0.1-1.3-0.2c0-0.3,0.1-0.6,0.1-0.8
		c0.5-0.1,1.1-0.1,1.6-0.2c0-0.1,0-0.1,0-0.2c-0.5-0.1-1-0.2-1.5-0.2c0.1-1.4,0.1-0.7,1.3-1.1c0.9-0.3-1-0.4-1-0.5
		c-0.2-0.1-0.1-1,0.2-1.1c2.3-0.3,6.9-0.2,9.3-0.1c0.7,0,1.3,0.1,2,0.1c0.2,1.5,0,1-1.5,1c-1.2,0-2.3,0-3.5,0.3
		c0.8,0.6,1.6,0.3,2.7,0.3c0.8,0,1.7,0.1,2.5,0.2c0,0.2,0.1,0.5,0.1,0.7c-1.4,0.1-4,0-5.2,0.3l-0.1,0c-0.1,0.1,0,0.2,0.1,0.2
		C51.2,30,52,30,52.5,30c0.3,0,3.5,0.1,3.5,0.2c0,0,0.1,0.7,0.1,0.7c0,0.1-1.1,0.1-1.3,0.1c-1.3,0.1-2.7,0.1-3.9,0.2
		c-0.1,0-0.7,0.2-0.3,0.3c0.1,0,0.4,0,0.6,0c1.5,0.1,3.2,0.1,4.7,0.2c0,0,0.3,0,0.3,0c0,0,0.1,0.6,0.1,0.7c-1.8,0.1-3.8,0.2-5.6,0.3
		c-0.1,0-0.1,0-0.1,0.2c0,0.1,0.1,0.1,0.2,0.1c1.4,0.1,3.1,0.1,4.6,0.2c0.1,0,1,0,1.1,0.1c0,0,0.1,0.5,0.1,0.5
		c0,0.2,0.1,0.2-0.2,0.2c-4.1-0.3-8.5-0.4-12.7,0C43.5,33.7,43.5,33.4,43.6,33.2 M53.2,38.7c0.1-0.1,0.2-0.3,0.4-0.2
		C53.7,38.7,53.1,39,53.2,38.7 M53.1,36.5c-0.2-0.1,0.1-0.5,0.2-0.2C53.4,36.4,53.3,36.5,53.1,36.5 M53.7,42.4
		c0.1-0.1,0.3-0.2,0.2,0C53.9,42.7,53.4,42.7,53.7,42.4 M52.7,42.6c-0.1,0-0.3,0.2-0.3,0C52.5,42.2,53.1,42.2,52.7,42.6 M52.5,39.7
		c0.1,0,0,0.1,0,0.1C52.4,39.9,52.4,39.7,52.5,39.7 M52.7,41.5c-0.1-0.1,0-0.2,0.1-0.2C53.1,41.2,52.9,41.5,52.7,41.5 M51.4,35.4
		c-0.1,0.3-0.4,0.1-0.2-0.1C51.4,35.3,51.5,35.2,51.4,35.4 M51.4,40.3c-0.2,0.2-0.3-0.3-0.1-0.3C51.5,40.1,51.5,40.2,51.4,40.3
		 M51.5,41l0.1,0.1c0.1,0.3-0.3,0.4-0.4,0.2C51.1,41.2,51.3,40.8,51.5,41 M51.8,38.3c0,0.1-0.1,0.2-0.2,0.2
		C51.4,38.3,51.8,38.1,51.8,38.3 M51.8,42.4c0.1,0.2,0,0.3-0.2,0.4C50.8,43.2,51.4,42.1,51.8,42.4 M49.3,42.1L49.3,42.1
		c0-0.3,0.1-0.4,0.2-0.6c0.5,0.1,0.6,0.3,0.8,0.7C50.5,42.6,49.4,42.3,49.3,42.1 M49.9,42.8c0,0.1-0.1,0.2-0.2,0.1
		C49.6,42.7,50,42.6,49.9,42.8 M48.1,35.6c-0.2,0.2-0.5,0.1-0.3-0.3C48.1,34.9,48.7,35.2,48.1,35.6 M48,34.7c0.1-0.1,0.2,0.2,0,0.1
		C47.9,34.8,48,34.7,48,34.7 M48.1,35.9c0.1-0.1,0.2,0,0.3,0.1C48.7,36.4,47.7,36.3,48.1,35.9 M48.7,36.6c0,0.1-0.1,0.2-0.2,0.1
		C48.3,36.6,48.7,36.3,48.7,36.6 M48.1,37.4c-0.4,0-0.1-0.4,0-0.4C48.2,37.1,48.4,37.4,48.1,37.4 M48.2,38.1
		c0.1,0.2,0.1,0.4-0.1,0.3c-0.3-0.1-0.7-0.2-0.4-0.5l0,0l0,0C48.1,38,48.1,37.8,48.2,38.1 M47.6,39.3c0-0.2,0.2-0.3,0.3-0.4
		C48.1,39.2,48.1,39.7,47.6,39.3 M47.9,40.2c0.2,0,0.3,0.4,0.3,0.5c-0.2-0.1-0.4-0.2-0.6-0.3C47.5,40.3,47.8,40.2,47.9,40.2
		 M47.9,41.4c-0.2,0.1-0.2-0.1-0.2-0.2C47.8,40.8,48.2,41.2,47.9,41.4 M47.8,42.2c0.1-0.2,0.5-0.7,0.7-0.8c0.2-0.1,0.3,0.5,0.3,0.6
		C48.8,42.6,47.6,42.5,47.8,42.2 M48.7,42.7c0.2-0.4,0.5-0.2,0.4,0.2C49,43.1,48.6,42.9,48.7,42.7 M49.1,41.2
		c-0.3,0.2-0.2,0-0.1-0.2C49.2,40.7,49.5,40.9,49.1,41.2 M49,39.9l-0.1,0l-0.1,0c-0.4,0-0.3-0.4,0.1-0.5
		C49.5,39.3,49.3,39.8,49,39.9 M49.6,35.4c-0.2,0.3-1.1-0.7-0.5-0.7C49.6,34.7,49.8,35,49.6,35.4 M49.2,34.3c0.1-0.1,0.2,0.1,0,0.1
		C49.2,34.4,49.2,34.4,49.2,34.3 M49.3,38.8c-0.2,0-0.4,0-0.4-0.3C49,38.1,49.7,38.7,49.3,38.8 M48.9,37.4c0-0.1,0.1-0.2,0.2-0.1
		C49.4,37.5,48.9,37.7,48.9,37.4 M49.2,36.4c-0.1-0.1-0.3-0.2,0-0.3c0.3,0,0.6,0.3,0.3,0.6C49.5,36.7,49.4,36.5,49.2,36.4
		 M49.7,40.2c0,0.1-0.2,0.3-0.3,0.1C49.3,40,49.9,39.9,49.7,40.2 M49.1,35.7c0,0.2-0.2,0.2-0.3,0.1C48.6,35.6,49.1,35.4,49.1,35.7
		 M50.2,36c0,0.3-0.4,0.6-0.3,0.2C49.9,36,50,35.9,50.2,36 M50.2,35.5c-0.1,0.1-0.2,0-0.3-0.1C49.8,35.2,50.3,35.3,50.2,35.5
		 M50,37.6c0,0.1-0.1,0.1-0.1,0.1C49.8,37.5,50.1,37.4,50,37.6 M49.9,38.1c0.2,0,0.3,0.8,0,0.4C49.9,38.5,49.7,38.1,49.9,38.1
		 M50.2,41c0.1-0.3,0.7-0.3,0.6,0C50.6,41.4,50,41.7,50.2,41 M50.6,39.7c-0.2-0.1-0.3-0.3-0.1-0.4C50.9,39,51.4,39.8,50.6,39.7
		 M50.4,34.5c0-0.1,0.1,0,0.2,0C50.8,34.6,50.4,34.8,50.4,34.5 M50.9,37.1c0,0.3-0.6,0.1-0.3-0.2C50.7,36.8,50.8,37,50.9,37.1
		 M46.3,41.2c-0.2-0.1-0.3-0.1-0.2-0.2c0.1-0.1,0.2-0.3,0.3-0.4c0.2,0,0.6,0,0.8,0c0.1,0,0.1,0.4,0.1,0.5
		C47.2,41.4,46.6,41.3,46.3,41.2 M46.7,42.3c-0.2,0.2-0.4,0.3-0.6,0.1c-0.1,0,0.1-0.5,0.3-0.5l0,0C46.5,42,46.7,42.1,46.7,42.3
		 M44,38.3c0.1,0,0.1,0,0.2,0c0.1,0,0.2,0.4,0.1,0.4C44.2,38.7,43.6,38.3,44,38.3 M43.7,35.4c-0.2-0.1,0-0.4,0.1-0.5
		c0.1,0,0.3-0.2,0.4-0.1C44.4,34.8,44.6,35.8,43.7,35.4 M44.1,40.8c0.3,0.1,0.2,0.1,0.2,0.2c0,0.4-0.1,0.4-0.3,0.2
		c-0.1-0.1-0.2-0.1-0.3-0.2C43.3,40.7,43.9,40.7,44.1,40.8 M44.4,42.4c0.2,0.4,0.2,0.5-0.3,0.2c-0.1-0.1-0.1-0.1-0.2-0.2
		C44,42.2,44.3,42.2,44.4,42.4 M44.4,39.3l-0.1,0c-0.1-0.1,0.2-0.5,0.3-0.4C44.7,39.3,44.8,39.4,44.4,39.3 M44.8,36.1L44.8,36.1
		c0.3-0.2,1.4,0.4,0.5,0.5C44.9,36.7,44.4,36.6,44.8,36.1 M45,34.4c0.2-0.2,0.4,0.2,0.3,0.4C45,35.2,44.4,34.9,45,34.4 M46.1,35.7
		c0,0.1,0,0.1-0.1,0C45,35.2,46.2,35.1,46.1,35.7 M45.4,40.2l-0.2,0.1c-0.2,0-0.2-0.1-0.3-0.3c0-0.1,0.3-0.2,0.5-0.2
		c0.3,0,0.2-0.1,0.3,0.2C45.8,40.1,45.7,40.1,45.4,40.2 M45.5,41.9c-0.1,0-0.5-0.3-0.4-0.4c0,0,0.4,0,0.4,0.1
		C45.6,41.7,45.6,41.8,45.5,41.9 M44.7,37.5c0,0-0.2-0.8,0.4-0.2C45.3,37.5,44.8,37.6,44.7,37.5 M44.8,38.1c0.2-0.1,0.2,0.1,0.2,0.3
		c0,0.1,0,0.1,0,0.1h0C44.7,38.4,44.3,38.3,44.8,38.1 M44.8,40.8c0.1,0.1,0.5,0.4,0.4,0.5l-0.1,0c-0.2,0.1-0.4,0.2-0.6,0
		C44.5,41.3,44.8,40.9,44.8,40.8 M45.5,42.3c0.1,0,0.2,0.2,0.2,0.2c0.1,0.1,0.1,0.3,0.1,0.4c-0.1,0-0.8-0.2-0.8-0.4
		C45,42.6,45.2,42.2,45.5,42.3 M45.6,37.6L45.6,37.6c-0.1-0.4,0.1-0.5,0.3-0.7c0.3-0.3,0.2-0.3,0.5,0c0.2,0.2,0.3,0.3,0.1,0.5
		c-0.2,0.2-0.2,0.4-0.3,0.7C46,38,45.8,37.8,45.6,37.6 M47.2,35.5c-0.1,0-0.3,0.1-0.3-0.1C47,35.1,47.5,35.3,47.2,35.5 M47.3,37
		c0,0-0.6-0.4-0.2-0.5c0.1,0,0.1,0,0.2,0C47.4,36.5,47.4,37,47.3,37 M47.2,37.5c0,0,0.2,0.2,0.1,0.4l-0.1,0
		C46.5,38.1,47,37.4,47.2,37.5 M47.3,39.8c0,0.3-0.9,0.4-1.2-0.8l0-0.1c-0.1-0.7,0.3-0.3,0.6-0.4C47,38.4,47.3,39.6,47.3,39.8
		 M46.6,34.7c-0.4,0.1-0.2-0.4,0-0.3C46.8,34.5,46.8,34.6,46.6,34.7 M47.1,42.4c0.1-0.1,0.3,0.4,0.2,0.3
		C47.2,42.6,47,42.4,47.1,42.4 M47.3,41.8c0.1-0.1,0.2,0,0.2,0.1C47.7,42.2,47,41.9,47.3,41.8 M43.5,36.8c0-0.1,0-0.2,0.1-0.2
		c0.1-0.2,0.1-0.2,0.3-0.4C44,37.1,43.4,37.1,43.5,36.8 M43.1,38.5c0.2-0.1,0.4,0.1,0.3,0.3C43.5,38.8,43.1,38.6,43.1,38.5
		 M43.5,39.4c0,0.1,0.2,0.4,0.2,0.4c-0.1,0-0.6-0.2-0.6-0.3C42.9,39.4,43.3,39.1,43.5,39.4 M43,41.2l0,0.1c0,0.2-0.4,0.1-0.4,0
		C42.6,41.3,42.9,40.7,43,41.2 M43.1,42.3c0.2,0.4,0.2,0.4-0.2,0.2c-0.1,0-0.2-0.1-0.2-0.2C42.5,42.3,42.9,42,43.1,42.3 M41.8,49.5
		c0.7-0.1,1.7-0.1,2.4-0.2c0.1,0,0.5,0,0.4-0.2c-0.1-0.1-1.1-0.2-1.2-0.2c-0.5,0-1-0.1-1.5-0.1L42,48c0.3,0,2.6-0.2,2.7-0.3
		c0,0,0-0.2,0-0.2c-0.2-0.1-1.2-0.1-1.4-0.1c-0.4,0-0.8-0.1-1.2-0.1c0-0.3,0.1-0.5,0.1-0.8c0.2,0,2.5-0.2,2.5-0.3c0,0,0-0.2,0-0.3
		c-0.1,0-0.6,0-0.8-0.1c-0.5-0.1-1.1-0.1-1.6-0.2l0,0c0,0,0,0,0-0.1c0-0.2,0-0.5,0.1-0.7c0.6-0.1,1.6-0.1,2.2-0.2c0,0,0.2,0,0.2-0.1
		c0,0,0-0.1,0-0.2c-0.1-0.1-1.6-0.2-1.8-0.2c-0.1,0-0.3,0-0.4,0c0-0.3,0.1-0.6,0.1-0.9c5-0.2,10-0.2,14.9,0l0.1,0.9
		c-2.1,0.1-4.3,0.1-6.4,0.3c-0.1,0-0.5,0-0.5,0.1c-0.1,0.2,0.3,0.2,0.5,0.2c0.4,0,0.8,0,1.1,0c0.6,0,1.2,0.1,1.9,0.1
		c1.1,0,2.1,0.1,3.2,0.1c0.1,0,0.2,0,0.3,0l0.1,0.7c-2.1,0.1-4.4,0.1-6.5,0.2c-0.1,0-0.6,0-0.6,0.1c0,0.1,0,0.2,0.1,0.2
		c0.3,0.1,0.8,0,1.1,0.1H52c1.7,0.1,3.5,0.1,5.2,0.2l0.5,0l0.1,0.7c-0.8,0-7.2,0.2-7.4,0.3c-0.1,0,0,0.2,0,0.2c0.1,0,1,0.1,1.1,0.1
		c0.1,0,0.2,0,0.3,0c0.7,0,1.7,0.1,2.4,0.1c0.3,0,0.7,0,1,0c0.4,0,0.7,0,1.1,0c0.5,0,1.1,0,1.6,0.1l0.1,0.7c-0.4,0-0.7,0-1.1,0
		c-1.1,0-2.1,0.1-3.2,0.1c-0.4,0-3.3,0.1-3.4,0.1c-0.1,0.1,0,0.2,0.1,0.3c0.3,0.1,0.9,0,1.2,0h0l0.1,0c0.1,0,0.2,0,0.3,0
		c1.9,0.1,4.1,0.1,6,0.2l0.1,0.9c-5.5-0.4-11-0.4-16.5,0L41.8,49.5z M52.7,55.9c0.1,0,0,0.1,0,0.1C52.5,56.2,52.6,55.9,52.7,55.9
		 M52.7,52c0-0.1,0.2-0.3,0.1-0.1C52.8,52,52.7,52.1,52.7,52 M52.8,57.9c0.3-0.2,0.1,0.2-0.1,0.2C52.6,58.1,52.7,58,52.8,57.9
		 M51.4,52.1c-0.1,0.3-0.4,0.2-0.2-0.1C51.4,51.9,51.5,51.9,51.4,52.1 M51.7,56.1c0.1,0.2-0.5,0.5-0.4,0.2
		C51.4,56.1,51.5,56,51.7,56.1 M51.8,59c0.1,0.2,0,0.4-0.2,0.4C50.8,59.9,51.4,58.7,51.8,59 M51.9,58.3c0.1-0.1,0.3-0.2,0.2,0
		C52,58.6,51.5,58.6,51.9,58.3 M51.9,54c0-0.1,0.1-0.2,0.2-0.1C52.3,54.1,51.9,54.3,51.9,54 M48.5,58.7L48.5,58.7
		c0-0.3,0.1-0.4,0.2-0.6c0.5,0.1,0.6,0.3,0.8,0.7C49.8,59.2,48.6,58.9,48.5,58.7 M49.1,59.5c-0.1,0.2-0.5,0-0.4-0.2
		C48.9,58.9,49.2,59.2,49.1,59.5 M47.7,52.3c-0.2,0.2-0.5,0.1-0.3-0.3C47.6,51.6,48.3,51.9,47.7,52.3 M47.3,56
		c0-0.2,0.2-0.3,0.3-0.4C47.8,55.9,47.8,56.4,47.3,56 M47.5,52.6c0.3,0.4-0.8,0.3-0.3-0.1C47.3,52.5,47.4,52.5,47.5,52.6 M47.1,51.5
		c-0.1,0,0-0.1,0-0.1C47.2,51.2,47.2,51.5,47.1,51.5 M47.1,53.6c0.1,0.1,0.3,0.4,0,0.4C46.7,54,47,53.6,47.1,53.6 M47.3,54.7
		c0.1,0.2,0.2,0.4-0.2,0.3c-0.4-0.1-0.7-0.2-0.4-0.5l0,0l0,0C47.1,54.6,47.2,54.4,47.3,54.7 M46.9,56.8c0.2,0,0.3,0.4,0.3,0.5
		c-0.2-0.1-0.4-0.2-0.6-0.3C46.5,56.9,46.8,56.8,46.9,56.8 M46.8,58.8c0.1-0.2,0.5-0.7,0.7-0.8c0.2-0.1,0.3,0.5,0.3,0.6
		C47.9,59.3,46.6,59.2,46.8,58.8 M47.7,57.8c0-0.4,0.4,0,0.2,0.2C47.8,58.1,47.7,58,47.7,57.8 M48.3,53.7c0,0.1-0.1,0.2-0.2,0.1
		C47.9,53.7,48.3,53.4,48.3,53.7 M49.1,57.9c-0.3,0.2-0.2,0-0.1-0.2C49.2,57.3,49.5,57.6,49.1,57.9 M49.2,51c0.1-0.1,0.2,0.1,0,0.1
		C49.2,51.1,49.2,51,49.2,51 M49.1,54.1c0-0.1-0.2-0.4,0-0.4C49.2,53.6,49.3,54.4,49.1,54.1 M49.1,52.4c0,0.2-0.2,0.2-0.3,0.1
		C48.6,52.3,49.1,52.1,49.1,52.4 M48.6,55.1l-0.1,0l-0.1,0c-0.4,0-0.3-0.4,0.1-0.5C49.1,54.6,48.9,55.1,48.6,55.1 M48.7,55.9
		c-0.2,0-0.4,0-0.4-0.3C48.4,55.2,49.1,55.7,48.7,55.9 M48.4,53c-0.1-0.1-0.4-0.2,0-0.3c0.3,0,0.7,0.3,0.3,0.6
		C48.6,53.4,48.5,53.1,48.4,53 M48.8,52.1c-0.2,0.3-1.2-0.7-0.5-0.7C48.8,51.4,49,51.6,48.8,52.1 M48.2,56.5
		c0.4-0.2,0.9,0.6,0.1,0.5C48,56.9,48,56.6,48.2,56.5 M49.5,56.2c0.1-0.1,0.3,0,0.3,0.2C49.9,56.7,49.3,56.4,49.5,56.2 M49.8,59.5
		c0,0.1,0,0.1-0.1,0C49.6,59.3,49.9,59.3,49.8,59.5 M49.5,55.3c0-0.1,0.2-0.5,0.4-0.3l0.1,0.1C50.1,55.5,49.7,55.6,49.5,55.3
		 M50.2,52.7c0,0.3-0.4,0.6-0.3,0.2C49.9,52.6,50,52.6,50.2,52.7 M50.2,52.1c-0.1,0.1-0.2,0-0.3-0.1C49.8,51.8,50.3,51.9,50.2,52.1
		 M50.3,54.4c0,0.1-0.2,0.3-0.3,0.1C49.9,54.3,50.4,54.1,50.3,54.4 M50.2,57.7c0.1-0.3,0.7-0.3,0.6,0C50.6,58,50,58.3,50.2,57.7
		 M50.8,55.4c0.1,0.1,0.2,0.2,0.1,0.3C50.6,55.8,50.6,55.3,50.8,55.4 M50.7,56.6c0,0.1-0.1,0.3-0.2,0.2
		C50.3,56.6,50.8,56.3,50.7,56.6 M50.6,53.4c-0.2-0.1,0.1-0.5,0.2-0.2C50.8,53.4,50.7,53.4,50.6,53.4 M50.4,51.1
		c0-0.1,0.1-0.1,0.2,0C50.8,51.3,50.4,51.4,50.4,51.1 M50.5,58.7c0.1-0.4,0.7-0.4,0.3,0C50.7,58.8,50.5,59,50.5,58.7 M45.2,57.8
		c-0.2-0.1-0.3-0.1-0.2-0.2c0.1-0.1,0.2-0.3,0.3-0.4c0.2,0,0.7,0,0.9,0c0.1,0,0.2,0.4,0.1,0.5C46.2,58,45.5,57.9,45.2,57.8
		 M45.6,58.9c-0.2,0.2-0.4,0.3-0.7,0.1c-0.1,0,0.2-0.5,0.3-0.5l0,0C45.4,58.6,45.6,58.8,45.6,58.9 M42.4,52c-0.3-0.1,0-0.4,0.2-0.5
		c0.1,0,0.3-0.2,0.4-0.1C43.1,51.4,43.3,52.4,42.4,52 M42.9,55.3c-0.1,0-0.7-0.3-0.3-0.4c0.1,0,0.1,0,0.2,0
		C43,54.9,43,55.3,42.9,55.3 M42.5,52.8c0.1,0.9-0.5,0.9-0.4,0.6c0-0.1,0-0.2,0.1-0.2C42.3,53,42.3,53,42.5,52.8 M42.8,57.5
		c0.3,0.1,0.3,0.1,0.2,0.2c0,0.4-0.1,0.4-0.3,0.2c-0.1-0.1-0.2-0.2-0.3-0.2C41.9,57.4,42.5,57.4,42.8,57.5 M43.1,59
		c0.2,0.4,0.2,0.5-0.3,0.2c-0.1-0.1-0.2-0.1-0.2-0.2C42.7,58.9,43,58.8,43.1,59 M43.1,56l-0.1,0c-0.1-0.1,0.2-0.5,0.3-0.4
		C43.4,55.9,43.6,56,43.1,56 M43.5,52.8L43.5,52.8c0.3-0.2,1.5,0.4,0.6,0.5C43.7,53.3,43.1,53.3,43.5,52.8 M43.8,51.1
		c0.3-0.2,0.4,0.1,0.4,0.4C43.8,51.8,43.1,51.6,43.8,51.1 M45,52.3c0,0.1,0,0.1-0.1,0C43.8,51.8,45,51.8,45,52.3 M44.2,56.8L44,56.9
		c-0.2,0-0.2-0.1-0.3-0.3c-0.1-0.1,0.4-0.2,0.5-0.2c0.3,0,0.2-0.1,0.4,0.2C44.7,56.8,44.5,56.8,44.2,56.8 M44.4,58.5
		c-0.1,0-0.5-0.3-0.5-0.4c0,0,0.4,0,0.5,0.1C44.4,58.4,44.4,58.5,44.4,58.5 M43.4,54.1c0,0-0.2-0.8,0.5-0.2
		C44,54.2,43.5,54.2,43.4,54.1 M43.6,54.8c0.2-0.1,0.2,0.1,0.2,0.3c0,0.1,0,0.1,0,0.1h0C43.4,55.1,43,55,43.6,54.8 M43.6,57.5
		c0.1,0.1,0.5,0.4,0.4,0.5l-0.1,0c-0.2,0.1-0.4,0.2-0.6,0C43.2,57.9,43.5,57.5,43.6,57.5 M44.3,58.9c0.1,0,0.2,0.2,0.2,0.2
		c0.1,0.1,0.1,0.3,0.1,0.4c-0.1,0-0.9-0.2-0.8-0.4C43.8,59.2,44,58.8,44.3,58.9 M44.5,54.2L44.5,54.2c-0.1-0.4,0.1-0.5,0.3-0.8
		c0.3-0.3,0.2-0.3,0.5,0c0.2,0.2,0.3,0.3,0.1,0.5c-0.2,0.2-0.2,0.4-0.3,0.7C44.8,54.6,44.7,54.4,44.5,54.2 M46.1,52.1
		c-0.1,0-0.4,0.1-0.3-0.1C45.9,51.7,46.5,51.9,46.1,52.1 M46.2,53.6c0,0-0.6-0.4-0.2-0.5c0.1,0,0.1,0,0.2,0
		C46.4,53.1,46.4,53.6,46.2,53.6 M46.2,54.2c0,0,0.3,0.2,0.1,0.4l-0.1,0C45.4,54.8,46,54.1,46.2,54.2 M46.3,56.4
		c0,0.3-1,0.4-1.3-0.8l0-0.1c-0.1-0.7,0.3-0.3,0.6-0.4C46,55,46.2,56.2,46.3,56.4 M45.5,51.3c-0.4,0.1-0.2-0.4,0-0.3
		C45.7,51.1,45.7,51.2,45.5,51.3 M46.1,59c0.2-0.1,0.4,0.4,0.2,0.3C46.2,59.2,46,59,46.1,59 M46.3,58.4c0.1-0.1,0.2,0,0.2,0.1
		C46.7,58.8,46,58.6,46.3,58.4 M42.1,55.4c0,0.1-0.4-0.2-0.4-0.3C42,55.1,42.1,55.2,42.1,55.4 M42.1,56c0,0.1,0.2,0.4,0.2,0.4
		c-0.1,0-0.6-0.2-0.7-0.3C41.5,56,41.9,55.8,42.1,56 M41.6,57.8l0,0.1c0,0.2-0.4,0.1-0.4,0C41.2,57.9,41.5,57.3,41.6,57.8 M41.6,59
		c0.2,0.4,0.2,0.4-0.2,0.2c-0.1,0-0.2-0.1-0.3-0.2C41,58.9,41.4,58.6,41.6,59 M51.6,62.5c-0.3-0.4-0.7-0.6-1.1-0.7
		c-1.4-0.3-2.4,0.7-2.5,2v3.2h-7.9L40,66c0.4,0,0.9-0.1,1.3-0.1c0.3,0,0.5,0,0.8,0c0.2,0,1.4,0,1.4-0.2c0.1-0.2-0.2-0.2-0.3-0.2
		c-0.8-0.1-2.3-0.1-3.1-0.2l0.1-0.8h0.1c0.5,0,0.9-0.1,1.4-0.1c0.3,0,1.4,0,1.7-0.1c0.1,0,0.2-0.2,0.1-0.3c-0.1-0.1-2.8-0.2-3.1-0.2
		l0-0.2c0-0.2,0-0.4,0.1-0.7h0.1c0.3,0,2.6-0.2,2.7-0.2c0.1,0,0.2-0.2,0.1-0.3c-0.1-0.1-2.5-0.2-2.8-0.2c0-0.3,0.1-0.6,0.1-0.8
		c0.6-0.1,1.5-0.1,2.1-0.1c0.1,0,0.5,0,0.6-0.1c0.1-0.2-0.1-0.2-0.2-0.2c-0.7-0.1-1.8-0.1-2.5-0.2c0-0.3,0.1-0.5,0.1-0.8
		c6.2,0.2,12.3,0.2,18.5,0l0.1,0.8h-0.1c-0.7,0-1.4,0-2.1,0.1c-1.1,0-2.1,0.1-3.2,0.1c-0.3,0-0.6,0-0.8,0c-0.5,0-1.7,0-2.3,0
		c-0.1,0-0.7,0-0.8,0.1c-0.1,0.2,0.2,0.2,0.3,0.2c0.7,0.1,2.2,0,3,0.1c2,0.1,4.1,0.1,6.1,0.2l0.1,0.7c-0.7,0-1.4,0-2.1,0.1
		c-0.4,0-0.7,0-1.1,0c-0.7,0-1.4,0-2.1,0.1c-0.8,0-1.6,0.1-2.4,0.1C51.7,62.5,51.6,62.5,51.6,62.5 M51.8,62.8c0,0,2.2,0.1,2.4,0.1
		c1.4,0,2.8,0.1,4.2,0.1c0.4,0,0.7,0,1.1,0l0.1,0.7c-1.1,0-2.1,0.1-3.2,0.1c-1.1,0-2.1,0.1-3.2,0.1c-0.4,0-0.8,0.1-1.2,0
		c0-0.3,0-0.5-0.1-0.8C51.9,63.2,51.8,62.9,51.8,62.8 M52,64.4c0.4,0,0.9,0,1.3,0c0.7,0,1.4,0,2.1,0.1c0.4,0,0.7,0,1.1,0
		c0.7,0,1.4,0,2.1,0.1c0.4,0,0.7,0,1.1,0l0.1,0.7c-0.1,0-0.1,0-0.2,0c-1.1,0-2.1,0.1-3.2,0.1c-0.4,0-0.7,0-1.1,0
		c-0.3,0-3.3,0.1-3.3,0.1C52,65.5,52,64.5,52,64.4 M53.2,66.9c-0.3,0-0.7,0-1,0c-0.1,0-0.1,0-0.1-0.1c0-0.1,0-0.9,0-0.9
		c0,0,1.4,0,1.5,0l4.2,0.1c0.7,0,1.4,0,2.1,0.1l0.1,0.8H53.2z"/>
	<path fill="#4A7871" d="M42.4,75c-0.1-0.1-0.2-0.1-0.3-0.1C42,75,42,75,41.9,75.1l-0.7,1.1c0,0.1-0.1,0.1-0.2,0.1
		c-0.1,0-0.1,0-0.1-0.1l-0.2-0.3v0l-0.5-0.8C40.1,75,40,75,39.9,75c-0.1,0-0.2,0-0.3,0.1c-0.1,0.1-0.1,0.1-0.1,0.2
		c0,0.1,0,0.2,0.1,0.3l1,1.5c0,0,0,0,0,0.1c0,0,0,0,0,0.1c0,0.1,0,0.2,0.1,0.2c0,0.1,0,0.2,0,0.3h0v1.2c0,0.1,0,0.2,0.1,0.2
		c0.1,0.1,0.1,0.1,0.2,0.1c0.1,0,0.2,0,0.3-0.1c0.1-0.1,0.1-0.2,0.1-0.2v-1.2c0-0.1,0-0.2,0-0.3c0-0.1,0-0.2,0.1-0.2l0.1-0.1
		l0.3-0.4v0l0.7-1.1c0.1-0.1,0.1-0.2,0.1-0.3C42.5,75.1,42.5,75.1,42.4,75"/>
	<path fill="#4A7871" d="M20.4,84.6c-0.2,0-0.3,0.1-0.5,0.2c0,0,0,0-0.1,0c0,0,0,0-0.1,0c-0.3,0.3-0.7,0.5-1.3,0.5
		c-0.3,0-0.5,0-0.8-0.1c-0.3-0.1-0.5-0.2-0.7-0.3c-0.2-0.1-0.4-0.3-0.5-0.5c-0.1-0.2-0.2-0.4-0.2-0.7c-0.3-3.5-0.5-5.3-0.8-8.8
		c0-0.2-0.1-0.3-0.2-0.4c-0.1-0.1-0.3-0.2-0.4-0.2c-0.2,0-0.4,0-0.5,0.1c-0.2,0.1-0.3,0.2-0.4,0.3c-0.8,1.5-1.2,2.2-2,3.6
		c0,0.1-0.1,0.1-0.1,0.2c-0.1,0.2-0.2,0.3-0.4,0.3c-0.2,0-0.3-0.1-0.4-0.2c-0.1-0.1-0.1-0.1-0.2-0.2c-0.1-0.1-0.1-0.2-0.2-0.3
		c-1-1.2-1.5-1.7-2.5-2.9c-0.1-0.1-0.3-0.2-0.4-0.2c-0.2,0-0.3,0-0.5,0c-0.2,0.1-0.3,0.2-0.4,0.3c-0.1,0.1-0.1,0.3-0.1,0.4
		c0.3,2.8,0.5,4.3,0.8,7.1c0,0.2,0.1,0.4,0.3,0.5c0.2,0.1,0.4,0.2,0.6,0.1c0.2,0,0.4-0.1,0.5-0.3c0.1-0.2,0.2-0.3,0.2-0.5
		c-0.1-0.8-0.1-1.2-0.2-1.9c0,0,0,0,0,0c-0.1-0.5-0.1-0.8-0.1-1.3c0-0.1,0-0.2,0-0.3c0-0.1,0.1-0.1,0.2-0.2c0.1,0,0.2,0,0.3,0
		c0.1,0,0.2,0.1,0.3,0.2c0.3,0.4,0.5,0.6,0.8,1c0.3,0.3,0.4,0.5,0.6,0.8c0.1,0.1,0.2,0.2,0.3,0.2c0.1,0,0.3,0.1,0.4,0c0,0,0,0,0,0
		c0.1,0,0.3-0.1,0.4-0.1c0.1-0.1,0.2-0.2,0.3-0.3c0.2-0.4,0.3-0.6,0.5-1c0.2-0.4,0.3-0.6,0.6-1c0.1-0.1,0.1-0.2,0.2-0.2
		c0.1-0.1,0.2-0.1,0.2-0.1c0.1,0,0.1,0.1,0.2,0.1c0.1,0.1,0.1,0.1,0.1,0.3c0.2,2,0.3,2.9,0.5,4.9c0,0.4,0.2,0.8,0.4,1.2
		c0.2,0.4,0.5,0.7,0.9,1c0.3,0.3,0.7,0.5,1.2,0.6c0.4,0.1,0.9,0.2,1.4,0.1c0.5,0,0.9-0.1,1.3-0.3c0.4-0.2,0.7-0.4,1-0.7
		c0,0,0.1-0.1,0.1-0.1c0.1-0.1,0.2-0.3,0.2-0.5c0-0.2-0.1-0.4-0.3-0.5C20.8,84.6,20.6,84.6,20.4,84.6"/>
	<path fill="#4A7871" d="M25.4,81.2c-1.4-2.8-2-4.2-3.4-6.9c-0.1-0.1-0.2-0.2-0.3-0.3c-0.1-0.1-0.3-0.1-0.5-0.1
		c-0.2,0-0.3,0.1-0.5,0.2c-0.1,0.1-0.2,0.2-0.3,0.4c-1,2.9-1.4,4.4-2.4,7.4c-0.1,0.2,0,0.4,0.1,0.5c0.1,0.2,0.3,0.3,0.5,0.3
		c0.1,0,0.2,0,0.3,0c0.2,0,0.3-0.1,0.4-0.2c0.1-0.1,0.2-0.2,0.3-0.4c0.1-0.2,0.1-0.4,0.2-0.6c0.1-0.2,0.2-0.3,0.4-0.5
		c0.2-0.1,0.4-0.2,0.6-0.2c0.1,0,0.2,0,0.3,0c0.5,0,0.7-0.1,1.2-0.1c0.1,0,0.2,0,0.3,0c0.2,0,0.4,0,0.6,0.1c0.2,0.1,0.4,0.2,0.4,0.4
		c0.1,0.2,0.2,0.4,0.3,0.6c0.1,0.2,0.2,0.3,0.4,0.4c0.2,0.1,0.4,0.1,0.6,0c0.2-0.1,0.3-0.2,0.4-0.4C25.4,81.6,25.4,81.4,25.4,81.2
		 M22.3,79.1c-0.1,0.1-0.2,0.2-0.5,0.2c-0.1,0-0.1,0-0.2,0c-0.1,0-0.1,0-0.2,0c-0.1,0-0.1,0-0.2,0c-0.2,0-0.4,0-0.5-0.2
		c-0.1-0.1-0.1-0.3-0.1-0.5c0.2-0.5,0.2-0.8,0.4-1.3c0-0.1,0-0.1,0.1-0.2c0.1-0.2,0.1-0.3,0.2-0.3c0.1,0,0.2,0.1,0.3,0.3
		c0.3,0.5,0.4,0.8,0.7,1.3C22.4,78.8,22.4,79,22.3,79.1"/>
	<path fill="#4A7871" d="M34.7,80.5c-0.2-0.1-0.4-0.2-0.6-0.2c-0.5,0-0.9-0.1-1.1-0.4c0,0,0,0,0,0c0,0,0,0,0,0v0
		c-0.1-0.1-0.1-0.2-0.2-0.3c0-0.1,0-0.2,0-0.4c0-0.2,0.2-0.4,0.4-0.5c0.4-0.3,0.7-0.7,0.9-1.1c0.2-0.4,0.3-0.9,0.3-1.4
		c0-0.4-0.1-0.8-0.3-1.2c-0.2-0.4-0.5-0.7-0.8-0.9c-0.3-0.3-0.7-0.5-1.1-0.6c-0.4-0.1-0.9-0.2-1.4-0.2c-1.2,0.1-1.8,0.1-3.1,0.2
		c-0.2,0-0.4,0.1-0.6,0.2c-0.2,0.2-0.2,0.3-0.2,0.5c0.2,2.9,0.3,4.4,0.4,7.3c0,0.2,0.1,0.4,0.3,0.5c0.2,0.1,0.4,0.2,0.6,0.2
		c0.2,0,0.4-0.1,0.6-0.2c0.1-0.1,0.2-0.3,0.2-0.5c0-0.5,0-0.8-0.1-1.3c0-0.2,0.1-0.3,0.2-0.5c0.1-0.1,0.3-0.2,0.5-0.2
		c0.3,0,0.4,0,0.7,0c0.2,0,0.3,0,0.4,0c0.1,0,0.2,0.1,0.2,0.1c0.1,0,0.1,0.1,0.1,0.1c0,0,0,0.1,0.1,0.1c0.2,0.7,0.6,1.2,1.1,1.6
		c0.5,0.4,1.2,0.5,2,0.5c0.2,0,0.4-0.1,0.6-0.2c0.2-0.1,0.2-0.3,0.2-0.5C34.9,80.8,34.8,80.6,34.7,80.5 M29.4,77.9
		c-0.2,0-0.4-0.1-0.5-0.2c-0.1-0.1-0.2-0.3-0.3-0.4c-0.1-1-0.1-1.5-0.1-2.5c0.9,0,1.3-0.1,2.2-0.1c0,0,0.1,0,0.1,0
		c0.2,0,0.4,0,0.6,0.1c0.2,0.1,0.4,0.2,0.6,0.3c0.2,0.1,0.3,0.3,0.4,0.5c0.1,0.2,0.2,0.4,0.2,0.6c0,0.2,0,0.4-0.1,0.6
		c-0.1,0.2-0.2,0.4-0.4,0.5c-0.2,0.2-0.3,0.3-0.6,0.4c-0.2,0.1-0.4,0.2-0.7,0.2C30.3,77.9,30,77.9,29.4,77.9
		C29.4,77.9,29.4,77.9,29.4,77.9"/>
	<path fill="#4A7871" d="M66,83.6c-0.1-0.2-0.2-0.3-0.4-0.4c-0.2-0.1-0.4-0.1-0.6,0c-0.5,0.2-1,0.4-1.5,0.5
		c-0.5,0.1-0.9,0.2-1.4,0.3c-0.4,0.1-0.9,0.1-1.3,0.1c-0.4,0-0.8,0-1.3-0.1c-0.9-0.1-1.7-0.3-2.4-0.7c-0.7-0.3-1.3-0.8-1.9-1.3
		c-0.5-0.5-1-1.1-1.4-1.7c-0.4-0.6-0.8-1.3-1.1-2c-0.2-0.6-0.3-0.8-0.6-1.4c-0.1-0.1-0.1-0.3-0.1-0.4c0-0.1-0.1-0.1-0.1-0.1
		c-0.5-1.3-0.8-1.9-1.3-3.1c-0.1-0.1-0.2-0.2-0.3-0.3c-0.1-0.1-0.3-0.1-0.5-0.1c-0.2,0-0.3,0-0.5,0.1c-0.1,0.1-0.2,0.2-0.3,0.3
		c-1.2,2.9-1.7,4.3-2.9,7.2c-0.1,0.2-0.1,0.4,0,0.6c0.1,0.2,0.2,0.3,0.5,0.4c0.1,0,0.2,0,0.3,0c0.2,0,0.3,0,0.4-0.1
		c0.1-0.1,0.2-0.2,0.3-0.3c0.1-0.2,0.1-0.4,0.2-0.6c0.1-0.2,0.2-0.3,0.4-0.4c0.2-0.1,0.4-0.2,0.6-0.2h0.3c0.5,0,0.7,0,1.2,0
		c0.2,0,0.3,0,0.5,0c0.2,0,0.4,0.1,0.6,0.2c0.2,0.1,0.3,0.2,0.4,0.4c0.2,0.3,0.3,0.6,0.5,0.9c0.2,0.3,0.4,0.6,0.6,0.9
		c0.7,0.9,1.5,1.6,2.5,2.2c1.1,0.6,2.3,1,3.6,1.2c0.5,0.1,0.9,0.1,1.4,0.1c0.6,0,1.1,0,1.6-0.1c0.5-0.1,1.1-0.2,1.6-0.3
		c0.5-0.2,1.1-0.3,1.7-0.6c0.2-0.1,0.3-0.2,0.4-0.4C66.1,84,66.1,83.8,66,83.6 M50.8,78.2c-0.1,0.1-0.1,0.1-0.2,0.1c0,0,0,0,0,0
		c0,0,0,0-0.1,0c0,0,0,0-0.1,0c0,0-0.1,0-0.1,0h-0.6c0,0-0.1,0-0.1,0c0,0-0.1,0-0.1,0c0,0-0.1,0-0.1,0c0,0,0,0-0.1,0c0,0,0,0,0,0
		c0,0,0,0-0.1,0l0,0c0,0,0,0-0.1-0.1c-0.1-0.1-0.1-0.3,0-0.5c0.2-0.5,0.3-0.7,0.5-1.2c0-0.1,0-0.1,0.1-0.1c0-0.1,0.1-0.1,0.1-0.2
		c0,0,0,0,0,0c0,0,0,0,0,0c0,0,0,0,0,0c0,0,0,0,0,0c0,0,0,0,0,0c0,0,0,0,0,0c0,0,0,0,0,0c0,0,0,0,0,0c0.1,0,0.1,0.1,0.2,0.2
		c0.2,0.6,0.3,0.8,0.6,1.4C50.9,77.9,50.9,78,50.8,78.2"/>
	<path fill="#4A7871" d="M62.7,80.3c-0.2-0.1-0.3-0.2-0.6-0.2c-0.5,0-0.9-0.2-1.1-0.5c0,0,0,0,0-0.1c0,0,0,0,0,0v0
		c-0.1-0.1-0.1-0.2-0.2-0.3c0-0.1,0-0.2,0-0.4c0-0.2,0.2-0.3,0.4-0.5c0.4-0.3,0.7-0.6,1-1c0.2-0.4,0.4-0.8,0.4-1.3
		c0-0.4-0.1-0.8-0.2-1.2c-0.2-0.4-0.4-0.7-0.7-1c-0.3-0.3-0.7-0.5-1.1-0.7c-0.4-0.2-0.9-0.3-1.4-0.3c-1.2,0-1.8,0-3.1-0.1
		c-0.2,0-0.4,0.1-0.6,0.2c-0.2,0.1-0.2,0.3-0.2,0.5c0,2.9-0.1,4.4-0.1,7.3c0,0.2,0.1,0.4,0.2,0.5c0.2,0.1,0.3,0.2,0.6,0.2
		c0.2,0,0.4-0.1,0.6-0.2c0.2-0.1,0.2-0.3,0.2-0.5c0-0.5,0-0.8,0-1.3c0-0.2,0.1-0.3,0.2-0.4c0.1-0.1,0.3-0.2,0.5-0.2
		c0.3,0,0.4,0,0.7,0c0.2,0,0.3,0,0.4,0.1c0.1,0,0.2,0.1,0.2,0.1c0.1,0,0.1,0.1,0.1,0.1c0,0,0,0.1,0.1,0.1c0.2,0.7,0.5,1.3,1,1.7
		c0.5,0.4,1.1,0.6,1.9,0.6c0.2,0,0.4-0.1,0.6-0.2c0.2-0.1,0.2-0.3,0.3-0.5C62.9,80.7,62.8,80.5,62.7,80.3 M59.8,77.3
		c-0.2,0.1-0.5,0.1-0.7,0.1c-0.6,0-0.9,0-1.5,0c-0.2,0-0.4-0.1-0.5-0.2c-0.1-0.1-0.2-0.3-0.2-0.5c0-1,0-1.5,0-2.5c0.9,0,1.3,0,2.2,0
		c0.2,0,0.5,0.1,0.7,0.1c0.2,0.1,0.4,0.2,0.6,0.4c0.2,0.1,0.3,0.3,0.4,0.5c0.1,0.2,0.1,0.4,0.1,0.6c0,0.2-0.1,0.4-0.2,0.6
		c-0.1,0.2-0.2,0.4-0.4,0.5C60.2,77.2,60,77.3,59.8,77.3"/>
	<path fill="#4A7871" d="M73.7,76.1c-0.2-0.5-0.5-1-1-1.4c-0.4-0.4-1-0.8-1.5-1c-0.6-0.2-1.2-0.4-1.9-0.4c-0.7,0-1.3,0-1.9,0.2
		c-0.6,0.2-1.1,0.5-1.6,0.9c-0.5,0.4-0.9,0.8-1.1,1.3c-0.3,0.5-0.4,1-0.4,1.6c0,1.2,0.4,2.2,1.3,3.1c0.4,0.4,0.9,0.8,1.5,1
		c0.6,0.2,1.2,0.4,1.8,0.4c0.6,0,1.3,0,1.9-0.2c0.6-0.2,1.1-0.5,1.6-0.9c0.5-0.4,0.9-0.8,1.1-1.3c0.3-0.5,0.4-1,0.5-1.6
		C74,77.2,73.9,76.7,73.7,76.1 M72,78.8c-0.2,0.3-0.4,0.6-0.7,0.9c-0.3,0.2-0.7,0.4-1.1,0.6c-0.4,0.1-0.8,0.2-1.3,0.2
		c-0.4,0-0.8-0.1-1.2-0.3c-0.4-0.2-0.7-0.4-1-0.7c-0.3-0.3-0.5-0.6-0.7-0.9c-0.2-0.3-0.2-0.7-0.2-1.1c0-0.4,0.1-0.8,0.3-1.1
		c0.2-0.3,0.4-0.6,0.7-0.9c0.3-0.2,0.7-0.4,1.1-0.6c0.4-0.1,0.8-0.2,1.3-0.2c0.5,0,0.9,0.1,1.3,0.3c0.4,0.2,0.7,0.4,1,0.7
		c0.3,0.3,0.5,0.6,0.6,0.9c0.2,0.4,0.2,0.7,0.2,1.1C72.3,78.1,72.2,78.5,72,78.8"/>
	<path fill="#4A7871" d="M77,81.6c0.1-0.8,0.1-1.2,0.1-2c0,0,0,0,0,0c0-0.5,0.1-0.8,0.1-1.3c0-0.1,0-0.2,0.1-0.3
		c0.1-0.1,0.1-0.1,0.2-0.1c0.1,0,0.2,0,0.3,0c0.1,0,0.2,0.1,0.2,0.2c0.3,0.4,0.4,0.7,0.7,1.1c0.2,0.3,0.3,0.5,0.5,0.9
		c0.1,0.1,0.2,0.2,0.3,0.3c0.1,0.1,0.2,0.1,0.4,0.1c0,0,0,0,0,0c0.1,0,0.3,0,0.4-0.1c0.1-0.1,0.2-0.1,0.3-0.2
		c0.3-0.3,0.4-0.5,0.7-0.9c0.3-0.3,0.4-0.5,0.7-0.9c0.1-0.1,0.2-0.2,0.2-0.2c0.1,0,0.2,0,0.2,0c0.1,0,0.1,0.1,0.2,0.1
		c0.1,0.1,0.1,0.2,0.1,0.3c-0.1,1.3-0.2,2-0.3,3.3c0,0.2,0,0.4,0.2,0.5c0.1,0.1,0.3,0.2,0.5,0.3c0.2,0,0.4,0,0.6-0.2
		c0.2-0.1,0.3-0.3,0.3-0.5c0.2-2.9,0.4-4.3,0.6-7.1c0-0.2,0-0.3-0.1-0.4c-0.1-0.1-0.2-0.2-0.4-0.3c-0.2-0.1-0.4-0.1-0.5,0
		c-0.2,0-0.3,0.1-0.4,0.3c-1.1,1.3-1.6,1.9-2.6,3.2c-0.1,0.1-0.1,0.1-0.1,0.2c-0.1,0.2-0.3,0.2-0.4,0.2c-0.2,0-0.3-0.1-0.4-0.3
		c-0.1-0.1-0.1-0.1-0.1-0.2c-0.1-0.1-0.1-0.2-0.2-0.3c-0.8-1.3-1.2-2-1.9-3.3c-0.1-0.1-0.2-0.2-0.4-0.3c-0.2-0.1-0.3-0.1-0.5-0.1
		c-0.2,0-0.3,0.1-0.5,0.2c-0.1,0.1-0.2,0.3-0.2,0.4c-0.2,2.9-0.3,4.3-0.5,7.2c0,0.2,0.1,0.4,0.2,0.5c0.1,0.1,0.3,0.2,0.6,0.2
		c0.2,0,0.4,0,0.6-0.2C76.9,81.9,77,81.8,77,81.6"/>
	<path fill="#4A7871" d="M93.1,82.8c-0.8-3-1.3-4.5-2.2-7.4c0-0.1-0.1-0.3-0.3-0.4c-0.1-0.1-0.3-0.2-0.5-0.2c-0.2,0-0.3,0-0.5,0.1
		c-0.1,0.1-0.3,0.2-0.3,0.3c-1.5,2.7-2.2,4.1-3.6,6.8c-0.1,0.2-0.1,0.4,0,0.5c0.1,0.2,0.2,0.3,0.4,0.4c0.1,0,0.2,0.1,0.3,0.1
		c0.2,0,0.3,0,0.5-0.1c0.1-0.1,0.3-0.2,0.3-0.3c0.1-0.2,0.2-0.3,0.3-0.6c0.1-0.2,0.2-0.3,0.4-0.4c0.2-0.1,0.4-0.1,0.6-0.1
		c0.1,0,0.2,0,0.3,0c0.5,0,0.7,0.1,1.2,0.1c0.1,0,0.2,0,0.3,0c0.2,0,0.4,0.1,0.6,0.2c0.2,0.1,0.3,0.3,0.4,0.5
		c0.1,0.3,0.1,0.4,0.2,0.6c0.1,0.2,0.2,0.3,0.4,0.4c0.2,0.1,0.4,0.1,0.6,0.1c0.2,0,0.4-0.1,0.5-0.3C93.2,83.2,93.2,83,93.1,82.8
		 M90.5,80.1c-0.1,0.1-0.3,0.2-0.5,0.1c-0.1,0-0.1,0-0.2,0c-0.1,0-0.1,0-0.2,0c-0.1,0-0.1,0-0.2,0c-0.2,0-0.4-0.1-0.5-0.2
		c-0.1-0.1-0.1-0.3,0-0.5c0.3-0.5,0.4-0.7,0.6-1.2c0-0.1,0.1-0.1,0.1-0.1c0.1-0.2,0.2-0.3,0.3-0.2c0.1,0,0.2,0.1,0.2,0.3
		c0.2,0.6,0.3,0.9,0.4,1.4C90.6,79.9,90.6,80,90.5,80.1"/>
</g>
</svg>
