<?xml version="1.0" encoding="utf-8"?>
<!-- Generator: Adobe Illustrator 18.1.0, SVG Export Plug-In . SVG Version: 6.00 Build 0)  -->
<svg version="1.1" id="Layer_1" xmlns="http://www.w3.org/2000/svg" xmlns:xlink="http://www.w3.org/1999/xlink" x="0px" y="0px"
	 viewBox="0 0 100 100" enable-background="new 0 0 100 100" xml:space="preserve">
<g>
	<path fill="#4A7871" d="M28.5,33.3c-0.3,0.4-0.6,0.8-0.9,1.3c-2.2,3.4-3.4,7.4-3.4,11.5c0,0.2,0.1,0.3,0.1,0.4l2.3,3.4
		c0.4,0.7,1.2,0.9,2,0.7l7.7-2.1c0.8-0.2,1.3-0.9,1.3-1.6l0.1-1.8l1,1.5c0.4,0.7,1.2,0.9,2,0.7l3.1-0.8l4.3,15.9l-6.4,0h0
		c-0.3,0-0.7-0.1-0.9-0.4l-5.5-5.6c-1.6-1.6-3.9-2.2-6-1.5l-2.4,0.8c-0.8,0.2-1,1.2-0.4,1.8l10.3,10.3l-2.5,5.5
		C34,74,34,74.6,34.2,75.1h-7.3c-0.4,0-0.8,0.4-0.8,0.8s0.4,0.8,0.8,0.8H75c0.4,0,0.8-0.4,0.8-0.8s-0.4-0.8-0.8-0.8h-4.2
		c0.2-0.6,0.2-1.2-0.1-1.8l-1.6-3.6H71c0.6,0,1.1-0.5,1.1-1.1c0-1.8-0.3-3.5-1.6-4.8c-1-1-2.3-1.6-3.8-1.6l-6,0
		c-0.4,0-0.8,0.4-0.8,0.8c0,0.4,0.4,0.8,0.8,0.8h0l6,0h0c1,0,1.9,0.4,2.7,1.1c0.9,0.9,1.2,2,1.1,3.2H40.3c-0.6,0-1.2-0.3-1.7-0.7
		L28.1,57l1.7-0.6c1.5-0.5,3.3-0.1,4.4,1.1l5.5,5.6c0.5,0.5,1.3,0.9,2,0.9h0l15.3,0c0.4,0,0.8-0.4,0.8-0.8c0-0.4-0.4-0.8-0.8-0.8h0
		l-7.3,0l-4.4-16.3l3.1-0.8c0.8-0.2,1.3-0.9,1.3-1.6l0.1-1.8l1,1.5c0.4,0.7,1.2,0.9,2,0.7l7.7-2.1c0.8-0.2,1.3-0.9,1.3-1.6l0.3-4.1
		c0-0.2,0-0.3-0.1-0.4c-4.5-8-13.8-12-22.6-9.8l-0.8-2.2c-0.1-0.4-0.6-0.6-1-0.5c-0.4,0.1-0.6,0.6-0.5,1l0.8,2.1c-2,0.7-4,1.7-5.7,3
		c-0.1,0.1-0.3,0.2-0.4,0.3c-0.3,0.2-0.6,0.5-0.9,0.8c-0.3,0.3-0.4,0.8-0.1,1.1c0.3,0.3,0.8,0.4,1.1,0.1c1.2-1.1,2.6-2,4.1-2.8
		c-0.2,1.6-0.4,3.2-0.4,4.9c-0.1,2.8,0.1,5.6,0.5,8.4L25.8,45c0.2-3.9,1.5-7.7,3.9-10.8c0.3-0.3,0.2-0.8-0.1-1.1
		C29.3,32.9,28.8,32.9,28.5,33.3L28.5,33.3z M68.6,75.1c-0.3,0-0.6-0.2-0.7-0.5l-2.2-4.9h1.7l1.9,4.2c0.2,0.4,0,0.9-0.4,1
		C68.8,75.1,68.7,75.1,68.6,75.1L68.6,75.1z M51.8,69.8H64l2.4,5.3H53.2L51.8,69.8z M38.6,75.1l2.4-5.3h9.1l1.4,5.3H38.6z M38,69.1
		c0.4,0.3,0.9,0.5,1.4,0.7l-2.3,5c-0.1,0.3-0.4,0.5-0.7,0.5c-0.1,0-0.2,0-0.3-0.1c-0.4-0.2-0.6-0.6-0.4-1L38,69.1z M50.6,40
		l10.1-2.7l-0.2,3c0,0.1-0.1,0.2-0.2,0.2l-7.7,2.1c-0.1,0-0.2,0-0.3-0.1L50.6,40z M49.9,38.6c-1-2.6-2.2-5-3.7-7.3
		c-1-1.5-2.1-2.9-3.3-4.2c6.9-0.6,13.7,2.7,17.5,8.7L49.9,38.6L49.9,38.6z M38.5,43.3l10.1-2.7l-0.2,3c0,0.1-0.1,0.2-0.2,0.2
		l-7.7,2.1c-0.1,0-0.2,0-0.3-0.1L38.5,43.3z M37.8,41.8c-0.4-2.6-0.6-5.3-0.5-8c0.1-1.9,0.3-3.8,0.6-5.7c1-0.4,2-0.7,3-0.8
		c1.5,1.5,2.8,3.1,3.9,4.8c1.4,2.1,2.6,4.4,3.5,6.8L37.8,41.8L37.8,41.8z M26.3,46.5l10.1-2.7l-0.2,3c0,0.1-0.1,0.2-0.2,0.2
		l-7.7,2.1c-0.1,0-0.2,0-0.3-0.1L26.3,46.5z"/>
	<path fill="#4A7871" d="M32.4,29.4c0,0-4.1,3.5-4.8,5.1l1.5,0.6c0,0,1.5-2.6,3.9-4.2L32.4,29.4z"/>
	<polygon fill="#4A7871" points="56.4,64 62.9,64 62.2,62.4 55.4,62.4 	"/>
</g>
</svg>
