<?xml version="1.0" encoding="utf-8"?>
<!-- Generator: Adobe Illustrator 25.2.1, SVG Export Plug-In . SVG Version: 6.00 Build 0)  -->
<svg version="1.1" id="Layer_1" xmlns="http://www.w3.org/2000/svg" xmlns:xlink="http://www.w3.org/1999/xlink" x="0px" y="0px"
	 viewBox="0 0 100 100" style="enable-background:new 0 0 100 100;" xml:space="preserve">
<style type="text/css">
	.st0{fill:#4A7871;}
</style>
<g>
	<path class="st0" d="M58.9,48.2c-0.5-0.5-1.3-0.4-1.7,0.1l-4.4,5.2c-0.9-0.5-1.9-0.8-3-0.8c-0.2,0-0.3,0-0.5,0l-0.9,0.1l-8.5-19.4
		h0.9c2.5,0,4.6-2.1,4.6-4.6c0-1.5-1.3-2.8-2.9-2.8h-8.7c-1.5,0-2.9,1.3-2.9,2.8c0,2.5,2.1,4.6,4.6,4.6h1.7l2.3,5.3l-7,6.9
		c-2.5-1.7-5.5-2.6-8.8-2.6c-8.9,0-16,7.2-16,16s7.2,16,16,16c7,0,12.8-4.5,15.1-10.6l10.8,0.8c3.4,0,6.2-2.8,6.2-6.2
		c0-1.4-0.5-2.8-1.3-3.9l4.4-5.2C59.5,49.4,59.4,48.7,58.9,48.2L58.9,48.2z M35.5,30.9c-1.1,0-2.1-0.9-2.1-2.1
		c0-0.2,0.2-0.3,0.4-0.3h8.7c0.2,0,0.4,0.2,0.4,0.3c0,1.1-1,2.1-2.1,2.1H35.5z M32.8,48.8c1.5,1.4,2.7,3,3.5,5L27,54.4L32.8,48.8z
		 M23.8,72.6c-7.5,0-13.6-6.1-13.6-13.6s6.1-13.6,13.6-13.6c2.6,0,4.9,0.7,7,1.9l-7.5,7.3c-2.1,0.3-3.8,2.1-3.8,4.3
		c0,2.3,1.8,4.2,4.1,4.3l12.8,1C34.3,69.1,29.4,72.6,23.8,72.6L23.8,72.6z M25.7,59c0,1-0.9,1.9-1.9,1.9S21.9,60,21.9,59
		c0-1,0.9-1.9,1.9-1.9C24.8,57.1,25.7,57.9,25.7,59z M37.1,61.8l-9.5-0.7c0.3-0.6,0.6-1.4,0.6-2.1c0-0.7-0.2-1.5-0.6-2.1l9.5-0.7
		c0.2,0.9,0.3,1.9,0.3,2.9S37.3,60.9,37.1,61.8L37.1,61.8z M44.5,62.4L39.6,62c0.2-1,0.3-2,0.3-3s-0.1-2.1-0.3-3l4.9-0.3
		c-0.6,1-1,2.1-1,3.4S43.8,61.4,44.5,62.4z M38.9,53.5C38,51,36.5,48.8,34.5,47l6.1-5.9l5.2,11.9L38.9,53.5z M49.7,62.8
		c-2.1,0-3.8-1.7-3.8-3.8s1.7-3.8,3.8-3.8c0.5,0,1,0.1,1.4,0.3l-2.3,2.7c-0.5,0.5-0.4,1.3,0.1,1.7c0.2,0.2,0.5,0.3,0.8,0.3
		c0.3,0,0.7-0.2,0.9-0.5L53,57c0.3,0.6,0.5,1.2,0.5,1.9C53.5,61.1,51.8,62.8,49.7,62.8z"/>
	<path class="st0" d="M75.6,42.9c-1.7,0-3.3,0.2-4.8,0.7l-5.9-15.2h7c0.2,0,0.4,0.2,0.4,0.3c0,1.1-1,2.1-2.1,2.1
		c-0.7,0-1.3,0.6-1.3,1.3c0,0.7,0.6,1.3,1.3,1.3c2.5,0,4.6-2.1,4.6-4.6c0-1.5-1.3-2.8-2.9-2.8h-8.7c-0.4,0-0.8,0.2-1,0.5
		c-0.2,0.3-0.3,0.7-0.1,1.1l4,10.3L60.9,44c-0.5,0.5-0.4,1.3,0.1,1.7c0.2,0.2,0.5,0.3,0.8,0.3c0.3,0,0.7-0.2,0.9-0.5l4.2-5l1.5,3.9
		c-5.3,2.6-9,8.1-9,14.4c0,8.9,7.2,16,16,16s16-7.2,16-16S84.5,42.9,75.6,42.9z M75.6,72.6c-7.5,0-13.6-6.1-13.6-13.6
		c0-5.3,3-9.9,7.4-12.1l3.4,8.8c-1,0.8-1.6,2-1.6,3.4c0,2.4,1.9,4.3,4.3,4.3s4.3-1.9,4.3-4.3c0-2.4-1.9-4.3-4.3-4.3
		c-0.2,0-0.3,0-0.5,0L71.8,46c1.3-0.3,2.5-0.6,3.9-0.6c7.5,0,13.6,6.1,13.6,13.6S83.1,72.6,75.6,72.6L75.6,72.6z M73.8,59
		c0-1,0.9-1.9,1.9-1.9c1,0,1.9,0.9,1.9,1.9c0,1-0.9,1.9-1.9,1.9C74.6,60.8,73.8,60,73.8,59z"/>
</g>
</svg>
