<?xml version="1.0" encoding="utf-8"?>
<!-- Generator: Adobe Illustrator 18.1.0, SVG Export Plug-In . SVG Version: 6.00 Build 0)  -->
<svg version="1.1" id="Layer_1" xmlns="http://www.w3.org/2000/svg" xmlns:xlink="http://www.w3.org/1999/xlink" x="0px" y="0px"
	 viewBox="0 0 100 100" enable-background="new 0 0 100 100" xml:space="preserve">
<g>
	<path fill="#4A7871" d="M73.7,70.4l-3.1-9.2h-6.4V58h6.3v-7c0-5.7-1.6-9.7-5-12.2c-2.5-1.8-5.9-2.7-10.8-2.9v-3.2h-3.2v-3.2h6.3
		v-3.2H42.1v3.2h6.3v3.2h-3.2v3.2c-4.8,0.2-8.2,1.1-10.7,2.9c-3.4,2.4-5,6.4-5,12.2v7h6.3v3.2h-6.4l-3.1,9.2h-3.1v3.2h53.6v-3.2
		L73.7,70.4L73.7,70.4z M32.7,51c0-4.7,1.2-7.8,3.7-9.6c2.2-1.6,5.5-2.3,10.5-2.3h1.6v-3.2h3.2v3.2h1.6c5,0,8.3,0.7,10.5,2.3
		c2.5,1.8,3.7,4.9,3.7,9.6v3.8H32.7V51z M39,58H61v3.2H39V58z M31.7,64.3h36.6l2,6.1H29.7L31.7,64.3z"/>
</g>
</svg>
