<?xml version="1.0" encoding="utf-8"?>
<!-- Generator: Adobe Illustrator 18.1.0, SVG Export Plug-In . SVG Version: 6.00 Build 0)  -->
<svg version="1.1" id="Layer_1" xmlns="http://www.w3.org/2000/svg" xmlns:xlink="http://www.w3.org/1999/xlink" x="0px" y="0px"
	 viewBox="0 0 100 100" 
enableBackground="new 0 0 100 100" xml:space="preserve">
<g>
	<g>
		<path fill="#4A7871" d="M50,27.6c-12.4,0-22.4,10-22.4,22.4s10,22.4,22.4,22.4s22.4-10,22.4-22.4S62.4,27.6,50,27.6z M36,36.3
			c4.4,3.1,7,8.2,7,13.7c0,5.4-2.6,10.5-7,13.7C28.6,56.1,28.6,43.9,36,36.3z M50,69.6c-4.3,0-8.5-1.4-11.9-4.1
			c4.9-3.7,7.7-9.5,7.7-15.6c0-6.1-2.8-11.9-7.7-15.6c7-5.4,16.8-5.4,23.8,0C53.3,41,51.7,53.4,58.3,62c1,1.4,2.3,2.6,3.6,3.6
			C58.5,68.2,54.3,69.6,50,69.6z M64,63.7L64,63.7c-7.5-5.4-9.3-15.8-3.9-23.4c1.1-1.5,2.4-2.9,3.9-3.9C71.4,43.9,71.4,56.1,64,63.7
			z"/>
	</g>
</g>
</svg>
