
<svg version="1.1" id="Layer_1" xmlns="http://www.w3.org/2000/svg" xmlns:xlink="http://www.w3.org/1999/xlink" x="0px" y="0px"
	 viewBox="0 0 100 100" style="enable-background:new 0 0 100 100;" xml:space="preserve">
<style type="text/css">
	.st0{fill:#4A7871;}
</style>
<g>
	<g>
		<g>
			<path class="st0" d="M60,53c0.3,0.5-0.5,1.6-1.8,2.5c-1.3,0.9-2.7,1.3-3,0.8c-0.3-0.5,0.5-1.6,1.8-2.5C58.4,52.9,59.7,52.5,60,53
				"/>
			<path class="st0" d="M55.7,57c-0.4,0-0.7-0.1-0.9-0.4c-0.6-0.9,0.6-2.2,2-3.2c1.4-1,3.1-1.5,3.7-0.7l0,0c0.6,0.9-0.6,2.2-2,3.2
				C57.6,56.5,56.5,57,55.7,57z M59.5,53.3c-0.3,0-1.1,0.2-2.2,0.9c-1.2,0.8-1.7,1.6-1.7,1.8c0.1,0,1-0.1,2.3-1
				C59.1,54.3,59.5,53.5,59.5,53.3C59.6,53.3,59.6,53.3,59.5,53.3z"/>
		</g>
		<g>
			<path class="st0" d="M63.3,46.9c0.5,0.2,0.3,1.6-0.3,3.1c-0.7,1.5-1.7,2.4-2.2,2.2c-0.5-0.2-0.3-1.6,0.4-3.1
				C61.8,47.7,62.7,46.7,63.3,46.9"/>
			<path class="st0" d="M60.9,52.7c-0.1,0-0.3,0-0.4-0.1c-0.9-0.5-0.6-2.2,0.1-3.7c0.7-1.5,1.9-2.9,2.8-2.4l0,0
				c0.9,0.5,0.6,2.2-0.1,3.7C62.7,51.5,61.8,52.7,60.9,52.7z M63,47.4c-0.3,0.1-0.9,0.7-1.5,1.9c-0.6,1.2-0.7,2.1-0.6,2.4
				c0.3-0.1,0.9-0.7,1.5-1.9C63,48.5,63.1,47.7,63,47.4z"/>
		</g>
		<g>
			<path class="st0" d="M63,40.1c0.6,0,1.1,1.2,1.2,2.8c0.1,1.6-0.2,2.9-0.8,3c-0.6,0-1.1-1.2-1.2-2.8C62.1,41.4,62.4,40.1,63,40.1"
				/>
			<path class="st0" d="M63.4,46.4c-1,0-1.6-1.6-1.7-3.3c-0.1-1.7,0.2-3.4,1.3-3.5l0,0c0.2,0,0.4,0,0.7,0.3c0.7,0.6,1,1.9,1.1,3
				C64.9,44.6,64.5,46.3,63.4,46.4C63.5,46.4,63.4,46.4,63.4,46.4z M63,40.6c-0.2,0.2-0.4,1-0.3,2.4c0.1,1.5,0.6,2.3,0.7,2.4
				c0.1-0.1,0.4-1,0.3-2.5C63.6,41.6,63.2,40.8,63,40.6z"/>
		</g>
		<g>
			<path class="st0" d="M59,48.8c0.3,0.3-0.1,1.2-0.9,2.1c-0.8,0.9-1.7,1.4-2.1,1.1c-0.3-0.3,0.1-1.2,0.9-2.1
				C57.8,49,58.7,48.5,59,48.8"/>
			<path class="st0" d="M56.3,52.6c-0.2,0-0.4-0.1-0.6-0.2c-0.6-0.6,0-1.9,0.9-2.8c0.9-1,2.1-1.7,2.8-1.1l0,0
				c0.7,0.6-0.1,1.9-0.9,2.8C57.8,52,56.9,52.6,56.3,52.6z M58.6,49.2c-0.3,0.1-0.7,0.4-1.3,1c-0.5,0.6-0.8,1-0.9,1.3
				c0.3-0.1,0.7-0.4,1.3-1C58.2,50,58.5,49.5,58.6,49.2z"/>
		</g>
		<g>
			<path class="st0" d="M60.4,43.8c0.4,0.1,0.5,1.1,0.3,2.3c-0.3,1.2-0.8,2.1-1.2,2C59,48,58.9,47,59.1,45.8
				C59.4,44.6,60,43.7,60.4,43.8"/>
			<path class="st0" d="M59.5,48.6c-0.1,0-0.1,0-0.2,0c-0.1,0-0.4-0.1-0.5-0.4c-0.4-0.6-0.3-1.7-0.1-2.5c0.2-0.8,0.6-1.9,1.2-2.2
				c0.3-0.2,0.5-0.2,0.6-0.1c0.2,0,0.4,0.1,0.5,0.4c0.4,0.6,0.3,1.7,0.1,2.5C60.8,47.4,60.2,48.6,59.5,48.6z M60.2,44.4
				c-0.2,0.2-0.4,0.7-0.6,1.5c-0.2,0.7-0.2,1.3-0.1,1.6c0.2-0.2,0.4-0.7,0.6-1.5C60.3,45.3,60.3,44.7,60.2,44.4z"/>
		</g>
		<g>
			<path class="st0" d="M55.7,48.9c0.2,0.3-0.3,0.9-1.1,1.3c-0.8,0.5-1.5,0.6-1.7,0.4c-0.2-0.3,0.3-0.9,1.1-1.3
				C54.7,48.8,55.5,48.7,55.7,48.9"/>
			<path class="st0" d="M53.2,51.3c-0.3,0-0.6-0.1-0.8-0.4c-0.1-0.1-0.1-0.3-0.1-0.6c0.2-0.7,1.1-1.3,1.4-1.4
				c0.3-0.2,1.2-0.7,1.9-0.5c0.3,0.1,0.4,0.2,0.5,0.3c0.1,0.1,0.1,0.3,0.1,0.6c-0.2,0.7-1.1,1.3-1.4,1.4
				C54.3,51,53.7,51.3,53.2,51.3z M54.9,49.4c-0.2,0.1-0.4,0.2-0.7,0.3c-0.3,0.2-0.5,0.3-0.6,0.4c0.2-0.1,0.4-0.2,0.7-0.3
				C54.6,49.7,54.8,49.5,54.9,49.4z"/>
		</g>
		<g>
			<path class="st0" d="M57.7,45.6c0.3,0.2,0.1,0.9-0.3,1.7c-0.4,0.8-1,1.3-1.3,1.2c-0.3-0.2-0.1-0.9,0.3-1.7
				C56.8,46,57.4,45.5,57.7,45.6"/>
			<path class="st0" d="M56.2,49c-0.1,0-0.3,0-0.3-0.1c-0.1-0.1-0.3-0.2-0.4-0.5c-0.2-0.7,0.3-1.6,0.5-1.9c0.2-0.3,0.7-1.2,1.4-1.4
				c0.3-0.1,0.5,0,0.6,0.1c0.1,0.1,0.3,0.2,0.4,0.5c0.2,0.7-0.3,1.6-0.5,1.9c-0.2,0.3-0.7,1.2-1.4,1.4C56.3,49,56.3,49,56.2,49z
				 M57.2,46.4c-0.1,0.1-0.3,0.4-0.4,0.6c-0.1,0.3-0.2,0.5-0.3,0.7c0.1-0.1,0.3-0.4,0.4-0.6C57.1,46.8,57.2,46.6,57.2,46.4z"/>
		</g>
	</g>
	<path class="st0" d="M53.5,76.5h-7.7L45.5,66l-2.3-2h-0.9l-0.8-3.5c-6.6-3.1-10.8-9.8-10.8-17.1c0-10.5,8.5-19,19-19
		c10.5,0,19,8.5,19,19c0,7.3-4.2,13.9-10.7,17.1L57.1,64h-0.9l-2.3,2L53.5,76.5z M48.7,73.5h1.8l0.3-8.9l3.7-3.2l0.7-3l0.7-0.3
		c5.8-2.5,9.6-8.3,9.6-14.6c0-8.8-7.2-16-16-16c-8.8,0-16,7.2-16,16c0,6.4,3.8,12.1,9.6,14.6l0.7,0.3l0.7,3l3.7,3.2L48.7,73.5z"/>
</g>
</svg>
