<?xml version="1.0" encoding="utf-8"?>
<!-- Generator: Adobe Illustrator 18.1.0, SVG Export Plug-In . SVG Version: 6.00 Build 0)  -->
<svg version="1.1" id="Layer_1" xmlns="http://www.w3.org/2000/svg" xmlns:xlink="http://www.w3.org/1999/xlink" x="0px" y="0px"
	 viewBox="0 0 100 100" enable-background="new 0 0 100 100" xml:space="preserve">
<g>
	<g>
		<path fill="#4A7871" d="M77.2,37.8h-2.7c-0.5,0-0.9,0.1-1.4,0.3v-4.3c0-2.3-1.8-4.1-4.1-4.1h-2.7c-2.3,0-4.1,1.8-4.1,4.1v9.5H37.8
			v-9.5c0-2.3-1.8-4.1-4.1-4.1h-2.7c-2.3,0-4.1,1.8-4.1,4.1V38c-0.4-0.2-0.9-0.3-1.4-0.3h-2.7c-2.3,0-4.1,1.8-4.1,4.1v16.3
			c0,2.3,1.8,4.1,4.1,4.1h2.7c0.5,0,0.9-0.1,1.4-0.3v4.3c0,2.3,1.8,4.1,4.1,4.1h2.7c2.3,0,4.1-1.8,4.1-4.1v-9.5h24.5v9.5
			c0,2.3,1.8,4.1,4.1,4.1h2.7c2.3,0,4.1-1.8,4.1-4.1V62c0.4,0.2,0.9,0.3,1.4,0.3h2.7c2.3,0,4.1-1.8,4.1-4.1V41.8
			C81.3,39.6,79.5,37.8,77.2,37.8z M26.9,58.2c0,0.7-0.6,1.4-1.4,1.4h-2.7c-0.7,0-1.4-0.6-1.4-1.4V41.8c0-0.7,0.6-1.4,1.4-1.4h2.7
			c0.7,0,1.4,0.6,1.4,1.4V58.2z M35,66.3c0,0.7-0.6,1.4-1.4,1.4h-2.7c-0.7,0-1.4-0.6-1.4-1.4v-8.2V41.8v-8.2c0-0.7,0.6-1.4,1.4-1.4
			h2.7c0.7,0,1.4,0.6,1.4,1.4V66.3z M62.2,54.1H37.8v-8.2h24.5V54.1z M70.4,41.8v16.3v8.2c0,0.7-0.6,1.4-1.4,1.4h-2.7
			c-0.7,0-1.4-0.6-1.4-1.4V33.7c0-0.7,0.6-1.4,1.4-1.4h2.7c0.7,0,1.4,0.6,1.4,1.4V41.8z M78.6,58.2c0,0.7-0.6,1.4-1.4,1.4h-2.7
			c-0.7,0-1.4-0.6-1.4-1.4V41.8c0-0.7,0.6-1.4,1.4-1.4h2.7c0.7,0,1.4,0.6,1.4,1.4V58.2z"/>
	</g>
</g>
</svg>
