<?xml version="1.0" encoding="utf-8"?>
<!-- Generator: Adobe Illustrator 18.1.0, SVG Export Plug-In . SVG Version: 6.00 Build 0)  -->
<svg version="1.1" id="Layer_1" xmlns="http://www.w3.org/2000/svg" xmlns:xlink="http://www.w3.org/1999/xlink" x="0px" y="0px"
	 viewBox="0 0 100 100" enable-background="new 0 0 100 100" xml:space="preserve">
<g>
	<g>
		<path fill="#4A7871" d="M58.1,38.2c-2.3-2.2-5.4-3.4-8.6-3.3c-6.2,0.2-11.2,5.5-11.2,11.7c0,2.7,1,5.4,2.7,7.5
			c2.5,3,3.9,6.9,3.9,10.8c0,0-0.3,1.8,1,1.8H54c1.3,0,1-1.8,1-1.8c0-3.9,1.4-7.7,4.1-11c1.7-2.1,2.5-4.6,2.5-7.3
			C61.7,43.5,60.4,40.4,58.1,38.2L58.1,38.2z M57.6,52.7c-2.9,3.7-4.5,7.8-4.5,12.1H47c-0.1-4.3-1.6-8.5-4.4-11.9
			c-1.4-1.7-2.2-3.9-2.2-6.2c0-5.1,4.2-9.4,9.3-9.6c2.7-0.1,5.2,0.9,7.1,2.7c1.9,1.8,3,4.3,3,7C59.7,48.9,58.9,50.9,57.6,52.7z"/>
		<path fill="#4A7871" d="M63.5,31.5c-0.4-0.4-1.1-0.4-1.4,0L59.5,34c-0.4,0.4-0.4,1.1,0,1.4s1.1,0.4,1.4,0l2.5-2.5
			C63.9,32.6,63.9,31.9,63.5,31.5z"/>
		<path fill="#4A7871" d="M54.1,68.2h-8.2c-0.6,0-1,0.5-1,1c0,0.6,0.5,1,1,1h8.2c0.6,0,1-0.5,1-1S54.6,68.2,54.1,68.2z"/>
		<path fill="#4A7871" d="M52.5,72h-5.1c-0.6,0-1,0.5-1,1c0,0.6,0.5,1,1,1h5.1c0.6,0,1-0.5,1-1C53.6,72.5,53.1,72,52.5,72z"/>
		<path fill="#4A7871" d="M50,31.5c0.6,0,1-0.5,1-1V27c0-0.6-0.5-1-1-1s-1,0.5-1,1v3.5C49,31,49.4,31.5,50,31.5z"/>
		<path fill="#4A7871" d="M40.5,35.5c0.4-0.4,0.4-1.1,0-1.4L38,31.5c-0.4-0.4-1.1-0.4-1.4,0c-0.4,0.4-0.4,1.1,0,1.4l2.5,2.5
			C39.4,35.9,40.1,35.9,40.5,35.5z"/>
		<path fill="#4A7871" d="M68,44h-3.5c-0.6,0-1,0.5-1,1c0,0.6,0.5,1,1,1H68c0.6,0,1-0.5,1-1C69.1,44.4,68.6,44,68,44z"/>
		<path fill="#4A7871" d="M35.5,44H32c-0.6,0-1,0.5-1,1c0,0.6,0.5,1,1,1h3.5c0.6,0,1-0.5,1-1C36.5,44.4,36.1,44,35.5,44z"/>
	</g>
</g>
</svg>
