<?xml version="1.0" encoding="utf-8"?>
<!-- Generator: Adobe Illustrator 25.2.1, SVG Export Plug-In . SVG Version: 6.00 Build 0)  -->
<svg version="1.1" id="Layer_1" xmlns="http://www.w3.org/2000/svg" xmlns:xlink="http://www.w3.org/1999/xlink" x="0px" y="0px"
	 viewBox="0 0 100 100" style="enable-background:new 0 0 100 100;" xml:space="preserve">
<style type="text/css">
	.st0{fill:#4A7871;}
</style>
<g>
	<path class="st0" d="M73.7,71.1c-1.7,0-2.5-0.4-3.4-0.9c-0.4-0.2-0.8-0.4-1.3-0.6L74.1,56c0.4-1.1,0.3-2.3-0.2-3.3s-1.5-1.8-2.6-2
		l-3.6-0.9V39c0-2.2-1.8-4.1-4.1-4.1h-7.1v-4c0-3.2-2.6-5.7-5.7-5.7h-4c-3.2,0-5.7,2.6-5.7,5.7v4h-7.1c-2.2,0-4.1,1.8-4.1,4.1v10.7
		l-3.6,0.9c-1.1,0.3-2,1-2.6,2c-0.5,1-0.6,2.2-0.2,3.3L29,69.6c-0.5,0.2-0.9,0.4-1.3,0.6c-1,0.5-1.7,0.9-3.4,0.9
		c-0.8,0-1.5,0.7-1.5,1.5s0.7,1.5,1.5,1.5c2.4,0,3.7-0.6,4.8-1.2c1-0.5,1.7-0.9,3.4-0.9S35,72.5,36,73c1.1,0.6,2.4,1.2,4.8,1.2
		c2.4,0,3.7-0.6,4.8-1.2c1-0.5,1.7-0.9,3.4-0.9s2.5,0.4,3.4,0.9c1.1,0.6,2.4,1.2,4.8,1.2s3.7-0.6,4.8-1.2c1-0.5,1.7-0.9,3.4-0.9
		c1.7,0,2.5,0.4,3.4,0.9c1.1,0.6,2.4,1.2,4.8,1.2c0.8,0,1.5-0.7,1.5-1.5S74.5,71.1,73.7,71.1L73.7,71.1z M44.4,31
		c0-1.5,1.2-2.7,2.7-2.7h4c1.5,0,2.7,1.2,2.7,2.7v4h-9.3V31z M33.2,39c0-0.6,0.5-1,1-1h29.5c0.6,0,1,0.5,1,1v9.9l-15.4-4
		c-0.3-0.1-0.5-0.1-0.8,0l-15.4,4L33.2,39L33.2,39z M60.6,70.2c-1,0.5-1.7,0.9-3.4,0.9s-2.5-0.4-3.4-0.9C52.7,69.6,51.4,69,49,69
		c-2.4,0-3.7,0.6-4.8,1.2c-1,0.5-1.7,0.9-3.4,0.9c-1.7,0-2.5-0.4-3.4-0.9c-1.1-0.6-2.4-1.2-4.8-1.2c-0.1,0-0.3,0-0.4,0l-5.4-14.2
		c-0.1-0.3,0-0.6,0-0.8s0.2-0.4,0.6-0.5L49,48l21.6,5.7c0.4,0.1,0.5,0.3,0.6,0.5s0.2,0.4,0,0.8L65.9,69c-0.1,0-0.3,0-0.4,0
		C63,69,61.8,69.6,60.6,70.2L60.6,70.2z"/>
	<path class="st0" d="M63.2,55.8l-13.8-3.6c-0.3-0.1-0.5-0.1-0.8,0l-13.8,3.6c-0.8,0.2-1.3,1.1-1.1,1.9c0.2,0.8,1.1,1.3,1.9,1.1
		L49,55.3l13.4,3.5c0.1,0,0.3,0.1,0.4,0.1c0.7,0,1.3-0.5,1.5-1.1C64.5,56.9,64,56,63.2,55.8L63.2,55.8z"/>
</g>
</svg>
