<?xml version="1.0" encoding="utf-8"?>
<!-- Generator: Adobe Illustrator 18.1.0, SVG Export Plug-In . SVG Version: 6.00 Build 0)  -->
<svg version="1.1" id="Layer_1" xmlns="http://www.w3.org/2000/svg" xmlns:xlink="http://www.w3.org/1999/xlink" x="0px" y="0px"
	 viewBox="0 0 612 792" 
enableBackground="new 0 0 612 792" xml:space="preserve">
<g>
	<path fill="#4A7871" d="M436.9,431.8c-4.1-1.4-8.2-3.6-11.3-6.8c4.5-3.2,8.6-6.8,13.2-10c2.3-1.8-3.2-6.8-5.4-4.5
		c-4.1,2.7-8.2,5.9-12.2,9.1c-1.4-2.7-2.3-5.9-1.8-9.1c0-3.6-6.4,0-6.4,2.7c-0.1,0.8-0.1,1.6-0.1,2.3c-6.4,5-22.6,13.1-29.4,14
		c0.5-0.9,0.5-1.8,0.9-2.7c4.1-2.3,19.1-7.7,12.7-14.5c-4.5-4.5-10.4-0.5-13.6,3.2c-3.6,4.1-9.1,12.2-5,17.7c2.3,3.2,6.4,3.2,10,1.8
		c9.3-2.8,17.5-8.5,25.6-13.9c0.3,0.9,0.7,1.7,1.2,2.5c-3.6,2.7-6.8,5-10.4,7.7c-1.8,1.8,3.2,7.3,5.4,5.4c3.2-2.7,6.4-5,9.5-7.3
		c3.6,3.6,8.2,6.4,12.7,7.7C435.1,438.2,439.6,432.7,436.9,431.8z"/>
	<path fill="#4A7871" d="M471.4,407.3c-4.1-3.6-8.2-1.4-11.8,1.8c-2.7,2.7-5.4,5.9-8.2,9.1c0.9-2.3,1.4-4.5,2.3-6.8
		c0.9-2.3-5-6.8-5.9-4.1c-5.9,17.2-11.8,34.9-17.7,52.2c-0.9,2.3,5,6.8,5.9,4.1c3.6-11.3,8.6-22.7,15.4-32.7
		c0.9,1.4,2.7,3.2,4.1,3.2c7.7,0,15-8.6,17.7-15.4C474.5,415.1,474.1,411,471.4,407.3z M466.8,415.1c-1.8,5-7.7,12.7-13.6,13.2
		c1.4-2.3,2.7-4.1,4.1-5.9c2.3-2.7,4.5-5.4,7.3-7.7c0.5-0.5,1.4-0.9,1.8-1.4c0.5,0,0.5-0.5,0.9-0.5
		C467.3,413.7,467.3,414.6,466.8,415.1z"/>
	<path fill="#4A7871" d="M501.3,414.6c-4.1-6.4-9.5-5.4-14.5-1.4c-0.9-2.3-5-5-5.9-2.7c-2.7,6.8-5,13.2-7.7,20
		c-0.9,2.3,4.5,6.8,5.9,4.1c1.8-4.1,4.5-8.2,7.7-11.3c1.4-1.4,2.7-2.7,4.5-4.1c0.5-0.9,4.1-3.2,5.4-3.2c0.9,0.9,1.8,1.8,3.2,1.8
		C501.8,417.8,501.8,416.4,501.3,414.6z"/>
	<path fill="#4A7871" d="M580.2,414.6c-2.7,0.9-8.2,2.3-13.6,5c-0.9-0.5-1.4-1.4-1.8-1.8c-1.4-1.4-2.3-5.9,1.4-5.4
		c1.4,0.5,1.4-1.8,0.9-2.7c-0.9-1.8-2.3-3.2-4.1-3.2c-5.2-0.4-6.2,4.5-5.1,8.5c-2.9,0.9-7.8,2.2-12.6,4.7c-0.9-0.5-1.4-1.4-1.8-1.8
		c-1.4-1.4-2.3-5.9,1.4-5.4c1.4,0.5,1.4-1.8,0.9-2.7c-0.9-1.8-2.3-3.2-4.1-3.2c-5.5-0.4-6.2,5-4.9,9c0,0-0.1,0-0.1,0
		c-6.4,5-22.7,13.2-29.5,14.1c0.5-0.9,0.5-1.8,0.9-2.7c4.1-2.3,19.1-7.7,12.7-14.5c-4.5-4.5-10.4-0.5-13.6,3.2
		c-3.6,4.1-9.1,12.2-5,17.7c2.3,3.2,6.4,3.2,10,1.8c10-3,18.7-9.4,27.4-15.1c0.7,0.8,1.5,1.6,2.1,2.4c-6.4,5-10.4,11.3-4.5,16.3
		c5.4,5,10.9-2.3,11.8-7.7c0-1.8,0-3.6-0.5-5c3.6-2.7,7.7-4.5,11.8-6.4c0.1,0,0.1-0.1,0.2-0.1c0.9,1,1.8,1.9,2.5,2.9
		c-6.4,5-10.4,11.3-4.5,16.3c5.4,5,10.9-2.3,11.8-7.7c0-1.8,0-3.6-0.5-5c3.6-2.7,7.7-4.5,11.8-6.4
		C584.3,418.2,582.1,413.7,580.2,414.6z"/>
	<path fill="#4A7871" d="M355.7,415.1c-0.5-0.5-0.9-0.9-1.8-0.9c-13.2,2.7-26.3,5-39.9,6.8c-6.8,0.9-13.6,1.4-20.4,1.8
		c-3.2,0-6.8,0.5-10,0.5c-3.2,0.5-6.8,0.5-10,0.5c-27.2,0.5-54-1.8-80.8-6.8c-13.2-2.7-26.8-4.5-40.4-5.9
		c-13.6-1.8-27.2-2.7-40.8-3.6c-13.6-0.5-27.2-0.9-40.8-0.9c-13.6,0-27.2,0.5-40.8,1.8c-0.9,0-1.4,0.5-1.4,1.4s0.5,1.4,1.4,1.4
		c26.8-1.8,54-1.4,81.2,0.5c27.2,1.8,54,5,80.8,10c26.8,5,54.4,7.7,81.7,6.8c3.6,0,6.8-0.5,10.4-0.5c3.6-0.5,6.8-0.5,10.4-0.9
		c6.8-0.5,13.6-1.4,20.4-2.3c13.6-1.8,27.2-4.5,40.4-8.2C356.1,416.4,356.6,415.5,355.7,415.1z"/>
	<path fill="#4A7871" d="M43.1,383.6h46.7c0.4,0,0.8-0.3,0.8-0.8v-4.1c0-0.4-0.3-0.8-0.8-0.8H47.9v-61.4c0-0.4-0.3-0.8-0.8-0.8h-4.1
		c-0.4,0-0.8,0.3-0.8,0.8v66.2C42.3,383.3,42.7,383.6,43.1,383.6z"/>
	<polygon fill="#4A7871" points="132,382.8 127,371 121.6,382.8 	"/>
	<path fill="#4A7871" d="M95.7,383.6h4.5c0.3,0,0.6-0.2,0.7-0.5L127,323l26.1,60.1c0.1,0.3,0.4,0.5,0.7,0.5h4.5
		c0.3,0,0.5-0.1,0.6-0.3c0.1-0.2,0.2-0.5,0.1-0.7l-29-66.2c-0.1-0.3-0.4-0.4-0.7-0.4h-5c-0.3,0-0.6,0.2-0.7,0.5L95,382.5
		c-0.1,0.2-0.1,0.5,0.1,0.7S95.5,383.6,95.7,383.6z"/>
	<polygon fill="#4A7871" points="242.7,382.8 237.7,371 232.3,382.8 	"/>
	<path fill="#4A7871" d="M206.4,383.6h4.5c0.3,0,0.6-0.2,0.7-0.5l26.1-60.1l26.1,60.1c0.1,0.3,0.4,0.5,0.7,0.5h4.5
		c0.3,0,0.5-0.1,0.6-0.3c0.1-0.2,0.2-0.5,0.1-0.7l-29-66.2c-0.1-0.3-0.4-0.4-0.7-0.4h-5c-0.3,0-0.6,0.2-0.7,0.5l-28.6,66.2
		c-0.1,0.2-0.1,0.5,0.1,0.7S206.2,383.6,206.4,383.6z"/>
	<path fill="#4A7871" d="M282.2,383.6h4.1c0.4,0,0.8-0.3,0.8-0.8v-57.2l24.6,32.7l-7.4,10c-0.1,0.1-0.1,0.3-0.1,0.4v4.1
		c0,0.4,0.3,0.8,0.8,0.8h20.9c0.4,0,0.8-0.3,0.8-0.8v-4.1c0-0.2-0.1-0.3-0.1-0.4l-7.4-10l24.6-32.7v57.2c0,0.4,0.3,0.8,0.8,0.8h4.1
		c0.4,0,0.8-0.3,0.8-0.8v-66.2c0-0.4-0.3-0.8-0.8-0.8h-4.1c-0.2,0-0.5,0.1-0.6,0.3l-28.4,37.8l-28.4-37.8c-0.1-0.2-0.4-0.3-0.6-0.3
		h-4.1c-0.4,0-0.8,0.3-0.8,0.8v66.2C281.4,383.3,281.8,383.6,282.2,383.6z M311.8,368l3.5-4.8l3.5,4.8H311.8z"/>
	<polygon fill="#4A7871" points="398.3,382.8 393.3,371 387.9,382.8 	"/>
	<path fill="#4A7871" d="M419.4,383.1c0.1,0.3,0.4,0.5,0.7,0.5h4.5c0.3,0,0.5-0.1,0.6-0.3s0.2-0.5,0.1-0.7l-28.6-65.8
		c0-0.1-0.1-0.2-0.2-0.2l-0.5-0.5c-0.1-0.1-0.3-0.2-0.5-0.2h-5c-0.3,0-0.6,0.2-0.7,0.5l-28.6,66.2c-0.1,0.2-0.1,0.5,0.1,0.7
		s0.4,0.3,0.6,0.3h4.5c0.3,0,0.6-0.2,0.7-0.5l26.1-60.1L419.4,383.1z"/>
	<path fill="#4A7871" d="M437.8,383.6h24c18.7,0,33.9-15.2,33.9-33.9s-15.2-33.9-33.9-33.9h-24c-0.4,0-0.8,0.3-0.8,0.8v66.2
		C437,383.3,437.4,383.6,437.8,383.6z M443.1,378v-56.6h18.8c15.6,0,28.3,12.7,28.3,28.3c0,15.6-12.7,28.3-28.3,28.3H443.1z"/>
	<polygon fill="#4A7871" points="527.6,382.8 538.1,382.8 533.1,371 	"/>
	<path fill="#4A7871" d="M501.8,383.6h4.5c0.3,0,0.6-0.2,0.7-0.5l26.1-60.1l26.1,60.1c0.1,0.3,0.4,0.5,0.7,0.5h4.5
		c0.3,0,0.5-0.1,0.6-0.3s0.2-0.5,0.1-0.7l-28.6-65.8c0-0.1-0.1-0.2-0.2-0.2l-0.5-0.5c-0.1-0.1-0.3-0.2-0.5-0.2h-5
		c-0.3,0-0.6,0.2-0.7,0.5l-28.6,66.2c-0.1,0.2-0.1,0.5,0.1,0.7S501.5,383.6,501.8,383.6z"/>
	<path fill="#4A7871" d="M59.9,452h-2.7c-0.7,0-1.1,0.5-1.2,1l-3.4,6.7l-3.9-6.9c0-0.1-0.1-0.1-0.1-0.2l-0.5-0.5
		c-0.1-0.1-0.3-0.2-0.5-0.2h-1.8c-0.4,0-0.8,0.3-0.8,0.8V465c0,0.4,0.3,0.8,0.8,0.8h1.8c0.4,0,0.8-0.3,0.8-0.8v-6.2l2.7,4.8
		c0,0.1,0.1,0.1,0.1,0.2c0.6,0.6,0.7,0.7,1.4,0.7h0.5c0.4,0,1.5,0,1.6-1l2.6-4.6v6.2c0,0.4,0.3,0.8,0.8,0.8h1.8
		c0.4,0,0.8-0.3,0.8-0.8v-12.2C60.6,452.3,60.3,452,59.9,452z"/>
	<path fill="#4A7871" d="M83.7,452.4c-0.1-0.3-0.4-0.5-0.7-0.5h-1.8c-0.3,0-0.6,0.2-0.7,0.5l-5,12.2c-0.1,0.2-0.1,0.5,0.1,0.7
		c0.1,0.2,0.4,0.3,0.6,0.3H78c0.2,0,0.4-0.1,0.5-0.2L79,465c0.1-0.1,0.1-0.2,0.2-0.3l0.7-2.2h4.4l0.7,2.2c0,0.1,0.1,0.2,0.2,0.3
		l0.5,0.5c0.1,0.1,0.3,0.2,0.5,0.2H88c0,0,0,0,0,0c0.4,0,0.8-0.3,0.8-0.8c0-0.2,0-0.3-0.1-0.4L83.7,452.4z M81.4,459.2l0.9-2.3
		l0.9,2.3H81.4z"/>
	<path fill="#4A7871" d="M111.9,460.3c0,0,0.1,0,0.1,0c0.2,0,0.4-0.1,0.5-0.2l0.9-0.9c0.1-0.1,0.7-0.7,0.7-1.4v-1.4
		c0-0.4-0.2-0.7-0.3-1c-0.1-0.1-0.1-0.3-0.1-0.3c0-0.2-0.1-0.4-0.2-0.5l-0.9-0.9c-0.5-0.5-1-1-1.7-1.1c-1-0.5-1.6-0.5-2.5-0.5h-3.6
		c-0.4,0-0.8,0.3-0.8,0.8V465c0,0.4,0.3,0.8,0.8,0.8h1.8c0.4,0,0.8-0.3,0.8-0.8v-4.2h0.4c0,0,0,0.1,0.1,0.1l2.7,4.1
		c0,0,0.1,0.1,0.1,0.1c0.6,0.6,0.7,0.7,1.4,0.7h1.8c0,0,0,0,0,0c0.4,0,0.8-0.3,0.8-0.8c0-0.2-0.1-0.4-0.2-0.5L111.9,460.3z
		 M107.4,455.3h1.1c0.9,0,1.1,0,1.3,0.2c0.1,0.1,0.1,0.1,0.2,0.1c0,0.1,0,0.4,0,0.7v0.9c0,0-0.1,0.1-0.1,0.2
		c-0.3,0.1-0.4,0.3-0.6,0.4h-1.9V455.3z"/>
	<path fill="#4A7871" d="M136.6,459l-0.3-0.3c0,0,0-0.1,0-0.1l0.3-0.3c0,0,0-0.1,0.1-0.1l4.1-5.4c0.2-0.2,0.2-0.5,0.1-0.8
		c-0.1-0.3-0.4-0.4-0.7-0.4h-2.3c-0.2,0-0.4,0.1-0.5,0.2l-0.5,0.5l-3.6,4.5c0,0,0,0,0,0v-2.7c0-0.4-0.3-0.8-0.8-0.8h-1.8
		c-0.4,0-0.8,0.3-0.8,0.8v12.2c0,0.4,0.3,0.8,0.8,0.8h1.8c0.4,0,0.8-0.3,0.8-0.8v-4.7h0.7l3.4,4.3c0.1,0.2,0.4,0.3,0.6,0.3h2.7
		c0.3,0,0.5-0.2,0.7-0.4c0.1-0.3,0.1-0.6-0.1-0.8L136.6,459z"/>
	<path fill="#4A7871" d="M164.7,452h-7.3c-0.4,0-0.8,0.3-0.8,0.8V465c0,0.4,0.3,0.8,0.8,0.8h7.3c0.4,0,0.8-0.3,0.8-0.8v-1.8
		c0-0.4-0.3-0.8-0.8-0.8H160v-2.1h3.8c0.4,0,0.8-0.3,0.8-0.8v-1.8c0-0.4-0.3-0.8-0.8-0.8H160v-2.1h4.7c0.4,0,0.8-0.3,0.8-0.8v-1.4
		C165.4,452.3,165.1,452,164.7,452z"/>
	<path fill="#4A7871" d="M190.5,452H181c-0.4,0-0.8,0.3-0.8,0.8v1.4c0,0.4,0.3,0.8,0.8,0.8h2.9V465c0,0.4,0.3,0.8,0.8,0.8h2.3
		c0.4,0,0.8-0.3,0.8-0.8v-10.1h2.9c0.4,0,0.8-0.3,0.8-0.8v-1.4C191.3,452.3,191,452,190.5,452z"/>
	<path fill="#4A7871" d="M230,458.3h-4.1c-0.4,0-0.8,0.3-0.8,0.8v1.4c0,0.4,0.3,0.8,0.8,0.8h4.1c0.4,0,0.8-0.3,0.8-0.8v-1.4
		C230.8,458.6,230.4,458.3,230,458.3z"/>
	<path fill="#4A7871" d="M278.4,455.9c0-0.2-0.1-0.4-0.2-0.5c-0.2-0.2-0.4-0.5-0.6-0.8c-0.2-0.4-0.5-0.7-0.8-1c-0.5-0.5-1-1-1.9-1.4
		c-0.7-0.6-1.7-0.6-2.7-0.6h-4.5c-0.4,0-0.8,0.3-0.8,0.8v12.2c0,0.4,0.3,0.8,0.8,0.8h4.5c1,0,1.5,0,2.6-0.5c0.1,0,0.1-0.1,0.2-0.1
		c0.2-0.2,0.5-0.4,0.8-0.6c0.4-0.2,0.7-0.5,1-0.8c0.4-0.5,1-1,1.4-1.9c0.6-0.7,0.6-1.7,0.6-2.7c0-0.5-0.1-1.1-0.2-1.5
		C278.5,456.6,278.4,456.2,278.4,455.9z M269.3,454.8h2c0.4,0,0.6,0.1,0.9,0.2c0.2,0.1,0.4,0.1,0.6,0.2c0.2,0.2,0.5,0.3,0.7,0.4
		c0.2,0.1,0.3,0.2,0.5,0.3c0.2,0.2,0.7,0.7,0.7,0.8c0,0.2,0.1,0.4,0.2,0.5c0.2,0.2,0.2,0.4,0.2,1.3s0,1.1-0.2,1.3
		c-0.3,0.3-0.5,0.6-0.6,0.9c-0.1,0.2-0.2,0.3-0.3,0.5c-0.2,0.2-0.7,0.7-0.8,0.7c-0.2,0-0.4,0.1-0.5,0.2c-0.2,0.2-1,0.2-1.3,0.2h-2
		V454.8z"/>
	<path fill="#4A7871" d="M303.1,452h-7.7c-0.4,0-0.8,0.3-0.8,0.8V465c0,0.4,0.3,0.8,0.8,0.8h7.7c0.4,0,0.8-0.3,0.8-0.8v-1.8
		c0-0.4-0.3-0.8-0.8-0.8h-5.1v-2.1h3.8c0.4,0,0.8-0.3,0.8-0.8v-1.8c0-0.4-0.3-0.8-0.8-0.8h-3.8v-2.1h5.1c0.4,0,0.8-0.3,0.8-0.8v-1.4
		C303.8,452.3,303.5,452,303.1,452z"/>
	<path fill="#4A7871" d="M327.1,462.4h-4.2v-9.7c0-0.4-0.3-0.8-0.8-0.8h-1.8c-0.4,0-0.8,0.3-0.8,0.8V465c0,0.4,0.3,0.8,0.8,0.8h6.8
		c0.4,0,0.8-0.3,0.8-0.8v-1.8C327.8,462.7,327.5,462.4,327.1,462.4z"/>
	<path fill="#4A7871" d="M346.1,452h-1.8c-0.4,0-0.8,0.3-0.8,0.8V465c0,0.4,0.3,0.8,0.8,0.8h1.8c0.4,0,0.8-0.3,0.8-0.8v-12.2
		C346.9,452.3,346.6,452,346.1,452z"/>
</g>
</svg>
