<?xml version="1.0" encoding="utf-8"?>
<!-- Generator: Adobe Illustrator 18.1.0, SVG Export Plug-In . SVG Version: 6.00 Build 0)  -->
<svg version="1.1" id="Layer_1" xmlns="http://www.w3.org/2000/svg" xmlns:xlink="http://www.w3.org/1999/xlink" x="0px" y="0px"
	 viewBox="0 0 134.9 64.8" enable-background="new 0 0 134.9 64.8" xml:space="preserve">
<g>
	<polygon fill="#4A7871" points="10.4,14.9 9.5,14.9 9.5,29.5 19.8,29.5 19.8,28.6 10.4,28.6 	"/>
	<polygon fill="#4A7871" points="26.8,29.5 29.1,29.5 28,26.9 	"/>
	<polygon fill="#4A7871" points="27.4,14.9 21.1,29.5 22.1,29.5 28,15.9 33.9,29.5 34.9,29.5 28.5,14.9 	"/>
	<polygon fill="#4A7871" points="51.2,29.5 53.5,29.5 52.4,26.9 	"/>
	<polygon fill="#4A7871" points="51.8,14.9 45.5,29.5 46.5,29.5 52.4,15.9 58.3,29.5 59.3,29.5 52.9,14.9 	"/>
	<path fill="#4A7871" d="M69.5,23.4l-6.4-8.5h-0.9v14.6h0.9V16.4l5.8,7.7l-1.7,2.3v0.9h4.6v-0.9l-1.7-2.3l5.8-7.7v13.1h0.9V14.9
		h-0.9L69.5,23.4z M68.4,26.4l1.1-1.5l1.1,1.5H68.4z"/>
	<polygon fill="#4A7871" points="85.5,29.5 87.8,29.5 86.7,26.9 	"/>
	<polygon fill="#4A7871" points="87.2,14.9 86.1,14.9 79.8,29.5 80.8,29.5 86.7,15.9 92.6,29.5 93.6,29.5 87.3,15 	"/>
	<path fill="#4A7871" d="M101.8,14.9h-5.3v14.6h5.3c4,0,7.3-3.3,7.3-7.3C109.1,18.2,105.8,14.9,101.8,14.9 M108.2,22.2
		c0,3.5-2.9,6.4-6.4,6.4h-4.3V15.8h4.3C105.3,15.8,108.2,18.7,108.2,22.2"/>
	<polygon fill="#4A7871" points="116.3,29.5 118.6,29.5 117.5,26.9 	"/>
	<polygon fill="#4A7871" points="118.1,15 118,14.9 116.9,14.9 110.6,29.5 111.6,29.5 117.5,15.9 123.4,29.5 124.4,29.5 	"/>
	<path fill="#4A7871" d="M91.9,37.5c-2,1.3-4,2.8-6.3,3.5c-0.8,0.3-1.7,0.3-2.2-0.4c-0.9-1.2,0.3-3,1.1-3.9c0.7-0.8,2-1.7,3-0.7
		c1.4,1.5-1.9,2.7-2.8,3.2c0,0,0,0,0,0c-0.1,0.2-0.1,0.4-0.2,0.6c1.5-0.2,5.1-2,6.5-3.1C91.6,36.3,92.4,37.2,91.9,37.5"/>
	<path fill="#4A7871" d="M96.7,36.6c-1,0.7-1.9,1.5-2.9,2.2c0.7,0.7,1.6,1.2,2.5,1.5c0.6,0.2-0.4,1.4-1,1.2c-1-0.3-2-0.9-2.8-1.7
		c-0.7,0.5-1.4,1-2.1,1.6c-0.5,0.4-1.6-0.8-1.2-1.2c0.8-0.6,1.5-1.1,2.3-1.7c-0.4-0.7-0.6-1.5-0.5-2.3c0-0.6,1.4-1.4,1.4-0.6
		c-0.1,0.7,0.1,1.4,0.4,2c0.9-0.7,1.8-1.4,2.7-2C96,35.1,97.2,36.2,96.7,36.6"/>
	<path fill="#4A7871" d="M104.3,37.4c-0.6,1.5-2.2,3.4-3.9,3.4c-0.3,0-0.7-0.4-0.9-0.7c-1.5,2.2-2.6,4.7-3.4,7.2
		c-0.2,0.6-1.5-0.4-1.3-0.9c1.3-3.8,2.6-7.7,3.9-11.5c0.2-0.6,1.5,0.4,1.3,0.9c-0.2,0.5-0.3,1-0.5,1.5c0.6-0.7,1.2-1.4,1.8-2
		c0.8-0.7,1.7-1.2,2.6-0.4C104.5,35.7,104.6,36.6,104.3,37.4 M103,36.1c-0.1,0-0.1,0.1-0.2,0.1c-0.1,0.1-0.3,0.2-0.4,0.3
		c-0.6,0.5-1.1,1.1-1.6,1.7c-0.3,0.4-0.6,0.8-0.9,1.3c1.3-0.1,2.6-1.8,3-2.9C103,36.5,103,36.3,103,36.1"/>
	<path fill="#4A7871" d="M110.2,37.2c-0.3,0-0.5-0.2-0.7-0.4c-0.3,0-1.1,0.5-1.2,0.7c-0.4,0.3-0.7,0.6-1,0.9
		c-0.7,0.7-1.3,1.6-1.7,2.5c-0.3,0.6-1.5-0.4-1.3-0.9c0.6-1.5,1.1-2.9,1.7-4.4c0.2-0.5,1.1,0.1,1.3,0.6c1.1-0.9,2.3-1.1,3.2,0.3
		C110.6,36.9,110.6,37.2,110.2,37.2"/>
	<path fill="#4A7871" d="M119.2,37.5c-2,1.3-4,2.8-6.3,3.5c-0.8,0.3-1.7,0.3-2.2-0.4c-0.9-1.2,0.3-3,1.1-3.9c0.7-0.8,2-1.7,3-0.7
		c1.4,1.5-1.9,2.7-2.8,3.2c0,0,0,0,0,0c-0.1,0.2-0.1,0.4-0.2,0.6c1.5-0.2,5.1-2,6.5-3.1C118.9,36.3,119.7,37.2,119.2,37.5"/>
	<path fill="#4A7871" d="M123.5,37.6c-0.9,0.4-1.8,0.8-2.6,1.4c0.1,0.3,0.1,0.7,0.1,1.1c-0.2,1.2-1.4,2.8-2.6,1.7
		c-1.3-1.1-0.4-2.5,1-3.6c-0.3-0.4-0.8-0.8-1-1.3c-0.4-0.9-0.3-2.3,1-2.2c0.4,0,0.7,0.3,0.9,0.7c0.1,0.2,0.1,0.7-0.2,0.6
		c-0.8-0.1-0.6,0.9-0.3,1.2c0.1,0.1,0.2,0.3,0.4,0.4c1.2-0.6,2.4-0.9,3-1.1C123.6,36.3,124.1,37.3,123.5,37.6"/>
	<path fill="#4A7871" d="M128.2,37.6c-0.9,0.4-1.8,0.8-2.6,1.4c0.1,0.3,0.1,0.7,0.1,1.1c-0.2,1.2-1.4,2.8-2.6,1.7
		c-1.3-1.1-0.4-2.5,1-3.6c-0.3-0.4-0.8-0.8-1-1.3c-0.4-0.9-0.3-2.3,1-2.2c0.4,0,0.7,0.3,0.9,0.7c0.1,0.2,0.1,0.7-0.2,0.6
		c-0.8-0.1-0.6,0.9-0.3,1.2c0.1,0.1,0.2,0.3,0.4,0.4c1.2-0.6,2.4-0.9,3-1.1C128.3,36.3,128.8,37.3,128.2,37.6"/>
	<path fill="#4A7871" d="M78.3,36.9c-2.9,0.8-5.9,1.4-8.9,1.8c-1.5,0.2-3,0.4-4.5,0.5c-0.8,0.1-1.5,0.1-2.3,0.2
		c-0.8,0-1.5,0.1-2.3,0.1c-6,0.2-12.1-0.4-18-1.5c-5.9-1.1-11.8-1.8-17.8-2.2c-6-0.4-12-0.5-17.9-0.1c-0.2,0-0.3-0.1-0.3-0.3
		c0-0.2,0.1-0.3,0.3-0.3c3-0.3,6-0.4,9-0.4c3,0,6,0.1,9,0.2c3,0.2,6,0.4,9,0.8c3,0.3,6,0.7,8.9,1.3c5.9,1.1,11.8,1.6,17.8,1.5
		c0.7,0,1.5,0,2.2-0.1c0.7,0,1.5-0.1,2.2-0.1c1.5-0.1,3-0.2,4.5-0.4c3-0.4,5.9-0.9,8.8-1.5c0.2,0,0.3,0.1,0.4,0.2
		C78.6,36.7,78.5,36.9,78.3,36.9"/>
	<path fill="#4A7871" d="M13.2,44.9v2.7h-0.4v-1.8c0,0,0-0.1,0-0.1c0,0,0-0.1,0-0.1l-0.9,1.6c0,0.1-0.1,0.1-0.2,0.1h-0.1
		c-0.1,0-0.1,0-0.2-0.1l-0.9-1.6c0,0,0,0.1,0,0.1c0,0,0,0.1,0,0.1v1.8h-0.4v-2.7h0.3c0,0,0.1,0,0.1,0c0,0,0,0,0.1,0.1l0.9,1.6
		c0,0,0,0.1,0.1,0.1c0,0,0,0.1,0,0.1c0,0,0-0.1,0-0.1c0,0,0-0.1,0.1-0.1l0.8-1.6c0,0,0-0.1,0.1-0.1c0,0,0.1,0,0.1,0H13.2z"/>
	<path fill="#4A7871" d="M19.4,47.6h-0.3c0,0-0.1,0-0.1,0c0,0,0,0-0.1-0.1l-0.2-0.6h-1.2l-0.2,0.6c0,0,0,0-0.1,0.1c0,0-0.1,0-0.1,0
		h-0.3l1.1-2.7h0.4L19.4,47.6z M18.6,46.5l-0.4-1c0-0.1-0.1-0.2-0.1-0.3c0,0.1,0,0.1,0,0.2c0,0,0,0.1,0,0.1l-0.4,1H18.6z"/>
	<path fill="#4A7871" d="M25.1,47.6h-0.4c-0.1,0-0.1,0-0.2-0.1l-0.6-0.9c0,0,0-0.1-0.1-0.1c0,0-0.1,0-0.1,0h-0.2v1.1h-0.4v-2.7h0.8
		c0.2,0,0.3,0,0.5,0.1c0.1,0,0.2,0.1,0.3,0.2c0.1,0.1,0.1,0.1,0.2,0.2c0,0.1,0.1,0.2,0.1,0.3c0,0.1,0,0.2,0,0.3
		c0,0.1-0.1,0.2-0.1,0.2c-0.1,0.1-0.1,0.1-0.2,0.2c-0.1,0-0.2,0.1-0.3,0.1c0.1,0,0.1,0.1,0.1,0.1L25.1,47.6z M23.8,46.2
		c0.1,0,0.2,0,0.3,0c0.1,0,0.1-0.1,0.2-0.1c0,0,0.1-0.1,0.1-0.2c0-0.1,0-0.1,0-0.2c0-0.1,0-0.3-0.1-0.3c-0.1-0.1-0.2-0.1-0.4-0.1
		h-0.4v0.9H23.8z"/>
	<path fill="#4A7871" d="M29.2,46h0.1c0,0,0.1,0,0.1,0c0,0,0.1,0,0.1-0.1l0.8-1c0,0,0.1-0.1,0.1-0.1c0,0,0.1,0,0.1,0h0.4L30,46
		c0,0-0.1,0.1-0.1,0.1c0,0-0.1,0-0.1,0.1c0,0,0.1,0,0.1,0.1c0,0,0.1,0.1,0.1,0.1l1,1.3h-0.4c0,0-0.1,0-0.1,0c0,0,0,0-0.1,0
		c0,0,0,0,0,0c0,0,0,0,0,0l-0.8-1c0,0,0,0,0,0c0,0,0,0,0,0c0,0,0,0-0.1,0c0,0,0,0-0.1,0h-0.2v1.2h-0.4v-2.7h0.4V46z"/>
	<polygon fill="#4A7871" points="36.3,47.2 36.3,47.6 34.7,47.6 34.7,44.9 36.3,44.9 36.3,45.2 35.1,45.2 35.1,46 36.1,46 
		36.1,46.4 35.1,46.4 35.1,47.2 	"/>
	<polygon fill="#4A7871" points="42,45.2 41.2,45.2 41.2,47.6 40.7,47.6 40.7,45.2 39.9,45.2 39.9,44.9 42,44.9 	"/>
	<rect x="49.8" y="46.3" fill="#4A7871" width="0.9" height="0.3"/>
	<path fill="#4A7871" d="M61.3,46.2c0,0.2,0,0.4-0.1,0.5c-0.1,0.2-0.2,0.3-0.3,0.4c-0.1,0.1-0.3,0.2-0.4,0.3
		c-0.2,0.1-0.3,0.1-0.5,0.1h-1v-2.7h1c0.2,0,0.4,0,0.5,0.1c0.2,0.1,0.3,0.2,0.4,0.3c0.1,0.1,0.2,0.3,0.3,0.4
		C61.2,45.8,61.3,46,61.3,46.2 M60.8,46.2c0-0.2,0-0.3-0.1-0.4c0-0.1-0.1-0.2-0.2-0.3c-0.1-0.1-0.2-0.1-0.3-0.2
		c-0.1,0-0.2-0.1-0.4-0.1h-0.6v2h0.6c0.1,0,0.3,0,0.4-0.1c0.1,0,0.2-0.1,0.3-0.2c0.1-0.1,0.1-0.2,0.2-0.3
		C60.8,46.5,60.8,46.4,60.8,46.2"/>
	<polygon fill="#4A7871" points="66.8,47.2 66.8,47.6 65.1,47.6 65.1,44.9 66.8,44.9 66.8,45.2 65.5,45.2 65.5,46 66.5,46 
		66.5,46.4 65.5,46.4 65.5,47.2 	"/>
	<polygon fill="#4A7871" points="72.1,47.2 72.1,47.6 70.6,47.6 70.6,44.9 71,44.9 71,47.2 	"/>
	<rect x="75.9" y="44.9" fill="#4A7871" width="0.4" height="2.7"/>
</g>
</svg>
