<?xml version="1.0" encoding="utf-8"?>
<!-- Generator: Adobe Illustrator 18.1.0, SVG Export Plug-In . SVG Version: 6.00 Build 0)  -->
<svg version="1.1" id="Layer_1" xmlns="http://www.w3.org/2000/svg" xmlns:xlink="http://www.w3.org/1999/xlink" x="0px" y="0px"
	 viewBox="0 0 100 100" enable-background="new 0 0 100 100" xml:space="preserve">
<g>
	<g>
		<g>
			<path fill="#4A7871" d="M79.3,68.1L79.3,68.1c-0.9-0.6-1.7-1.4-2.4-2.3c-1.6-1.8-3.7-4.1-7.5-4.1c-3.8,0-5.8,2.2-7.5,4.2
				c-1.7,2-2.8,3.1-5.3,3.1s-3.7-1.4-5.3-3.1c-1.5-1.8-3.6-4.2-7.5-4.2s-5.8,2.2-7.5,4.2c-1.7,2-2.8,3.1-5.3,3.1s-3.7-1.4-5.3-3.1
				c-1-1.4-2.4-2.5-3.9-3.4c-0.7-0.4-1.6-0.1-2,0.7c-0.4,0.7-0.1,1.6,0.7,2c1.1,0.7,2.2,1.6,3,2.6c1.7,2,3.7,4.2,7.5,4.2
				s5.8-2.2,7.5-4.2c1.7-2,2.8-3.1,5.3-3.1s3.7,1.4,5.3,3.1c1.5,1.8,3.6,4.2,7.5,4.2s5.8-2.2,7.5-4.2c1.7-2,2.8-3.1,5.3-3.1
				c2.5,0,3.7,1.4,5.3,3.1c0.9,1.1,1.9,2.1,3,2.9c0.7,0.4,1.6,0.2,2-0.4C80.2,69.5,80,68.6,79.3,68.1z"/>
			<path fill="#4A7871" d="M79.3,57.2L79.3,57.2c-0.9-0.6-1.7-1.4-2.4-2.3c-1.6-1.8-3.7-4.1-7.5-4.1c-3.8,0-5.8,2.2-7.5,4.2
				c-1.7,2-2.8,3.1-5.3,3.1s-3.7-1.4-5.3-3.1c-1.5-1.8-3.6-4.2-7.5-4.2s-5.8,2.2-7.5,4.2c-1.7,2-2.8,3.1-5.3,3.1s-3.7-1.4-5.3-3.1
				c-1-1.4-2.4-2.5-3.9-3.4c-0.7-0.4-1.6-0.1-2,0.7c-0.4,0.7-0.1,1.6,0.7,2c1.1,0.7,2.2,1.6,3,2.6c1.7,2,3.7,4.2,7.5,4.2
				s5.8-2.2,7.5-4.2c1.7-2,2.8-3.1,5.3-3.1s3.7,1.4,5.3,3.1c1.5,1.8,3.6,4.2,7.5,4.2s5.8-2.2,7.5-4.2c1.7-2,2.8-3.1,5.3-3.1
				c2.5,0,3.7,1.4,5.3,3.1c0.9,1.1,1.9,2.1,3,2.9c0.7,0.4,1.6,0.2,2-0.4C80.2,58.5,80,57.6,79.3,57.2z"/>
			<path fill="#4A7871" d="M79.3,45.5L79.3,45.5c-0.9-0.6-1.7-1.4-2.4-2.3c-1.6-1.8-3.7-4.1-7.5-4.1c-3.8,0-5.8,2.2-7.5,4.2
				s-2.8,3.1-5.3,3.1S53,45,51.5,43.2C49.9,41.4,47.9,39,44,39s-5.8,2.2-7.5,4.2c-1.7,2-2.8,3.1-5.3,3.1S27.6,45,26,43.2
				c-1-1.4-2.4-2.5-3.9-3.4c-0.7-0.4-1.6-0.1-2,0.7c-0.4,0.7-0.1,1.6,0.7,2c1.1,0.7,2.2,1.6,3,2.6c1.7,2,3.7,4.2,7.5,4.2
				s5.8-2.2,7.5-4.2c1.7-2,2.8-3.1,5.3-3.1s3.7,1.4,5.3,3.1c1.5,1.8,3.6,4.2,7.5,4.2s5.8-2.2,7.5-4.2c1.7-2,2.8-3.1,5.3-3.1
				c2.5,0,3.7,1.4,5.3,3.1c0.9,1.1,1.9,2.1,3,2.9c0.7,0.4,1.6,0.2,2-0.4C80.2,46.8,80,45.9,79.3,45.5z"/>
			<path fill="#4A7871" d="M20.8,31.5c1.1,0.7,2.2,1.6,3,2.6c1.7,2,3.7,4.2,7.5,4.2s5.8-2.2,7.5-4.2c1.7-2,2.8-3.1,5.3-3.1
				s3.7,1.4,5.3,3.1c1.5,1.8,3.6,4.2,7.5,4.2s5.8-2.2,7.5-4.2c1.7-2,2.8-3.1,5.3-3.1c2.5,0,3.7,1.4,5.3,3.1c0.9,1.1,1.9,2.1,3,2.9
				c0.7,0.4,1.6,0.2,2-0.4c0.4-0.7,0.2-1.6-0.4-2l0,0c-0.9-0.6-1.7-1.4-2.4-2.3c-1.6-1.8-3.7-4.1-7.5-4.1c-3.8,0-5.8,2.2-7.5,4.2
				c-1.7,2-2.8,3.1-5.3,3.1S53,34,51.5,32.2c-1.5-1.8-3.6-4.2-7.5-4.2s-5.8,2.2-7.5,4.2c-1.7,2-2.8,3.1-5.3,3.1S27.6,34,26,32.2
				c-1-1.4-2.4-2.5-3.9-3.4c-0.7-0.4-1.6-0.1-2,0.7C19.8,30.3,20.1,31.1,20.8,31.5z"/>
		</g>
	</g>
</g>
</svg>
