<?xml version="1.0" encoding="utf-8"?>
<!-- Generator: Adobe Illustrator 18.1.0, SVG Export Plug-In . SVG Version: 6.00 Build 0)  -->
<svg version="1.1" id="Layer_1" xmlns="http://www.w3.org/2000/svg" xmlns:xlink="http://www.w3.org/1999/xlink" x="0px" y="0px"
	 viewBox="0 0 100 100" enable-background="new 0 0 100 100" xml:space="preserve">
<g>
	<g>
		<g>
			<path fill="#4A7871" d="M65.8,24.9c-4.3,0-7.8,3.5-7.8,7.8v4.1H39.5v-4.1c0-3.1,2.6-5.7,5.7-5.7c3.1,0,5.7,2.6,5.7,5.7
				c0,0.6,0.5,1,1,1s1-0.5,1-1c0-4.3-3.5-7.8-7.8-7.8s-7.8,3.5-7.8,7.8v26.4c-0.1,0.6,0.5,1.1,1,1.1c0.6,0,1-0.5,1-1v-2.6h18.5v2.6
				c0,0.6,0.5,1,1,1c0.6,0,1-0.5,1-1V32.6c0-3.1,2.6-5.7,5.7-5.7c3.1,0,5.6,2.6,5.6,5.7c0,0.6,0.5,1,1,1s1-0.5,1-1
				C73.5,28.4,70.1,24.9,65.8,24.9z M58.1,54.3H39.5v-3.7h18.5V54.3z M58.1,48.5H39.5v-3.7h18.5V48.5z M58.1,42.6H39.5v-3.7h18.5
				V42.6z"/>
		</g>
	</g>
	<g>
		<g>
			<path fill="#4A7871" d="M70.9,64.2c-0.2-0.5-0.9-0.8-1.4-0.5c-5.2,2.3-7.8,1.2-10.5,0c-2.8-1.2-5.6-2.4-10.7,0
				c-5.2,2.3-7.8,1.2-10.5,0c-2.8-1.2-5.7-2.4-10.7,0c-0.5,0.2-0.8,0.9-0.5,1.4c0.2,0.5,0.9,0.8,1.4,0.5c4.2-2,6.4-1,9,0.1
				c1.7,0.7,3.5,1.5,5.9,1.5c1.7,0,3.8-0.4,6.3-1.5c4.2-2,6.4-1,9,0.1c1.7,0.7,3.5,1.5,5.9,1.5c1.7,0,3.8-0.4,6.3-1.5
				C70.9,65.4,71.2,64.7,70.9,64.2z"/>
		</g>
	</g>
	<g>
		<g>
			<path fill="#4A7871" d="M70.9,72.2c-0.2-0.5-0.9-0.8-1.4-0.5c-5.2,2.3-7.8,1.2-10.5,0c-2.8-1.2-5.6-2.4-10.7,0
				c-5.2,2.3-7.8,1.2-10.5,0c-2.8-1.2-5.6-2.4-10.7,0c-0.5,0.2-0.8,0.9-0.5,1.4c0.3,0.5,0.9,0.8,1.5,0.5c4.2-2,6.4-1,9,0.1
				c1.7,0.7,3.5,1.5,5.9,1.5c1.7,0,3.8-0.4,6.3-1.5c4.2-2,6.4-1,9,0.1c1.7,0.7,3.5,1.5,5.9,1.5c1.7,0,3.8-0.4,6.3-1.5
				C70.9,73.4,71.2,72.7,70.9,72.2z"/>
		</g>
	</g>
</g>
</svg>
