<?xml version="1.0" encoding="utf-8"?>
<!-- Generator: Adobe Illustrator 25.2.0, SVG Export Plug-In . SVG Version: 6.00 Build 0)  -->
<svg version="1.1" id="Layer_1" xmlns="http://www.w3.org/2000/svg" xmlns:xlink="http://www.w3.org/1999/xlink" x="0px" y="0px"
	 viewBox="0 0 150 150" style="enable-background:new 0 0 150 150;" xml:space="preserve">
<style type="text/css">
	.st0{fill:#4A7871;}
</style>
<g>
	<path class="st0" d="M50,43.6c-2-2-5.3-1.2-6.3,1.4l-32.5,86.7c-1.2,3.1,1.9,6.1,4.9,4.9c4.4-1.6,83.2-31.2,86.7-32.5
		c2.6-1,3.3-4.3,1.4-6.3L50,43.6z M48.7,53.3L64.5,69c1.1,13.1,5.9,25.7,13.8,36.1l-16.4,6.1C49.7,98.5,43.4,80.7,45.1,63L48.7,53.3
		z M38.4,120.1c-3.8-4.3-6.9-9.1-9.4-14.3l9.2-24.7c2.3,12.6,8,23.9,15.9,33L38.4,120.1z M25.5,115.3c1.6,2.6,3.4,5.2,5.3,7.6
		l-9.5,3.6L25.5,115.3z M85.9,102.3c-5.7-7-9.9-15.2-12.1-24L94.5,99L85.9,102.3z"/>
	<g>
		<path class="st0" d="M99.9,77.7c1.5,1.5,3.9,1.5,5.4,0c14.4-14.4,28.4-10,28.6-9.9c2,0.7,4.2-0.4,4.8-2.4c0.7-2-0.4-4.2-2.4-4.8
			c-0.8-0.3-18.7-6-36.4,11.8C98.4,73.7,98.4,76.2,99.9,77.7z"/>
	</g>
	<path class="st0" d="M70.1,47.9c1.5,1.5,3.9,1.5,5.4,0c17.7-17.7,12-35.7,11.8-36.4c-0.7-2-2.8-3.1-4.8-2.4c-2,0.7-3.1,2.8-2.4,4.8
		c0,0.1,4.5,14.2-9.9,28.6C68.6,43.9,68.6,46.4,70.1,47.9L70.1,47.9z"/>
	<path class="st0" d="M83.6,56c-1.5,1.5-1.5,3.9,0,5.4s3.9,1.5,5.4,0c2-1,8.1,2.7,11.5-0.7c3.4-3.4-0.2-9.4,0.7-11.5
		c2.1-0.9,8.1,2.7,11.5-0.7s-0.2-9.4,0.7-11.5c2.1-0.9,8.1,2.7,11.5-0.7c3.4-3.4-0.2-9.4,0.7-11.5c2.1-0.9,8.1,2.7,11.5-0.7
		s-0.3-9.6,0.7-11.5c1.5-1.5,1.5-3.9,0-5.4s-3.9-1.5-5.4,0c-3,3-2.4,7.3-1.9,10.3c-3-0.6-7.3-1.2-10.3,1.9c-3,3-2.4,7.3-1.9,10.3
		c-3-0.6-7.3-1.2-10.3,1.9c-3,3-2.4,7.3-1.9,10.3c-3-0.6-7.3-1.2-10.3,1.9c-3,3-2.4,7.3-1.9,10.3C90.9,53.6,86.7,53,83.6,56L83.6,56
		z"/>
	<path class="st0" d="M105.3,23.5c1.5-1.5,1.5-3.9,0-5.4s-3.9-1.5-5.4,0s-1.5,3.9,0,5.4S103.8,25,105.3,23.5z"/>
	<circle class="st0" cx="129.7" cy="47.9" r="3.8"/>
	<path class="st0" d="M121.6,83.1c-1.5,1.5-1.5,3.9,0,5.4s3.9,1.5,5.4,0s1.5-3.9,0-5.4S123.1,81.6,121.6,83.1z"/>
	<path class="st0" d="M67.4,28.9c1.5-1.5,1.5-3.9,0-5.4s-3.9-1.5-5.4,0s-1.5,3.9,0,5.4S65.9,30.4,67.4,28.9z"/>
</g>
</svg>
