<?xml version="1.0" encoding="utf-8"?>
<!-- Generator: Adobe Illustrator 25.2.3, SVG Export Plug-In . SVG Version: 6.00 Build 0)  -->
<svg version="1.1" id="Layer_1" xmlns="http://www.w3.org/2000/svg" xmlns:xlink="http://www.w3.org/1999/xlink" x="0px" y="0px"
	 viewBox="0 0 150 150" style="enable-background:new 0 0 150 150;" xml:space="preserve">
<style type="text/css">
	.st0{fill:#4A7871;}
</style>
<polygon class="st0" points="177.4,1952.4 174.1,1952.4 174.1,2004 210.6,2004 210.6,2000.8 177.4,2000.8 "/>
<polygon class="st0" points="235.5,2004 243.6,2004 239.5,1994.6 "/>
<polygon class="st0" points="237.5,1952.4 215.1,2004 218.7,2004 239.5,1956.1 260.4,2004 263.9,2004 241.5,1952.4 "/>
<polygon class="st0" points="321.7,2004 329.8,2004 325.8,1994.6 "/>
<polygon class="st0" points="323.8,1952.4 301.4,2004 304.9,2004 325.8,1956.1 346.6,2004 350.2,2004 327.8,1952.4 "/>
<path class="st0" d="M386.3,1982.4l-22.5-30h-3.2v51.6h3.2v-46.1l20.4,27.2l-6,8v3.1h16.1v-3.1l-6-8l20.4-27.2v46.1h3.2v-51.6h-3.2
	L386.3,1982.4z M382.5,1993l3.9-5.2l3.9,5.2H382.5z"/>
<polygon class="st0" points="442.9,2004 451,2004 446.9,1994.6 "/>
<polygon class="st0" points="448.9,1952.4 444.9,1952.4 422.5,2004 426.1,2004 446.9,1956.1 467.8,2004 471.3,2004 449.1,1952.7 "/>
<path class="st0" d="M500.5,1952.4h-18.6v51.6h18.6c14.2,0,25.8-11.6,25.8-25.8C526.3,1964,514.7,1952.4,500.5,1952.4 M523,1978.2
	c0,12.4-10.1,22.6-22.6,22.6h-15.3v-45.1h15.3C512.9,1955.6,523,1965.8,523,1978.2"/>
<polygon class="st0" points="551.7,2004 559.8,2004 555.8,1994.6 "/>
<polygon class="st0" points="557.9,1952.7 557.8,1952.4 553.8,1952.4 531.4,2004 535,2004 555.8,1956.1 576.6,2004 580.2,2004 "/>
<path class="st0" d="M465.6,2032.4c-6.9,4.5-14.2,9.7-22.1,12.5c-2.9,1-5.9,1.2-7.9-1.5c-3.2-4.2,0.9-10.5,3.8-13.6
	c2.6-2.9,7.2-6.1,10.7-2.4c5,5.2-6.7,9.7-9.9,11.2l0,0c-0.3,0.6-0.5,1.3-0.7,2c5.2-0.7,17.9-6.9,23.1-10.9
	C464.4,2028.2,467.2,2031.3,465.6,2032.4"/>
<path class="st0" d="M482.3,2029.1c-3.4,2.6-6.8,5.1-10.2,7.7c2.5,2.5,5.6,4.4,8.7,5.2c2.2,0.6-1.5,4.9-3.6,4.4
	c-3.6-1-7.1-3.2-9.8-6.1c-2.4,1.8-4.8,3.7-7.3,5.5c-1.8,1.4-5.7-2.8-4.1-4.1c2.7-2,5.4-4.1,8.1-6.1c-1.3-2.6-2-5.4-1.7-8.3
	c0.2-2,5-4.9,4.8-2.1c-0.2,2.4,0.4,4.8,1.5,7c3.2-2.4,6.3-4.8,9.5-7.2C480.1,2023.6,484,2027.8,482.3,2029.1"/>
<path class="st0" d="M509.1,2032.1c-2,5.3-7.6,12.2-13.8,12.1c-1.1,0-2.4-1.3-3.1-2.5c-5.1,7.9-9.1,16.8-12.1,25.6
	c-0.8,2.3-5.2-1.3-4.5-3.3c4.6-13.6,9.2-27.1,13.8-40.7c0.8-2.3,5.2,1.3,4.5,3.3c-0.6,1.8-1.2,3.5-1.8,5.3c1.9-2.5,4.1-4.9,6.5-6.9
	c2.8-2.4,5.9-4.2,9.1-1.2C510.1,2025.9,510.2,2029.2,509.1,2032.1 M504.8,2027.4c-0.2,0.1-0.4,0.3-0.6,0.4c-0.5,0.4-1,0.8-1.5,1.2
	c-2.1,1.8-4,3.8-5.7,6c-1.2,1.4-2.3,2.9-3.3,4.5c4.7-0.5,9-6.3,10.7-10.2C504.6,2028.7,504.7,2028,504.8,2027.4"/>
<path class="st0" d="M530.3,2031.3c-0.9,0.1-1.8-0.6-2.5-1.4c-1.2,0-3.7,1.9-4.4,2.4c-1.3,1-2.5,2.1-3.6,3.3c-2.4,2.6-4.5,5.6-6,8.8
	c-1,2.3-5.3-1.4-4.5-3.3c1.9-5.2,4-10.3,5.9-15.5c0.7-1.9,3.9,0.3,4.5,2.2c4-3.1,8.3-4,11.3,1.1
	C531.7,2030,531.5,2031.2,530.3,2031.3"/>
<path class="st0" d="M562,2032.4c-6.9,4.5-14.2,9.7-22.1,12.5c-2.9,1-5.9,1.2-7.9-1.5c-3.2-4.2,0.9-10.5,3.8-13.6
	c2.6-2.9,7.2-6.1,10.7-2.4c5,5.2-6.7,9.7-9.9,11.2l0,0c-0.3,0.6-0.5,1.3-0.7,2c5.2-0.7,17.9-6.9,23.1-10.9
	C560.8,2028.2,563.7,2031.3,562,2032.4"/>
<path class="st0" d="M577.1,2032.5c-3.2,1.3-6.3,2.9-9,5.1c0.4,1.2,0.5,2.5,0.3,3.9c-0.6,4.2-4.9,9.7-9.3,6.1
	c-4.8-4-1.4-8.9,3.5-12.8c-1.2-1.5-2.7-2.8-3.6-4.6c-1.6-3.1-1-8,3.5-7.7c1.3,0.1,2.6,1.2,3.2,2.4c0.4,0.8,0.5,2.4-0.8,2.3
	c-2.8-0.2-2,3-0.9,4.3c0.4,0.5,0.8,1,1.3,1.4c4.4-2.1,8.6-3.2,10.4-3.9C577.5,2028.1,579.3,2031.6,577.1,2032.5"/>
<path class="st0" d="M593.8,2032.5c-3.2,1.3-6.3,2.9-9,5.1c0.4,1.2,0.5,2.5,0.3,3.9c-0.6,4.2-4.9,9.7-9.3,6.1
	c-4.8-4-1.4-8.9,3.5-12.8c-1.2-1.5-2.7-2.8-3.6-4.6c-1.6-3.1-1-8,3.5-7.7c1.3,0.1,2.6,1.2,3.2,2.4c0.4,0.8,0.5,2.4-0.8,2.3
	c-2.8-0.2-2,3-0.9,4.3c0.4,0.5,0.8,1,1.3,1.4c4.4-2.1,8.6-3.2,10.4-3.9C594.2,2028.1,596,2031.6,593.8,2032.5"/>
<path class="st0" d="M417.4,2030.2c-10.3,2.7-20.7,4.8-31.3,6.3c-5.3,0.8-10.6,1.4-15.9,1.8c-2.7,0.2-5.3,0.4-8,0.5s-5.3,0.3-8,0.3
	c-21.3,0.6-42.7-1.5-63.7-5.4c-20.8-3.9-41.8-6.3-62.9-7.7c-21.1-1.4-42.3-1.9-63.4-0.5c-0.6,0-1.1-0.4-1.1-1s0.4-1.1,1-1.1
	c10.6-1,21.2-1.3,31.9-1.4c10.6,0,21.3,0.2,31.9,0.9c10.6,0.6,21.2,1.5,31.8,2.7c10.6,1.2,21.1,2.6,31.6,4.6
	c20.8,3.8,41.8,5.6,62.9,5.3c2.6,0,5.3-0.1,7.9-0.3c2.6-0.1,5.3-0.3,7.9-0.5c5.3-0.3,10.5-0.8,15.7-1.5c10.5-1.3,20.9-3,31.2-5.2
	c0.6-0.1,1.1,0.2,1.2,0.8C418.3,2029.5,417.9,2030,417.4,2030.2"/>
<path class="st0" d="M187.2,2058.3v9.5h-1.4v-6.5c0-0.1,0-0.2,0-0.3s0-0.3,0-0.4l-3,5.6c-0.1,0.2-0.3,0.4-0.5,0.4h-0.2
	c-0.3,0-0.4-0.1-0.5-0.4l-3.1-5.6c0,0.1,0,0.3,0,0.4c0,0.1,0,0.2,0,0.4v6.5h-1.4v-9.5h1.2c0.1,0,0.2,0,0.3,0s0.1,0.1,0.2,0.2l3,5.5
	c0.1,0.1,0.1,0.3,0.2,0.4c0.1,0.1,0.1,0.3,0.2,0.4c0.1-0.1,0.1-0.3,0.2-0.4c0.1-0.1,0.1-0.3,0.2-0.4l3-5.5c0.1-0.1,0.1-0.2,0.2-0.2
	c0.1,0,0.2,0,0.3,0L187.2,2058.3L187.2,2058.3z"/>
<path class="st0" d="M209.3,2067.8h-1.2c-0.1,0-0.2,0-0.3-0.1s-0.1-0.2-0.2-0.3l-0.8-2.1h-4.1l-0.8,2.1c0,0.1-0.1,0.2-0.2,0.2
	c-0.1,0.1-0.2,0.1-0.3,0.1h-1.2l3.8-9.5h1.6L209.3,2067.8z M206.4,2064.2l-1.3-3.5c-0.1-0.3-0.2-0.6-0.3-1c0,0.2-0.1,0.4-0.2,0.6
	c-0.1,0.2-0.1,0.3-0.2,0.5l-1.3,3.5h3.3V2064.2z"/>
<path class="st0" d="M229.4,2067.8H228c-0.3,0-0.5-0.1-0.6-0.3l-2.2-3.2c-0.1-0.1-0.2-0.2-0.2-0.2c-0.1,0-0.2-0.1-0.4-0.1h-0.9v3.8
	h-1.5v-9.5h2.8c0.6,0,1.2,0.1,1.6,0.2c0.4,0.1,0.8,0.3,1.1,0.5s0.5,0.5,0.6,0.8s0.2,0.7,0.2,1.1c0,0.3,0,0.6-0.1,0.9
	c-0.1,0.3-0.2,0.5-0.4,0.8c-0.2,0.2-0.4,0.4-0.7,0.6c-0.3,0.2-0.6,0.3-0.9,0.4c0.2,0.1,0.4,0.3,0.5,0.5L229.4,2067.8z M225,2062.9
	c0.4,0,0.7,0,0.9-0.1c0.3-0.1,0.5-0.2,0.7-0.4s0.3-0.3,0.4-0.6c0.1-0.2,0.1-0.4,0.1-0.7c0-0.5-0.2-0.9-0.5-1.2s-0.9-0.4-1.6-0.4
	h-1.3v3.3L225,2062.9L225,2062.9z"/>
<path class="st0" d="M244,2062.4h0.4c0.2,0,0.3,0,0.4-0.1c0.1,0,0.2-0.1,0.3-0.2l2.9-3.4c0.1-0.1,0.2-0.2,0.3-0.3s0.2-0.1,0.4-0.1
	h1.3l-3.4,4c-0.1,0.1-0.2,0.2-0.3,0.3s-0.2,0.1-0.3,0.2c0.1,0,0.2,0.1,0.4,0.2c0.1,0.1,0.2,0.2,0.3,0.3l3.5,4.5h-1.3
	c-0.1,0-0.2,0-0.2,0c-0.1,0-0.1,0-0.2-0.1c-0.1,0-0.1-0.1-0.1-0.1l-0.1-0.1l-3-3.6c0-0.1-0.1-0.1-0.1-0.1s-0.1-0.1-0.2-0.1
	c-0.1,0-0.1,0-0.2-0.1c-0.1,0-0.2,0-0.3,0H244v4.2h-1.5v-9.5h1.5V2062.4z"/>
<polygon class="st0" points="269.1,2066.5 269.1,2067.8 263.2,2067.8 263.2,2058.3 269.1,2058.3 269.1,2059.6 264.7,2059.6 
	264.7,2062.4 268.2,2062.4 268.2,2063.6 264.7,2063.6 264.7,2066.5 "/>
<polygon class="st0" points="289.1,2059.6 286.2,2059.6 286.2,2067.8 284.6,2067.8 284.6,2059.6 281.7,2059.6 281.7,2058.3 
	289.1,2058.3 "/>
<rect x="316.7" y="2063.2" class="st0" width="3.3" height="1.2"/>
<path class="st0" d="M357.2,2063.1c0,0.7-0.1,1.3-0.3,1.9c-0.2,0.6-0.5,1.1-1,1.5c-0.4,0.4-0.9,0.7-1.5,1c-0.6,0.2-1.2,0.3-1.9,0.3
	h-3.6v-9.5h3.6c0.7,0,1.4,0.1,1.9,0.3c0.6,0.2,1.1,0.6,1.5,1s0.7,0.9,1,1.5C357.1,2061.7,357.2,2062.4,357.2,2063.1 M355.6,2063.1
	c0-0.5-0.1-1-0.2-1.5c-0.1-0.4-0.4-0.8-0.6-1.1c-0.3-0.3-0.6-0.5-1-0.7s-0.8-0.2-1.3-0.2h-2v7h2c0.5,0,0.9-0.1,1.3-0.2
	s0.7-0.4,1-0.7s0.5-0.7,0.6-1.1C355.6,2064.1,355.6,2063.6,355.6,2063.1"/>
<polygon class="st0" points="376.7,2066.5 376.7,2067.8 370.8,2067.8 370.8,2058.3 376.7,2058.3 376.7,2059.6 372.3,2059.6 
	372.3,2062.4 375.8,2062.4 375.8,2063.6 372.3,2063.6 372.3,2066.5 "/>
<polygon class="st0" points="395.7,2066.5 395.7,2067.8 390.2,2067.8 390.2,2058.3 391.7,2058.3 391.7,2066.5 "/>
<rect x="408.8" y="2058.3" class="st0" width="1.5" height="9.5"/>
<g>
	<path class="st0" d="M53.5,57.2c-1.4-1.4-3.7-0.8-4.4,1l-22.6,60.3c-0.8,2.2,1.3,4.2,3.4,3.4c3.1-1.1,57.8-21.7,60.3-22.6
		c1.8-0.7,2.3-3,1-4.4L53.5,57.2z M52.6,64l11,10.9c0.8,9.1,4.1,17.9,9.6,25.1l-11.4,4.2C53.3,95.4,49,83,50.1,70.7L52.6,64z
		 M45.5,110.4c-2.6-3-4.8-6.3-6.5-9.9l6.4-17.2c1.6,8.8,5.6,16.6,11.1,22.9L45.5,110.4z M36.5,107.1c1.1,1.8,2.4,3.6,3.7,5.3
		l-6.6,2.5L36.5,107.1z M78.5,98c-4-4.9-6.9-10.6-8.4-16.7l14.4,14.4L78.5,98z"/>
	<g>
		<path class="st0" d="M88.2,80.9c1,1,2.7,1,3.8,0c10-10,19.7-7,19.9-6.9c1.4,0.5,2.9-0.3,3.3-1.7c0.5-1.4-0.3-2.9-1.7-3.3
			c-0.6-0.2-13-4.2-25.3,8.2C87.2,78.2,87.2,79.9,88.2,80.9z"/>
	</g>
	<path class="st0" d="M67.5,60.2c1,1,2.7,1,3.8,0c12.3-12.3,8.3-24.8,8.2-25.3c-0.5-1.4-1.9-2.2-3.3-1.7c-1.4,0.5-2.2,1.9-1.7,3.3
		c0,0.1,3.1,9.9-6.9,19.9C66.5,57.4,66.5,59.2,67.5,60.2L67.5,60.2z"/>
	<path class="st0" d="M76.9,65.8c-1,1-1,2.7,0,3.8c1,1,2.7,1,3.8,0c1.4-0.7,5.6,1.9,8-0.5c2.4-2.4-0.1-6.5,0.5-8
		c1.5-0.6,5.6,1.9,8-0.5c2.4-2.4-0.1-6.5,0.5-8c1.5-0.6,5.6,1.9,8-0.5c2.4-2.4-0.1-6.5,0.5-8c1.5-0.6,5.6,1.9,8-0.5s-0.2-6.7,0.5-8
		c1-1,1-2.7,0-3.8c-1-1-2.7-1-3.8,0c-2.1,2.1-1.7,5.1-1.3,7.2c-2.1-0.4-5.1-0.8-7.2,1.3c-2.1,2.1-1.7,5.1-1.3,7.2
		c-2.1-0.4-5.1-0.8-7.2,1.3C91.8,51,92.2,54,92.5,56c-2.1-0.4-5.1-0.8-7.2,1.3c-2.1,2.1-1.7,5.1-1.3,7.2
		C82,64.2,79.1,63.8,76.9,65.8L76.9,65.8z"/>
	<path class="st0" d="M92,43.3c1-1,1-2.7,0-3.8c-1-1-2.7-1-3.8,0c-1,1-1,2.7,0,3.8C89.3,44.3,90.9,44.3,92,43.3z"/>
	<circle class="st0" cx="108.9" cy="60.2" r="2.6"/>
	<path class="st0" d="M103.3,84.7c-1,1-1,2.7,0,3.8c1,1,2.7,1,3.8,0c1-1,1-2.7,0-3.8C106,83.6,104.4,83.6,103.3,84.7z"/>
	<path class="st0" d="M65.6,47c1-1,1-2.7,0-3.8c-1-1-2.7-1-3.8,0c-1,1-1,2.7,0,3.8C62.9,48.1,64.6,48.1,65.6,47z"/>
</g>
</svg>
