<?xml version="1.0" encoding="utf-8"?>
<!-- Generator: Adobe Illustrator 25.2.1, SVG Export Plug-In . SVG Version: 6.00 Build 0)  -->
<svg version="1.1" id="Layer_1" xmlns="http://www.w3.org/2000/svg" xmlns:xlink="http://www.w3.org/1999/xlink" x="0px" y="0px"
	 viewBox="0 0 100 100" style="enable-background:new 0 0 100 100;" xml:space="preserve">
<style type="text/css">
	.st0{fill:#4A7871;}
</style>
<g>
	<path class="st0" d="M75.2,36.6L50.5,26.4c-0.8-0.3-1.8-0.4-2.4-0.4c-0.6,0-1.5,0-2.4,0.4L21.2,36.6c-1.8,0.7-2.7,2.8-2.1,4.6
		l4.3,13.1v5.4c0,4,0,8.2,3.5,11.2c3.6,3.2,10.2,4.5,21.4,4.5c11.2,0,17.9-1.4,21.4-4.5c3.5-3.1,3.5-7.2,3.5-11.2v-5.4l4.3-13.1
		C78,39.4,77,37.3,75.2,36.6z M69.6,58H26.7v-2.2h42.9V58z M67.3,68.4c-2.8,2.5-9.1,3.7-19.1,3.7S31.9,70.9,29,68.4
		c-1.9-1.7-2.3-4-2.3-7h42.9C69.6,64.3,69.2,66.7,67.3,68.4z M74.1,40.2l-4,12.2H26.2l-4-12.2c0-0.1,0-0.3,0.1-0.4L47,29.6
		c0.2-0.1,0.6-0.1,1.1-0.1s0.9,0.1,1.1,0.1l24.7,10.2C74,39.9,74.1,40.1,74.1,40.2L74.1,40.2z"/>
	<path class="st0" d="M48.2,31.8c-4.8,0-8.2,5.8-8.5,6.5c-0.2,0.4-0.3,0.9-0.1,1.4c0,0.1,0.8,2.5,2.2,5c2,3.7,4.1,5.6,6.5,5.6
		s4.4-1.8,6.5-5.6c1.3-2.5,2.1-4.9,2.2-5c0.1-0.4,0.1-1-0.1-1.4C56.3,37.6,52.9,31.8,48.2,31.8L48.2,31.8z M51.6,43
		c-1.5,2.8-2.8,3.7-3.5,3.7c-0.6,0-1.9-1-3.5-3.7c-0.8-1.4-1.4-2.9-1.7-3.7c1-1.5,3.2-4.1,5.1-4.1c2,0,4.1,2.6,5.1,4.1
		C53,40.1,52.4,41.6,51.6,43z"/>
</g>
</svg>
