<?xml version="1.0" encoding="utf-8"?>
<!-- Generator: Adobe Illustrator 18.1.0, SVG Export Plug-In . SVG Version: 6.00 Build 0)  -->
<svg version="1.1" id="Layer_1" xmlns="http://www.w3.org/2000/svg" xmlns:xlink="http://www.w3.org/1999/xlink" x="0px" y="0px"
	 viewBox="0 0 100 100" 
enableBackground="new 0 0 100 100" xml:space="preserve">
<g>
	<path fill="#4A7871" d="M62.2,70.2c-4.4,0-8.7-1.5-12.2-4.2c-3.5,2.7-7.7,4.2-12.2,4.2c-5.3,0-10.2-2.1-13.9-5.8
		c-0.5-0.5-0.7-1.1-0.7-1.8s0.3-1.3,0.7-1.8c1.2-1.2,2.6-2.3,4.1-3.2c-3.1-3.9-4.2-8-4.2-8.8c0-1.2,0.8-2.2,1.9-2.4
		c2.1-0.6,4.4-0.8,6.6-0.7c-0.4-3.1-0.3-6.2,0.6-9.3c0.4-1.3,1.8-2.1,3.1-1.8c2.6,0.7,5,1.8,7.2,3.3c1.2-2.8,2.9-5.4,5.1-7.6
		c1-1,2.6-0.9,3.6,0c2.2,2.2,3.9,4.8,5.1,7.6c2.2-1.5,4.6-2.6,7.2-3.3c1.4-0.4,2.7,0.5,3.1,1.8c0.8,3,1,6,0.6,9.1c0,0.1,0,0.1,0,0.2
		c2.2-0.1,4.5,0.1,6.6,0.7c1.1,0.3,1.9,1.3,1.9,2.4c0,1.1-1.3,5.1-4.2,8.8c1.5,0.9,2.9,1.9,4.1,3.2c0.5,0.5,0.7,1.1,0.7,1.8
		c0,0.7-0.3,1.4-0.8,1.8C72.4,68.2,67.4,70.2,62.2,70.2z M50,63.4l0.7,0.6c3.2,2.7,7.3,4.2,11.5,4.2c4.7,0,9.2-1.8,12.5-5.2
		c0.1-0.1,0.2-0.2,0.2-0.4c0-0.1-0.1-0.3-0.1-0.4c-1.4-1.4-3-2.5-4.7-3.4l-1.2-0.6l0.9-1c3.2-3.5,4.5-7.7,4.5-8.4
		c0-0.2-0.2-0.4-0.4-0.5c-2.4-0.6-4.8-0.8-7.2-0.6l-1.4,0.1l0.3-1.4c0.1-0.4,0.2-0.9,0.2-1.3c0.4-2.8,0.2-5.6-0.5-8.3
		c-0.1-0.3-0.4-0.4-0.6-0.4c-2.7,0.7-5.3,2-7.5,3.7L56,41.3L55.5,40c-1.1-3.1-2.8-5.8-5.1-8.1c-0.2-0.2-0.6-0.1-0.7,0
		c-2.3,2.3-4,5-5.1,8.1L44,41.3l-1.1-0.8c-2.2-1.7-4.8-3-7.5-3.7c-0.2-0.1-0.6,0.1-0.6,0.4c-0.8,3.2-1,6.4-0.3,9.7l0.3,1.3l-1.3-0.1
		c-2.4-0.3-4.9-0.1-7.2,0.6c-0.3,0.1-0.4,0.3-0.4,0.5c0,0.4,1.2,4.7,4.5,8.4l0.9,1L30,58.9c-1.7,0.9-3.3,2-4.7,3.4
		c-0.1,0.1-0.1,0.2-0.1,0.4s0.1,0.3,0.1,0.4c3.3,3.3,7.8,5.2,12.5,5.2c4.2,0,8.3-1.5,11.5-4.2L50,63.4z"/>
	<path fill="#4A7871" d="M48.7,63.3c-0.3,0-0.5-0.1-0.7-0.3c-6.5-6.7-14.7-4.5-15-4.5c-0.5,0.1-1.1-0.2-1.2-0.7
		c-0.1-0.5,0.2-1.1,0.7-1.2c0.4-0.1,9.7-2.5,17,5c0.4,0.4,0.4,1,0,1.4C49.2,63.2,48.9,63.3,48.7,63.3z"/>
	<path fill="#4A7871" d="M50,65.7c-0.3,0-0.7-0.2-0.9-0.5c-8.9-15.8-6.6-25.4-6.5-25.8c0.1-0.5,0.7-0.9,1.2-0.7
		c0.5,0.1,0.9,0.7,0.7,1.2c0,0.1-2.1,9.3,6.4,24.4c0.3,0.5,0.1,1.1-0.4,1.4C50.3,65.7,50.2,65.7,50,65.7z"/>
	<path fill="#4A7871" d="M42.7,54.8c-0.3,0-0.5-0.1-0.7-0.3c-2.5-2.5-5.9-4.2-5.9-4.2c-0.5-0.2-0.7-0.8-0.4-1.3
		c0.2-0.5,0.8-0.7,1.3-0.4c0.2,0.1,3.7,1.9,6.4,4.6c0.4,0.4,0.4,1,0,1.4C43.2,54.7,43,54.8,42.7,54.8z"/>
	<path fill="#4A7871" d="M51.3,63.3c-0.3,0-0.5-0.1-0.7-0.3c-0.4-0.4-0.4-1,0-1.4c7.3-7.5,16.6-5.1,17-5c0.5,0.1,0.8,0.7,0.7,1.2
		c-0.1,0.5-0.7,0.8-1.2,0.7c-0.4-0.1-8.6-2.2-15,4.5C51.8,63.2,51.5,63.3,51.3,63.3z"/>
	<path fill="#4A7871" d="M49.9,65.7c-0.2,0-0.3,0-0.5-0.1c-0.5-0.3-0.7-0.9-0.4-1.4c8.5-15.1,6.4-24.3,6.4-24.4
		c-0.1-0.5,0.2-1.1,0.7-1.2c0.5-0.1,1.1,0.2,1.2,0.7c0.1,0.4,2.3,10-6.5,25.8C50.6,65.6,50.3,65.7,49.9,65.7z"/>
	<path fill="#4A7871" d="M57.3,54.8c-0.3,0-0.5-0.1-0.7-0.3c-0.4-0.4-0.4-1,0-1.4c2.7-2.7,6.3-4.5,6.4-4.6c0.5-0.2,1.1,0,1.3,0.4
		c0.2,0.5,0,1.1-0.4,1.3c0,0-3.4,1.7-5.9,4.2C57.8,54.7,57.5,54.8,57.3,54.8z"/>
</g>
</svg>
