<?xml version="1.0" encoding="utf-8"?>
<!-- Generator: Adobe Illustrator 18.1.0, SVG Export Plug-In . SVG Version: 6.00 Build 0)  -->
<svg version="1.1" id="Layer_1" xmlns="http://www.w3.org/2000/svg" xmlns:xlink="http://www.w3.org/1999/xlink" x="0px" y="0px"
	 viewBox="0 0 165.1 130.9" enable-background="new 0 0 165.1 130.9" xml:space="preserve">
<g>
	<path fill="#4A7871" d="M123.2,55.9c-0.7-3.6-4.9-6-13.3-7.5c-2.6-0.5-5.6-0.8-9-1.1c3.4-1.3,6-3,7.7-5c1.8-2.2,2.4-4.8,1.8-7.5
		c-1.1-5.2-4.3-9.1-9.5-11.6C96.3,21,90.1,20,82.1,20c-15.2,0-28.3,10.6-28.3,19.3c0,3.5,2.1,6.2,6.1,8c-1.9,0.2-3.7,0.5-5.3,0.8
		c-4,0.8-7,2.1-9.1,3.8c-2.5,2-3.7,4.7-3.7,8c0,4.8,3.9,8.3,11.5,10.5c-1,0.4-1.9,1-2.5,1.8c-0.7,0.8-1.4,2.3-0.9,4.5
		c1.1,4.8,4.4,8.8,9.3,11.6c0.7,0.4,1.3,0.7,2,1c-1.9,0.3-3.5,0.6-4.9,1c-2.1,0.5-3.8,1.2-5.3,2c-1.7,0.9-3,2-3.9,3.2
		c-1,1.4-1.5,3-1.5,4.8v0v0c0,2.5,0.9,4.7,2.6,6.3c0.8,0.7,1.7,1.4,2.8,1.9c1,0.5,2.1,0.9,3.4,1.2c0.1,0,0.3,0.1,0.4,0.1
		c0.8,0,1.5-0.6,1.7-1.3c0.2-0.9-0.3-1.9-1.3-2.2c-2-0.5-3.6-1.3-4.6-2.2c-1-1-1.5-2.1-1.5-3.8c0,0,0,0,0,0c0-1,0.3-1.9,0.8-2.7
		c1-1.4,3.1-2.6,5.9-3.5c4.6-1.4,11.1-2,16.3-2.4c3.8,0,11.5-0.2,19.1-1.3c1.6-0.2,3.3-0.3,4.9-0.3h0c5.5,0,10.6,1.1,14.4,3
		c1.7,0.9,3,1.9,3.9,2.9c0.8,1,1.2,1.9,1.2,2.9c0,0.4-0.1,0.8-0.2,1.2c-0.2,0.6-0.6,1.2-1.3,1.8c-1.2,1-3.4,2-6.1,2.8
		c-3.7,1-8.7,1.8-14.9,2.2c-4.5,0.3-9.6,0.4-15.9,0.4c-1.4,0-5.8,0-6.6,0c-1,0-1.8,0.8-1.8,1.8c0,1,0.8,1.8,1.8,1.8h0
		c0.8,0,5.2,0,6.6,0c6.7,0,16.5-0.1,24.7-1.3c4.4-0.6,7.9-1.5,10.6-2.6c1.6-0.7,2.8-1.4,3.9-2.2c1.2-1,2-2.1,2.4-3.3
		c0.3-0.8,0.4-1.5,0.4-2.3c0-1.8-0.7-3.5-2-5.1c-0.9-1.1-2.1-2.1-3.5-3c-1.4-0.9-3-1.6-4.8-2.3c-1.5-0.5-3.1-0.9-4.7-1.3
		c0.6-0.3,1.2-0.5,1.8-0.8c3.1-1.7,4.7-3.7,4.7-6.2c0-4-2.6-6.9-7.8-8.6c0.9-0.1,1.8-0.3,2.7-0.5c7.6-1.5,12.7-3.8,15.4-7.1
		C123.1,61.8,123.8,59,123.2,55.9L123.2,55.9z M57.4,39.3c0-3,2.8-7,7-10.1c5.1-3.7,11.4-5.7,17.7-5.7c7.5,0,13.1,0.9,17.2,2.8
		c4.2,2,6.7,4.9,7.6,9.1c0.4,1.7,0,3.2-1.1,4.6c-3.2,4-12.5,6.6-23.7,6.6C65.5,46.6,57.4,44.2,57.4,39.3z M107.2,80.3
		c0,2.2-4.4,4.4-11.8,5.8c-1.4,0.3-3,0.5-4.7,0.8c-3.7,0.4-19,1.2-19.2,1.2c-4.8,0-16-3.1-18.2-12.4c-0.2-1,0.1-1.3,0.2-1.5
		c0.5-0.6,2-1.4,6.3-1.7c2.6-0.2,5.6-0.1,8.8,0c3.4,0.2,13,0.4,13.8,0.4C99.1,73.1,107.2,75.5,107.2,80.3L107.2,80.3z M118.4,61.9
		c-2.9,3.5-11.4,7.6-35.9,7.6c-4.1,0-12.3-0.4-13.5-0.4c-19.2-1.3-23.7-5.6-23.7-9.3c0-2.9,1.1-6.5,10-8.3
		c6.9-1.4,16.7-1.4,27.2-1.4c33.5,0,36.9,4.8,37.2,6.3C120.1,58.6,119.7,60.4,118.4,61.9L118.4,61.9z"/>
	<circle fill="#4A7871" cx="62.6" cy="109" r="1.8"/>
</g>
</svg>
