<?xml version="1.0" encoding="utf-8"?>
<!-- Generator: Adobe Illustrator 18.1.0, SVG Export Plug-In . SVG Version: 6.00 Build 0)  -->
<svg version="1.1" id="Layer_1" xmlns="http://www.w3.org/2000/svg" xmlns:xlink="http://www.w3.org/1999/xlink" x="0px" y="0px"
	 viewBox="0 0 1800 900" enable-background="new 0 0 1800 900" xml:space="preserve">
<circle fill="none" stroke="#4A7871" stroke-width="2.4921" stroke-miterlimit="10" cx="888.6" cy="451.8" r="360"/>
<g>
	<g>
		<path fill="#4A7871" d="M1081,309.8h-76v-55.3c0-3.8-3.1-6.9-6.9-6.9h-235c-3.8,0-6.9,3.1-6.9,6.9v96.8h-76
			c-3.8,0-6.9,3.1-6.9,6.9v283.4c0,3.8,3.1,6.9,6.9,6.9s6.9-3.1,6.9-6.9V365.1h69.1v283.4c0,3.8,3.1,6.9,6.9,6.9h235
			c3.8,0,6.9-3.1,6.9-6.9V323.6h69.1v317.9c0,3.8,3.1,6.9,6.9,6.9c3.8,0,6.9-3.1,6.9-6.9V316.7C1088,312.9,1084.9,309.8,1081,309.8z
			 M873.7,641.6h-27.6v-62.2h27.6V641.6z M915.2,641.6h-27.6v-62.2h27.6V641.6z M991.2,641.6H929v-69.1c0-3.8-3.1-6.9-6.9-6.9h-82.9
			c-3.8,0-6.9,3.1-6.9,6.9v69.1H770V261.4h221.2V641.6z"/>
	</g>
</g>
<g>
	<g>
		<path fill="#4A7871" d="M832.2,275.3h-41.5c-3.8,0-6.9,3.1-6.9,6.9v41.5c0,3.8,3.1,6.9,6.9,6.9h41.5c3.8,0,6.9-3.1,6.9-6.9v-41.5
			C839.1,278.4,836,275.3,832.2,275.3z M825.3,316.7h-27.6v-27.6h27.6V316.7z"/>
	</g>
</g>
<g>
	<g>
		<path fill="#4A7871" d="M901.3,275.3h-41.5c-3.8,0-6.9,3.1-6.9,6.9v41.5c0,3.8,3.1,6.9,6.9,6.9h41.5c3.8,0,6.9-3.1,6.9-6.9v-41.5
			C908.3,278.4,905.2,275.3,901.3,275.3z M894.4,316.7h-27.6v-27.6h27.6V316.7z"/>
	</g>
</g>
<g>
	<g>
		<path fill="#4A7871" d="M970.5,275.3H929c-3.8,0-6.9,3.1-6.9,6.9v41.5c0,3.8,3.1,6.9,6.9,6.9h41.5c3.8,0,6.9-3.1,6.9-6.9v-41.5
			C977.4,278.4,974.3,275.3,970.5,275.3z M963.5,316.7h-27.6v-27.6h27.6V316.7z"/>
	</g>
</g>
<g>
	<g>
		<path fill="#4A7871" d="M832.2,344.4h-41.5c-3.8,0-6.9,3.1-6.9,6.9v41.5c0,3.8,3.1,6.9,6.9,6.9h41.5c3.8,0,6.9-3.1,6.9-6.9v-41.5
			C839.1,347.5,836,344.4,832.2,344.4z M825.3,385.8h-27.6v-27.6h27.6V385.8z"/>
	</g>
</g>
<g>
	<g>
		<path fill="#4A7871" d="M901.3,344.4h-41.5c-3.8,0-6.9,3.1-6.9,6.9v41.5c0,3.8,3.1,6.9,6.9,6.9h41.5c3.8,0,6.9-3.1,6.9-6.9v-41.5
			C908.3,347.5,905.2,344.4,901.3,344.4z M894.4,385.8h-27.6v-27.6h27.6V385.8z"/>
	</g>
</g>
<g>
	<g>
		<path fill="#4A7871" d="M970.5,344.4H929c-3.8,0-6.9,3.1-6.9,6.9v41.5c0,3.8,3.1,6.9,6.9,6.9h41.5c3.8,0,6.9-3.1,6.9-6.9v-41.5
			C977.4,347.5,974.3,344.4,970.5,344.4z M963.5,385.8h-27.6v-27.6h27.6V385.8z"/>
	</g>
</g>
<g>
	<g>
		<path fill="#4A7871" d="M832.2,413.5h-41.5c-3.8,0-6.9,3.1-6.9,6.9v41.5c0,3.8,3.1,6.9,6.9,6.9h41.5c3.8,0,6.9-3.1,6.9-6.9v-41.5
			C839.1,416.6,836,413.5,832.2,413.5z M825.3,455h-27.6v-27.6h27.6V455z"/>
	</g>
</g>
<g>
	<g>
		<path fill="#4A7871" d="M901.3,413.5h-41.5c-3.8,0-6.9,3.1-6.9,6.9v41.5c0,3.8,3.1,6.9,6.9,6.9h41.5c3.8,0,6.9-3.1,6.9-6.9v-41.5
			C908.3,416.6,905.2,413.5,901.3,413.5z M894.4,455h-27.6v-27.6h27.6V455z"/>
	</g>
</g>
<g>
	<g>
		<path fill="#4A7871" d="M970.5,413.5H929c-3.8,0-6.9,3.1-6.9,6.9v41.5c0,3.8,3.1,6.9,6.9,6.9h41.5c3.8,0,6.9-3.1,6.9-6.9v-41.5
			C977.4,416.6,974.3,413.5,970.5,413.5z M963.5,455h-27.6v-27.6h27.6V455z"/>
	</g>
</g>
<g>
	<g>
		<path fill="#4A7871" d="M832.2,482.6h-41.5c-3.8,0-6.9,3.1-6.9,6.9V531c0,3.8,3.1,6.9,6.9,6.9h41.5c3.8,0,6.9-3.1,6.9-6.9v-41.5
			C839.1,485.7,836,482.6,832.2,482.6z M825.3,524.1h-27.6v-27.6h27.6V524.1z"/>
	</g>
</g>
<g>
	<g>
		<path fill="#4A7871" d="M901.3,482.6h-41.5c-3.8,0-6.9,3.1-6.9,6.9V531c0,3.8,3.1,6.9,6.9,6.9h41.5c3.8,0,6.9-3.1,6.9-6.9v-41.5
			C908.3,485.7,905.2,482.6,901.3,482.6z M894.4,524.1h-27.6v-27.6h27.6V524.1z"/>
	</g>
</g>
<g>
	<g>
		<path fill="#4A7871" d="M970.5,482.6H929c-3.8,0-6.9,3.1-6.9,6.9V531c0,3.8,3.1,6.9,6.9,6.9h41.5c3.8,0,6.9-3.1,6.9-6.9v-41.5
			C977.4,485.7,974.3,482.6,970.5,482.6z M963.5,524.1h-27.6v-27.6h27.6V524.1z"/>
	</g>
</g>
<g>
	<g>
		<path fill="#4A7871" d="M714.7,378.9h-6.9c-3.8,0-6.9,3.1-6.9,6.9v6.9c0,3.8,3.1,6.9,6.9,6.9h6.9c3.8,0,6.9-3.1,6.9-6.9v-6.9
			C721.6,382,718.6,378.9,714.7,378.9z"/>
	</g>
</g>
<g>
	<g>
		<path fill="#4A7871" d="M742.4,378.9h-6.9c-3.8,0-6.9,3.1-6.9,6.9v6.9c0,3.8,3.1,6.9,6.9,6.9h6.9c3.8,0,6.9-3.1,6.9-6.9v-6.9
			C749.3,382,746.2,378.9,742.4,378.9z"/>
	</g>
</g>
<g>
	<g>
		<path fill="#4A7871" d="M714.7,406.6h-6.9c-3.8,0-6.9,3.1-6.9,6.9v6.9c0,3.8,3.1,6.9,6.9,6.9h6.9c3.8,0,6.9-3.1,6.9-6.9v-6.9
			C721.6,409.7,718.6,406.6,714.7,406.6z"/>
	</g>
</g>
<g>
	<g>
		<path fill="#4A7871" d="M742.4,406.6h-6.9c-3.8,0-6.9,3.1-6.9,6.9v6.9c0,3.8,3.1,6.9,6.9,6.9h6.9c3.8,0,6.9-3.1,6.9-6.9v-6.9
			C749.3,409.7,746.2,406.6,742.4,406.6z"/>
	</g>
</g>
<g>
	<g>
		<path fill="#4A7871" d="M714.7,434.2h-6.9c-3.8,0-6.9,3.1-6.9,6.9v6.9c0,3.8,3.1,6.9,6.9,6.9h6.9c3.8,0,6.9-3.1,6.9-6.9v-6.9
			C721.6,437.3,718.6,434.2,714.7,434.2z"/>
	</g>
</g>
<g>
	<g>
		<path fill="#4A7871" d="M742.4,434.2h-6.9c-3.8,0-6.9,3.1-6.9,6.9v6.9c0,3.8,3.1,6.9,6.9,6.9h6.9c3.8,0,6.9-3.1,6.9-6.9v-6.9
			C749.3,437.3,746.2,434.2,742.4,434.2z"/>
	</g>
</g>
<g>
	<g>
		<path fill="#4A7871" d="M714.7,461.9h-6.9c-3.8,0-6.9,3.1-6.9,6.9v6.9c0,3.8,3.1,6.9,6.9,6.9h6.9c3.8,0,6.9-3.1,6.9-6.9v-6.9
			C721.6,465,718.6,461.9,714.7,461.9z"/>
	</g>
</g>
<g>
	<g>
		<path fill="#4A7871" d="M742.4,461.9h-6.9c-3.8,0-6.9,3.1-6.9,6.9v6.9c0,3.8,3.1,6.9,6.9,6.9h6.9c3.8,0,6.9-3.1,6.9-6.9v-6.9
			C749.3,465,746.2,461.9,742.4,461.9z"/>
	</g>
</g>
<g>
	<g>
		<path fill="#4A7871" d="M714.7,489.5h-6.9c-3.8,0-6.9,3.1-6.9,6.9v6.9c0,3.8,3.1,6.9,6.9,6.9h6.9c3.8,0,6.9-3.1,6.9-6.9v-6.9
			C721.6,492.6,718.6,489.5,714.7,489.5z"/>
	</g>
</g>
<g>
	<g>
		<path fill="#4A7871" d="M742.4,489.5h-6.9c-3.8,0-6.9,3.1-6.9,6.9v6.9c0,3.8,3.1,6.9,6.9,6.9h6.9c3.8,0,6.9-3.1,6.9-6.9v-6.9
			C749.3,492.6,746.2,489.5,742.4,489.5z"/>
	</g>
</g>
<g>
	<g>
		<path fill="#4A7871" d="M714.7,517.2h-6.9c-3.8,0-6.9,3.1-6.9,6.9v6.9c0,3.8,3.1,6.9,6.9,6.9h6.9c3.8,0,6.9-3.1,6.9-6.9v-6.9
			C721.6,520.3,718.6,517.2,714.7,517.2z"/>
	</g>
</g>
<g>
	<g>
		<path fill="#4A7871" d="M742.4,517.2h-6.9c-3.8,0-6.9,3.1-6.9,6.9v6.9c0,3.8,3.1,6.9,6.9,6.9h6.9c3.8,0,6.9-3.1,6.9-6.9v-6.9
			C749.3,520.3,746.2,517.2,742.4,517.2z"/>
	</g>
</g>
<g>
	<g>
		<path fill="#4A7871" d="M714.7,544.8h-6.9c-3.8,0-6.9,3.1-6.9,6.9v6.9c0,3.8,3.1,6.9,6.9,6.9h6.9c3.8,0,6.9-3.1,6.9-6.9v-6.9
			C721.6,547.9,718.6,544.8,714.7,544.8z"/>
	</g>
</g>
<g>
	<g>
		<path fill="#4A7871" d="M742.4,544.8h-6.9c-3.8,0-6.9,3.1-6.9,6.9v6.9c0,3.8,3.1,6.9,6.9,6.9h6.9c3.8,0,6.9-3.1,6.9-6.9v-6.9
			C749.3,547.9,746.2,544.8,742.4,544.8z"/>
	</g>
</g>
<g>
	<g>
		<path fill="#4A7871" d="M714.7,572.5h-6.9c-3.8,0-6.9,3.1-6.9,6.9v6.9c0,3.8,3.1,6.9,6.9,6.9h6.9c3.8,0,6.9-3.1,6.9-6.9v-6.9
			C721.6,575.5,718.6,572.5,714.7,572.5z"/>
	</g>
</g>
<g>
	<g>
		<path fill="#4A7871" d="M742.4,572.5h-6.9c-3.8,0-6.9,3.1-6.9,6.9v6.9c0,3.8,3.1,6.9,6.9,6.9h6.9c3.8,0,6.9-3.1,6.9-6.9v-6.9
			C749.3,575.5,746.2,572.5,742.4,572.5z"/>
	</g>
</g>
<g>
	<g>
		<path fill="#4A7871" d="M714.7,600.1h-6.9c-3.8,0-6.9,3.1-6.9,6.9v6.9c0,3.8,3.1,6.9,6.9,6.9h6.9c3.8,0,6.9-3.1,6.9-6.9V607
			C721.6,603.2,718.6,600.1,714.7,600.1z"/>
	</g>
</g>
<g>
	<g>
		<path fill="#4A7871" d="M742.4,600.1h-6.9c-3.8,0-6.9,3.1-6.9,6.9v6.9c0,3.8,3.1,6.9,6.9,6.9h6.9c3.8,0,6.9-3.1,6.9-6.9V607
			C749.3,603.2,746.2,600.1,742.4,600.1z"/>
	</g>
</g>
<g>
	<g>
		<path fill="#4A7871" d="M1053.4,337.5h-27.6c-3.8,0-6.9,3.1-6.9,6.9V372c0,3.8,3.1,6.9,6.9,6.9h27.6c3.8,0,6.9-3.1,6.9-6.9v-27.6
			C1060.3,340.6,1057.2,337.5,1053.4,337.5z M1046.5,365.1h-13.8v-13.8h13.8V365.1z"/>
	</g>
</g>
<g>
	<g>
		<path fill="#4A7871" d="M1053.4,392.8h-27.6c-3.8,0-6.9,3.1-6.9,6.9v27.6c0,3.8,3.1,6.9,6.9,6.9h27.6c3.8,0,6.9-3.1,6.9-6.9v-27.6
			C1060.3,395.9,1057.2,392.8,1053.4,392.8z M1046.5,420.4h-13.8v-13.8h13.8V420.4z"/>
	</g>
</g>
<g>
	<g>
		<path fill="#4A7871" d="M1053.4,448h-27.6c-3.8,0-6.9,3.1-6.9,6.9v27.6c0,3.8,3.1,6.9,6.9,6.9h27.6c3.8,0,6.9-3.1,6.9-6.9V455
			C1060.3,451.1,1057.2,448,1053.4,448z M1046.5,475.7h-13.8v-13.8h13.8V475.7z"/>
	</g>
</g>
<g>
	<g>
		<path fill="#4A7871" d="M1053.4,503.3h-27.6c-3.8,0-6.9,3.1-6.9,6.9v27.6c0,3.8,3.1,6.9,6.9,6.9h27.6c3.8,0,6.9-3.1,6.9-6.9v-27.6
			C1060.3,506.4,1057.2,503.3,1053.4,503.3z M1046.5,531h-13.8v-13.8h13.8V531z"/>
	</g>
</g>
<g>
	<g>
		<path fill="#4A7871" d="M1053.4,558.6h-27.6c-3.8,0-6.9,3.1-6.9,6.9v27.6c0,3.8,3.1,6.9,6.9,6.9h27.6c3.8,0,6.9-3.1,6.9-6.9v-27.6
			C1060.3,561.7,1057.2,558.6,1053.4,558.6z M1046.5,586.3h-13.8v-13.8h13.8V586.3z"/>
	</g>
</g>
</svg>
