<?xml version="1.0" encoding="utf-8"?>
<!-- Generator: Adobe Illustrator 18.1.0, SVG Export Plug-In . SVG Version: 6.00 Build 0)  -->
<svg version="1.1" id="Layer_1" xmlns="http://www.w3.org/2000/svg" xmlns:xlink="http://www.w3.org/1999/xlink" x="0px" y="0px"
	 viewBox="0 0 612 792" enable-background="new 0 0 612 792" xml:space="preserve">
<path fill="#4A7871" d="M298.2,646.9c-137.5,0-249.7-112.2-249.7-249.7s112.2-249.7,249.7-249.7s249.7,112.2,249.7,249.7
	S436.2,646.9,298.2,646.9z M298.2,157.7C166.1,157.7,58.8,265,58.8,397.2s107.3,239.5,239.5,239.5s239.5-107.3,239.5-239.5
	S430.4,157.7,298.2,157.7z"/>
<g>
	<g>
		<g>
			<path fill="#4A7871" d="M397,320.9h-37.4v-27.2c0-1.9-1.5-3.4-3.4-3.4H240.4c-1.9,0-3.4,1.5-3.4,3.4v47.7h-37.4
				c-1.9,0-3.4,1.5-3.4,3.4v139.6c0,1.9,1.5,3.4,3.4,3.4c1.9,0,3.4-1.5,3.4-3.4V348.1h34v139.6c0,1.9,1.5,3.4,3.4,3.4h115.8
				c1.9,0,3.4-1.5,3.4-3.4V327.7h34v156.6c0,1.9,1.5,3.4,3.4,3.4c1.9,0,3.4-1.5,3.4-3.4v-160C400.4,322.4,398.9,320.9,397,320.9z
				 M294.8,484.4h-13.6v-30.6h13.6V484.4z M315.3,484.4h-13.6v-30.6h13.6V484.4z M352.7,484.4h-30.6v-34c0-1.9-1.5-3.4-3.4-3.4
				h-40.8c-1.9,0-3.4,1.5-3.4,3.4v34h-30.7V297h109V484.4z"/>
		</g>
	</g>
	<g>
		<g>
			<path fill="#4A7871" d="M274.4,303.9H254c-1.9,0-3.4,1.5-3.4,3.4v20.4c0,1.9,1.5,3.4,3.4,3.4h20.4c1.9,0,3.4-1.5,3.4-3.4v-20.4
				C277.8,305.4,276.3,303.9,274.4,303.9z M271,324.3h-13.6v-13.6H271V324.3z"/>
		</g>
	</g>
	<g>
		<g>
			<path fill="#4A7871" d="M308.4,303.9H288c-1.9,0-3.4,1.5-3.4,3.4v20.4c0,1.9,1.5,3.4,3.4,3.4h20.4c1.9,0,3.4-1.5,3.4-3.4v-20.4
				C311.9,305.4,310.4,303.9,308.4,303.9z M305,324.3h-13.6v-13.6H305V324.3z"/>
		</g>
	</g>
	<g>
		<g>
			<path fill="#4A7871" d="M342.5,303.9h-20.4c-1.9,0-3.4,1.5-3.4,3.4v20.4c0,1.9,1.5,3.4,3.4,3.4h20.4c1.9,0,3.4-1.5,3.4-3.4v-20.4
				C345.9,305.4,344.4,303.9,342.5,303.9z M339.1,324.3h-13.6v-13.6h13.6V324.3z"/>
		</g>
	</g>
	<g>
		<g>
			<path fill="#4A7871" d="M274.4,337.9H254c-1.9,0-3.4,1.5-3.4,3.4v20.4c0,1.9,1.5,3.4,3.4,3.4h20.4c1.9,0,3.4-1.5,3.4-3.4v-20.4
				C277.8,339.5,276.3,337.9,274.4,337.9z M271,358.3h-13.6v-13.6H271V358.3z"/>
		</g>
	</g>
	<g>
		<g>
			<path fill="#4A7871" d="M308.4,337.9H288c-1.9,0-3.4,1.5-3.4,3.4v20.4c0,1.9,1.5,3.4,3.4,3.4h20.4c1.9,0,3.4-1.5,3.4-3.4v-20.4
				C311.9,339.5,310.4,337.9,308.4,337.9z M305,358.3h-13.6v-13.6H305V358.3z"/>
		</g>
	</g>
	<g>
		<g>
			<path fill="#4A7871" d="M342.5,337.9h-20.4c-1.9,0-3.4,1.5-3.4,3.4v20.4c0,1.9,1.5,3.4,3.4,3.4h20.4c1.9,0,3.4-1.5,3.4-3.4v-20.4
				C345.9,339.5,344.4,337.9,342.5,337.9z M339.1,358.3h-13.6v-13.6h13.6V358.3z"/>
		</g>
	</g>
	<g>
		<g>
			<path fill="#4A7871" d="M274.4,372H254c-1.9,0-3.4,1.5-3.4,3.4v20.4c0,1.9,1.5,3.4,3.4,3.4h20.4c1.9,0,3.4-1.5,3.4-3.4v-20.4
				C277.8,373.5,276.3,372,274.4,372z M271,392.4h-13.6v-13.6H271V392.4z"/>
		</g>
	</g>
	<g>
		<g>
			<path fill="#4A7871" d="M308.4,372H288c-1.9,0-3.4,1.5-3.4,3.4v20.4c0,1.9,1.5,3.4,3.4,3.4h20.4c1.9,0,3.4-1.5,3.4-3.4v-20.4
				C311.9,373.5,310.4,372,308.4,372z M305,392.4h-13.6v-13.6H305V392.4z"/>
		</g>
	</g>
	<g>
		<g>
			<path fill="#4A7871" d="M342.5,372h-20.4c-1.9,0-3.4,1.5-3.4,3.4v20.4c0,1.9,1.5,3.4,3.4,3.4h20.4c1.9,0,3.4-1.5,3.4-3.4v-20.4
				C345.9,373.5,344.4,372,342.5,372z M339.1,392.4h-13.6v-13.6h13.6V392.4z"/>
		</g>
	</g>
	<g>
		<g>
			<path fill="#4A7871" d="M274.4,406H254c-1.9,0-3.4,1.5-3.4,3.4v20.4c0,1.9,1.5,3.4,3.4,3.4h20.4c1.9,0,3.4-1.5,3.4-3.4v-20.4
				C277.8,407.5,276.3,406,274.4,406z M271,426.5h-13.6v-13.6H271V426.5z"/>
		</g>
	</g>
	<g>
		<g>
			<path fill="#4A7871" d="M308.4,406H288c-1.9,0-3.4,1.5-3.4,3.4v20.4c0,1.9,1.5,3.4,3.4,3.4h20.4c1.9,0,3.4-1.5,3.4-3.4v-20.4
				C311.9,407.5,310.4,406,308.4,406z M305,426.5h-13.6v-13.6H305V426.5z"/>
		</g>
	</g>
	<g>
		<g>
			<path fill="#4A7871" d="M342.5,406h-20.4c-1.9,0-3.4,1.5-3.4,3.4v20.4c0,1.9,1.5,3.4,3.4,3.4h20.4c1.9,0,3.4-1.5,3.4-3.4v-20.4
				C345.9,407.5,344.4,406,342.5,406z M339.1,426.5h-13.6v-13.6h13.6V426.5z"/>
		</g>
	</g>
	<g>
		<g>
			<path fill="#4A7871" d="M216.5,354.9h-3.4c-1.9,0-3.4,1.5-3.4,3.4v3.4c0,1.9,1.5,3.4,3.4,3.4h3.4c1.9,0,3.4-1.5,3.4-3.4v-3.4
				C219.9,356.5,218.4,354.9,216.5,354.9z"/>
		</g>
	</g>
	<g>
		<g>
			<path fill="#4A7871" d="M230.2,354.9h-3.4c-1.9,0-3.4,1.5-3.4,3.4v3.4c0,1.9,1.5,3.4,3.4,3.4h3.4c1.9,0,3.4-1.5,3.4-3.4v-3.4
				C233.6,356.5,232,354.9,230.2,354.9z"/>
		</g>
	</g>
	<g>
		<g>
			<path fill="#4A7871" d="M216.5,368.6h-3.4c-1.9,0-3.4,1.5-3.4,3.4v3.4c0,1.9,1.5,3.4,3.4,3.4h3.4c1.9,0,3.4-1.5,3.4-3.4V372
				C219.9,370.1,218.4,368.6,216.5,368.6z"/>
		</g>
	</g>
	<g>
		<g>
			<path fill="#4A7871" d="M230.2,368.6h-3.4c-1.9,0-3.4,1.5-3.4,3.4v3.4c0,1.9,1.5,3.4,3.4,3.4h3.4c1.9,0,3.4-1.5,3.4-3.4V372
				C233.6,370.1,232,368.6,230.2,368.6z"/>
		</g>
	</g>
	<g>
		<g>
			<path fill="#4A7871" d="M216.5,382.2h-3.4c-1.9,0-3.4,1.5-3.4,3.4v3.4c0,1.9,1.5,3.4,3.4,3.4h3.4c1.9,0,3.4-1.5,3.4-3.4v-3.4
				C219.9,383.7,218.4,382.2,216.5,382.2z"/>
		</g>
	</g>
	<g>
		<g>
			<path fill="#4A7871" d="M230.2,382.2h-3.4c-1.9,0-3.4,1.5-3.4,3.4v3.4c0,1.9,1.5,3.4,3.4,3.4h3.4c1.9,0,3.4-1.5,3.4-3.4v-3.4
				C233.6,383.7,232,382.2,230.2,382.2z"/>
		</g>
	</g>
	<g>
		<g>
			<path fill="#4A7871" d="M216.5,395.8h-3.4c-1.9,0-3.4,1.5-3.4,3.4v3.4c0,1.9,1.5,3.4,3.4,3.4h3.4c1.9,0,3.4-1.5,3.4-3.4v-3.4
				C219.9,397.4,218.4,395.8,216.5,395.8z"/>
		</g>
	</g>
	<g>
		<g>
			<path fill="#4A7871" d="M230.2,395.8h-3.4c-1.9,0-3.4,1.5-3.4,3.4v3.4c0,1.9,1.5,3.4,3.4,3.4h3.4c1.9,0,3.4-1.5,3.4-3.4v-3.4
				C233.6,397.4,232,395.8,230.2,395.8z"/>
		</g>
	</g>
	<g>
		<g>
			<path fill="#4A7871" d="M216.5,409.4h-3.4c-1.9,0-3.4,1.5-3.4,3.4v3.4c0,1.9,1.5,3.4,3.4,3.4h3.4c1.9,0,3.4-1.5,3.4-3.4v-3.4
				C219.9,410.9,218.4,409.4,216.5,409.4z"/>
		</g>
	</g>
	<g>
		<g>
			<path fill="#4A7871" d="M230.2,409.4h-3.4c-1.9,0-3.4,1.5-3.4,3.4v3.4c0,1.9,1.5,3.4,3.4,3.4h3.4c1.9,0,3.4-1.5,3.4-3.4v-3.4
				C233.6,410.9,232,409.4,230.2,409.4z"/>
		</g>
	</g>
	<g>
		<g>
			<path fill="#4A7871" d="M216.5,423.1h-3.4c-1.9,0-3.4,1.5-3.4,3.4v3.4c0,1.9,1.5,3.4,3.4,3.4h3.4c1.9,0,3.4-1.5,3.4-3.4v-3.4
				C219.9,424.6,218.4,423.1,216.5,423.1z"/>
		</g>
	</g>
	<g>
		<g>
			<path fill="#4A7871" d="M230.2,423.1h-3.4c-1.9,0-3.4,1.5-3.4,3.4v3.4c0,1.9,1.5,3.4,3.4,3.4h3.4c1.9,0,3.4-1.5,3.4-3.4v-3.4
				C233.6,424.6,232,423.1,230.2,423.1z"/>
		</g>
	</g>
	<g>
		<g>
			<path fill="#4A7871" d="M216.5,436.7h-3.4c-1.9,0-3.4,1.5-3.4,3.4v3.4c0,1.9,1.5,3.4,3.4,3.4h3.4c1.9,0,3.4-1.5,3.4-3.4v-3.4
				C219.9,438.2,218.4,436.7,216.5,436.7z"/>
		</g>
	</g>
	<g>
		<g>
			<path fill="#4A7871" d="M230.2,436.7h-3.4c-1.9,0-3.4,1.5-3.4,3.4v3.4c0,1.9,1.5,3.4,3.4,3.4h3.4c1.9,0,3.4-1.5,3.4-3.4v-3.4
				C233.6,438.2,232,436.7,230.2,436.7z"/>
		</g>
	</g>
	<g>
		<g>
			<path fill="#4A7871" d="M216.5,450.3h-3.4c-1.9,0-3.4,1.5-3.4,3.4v3.4c0,1.9,1.5,3.4,3.4,3.4h3.4c1.9,0,3.4-1.5,3.4-3.4v-3.4
				C219.9,451.8,218.4,450.3,216.5,450.3z"/>
		</g>
	</g>
	<g>
		<g>
			<path fill="#4A7871" d="M230.2,450.3h-3.4c-1.9,0-3.4,1.5-3.4,3.4v3.4c0,1.9,1.5,3.4,3.4,3.4h3.4c1.9,0,3.4-1.5,3.4-3.4v-3.4
				C233.6,451.8,232,450.3,230.2,450.3z"/>
		</g>
	</g>
	<g>
		<g>
			<path fill="#4A7871" d="M216.5,463.9h-3.4c-1.9,0-3.4,1.5-3.4,3.4v3.4c0,1.9,1.5,3.4,3.4,3.4h3.4c1.9,0,3.4-1.5,3.4-3.4v-3.4
				C219.9,465.4,218.4,463.9,216.5,463.9z"/>
		</g>
	</g>
	<g>
		<g>
			<path fill="#4A7871" d="M230.2,463.9h-3.4c-1.9,0-3.4,1.5-3.4,3.4v3.4c0,1.9,1.5,3.4,3.4,3.4h3.4c1.9,0,3.4-1.5,3.4-3.4v-3.4
				C233.6,465.4,232,463.9,230.2,463.9z"/>
		</g>
	</g>
	<g>
		<g>
			<path fill="#4A7871" d="M383.4,334.5h-13.6c-1.9,0-3.4,1.5-3.4,3.4v13.6c0,1.9,1.5,3.4,3.4,3.4h13.6c1.9,0,3.4-1.5,3.4-3.4v-13.6
				C386.8,336.1,385.3,334.5,383.4,334.5z M380,348.1h-6.8v-6.8h6.8V348.1z"/>
		</g>
	</g>
	<g>
		<g>
			<path fill="#4A7871" d="M383.4,361.8h-13.6c-1.9,0-3.4,1.5-3.4,3.4v13.6c0,1.9,1.5,3.4,3.4,3.4h13.6c1.9,0,3.4-1.5,3.4-3.4v-13.6
				C386.8,363.3,385.3,361.8,383.4,361.8z M380,375.4h-6.8v-6.8h6.8V375.4z"/>
		</g>
	</g>
	<g>
		<g>
			<path fill="#4A7871" d="M383.4,389h-13.6c-1.9,0-3.4,1.5-3.4,3.4V406c0,1.9,1.5,3.4,3.4,3.4h13.6c1.9,0,3.4-1.5,3.4-3.4v-13.5
				C386.8,390.5,385.3,389,383.4,389z M380,402.6h-6.8v-6.8h6.8V402.6z"/>
		</g>
	</g>
	<g>
		<g>
			<path fill="#4A7871" d="M383.4,416.2h-13.6c-1.9,0-3.4,1.5-3.4,3.4v13.6c0,1.9,1.5,3.4,3.4,3.4h13.6c1.9,0,3.4-1.5,3.4-3.4v-13.6
				C386.8,417.7,385.3,416.2,383.4,416.2z M380,429.9h-6.8v-6.8h6.8V429.9z"/>
		</g>
	</g>
	<g>
		<g>
			<path fill="#4A7871" d="M383.4,443.5h-13.6c-1.9,0-3.4,1.5-3.4,3.4v13.6c0,1.9,1.5,3.4,3.4,3.4h13.6c1.9,0,3.4-1.5,3.4-3.4v-13.6
				C386.8,445,385.3,443.5,383.4,443.5z M380,457.1h-6.8v-6.8h6.8V457.1z"/>
		</g>
	</g>
</g>
</svg>
