<?xml version="1.0" encoding="utf-8"?>
<!-- Generator: Adobe Illustrator 18.1.0, SVG Export Plug-In . SVG Version: 6.00 Build 0)  -->
<svg version="1.1" id="Layer_1" xmlns="http://www.w3.org/2000/svg" xmlns:xlink="http://www.w3.org/1999/xlink" x="0px" y="0px"
	 viewBox="0 0 1800 900" 
enableBackground="new 0 0 1800 900" xml:space="preserve">
<circle fill="none" stroke="#4A7871" stroke-width="2.4921" stroke-miterlimit="10" cx="888.6" cy="451.8" r="360"/>
<g>
	<path fill="#4A7871" d="M1152.3,495l-2.2-7.7c-0.7-2.4-3.2-3.8-5.6-3.1l-102.1,29.4L662,623.1c-1.1,0.3-2.1,1.1-2.7,2.1
		c-0.6,1-0.7,2.3-0.4,3.4l2.2,7.7c0.6,2,2.4,3.3,4.3,3.3c0.4,0,0.8-0.1,1.2-0.2L1043.6,531l105.6-30.4c1.1-0.3,2.1-1.1,2.7-2.1
		C1152.5,497.4,1152.6,496.2,1152.3,495z"/>
	<path fill="#4A7871" d="M641.1,287.8c37.7,0,56.2,12,75.8,24.6c20.8,13.5,42.3,27.4,85,27.4c42.7,0,64.2-13.9,85-27.4
		c19.6-12.7,38.1-24.6,75.8-24.6c37.7,0,56.2,12,75.8,24.6c20.8,13.5,42.3,27.4,85,27.4c2.5,0,4.5-2,4.5-4.5v-8c0-2.5-2-4.5-4.5-4.5
		c-37.7,0-56.2-12-75.8-24.6c-20.8-13.5-42.3-27.4-85-27.4c-42.7,0-64.2,13.9-85,27.4c-19.6,12.7-38.1,24.6-75.8,24.6
		c-37.7,0-56.2-12-75.8-24.6c-20.8-13.5-42.3-27.4-85-27.4c-2.5,0-4.5,2-4.5,4.5v8C636.6,285.8,638.6,287.8,641.1,287.8z"/>
	<path fill="#4A7871" d="M641.1,367.7c37.7,0,56.2,12,75.8,24.6c20.8,13.5,42.3,27.4,85,27.4c42.7,0,64.2-13.9,85-27.4
		c19.6-12.7,38.1-24.6,75.8-24.6c37.7,0,56.2,12,75.8,24.6c20.8,13.5,42.3,27.4,85,27.4c2.5,0,4.5-2,4.5-4.5v-8c0-2.5-2-4.5-4.5-4.5
		c-37.7,0-56.2-12-75.8-24.6c-20.8-13.5-42.3-27.4-85-27.4c-42.7,0-64.2,13.9-85,27.4c-19.6,12.7-38.1,24.6-75.8,24.6
		c-37.7,0-56.2-12-75.8-24.6c-20.8-13.5-42.3-27.4-85-27.4c-2.5,0-4.5,2-4.5,4.5v8C636.6,365.7,638.6,367.7,641.1,367.7z"/>
	<path fill="#4A7871" d="M802,504.2c42.7,0,64.2-13.9,85-27.4c19.6-12.7,38.1-24.6,75.8-24.6c33.8,0,52.3,9.8,68.2,19.8
		c2.5,1.6,5,3.2,7.6,4.9l1.3,0.9c1.1,0.7,2.4,0.9,3.7,0.5l10.2-3c1.7-0.5,3-1.9,3.2-3.7s-0.6-3.5-2.1-4.4c-2.4-1.5-4.8-3-7.2-4.6
		l-1.7-1.1c-18.1-11.7-40.7-26.2-83.3-26.2c-42.7,0-64.2,13.9-85,27.4c-19.6,12.7-38.1,24.6-75.8,24.6c-37.7,0-56.2-12-75.8-24.7
		c-20.8-13.4-42.3-27.3-85-27.3c-2.5,0-4.5,2-4.5,4.5v8c0,2.5,2,4.5,4.5,4.5c37.7,0,56.2,12,75.8,24.6
		C737.7,490.3,759.2,504.2,802,504.2z"/>
</g>
</svg>
