<?xml version="1.0" encoding="utf-8"?>
<!-- Generator: Adobe Illustrator 18.1.0, SVG Export Plug-In . SVG Version: 6.00 Build 0)  -->
<svg version="1.1" id="Layer_1" xmlns="http://www.w3.org/2000/svg" xmlns:xlink="http://www.w3.org/1999/xlink" x="0px" y="0px"
	 viewBox="0 0 232.5 75.4" enable-background="new 0 0 232.5 75.4" xml:space="preserve">
<g>
	<g>
		<g>
			<path fill="#D3C7BE" d="M69.9,66.2c-0.2-0.2-0.4-0.2-0.7-0.3c-0.2-0.1-0.6-0.1-0.8-0.1h-1.8V72h0.7v-2.8h1.3c0.2,0,0.5,0,0.7-0.1
				c0.2-0.1,0.5-0.2,0.6-0.2c0.2-0.1,0.4-0.3,0.5-0.6c0.2-0.2,0.2-0.5,0.2-0.9c0-0.3-0.1-0.6-0.2-0.8C70.3,66.5,70.1,66.3,69.9,66.2
				z M69.5,68.3c-0.2,0.2-0.6,0.2-0.9,0.2h-1.3v-2.1h1.3c0.4,0,0.6,0.1,0.9,0.2c0.2,0.2,0.3,0.4,0.3,0.8
				C69.8,67.8,69.7,68.1,69.5,68.3z"/>
			<polygon fill="#D3C7BE" points="75.3,65.8 74.6,65.8 74.6,72 78.2,72 78.2,71.3 75.3,71.3 			"/>
			<path fill="#D3C7BE" d="M83.9,65.8L81.1,72H82l0.6-1.5h3.1l0.6,1.5h0.9l-2.7-6.3H83.9z M82.9,69.8l1.3-3.1l0,0l1.3,3.1H82.9z"/>
			<polygon fill="#D3C7BE" points="92.1,68.6 90.3,65.8 89.4,65.8 91.7,69.3 91.7,72 92.5,72 92.5,69.3 94.8,65.8 93.9,65.8 			"/>
			<path fill="#D3C7BE" d="M99.7,65.8L96.9,72h0.9l0.6-1.5h3.1l0.6,1.5h0.9l-2.7-6.3H99.7z M98.8,69.8l1.3-3.1l0,0l1.3,3.1H98.8z"/>
			<polygon fill="#D3C7BE" points="115.3,70.7 115.3,70.7 113.1,65.8 112,65.8 112,72 112.7,72 112.7,66.8 112.8,66.8 115,72 
				115.4,72 117.7,66.8 117.7,66.8 117.7,72 118.5,72 118.5,65.8 117.4,65.8 			"/>
			<path fill="#D3C7BE" d="M126.8,69.6c0,0.2,0,0.5-0.1,0.7c-0.1,0.2-0.2,0.5-0.2,0.6c-0.2,0.2-0.3,0.3-0.5,0.5
				c-0.2,0.1-0.5,0.2-0.8,0.2c-0.3,0-0.6-0.1-0.8-0.2c-0.2-0.1-0.4-0.2-0.5-0.5c-0.2-0.2-0.2-0.4-0.2-0.6c-0.1-0.2-0.1-0.5-0.1-0.7
				v-3.7h-0.7v3.9c0,0.3,0.1,0.6,0.2,1c0.1,0.3,0.2,0.6,0.4,0.8c0.2,0.2,0.4,0.4,0.7,0.6c0.3,0.2,0.6,0.2,1.1,0.2
				c0.4,0,0.8-0.1,1.1-0.2c0.3-0.2,0.6-0.3,0.7-0.6c0.2-0.2,0.3-0.5,0.4-0.8s0.2-0.6,0.2-1v-3.9H127v3.7H126.8z"/>
			<path fill="#D3C7BE" d="M133.9,70.2c0,0.2,0,0.3-0.1,0.5c0,0.2-0.1,0.3-0.2,0.4c-0.1,0.2-0.2,0.2-0.3,0.3
				c-0.2,0.1-0.3,0.1-0.6,0.1s-0.5-0.1-0.6-0.2c-0.2-0.2-0.2-0.3-0.3-0.6l-0.7,0.2c0.1,0.5,0.2,0.8,0.6,1c0.3,0.2,0.6,0.3,1.1,0.3
				c0.3,0,0.6-0.1,0.9-0.2s0.4-0.2,0.6-0.4c0.2-0.2,0.2-0.4,0.3-0.6c0.1-0.2,0.1-0.4,0.1-0.6v-4.6h-0.7L133.9,70.2L133.9,70.2z"/>
			<polygon fill="#D3C7BE" points="139.7,69.1 142.8,69.1 142.8,68.5 139.7,68.5 139.7,66.5 142.9,66.5 142.9,65.8 139,65.8 139,72 
				143.1,72 143.1,71.3 139.7,71.3 			"/>
			<path fill="#D3C7BE" d="M150.8,68.6c0.2-0.3,0.4-0.6,0.4-1.1c0-0.4-0.1-0.7-0.2-1c-0.2-0.2-0.3-0.4-0.6-0.6
				c-0.2-0.1-0.5-0.2-0.8-0.2c-0.3,0-0.6-0.1-0.9-0.1h-1.6V72h0.7v-2.8h1l1.7,2.8h0.9l-1.7-2.9C150.1,69.1,150.5,68.9,150.8,68.6z
				 M148.5,68.5h-0.6v-2.1h1c0.2,0,0.4,0,0.6,0c0.2,0,0.3,0.1,0.5,0.2s0.2,0.2,0.3,0.3c0.1,0.2,0.2,0.3,0.2,0.6
				c0,0.2-0.1,0.5-0.2,0.6c-0.2,0.2-0.2,0.2-0.5,0.3c-0.2,0.1-0.4,0.1-0.6,0.1C148.9,68.5,148.7,68.5,148.5,68.5z"/>
			<polygon fill="#D3C7BE" points="156,69.1 159,69.1 159,68.5 156,68.5 156,66.5 159.3,66.5 159.3,65.8 155.3,65.8 155.3,72 
				159.4,72 159.4,71.3 156,71.3 			"/>
			<path fill="#D3C7BE" d="M166.9,69.6c-0.1-0.2-0.2-0.4-0.4-0.5c-0.2-0.2-0.4-0.2-0.6-0.3s-0.5-0.2-0.7-0.2
				c-0.2-0.1-0.5-0.2-0.6-0.2c-0.2-0.1-0.3-0.2-0.4-0.2c-0.1-0.1-0.2-0.2-0.2-0.3c-0.1-0.1-0.1-0.2-0.1-0.4c0-0.2,0-0.3,0.1-0.5
				c0.1-0.2,0.2-0.2,0.3-0.3c0.2-0.1,0.2-0.2,0.4-0.2c0.2-0.1,0.3-0.1,0.5-0.1c0.2,0,0.5,0.1,0.6,0.2c0.2,0.1,0.4,0.2,0.5,0.5
				l0.6-0.6c-0.2-0.2-0.5-0.5-0.8-0.6c-0.3-0.1-0.6-0.2-1-0.2c-0.2,0-0.6,0-0.8,0.1c-0.2,0.1-0.5,0.2-0.7,0.3
				c-0.2,0.2-0.4,0.3-0.5,0.6c-0.1,0.2-0.2,0.5-0.2,0.8c0,0.2,0,0.5,0.1,0.6c0.1,0.2,0.2,0.3,0.3,0.5c0.2,0.2,0.3,0.2,0.5,0.3
				s0.4,0.2,0.6,0.2c0.2,0.1,0.6,0.2,0.7,0.2c0.2,0.1,0.4,0.2,0.5,0.2c0.2,0.1,0.2,0.2,0.3,0.3c0.1,0.2,0.1,0.3,0.1,0.5
				c0,0.2-0.1,0.3-0.2,0.5c-0.1,0.2-0.2,0.2-0.3,0.3c-0.2,0.1-0.2,0.2-0.5,0.2c-0.2,0.1-0.3,0.1-0.5,0.1c-0.2,0-0.6-0.1-0.8-0.2
				c-0.2-0.1-0.4-0.3-0.6-0.6l-0.6,0.6c0.1,0.2,0.2,0.3,0.4,0.4c0.2,0.1,0.3,0.2,0.5,0.2c0.2,0.1,0.3,0.1,0.6,0.2
				c0.2,0,0.4,0.1,0.6,0.1c0.3,0,0.6,0,0.8-0.1c0.2-0.1,0.5-0.2,0.7-0.3c0.2-0.2,0.4-0.3,0.5-0.6c0.2-0.2,0.2-0.5,0.2-0.8
				C167.1,70.1,167,69.8,166.9,69.6z"/>
		</g>
		<path fill="#D3C7BE" d="M125,4.9c-1.9,0-4.2,0.2-7.1,0.6c-1.2,0.2-2.2,0.2-3.1,0.4c-3.7,0.4-4.9,0.6-7.5,1.1
			c-2.3,0.5-3.9,1.9-4.8,4.3c-0.6,1.8-0.6,3.7-0.6,3.7v0.1V15c0,0.1-0.2,11,0.7,16.1c0.6,3.3,2.5,3.5,4.5,3.3c0.2,0,0.4,0,0.6,0
			c1.2,0,2.9,0,4.9-0.1c3.3-0.1,7.5-0.2,12.4-0.2c2.7,0,4.7-0.6,5.9-1.9c1.3-1.3,1.3-3,1.3-3.1v-0.1v-0.1c0-0.2,1.2-12.9,0.2-19
			C132,6.2,129.9,4.9,125,4.9 M106.3,36.9c-2,0-5.3-0.6-6.2-5.6c-1-5.3-0.8-15.7-0.8-16.6c-0.2-3.2,1.3-9.4,7.4-10.6
			c2.8-0.6,4-0.7,7.7-1.1c0.9-0.1,1.9-0.2,3.1-0.4c8-1,16.3-1.9,17.5,6.8c1,6.3-0.2,18.5-0.2,19.5c0,0.5-0.2,2.9-2.1,4.8
			c-1.7,1.7-4.4,2.7-7.8,2.7c-4.8,0-9,0.1-12.3,0.2c-2.1,0-3.7,0.1-5,0.1c-0.1,0-0.2,0-0.4,0C107.1,36.9,106.8,36.9,106.3,36.9"/>
		<path fill="#D3C7BE" d="M119.6,8.8c-1.6,0-3.3,1.3-4.3,2.6c-4.8,5.5-7.8,13.3-7.8,13.4l0,0c-0.6,1.3-1,3.3-0.2,4.4
			c0.8,1.1,2.7,1.3,3.3,1.3c0.1,0,8.6-0.5,12.1-1c2.1-0.2,3.7-1,4.4-2.1c0.6-0.8,0.8-1.7,0.6-2.9c-0.6-3.7-2-7.6-2-7.6V17
			c-2-6.2-4.1-7.9-5.6-8.2C120,8.8,119.8,8.8,119.6,8.8 M110.6,33.2c-0.7,0-3.8-0.2-5.5-2.4c-1.2-1.7-1.2-4-0.1-6.8
			c0.2-0.6,3.2-8.5,8.3-14.3c2.4-2.7,4.9-3.9,7.4-3.4c3,0.6,5.6,4,7.5,9.8c0.2,0.4,1.5,4.2,2.1,8.1c0.3,1.9-0.1,3.5-1,4.8
			c-1.2,1.7-3.3,2.7-6.1,3.1c-3.7,0.5-12,1-12.3,1C110.8,33.2,110.7,33.2,110.6,33.2"/>
		<path fill="#D3C7BE" d="M112.8,23.6H96.2c-0.7,0-1.3-0.6-1.3-1.3s0.6-1.3,1.3-1.3h16.6c0.7,0,1.3,0.6,1.3,1.3
			S113.5,23.6,112.8,23.6"/>
		<g>
			<path fill="#D3C7BE" d="M4.4,58.9H7l1-2.5h5.2l1,2.5h2.6l-6.3-14L4.4,58.9z M8.9,54.3l1.7-4.1l1.7,4.1H8.9z"/>
			<polygon fill="#D3C7BE" points="21.1,47.3 25.3,47.3 25.3,58.9 27.8,58.9 27.8,47.3 32,47.3 32,45.1 21.1,45.1 			"/>
			<polygon fill="#D3C7BE" points="40.7,52.8 47.1,52.8 47.1,50.8 40.7,50.8 40.7,47.3 47.4,47.3 47.4,45.1 38.3,45.1 38.3,58.9 
				47.8,58.9 47.8,56.7 40.7,56.7 			"/>
			<polygon fill="#D3C7BE" points="57.2,45.1 54.9,45.1 54.9,58.9 63.1,58.9 63.1,56.7 57.2,56.7 			"/>
			<rect x="69.4" y="45.1" fill="#D3C7BE" width="2.5" height="13.7"/>
			<polygon fill="#D3C7BE" points="82,52.8 88.4,52.8 88.4,50.8 82,50.8 82,47.3 88.7,47.3 88.7,45.1 79.5,45.1 79.5,58.9 
				89.1,58.9 89.1,56.7 82,56.7 			"/>
			<path fill="#D3C7BE" d="M105.1,51.6c0.6-0.6,0.9-1.4,0.9-2.5c0-0.7-0.2-1.3-0.4-1.8c-0.3-0.5-0.6-1-1.1-1.2
				c-0.5-0.3-1-0.6-1.6-0.6c-0.6-0.2-1.3-0.2-1.9-0.2h-4.8v13.7h2.5v-5.8h1.8l3.2,5.8h2.9l-3.7-6.1
				C103.8,52.6,104.6,52.2,105.1,51.6z M101.6,51c-0.3,0.1-0.7,0.1-1,0.1h-2v-3.9h2.2c0.3,0,0.6,0,1,0.1c0.3,0.1,0.6,0.2,0.9,0.3
				c0.2,0.2,0.5,0.3,0.6,0.6c0.2,0.2,0.2,0.6,0.2,1s-0.1,0.8-0.2,1c-0.2,0.2-0.4,0.5-0.7,0.6C102.3,50.8,101.9,50.9,101.6,51z"/>
			<polygon fill="#D3C7BE" points="125,52.8 131.3,52.8 131.3,50.8 125,50.8 125,47.3 131.6,47.3 131.6,45.1 122.5,45.1 122.5,58.9 
				132,58.9 132,56.7 125,56.7 			"/>
			<path fill="#D3C7BE" d="M145.9,52c-0.4-0.3-0.8-0.6-1.3-0.7c-0.5-0.2-1-0.3-1.3-0.5c-0.4-0.1-0.7-0.2-1-0.3
				c-0.3-0.1-0.6-0.2-0.8-0.4c-0.2-0.2-0.4-0.3-0.6-0.6c-0.2-0.2-0.2-0.5-0.2-0.8c0-0.3,0.1-0.6,0.2-0.9c0.2-0.2,0.3-0.4,0.6-0.6
				s0.5-0.2,0.8-0.3c0.3-0.1,0.6-0.1,0.9-0.1c0.5,0,1,0.1,1.4,0.3s0.9,0.5,1.1,0.9l1.6-1.7c-0.6-0.5-1.2-0.9-1.9-1.1
				s-1.4-0.4-2.1-0.4c-0.6,0-1.3,0.1-1.8,0.2c-0.6,0.2-1.1,0.4-1.6,0.7s-0.9,0.7-1.1,1.3c-0.3,0.5-0.5,1.1-0.5,1.8
				c0,0.6,0.1,1.2,0.3,1.6c0.2,0.4,0.5,0.8,0.8,1.1c0.3,0.3,0.7,0.6,1.1,0.7c0.4,0.2,0.8,0.3,1.3,0.5c0.4,0.2,0.9,0.3,1.2,0.4
				c0.4,0.2,0.7,0.3,1,0.5c0.3,0.2,0.5,0.4,0.7,0.6c0.2,0.2,0.2,0.6,0.2,0.9c0,0.4-0.1,0.7-0.2,1c-0.2,0.2-0.3,0.5-0.6,0.6
				c-0.2,0.2-0.5,0.3-0.8,0.4c-0.3,0.1-0.6,0.1-0.9,0.1c-0.6,0-1.1-0.2-1.7-0.4s-1-0.6-1.3-1.1l-1.7,1.7c0.6,0.6,1.3,1.1,2.1,1.4
				c0.9,0.3,1.7,0.5,2.6,0.5c0.6,0,1.3-0.1,1.9-0.2c0.6-0.2,1.1-0.5,1.6-0.8c0.5-0.4,0.8-0.8,1.1-1.3c0.2-0.6,0.4-1.2,0.4-1.9
				c0-0.6-0.2-1.3-0.4-1.7C146.6,52.7,146.2,52.3,145.9,52z"/>
			<polygon fill="#D3C7BE" points="152,47.3 156.2,47.3 156.2,58.9 158.6,58.9 158.6,47.3 162.8,47.3 162.8,45.1 152,45.1 			"/>
			<path fill="#D3C7BE" d="M177.1,53.8c0,0.4-0.1,0.8-0.2,1.2c-0.1,0.4-0.2,0.7-0.5,1c-0.2,0.3-0.6,0.6-1,0.8
				c-0.4,0.2-0.9,0.3-1.4,0.3c-0.6,0-1.1-0.1-1.4-0.3c-0.4-0.2-0.7-0.5-1-0.8c-0.2-0.3-0.4-0.6-0.5-1c-0.1-0.4-0.2-0.8-0.2-1.2v-8.7
				h-2.5v8.7c0,0.8,0.2,1.6,0.4,2.2c0.3,0.6,0.6,1.3,1.2,1.7c0.5,0.5,1.1,0.8,1.7,1.1c0.6,0.2,1.4,0.4,2.2,0.4
				c0.8,0,1.5-0.2,2.2-0.4c0.6-0.2,1.3-0.6,1.7-1.1c0.5-0.5,0.9-1,1.2-1.7c0.3-0.6,0.4-1.4,0.4-2.2v-8.7h-2.5v8.7H177.1z"/>
			<path fill="#D3C7BE" d="M196.5,46.6c-0.7-0.6-1.5-1-2.5-1.2c-0.9-0.2-1.8-0.3-2.7-0.3h-4.8v13.7h4.8c0.9,0,1.8-0.2,2.7-0.4
				c0.9-0.2,1.7-0.7,2.5-1.3c0.7-0.6,1.3-1.3,1.7-2.1c0.5-0.9,0.7-1.9,0.7-3.1c0-1.3-0.2-2.4-0.7-3.3
				C197.9,47.9,197.2,47.2,196.5,46.6z M195.9,54.3c-0.3,0.6-0.7,1.1-1.3,1.4c-0.5,0.3-1.1,0.6-1.7,0.8s-1.3,0.2-1.9,0.2h-2.1v-9.5
				h2.1c0.6,0,1.3,0.1,1.9,0.2c0.6,0.2,1.2,0.4,1.7,0.7c0.5,0.3,1,0.9,1.3,1.4c0.3,0.6,0.5,1.4,0.5,2.4
				C196.4,53,196.2,53.8,195.9,54.3z"/>
			<rect x="205.4" y="45.1" fill="#D3C7BE" width="2.5" height="13.7"/>
			<path fill="#D3C7BE" d="M228.6,49c-0.4-0.9-0.9-1.7-1.5-2.3s-1.4-1.1-2.4-1.4c-0.9-0.3-1.9-0.5-2.9-0.5c-1,0-2.1,0.2-2.9,0.5
				c-0.9,0.3-1.7,0.8-2.3,1.4s-1.2,1.3-1.5,2.3c-0.4,0.9-0.6,1.9-0.6,3c0,1.1,0.2,2.1,0.6,2.9c0.4,0.9,0.9,1.7,1.5,2.3
				s1.4,1.1,2.3,1.5c0.9,0.3,1.9,0.6,2.9,0.6c1.1,0,2.1-0.2,2.9-0.6c0.9-0.3,1.7-0.9,2.4-1.5c0.6-0.6,1.2-1.4,1.5-2.3
				c0.4-0.9,0.6-1.9,0.6-2.9C229.1,50.9,229,49.9,228.6,49z M226.1,54c-0.2,0.6-0.6,1.1-1,1.6c-0.4,0.5-1,0.8-1.5,1
				c-0.6,0.2-1.2,0.4-1.9,0.4c-0.7,0-1.3-0.2-1.9-0.4c-0.6-0.2-1.1-0.6-1.5-1c-0.4-0.5-0.7-1-1-1.6c-0.2-0.6-0.3-1.3-0.3-2.1
				c0-0.7,0.1-1.3,0.3-2s0.6-1.1,1-1.6c0.4-0.5,0.9-0.8,1.5-1c0.6-0.2,1.2-0.4,1.9-0.4c0.7,0,1.3,0.2,1.9,0.4c0.6,0.2,1.1,0.6,1.5,1
				c0.4,0.5,0.7,1,1,1.6c0.2,0.6,0.3,1.3,0.3,2C226.4,52.7,226.4,53.4,226.1,54z"/>
			<circle fill="#D3C7BE" cx="114.7" cy="52.6" r="1.2"/>
		</g>
	</g>
</g>
</svg>
