<?xml version="1.0" encoding="utf-8"?>
<!-- Generator: Adobe Illustrator 18.1.0, SVG Export Plug-In . SVG Version: 6.00 Build 0)  -->
<svg version="1.1" id="Layer_1" xmlns="http://www.w3.org/2000/svg" xmlns:xlink="http://www.w3.org/1999/xlink" x="0px" y="0px"
	 viewBox="0 0 181.5 75.4" enable-background="new 0 0 181.5 75.4" xml:space="preserve">
<g>
	<g>
		<g>
			<path fill="#D3C7BE" d="M126.8,32.2c0.9-1.2,1.7-2.4,2.6-3.6c1-1.1,2-2.1,3.4-2.7c2.3-1.1,4.4,0.2,5.6,1.6
				c0.2,0.2,0.3,0.5,0.3,0.8c-0.1,1-0.2,2-0.4,3.1c-0.1,0.8-0.6,1.3-1.4,1.6c-2,0.8-4.1,1.7-6.3,2c-0.1,0-0.2,0.1-0.3,0.1
				c-0.1,1.8,0.3,3.4,0.8,5.1c0.1,0.2,0.4,0.3,0.6,0.3c0.5,0,1-0.1,1.5-0.2c2.3-0.6,4.4-1.6,5.8-3.5c0.3-0.4,0.6-0.9,0.8-1.3
				c0.5-1,1-1.9,1.4-2.8c1.3-2.8,3.6-4.5,6.5-5.3c1.6-0.5,3.1-1,4.8-0.5c0.5,0.2,1,0.3,1.5,0.5c1,0.5,1.3,1.6,0.7,2.6
				c-0.3,0.6-1.2,0.8-1.6,0.3c-1.1-1.3-2.7-1.6-4.2-1.3c-1.7,0.3-3.1,1.1-3.9,2.8c-1,2-1.4,4.2-1.1,6.4c0.1,1.1,0.6,1.5,1.7,1.5
				c1.2-0.1,2.4-0.1,3.7-0.3c1.5-0.3,2.7-1.3,3.6-2.7c0.4-0.6,0.8-1.3,1.1-1.9c0.8-1.3,1.6-2.7,2.3-4.1c0.6-1.2,1-2.4,1.4-3.7
				c0.5-1.5,1-3,1.3-4.5c0.2-1.3,0.3-2.7,0.3-4.1c-0.1-2.1-0.5-4.1-1.2-6.1c-0.8-2.1-3.7-4-5.6-3.7c-3.6,0.5-5.8,2.7-6.2,5.7
				c-0.2,1.5-0.3,3-0.2,4.5c0.1,1.8,1,2.6,2.6,2.7c0.8,0.1,1.6,0,2.3-0.1c0.5-0.1,0.8,0.2,0.9,0.5c0.1,0.3,0,0.8-0.2,0.9
				c-0.5,0.3-1,0.5-1.6,0.6c-1.6,0.2-3.1,0-4.6-0.6c-2.4-1.1-3.6-3.6-3.3-6.5c0.3-3.2,2.1-5.6,4.8-7.3c1.9-1.1,3.9-2,6.1-2
				c2.2,0.1,4.1,0.9,5.6,2.6c3.1,3.4,4.2,7.4,3.5,12c-0.4,2.3-0.7,4.6-1.3,6.8c-0.5,1.8-1.6,3.2-2.1,4.9c-0.6,1.9-1.9,3.4-2.1,5.5
				c-0.1,0.7,0.4,1.6,1,1.9c0.6,0.3,1.2,0.1,1.8-0.3c0.9-0.6,1.3-1.6,1.5-2.6c0.5-0.1,0.8,0.2,0.9,0.6c0.4,1.4,0.2,2.1-1,3.1
				c-1,0.9-1.9,1.6-3.2,1.6c-0.6,0-1.3-0.1-1.9-0.2c-0.8-0.2-1.2-0.5-1.4-1.3c-0.1-0.8-0.6-1-1.4-0.8c-1.1,0.3-2.2,0.8-3.3,1.2
				c-1.5,0.6-3,1-4.7,1c-2.3-0.1-4.1-0.8-5.4-2.7c-2.1,0.8-4,2-6.2,2.3c-1.7,0.2-3.4,0.1-5-0.6c-1.7-0.8-2.7-2-2.7-3.9
				c0-1.1,0.2-2.3,0.3-3.4c-1-0.6-2.2-1.2-3.4-1.9c-0.2,0.5-0.3,1.1-0.5,1.6c-0.1,0.7-0.4,1.2-0.8,1.8c-2.4,3-5.2,5.5-9,6.9
				c-0.9,0.3-1.5,0.1-2.3-0.2c-0.4-0.2-0.6-0.5-0.5-1c0.1-0.2,0-0.3,0.1-0.5c0.6-1.8,0.3-3.4-0.8-4.8c-0.4-0.6-0.3-1.1-0.1-1.8
				c0.6-1.5,1.2-2.8,1.8-4.3c0.1-0.3,0-0.8-0.2-1c-0.1-0.1-0.6-0.1-0.9,0.1c-0.6,0.5-1.1,1.1-1.6,1.7c-0.9,1-1.6,2-2.5,3.1
				c-0.6,0.7-1.3,1.1-2.3,1c-0.5-0.1-0.7,0.1-0.8,0.7c-0.5,2-1.4,3.8-2.8,5.3c-0.9,1-2.2,1.3-3.4,1.7c-2.6,1-4.9,0.1-7-1.3
				c-1.1-0.8-1.4-1.9-1.3-3.4c-0.4,0.5-0.8,0.8-1,1.1c-1.8,2.1-4,3.3-6.7,3.7c-2.6,0.3-4-0.8-4.4-3.3c0-0.1-0.1-0.3-0.1-0.4
				c-0.1,0-0.1,0-0.2,0.1c-1.7,1.6-3.9,2.4-6.1,3.1c-2.4,0.7-4.8,0.6-7.1-0.3c-1.3-0.6-2-1.8-2.4-3.1c-0.7-3.7,0.5-6.8,2.8-9.5
				c0.4-0.5,0.9-1,1.3-1.4c1.7-1.7,3.7-1.9,5.9-1.3c1.7,0.4,2.4,1.5,2.5,3.2c0.1,1.7-0.6,2.8-2,3.7c-1.9,1.2-3.9,1.9-6.2,2.2
				c0.1,1.6,0.3,3.1,1.1,4.5c0.3,0.5,0.8,0.8,1.3,0.6c1-0.2,2-0.3,2.9-0.8c2.3-1,4.2-2.5,6.1-4.2c0.1-0.1,0.2-0.3,0.3-0.5
				c0.8-4,2-7.8,3.5-11.6c0.3-1,0.6-1.9,1-2.8c0.3-0.8,0.6-1.6,1-2.3c1.1-2.1,2.4-4.2,3.6-6.3c0.8-1.3,1.5-2.6,2.7-3.5
				c1.5-1.2,3.1-1.3,4.8-0.6c1,0.4,1.4,1,1.3,2.1c-0.1,1.5-0.3,2.9-0.5,4.4c-0.5,2.8-2.1,5.2-3.9,7.4c-1.1,1.5-2.3,2.8-3.4,4.2
				c-1.1,1.3-2.6,2.3-4,3.1c-0.4,0.3-0.6,0.6-0.9,1.1c-0.5,1.2-1,2.4-1.5,3.7c-0.6,1.5-0.6,3.1-0.4,4.7c0.2,1.2,1.3,1.9,2.6,1.3
				c1-0.4,1.8-1,2.5-1.7c1.5-1.6,2.8-3.2,4.3-4.8c1.5-1.6,2.7-3.4,4.5-4.7c1.6-1,3.2-1.9,5.2-1.9c1.8,0,3.7,1.3,4.2,3
				c0.1,0.3,0,0.7,0,1c0,0.2,0.1,0.5,0.1,0.7c0.2-0.1,0.4-0.2,0.5-0.4c1-1,1.9-2,3-2.8c1-0.8,2.2-1.1,3.5-1.1c0.8,0,1.6-0.4,2.4-0.7
				c0.3-0.1,0.6-0.3,1-0.5c1-0.3,1.7-0.1,2.1,0.9c0.1,0.2,0.1,0.5,0,0.8c-0.5,1-1,1.9-1.5,2.8c-0.3,0.6-0.7,1.2-1,1.9
				c-0.3,0.8-0.3,1.6,0,2.4c0.5,1.3,0.9,2.7,1.3,4c0.2,0.7,1.1,0.9,1.6,0.3c1.1-1.4,2.3-2.8,3.4-4.2c1-1.3,1-3,0.9-4.5
				c0-0.2-0.2-0.3-0.3-0.5c-0.4-0.7-1-1.3-1.2-2.1c-0.5-1.1,0.3-2.3,1.6-2.4c1.9-0.2,4,2.1,3.5,4c-0.1,0.5,0,0.9,0.4,1.2
				C124.9,31.5,125.5,31.9,126.8,32.2z M98.1,28.5c-1.1,0.1-2.3,0.7-2.8,1.6c-1,1.7-1.8,3.4-2.5,5.2c-0.6,1.5-0.7,3-0.2,4.5
				c0.5,1.4,2,1.8,3,0.7c0.8-1,1.5-2,2.3-3c0.5-0.6,0.5-1.1,0.5-1.9c0-1-0.3-1.9-1-2.7c-0.8-1-0.8-2.1-0.2-3.2
				C97.6,29.3,97.8,28.9,98.1,28.5z M91.2,9.6c-0.5-0.2-1-0.1-1.3,0.3c-0.5,0.5-0.9,1.1-1.2,1.7c-0.7,1.3-1.3,2.7-2,4
				c-2,3.4-3.2,7-4.4,10.7c-0.1,0.2-0.1,0.4-0.1,0.6c0.1,0.1,0.1,0.1,0.2,0.1c0.3-0.2,0.8-0.4,1-0.6c0.6-0.6,1.3-1.3,1.8-2
				c2.8-4.4,4.9-9.1,6-14.2C91.2,9.9,91.2,9.8,91.2,9.6z M130.3,33.1c0.8,0.1,2.3-0.2,3.4-0.9c1.4-0.8,1.9-1.8,1.6-3.3
				c-0.1-0.3-0.1-0.6-0.1-1c0-0.5-0.3-0.6-0.8-0.5c-0.9,0.2-1.6,0.6-2.1,1.3C131.4,30.1,130.9,31.6,130.3,33.1z M68.9,29.2
				c0-0.1,0-0.4-0.1-0.6c-0.1-0.7-0.3-0.8-1-0.6c-0.8,0.2-1.5,0.7-2,1.3c-1,1.1-1.4,2.4-1.6,3.9c-0.1,0.6,0.1,0.7,0.6,0.6
				C67,33.5,68.9,31.4,68.9,29.2z"/>
			<path fill="#D3C7BE" d="M47.7,39.9c2.4,0.1,4.2-1.1,5.1-3.5c1-2.4,0.8-4.8-0.5-7c-0.8-1.5-1.9-2.6-3.5-3.2
				c-0.7-0.3-1.5-0.6-2.1-1c-0.9-0.4-1-1-0.4-1.7c0.5-0.6,1-1.1,1.6-1.6c0.8-0.8,1.8-1.3,2.6-2.1c0.7-0.6,1.3-1.3,1.9-2.1
				c0.7-1,0.7-2,0.1-3.1c-1.1-2.2-4-3.4-6.4-2.3c-2,0.9-4,0.8-6,0.1c-0.8-0.3-1.7-0.6-2.5-0.9c-2-0.8-4-0.6-6,0.1
				c-0.5,0.2-1.1,0.4-1.5,0.8c-0.4,0.4-0.9,1-1,1.5c-0.5,1.8-1,3.6-1,5.5c0,0.3,0.1,0.7,0.3,1c0.3,0.6,0.6,0.6,1.2,0.2
				c0.3-0.2,0.7-0.5,1.1-0.7c0.2-0.1,0.6-0.2,0.8-0.1c0.4,0.2,1,0.5,1,0.9c0.1,0.3-0.3,0.9-0.6,1.1c-1.8,1.1-3.7,1-5.5,0.2
				c-1-0.5-2.1-1-2.4-2.3c-0.5-2.3-0.3-4.4,1.4-6.2c3-3.1,6.7-4.7,11-5C37,8.4,37.8,8.7,38.5,9c1.8,0.5,3.5,1.1,5.5,1.1
				c0.2,0,0.3,0.1,0.5,0.1c1.5,0.5,2.8,0.3,4.4,0.1c2.5-0.5,4.8,0.2,6.6,1.9c1.6,1.5,2,3.4,1,5.3c-0.6,1-1.3,2-2,3
				c-1,1.3-2.4,2.1-4,2.6c-0.3,0.1-0.9,0.5-0.8,0.7c0.1,0.3,0.4,0.8,0.8,1c0.6,0.3,1.2,0.5,1.9,0.8c1.6,0.5,3,1.3,4.1,2.4
				c2.3,2.1,2.6,5.5,0.6,8.4c-2.1,3.1-5.1,4.7-8.7,5.3c-1.9,0.3-3.9,0.1-5.6-0.8c-2.1-1-3.2-3.1-2.8-5.2c0.1-0.5,0.2-1,0.5-1.3
				c0.9-1.6,2.2-2.8,3.9-3.5c1-0.5,2.7,0,3.4,1c0.1,0.2,0.2,0.6,0.1,1c-0.2,0.5-0.6,1-1,1.4c-0.6,0.7-1.3,1.4-2,2.1
				c-1,1-0.8,2.3,0.3,3c0.8,0.4,1.8,0.5,2.7,0.8C47.6,40,47.7,40,47.7,39.9z"/>
			<path fill="#D3C7BE" d="M10.8,38.6c0.2-1.1,0.2-2.2,0.5-3.3c0.5-2,1.8-3.2,3.8-3.7c1.7-0.3,3.4-0.5,5,0.2
				c0.4,0.2,0.8,0.3,1.1,0.6c0.6,0.5,0.8,1.1,0.5,1.8c-0.3,0.5-1.1,0.6-1.8,0.3c-0.2-0.1-0.5-0.3-0.7-0.5c-0.6-0.3-1.1-0.7-1.8-0.9
				c-1.3-0.4-2.1,0.1-2.6,1.3c-0.5,1.5-0.5,3.1-0.3,4.7c0.1,1.1,0.5,2.1,1.1,3c1.1,1.6,3.2,2.1,4.9,1c0.6-0.3,1.1-0.8,1.6-1.3
				c3.1-2.8,5.8-6,7.8-9.5c0.3-0.5,0.6-1,0.9-1.4c0.9-1.4,1.5-2.8,1.9-4.4c0.5-2.1,1.3-4.2,2.1-6.3c1-2.4,2.8-4.2,5.5-4.9
				c0.6-0.1,1.3-0.3,1.8,0.2c0.5,0.6,0.1,1.4-0.2,2c-0.2,0.3-0.7,0.6-1.1,0.8c-2,1.1-2.8,2.8-2.9,4.9c0,0.5,0,1-0.1,1.5
				c-0.3,1.1-0.5,2.4-1,3.4c-2.4,4.2-4.9,8.3-8.1,12c-2.1,2.4-4.8,4.4-8.1,5.1c-2.3,0.6-4.7,0.2-6.8-1C11.6,43,10.8,41,10.8,38.6z"
				/>
			<path fill="#D3C7BE" d="M130.4,50.7c-0.5,0.7-1,1.3-1.6,2c-1.5,1.9-2.8,3.9-4.3,5.8c-0.8,1.1-2,1.8-3.2,2.3
				c-1,0.5-1.9,0.3-2.8-0.1c-0.8-0.3-1.1-1-1.1-1.9c0.2-1.8,1-2.8,2.4-3c0.6-0.1,1.2,0,1.6,0.6c0.3,0.5,0.3,1-0.2,1.4
				c-0.1,0.1-0.4,0.2-0.5,0.2c-0.1-0.1-0.2-0.3-0.2-0.5c0-0.2,0.1-0.5,0.1-0.8c-1,0.3-1.9,0.7-2.1,1.7s0.2,1.7,1.1,1.8
				c0.8,0.1,1.6-0.1,2.1-0.6c0.7-0.6,1.4-1.1,2-1.9c2-2.4,3.9-4.9,5.8-7.3c0.5-0.6,1.1-1.1,1.8-1.6c0.2-0.2,0.6-0.2,0.9-0.2
				c0.1,0.3,0.2,0.6,0.1,1c-0.3,1.2-0.8,2.4-1.1,3.5c-0.4,1.1-0.1,2.2-0.1,3.4c0.2-0.1,0.2,0,0.3-0.1c2-1.8,3.7-3.9,5.3-5.9
				c0.3-0.4,0.5-0.9,0.8-1.3c0.1-0.2,0.2-0.4,0.3-0.5c0.2-0.1,0.4-0.2,0.6-0.2c0.1,0,0.2,0.3,0.2,0.5c0,0.3-0.1,0.6-0.2,0.8
				c-0.3,0.8-0.8,1.5-1.1,2.1c-1,2.2-1.4,4.5-1.2,7c0.1,1.3,0.7,1.8,1.9,1.3c0.5-0.2,1-0.5,1.5-0.9c0.2-0.1,0.3-0.3,0.7-0.6
				c0.1,0.4,0.1,0.6,0.1,0.8c0,0.1-0.1,0.2-0.1,0.2c-0.6,1.5-4,2.1-5,0.5c-0.2-0.3-0.3-0.6-0.3-1c-0.2-1.6,0-3.1,0.4-4.5
				c0.1-0.2,0.1-0.4,0.2-0.6c0-0.1-0.1-0.2-0.1-0.3c-0.1,0.1-0.3,0-0.4,0.1c-1.5,1.8-3.3,3.2-4.2,5.3c-0.3,0.6-0.6,0.5-1,0.3
				c-0.5-0.2-0.2-0.6-0.1-1c0.2-0.6,0.3-1.3,0.3-1.9c0.1-1,0-2.1,0.1-3.1c0.1-0.6,0.4-1.1,0.6-1.7c0.1-0.3,0.2-0.7,0.3-1
				C130.7,50.9,130.5,50.8,130.4,50.7z"/>
			<path fill="#D3C7BE" d="M73.9,53.9c-0.4,1.3-1.5,2.1-2.3,3.1c-0.5,0.6-0.8,1.5-1,2.2c-0.2,0.5-0.5,0.6-0.9,0.5
				c-0.5-0.1-0.3-0.4-0.2-0.8c0.4-1.1,0.1-2.3-0.1-3.4c-0.1-0.6-0.1-1.1,0-1.8c0.1-0.6,0.3-1.1,0.4-1.7c0.1-0.3,0.1-0.8,0.1-1.1
				c-0.1,0-0.1-0.1-0.2-0.1c-0.2,0.2-0.4,0.3-0.5,0.5c-0.2,0.3-0.3,0.6-0.5,0.9c-0.9,2.7-2.4,5-4,7.3c-0.8,1.3-3,2-4.5,1.5
				c-0.5-0.2-1-0.6-1.3-1c-0.6-1.1-0.2-2.8,0.8-3.6c0.8-0.6,1.8-0.6,2.4,0.1c0.3,0.3,0.5,0.8,0.1,1.1c-0.2,0.2-0.3,0.5-0.5,0.8
				c-0.4-0.3-0.4-0.3-0.4-1.6c-0.9,0.2-1.6,1.1-1.6,2c0,1,0.8,1.6,1.7,1.5c1-0.1,1.7-0.5,2.3-1.1c0.1-0.2,0.3-0.3,0.4-0.5
				c1.3-2.3,2.6-4.5,3.9-6.8c0.5-1,1-1.8,1.7-2.7c0.2-0.2,0.6-0.5,0.8-0.4c0.5,0.1,0.3,0.6,0.3,1c-0.1,0.6-0.2,1.2-0.3,1.8
				c-0.1,1-0.3,1.9-0.3,2.9c0,0.7,0.2,1.3,0.4,2.1c1-1.6,2.7-2.5,3.1-4.4c0-0.1,0.1-0.1,0.1-0.2c1-0.8,1.6-1.9,1.8-3.1
				c0-0.1,0.3-0.2,0.5-0.4c0.3,0.8,0.3,1.3,0,2c-0.3,0.6-0.6,1.1-0.8,1.7c-0.6,2.2-0.5,4.5-0.1,6.7c0.3,1.5,2,1.9,3.1,0.8
				c0.2-0.2,0.5-0.5,0.7-0.8c0.5,0.6,0.5,1-0.1,1.5c-0.7,0.8-2.1,1-3.2,0.6c-1.1-0.5-1.9-1.5-1.9-2.7c0-1.3,0.1-2.6,0.1-3.9
				c0-0.2,0-0.5,0-0.7C74,53.9,73.9,53.9,73.9,53.9z"/>
			<path fill="#D3C7BE" d="M22.7,59.6c0.7,0.6,2.1,0.7,2.8,0.2c0.4-0.3,0.8-0.6,1.1-0.8c0.1-0.1,0.3-0.1,0.6-0.1
				c0,0.2,0.1,0.4-0.1,0.5c-0.5,1.2-1,1.5-2.4,1.5c-1.6,0-3.3-0.5-4.9,0.1c-0.8,0.3-1.6,0.4-2.4,0.6c-0.4,0.1-0.9,0.1-1.3,0.2
				c-0.5,0.1-0.9-0.2-0.9-0.7c0-0.2,0.5-0.5,0.7-0.5c1.1-0.2,2.3-0.2,3.4-0.5c0.8-0.2,1.5-0.5,2.1-1c0.8-0.7,1.4-1.6,1.8-2.7
				c0.1-0.3,0.3-0.6,0.5-0.9c0.4-0.8,0.8-1.5,1.1-2.3c0.3-0.8,0.6-1.5,1.1-2.2c0.2-0.3,0.7-0.6,1.1-0.9c0.1-0.1,0.4,0.1,0.6,0.1
				c-0.1,0.2-0.1,0.4-0.2,0.6c-0.2,0.3-0.6,0.6-0.8,1c-0.3,0.6-0.8,1.2-0.9,1.9c-0.3,1.9-1.1,3.5-2.4,5C23.3,58.9,23,59.3,22.7,59.6
				z"/>
			<path fill="#D3C7BE" d="M44.8,60.9c-0.3-0.1-0.6-0.1-0.8-0.2c-1.3-0.1-1.9-1.2-1.2-2.4c0.3-0.6,0.7-1.2,0.5-2
				c0-0.1-0.1-0.1-0.1-0.2c-0.2,0.1-0.4,0.2-0.6,0.3c-0.2,0.1-0.4,0-0.6,0c0.1-0.2,0-0.5,0.1-0.6c0.3-0.4,1.2-0.5,1.7-0.3
				c0.5,0.2,0.8,0.9,0.7,1.5c-0.1,0.5-0.3,1-0.5,1.5c-0.1,0.3-0.2,0.6-0.1,1c0.3,0.8,0.8,1,1.4,0.3c1-1,1.3-2.1,1.7-3.3
				c0.1-0.2,0.3-0.5,0.4-0.6c0.2,0.2,0.3,0.5,0.5,0.8c0.1,0.1,0.1,0.3,0,0.5c-0.5,1.3-0.7,2.7-1.6,3.8c-0.2,0.3-0.3,0.8-0.4,1.3
				c-0.1,0.2-0.1,0.5-0.2,0.6c-1,1.3-1.8,2.9-3.2,4c-0.6,0.5-1.1,0.5-1.6-0.2c-0.3-0.3-0.3-0.8,0-1.1c0.9-0.8,1.8-1.6,2.7-2.1
				c0.5-0.3,0.9-0.6,1-1.3C44.5,61.6,44.6,61.4,44.8,60.9z M41.6,65.9c1-0.4,1.6-1.2,2.1-2C43,64.5,42,64.9,41.6,65.9z"/>
			<path fill="#D3C7BE" d="M31.3,54.5c0.5-0.2,0.7-0.6,0.6-1.1c0-0.1,0-0.1,0-0.1c0.8-1.3,1.5-2.7,2.2-4.1c0.3-0.5,0.8-0.5,1.3-0.3
				c0.5,0.1,0.8,0.5,0.8,1c0,1.1-0.1,2.1-1.1,2.8c-0.3,0.2-0.7,0.5-1,0.8c-0.7,0.5-1.1,1.1-1.3,2.1c-0.1,1-0.5,2-0.8,3
				c-0.1,0.2-0.1,0.5,0,0.7c0.1,0.8,0.6,1,1.2,0.6c0.1-0.1,0.2-0.1,0.3-0.2c0.3-0.2,0.6-0.5,0.9-0.1c0.1,0.2-0.2,0.6-0.4,0.8
				s-0.5,0.3-0.8,0.5c-1.3,0.6-2.3,0-2.3-1.5c0.1-1.1,0.3-2.2,0.4-3.3C31.4,55.5,31.3,55.1,31.3,54.5z M33.7,52.6
				c1.3-0.9,1.8-1.9,1.4-2.6C34.3,50.7,33.9,51.5,33.7,52.6z"/>
			<path fill="#D3C7BE" d="M22.2,55.1c-0.3,0.3-0.6,0.6-1.2,0.5c-0.5-0.2-0.7-0.6-0.7-1.1c0.1-0.3,0-0.7,0.2-1
				c0.7-1.5,1.5-2.9,3.1-3.7c1.2-0.6,2.4-1.4,3.8-1.1c1.1,0.2,2.3,0.5,3.2,1.1c0.8,0.5,1,1.6,1,2.6c-0.2,1.3-1,2.3-2.2,2.8
				c-0.4,0.2-1,0.1-1.3,0c-0.2-0.1-0.2-0.5-0.3-0.7c0.2-0.1,0.4-0.2,0.6-0.2c1,0.2,1,0.2,1.5-0.8c0.7-1.2,0.2-2.2-0.4-3.2
				c-0.5-0.8-1.7-1.3-2.7-0.9c-1.3,0.6-2.8,1.1-3.9,2.1c-0.6,0.5-0.8,1.7-1,2.6C21.5,54.2,21.9,54.6,22.2,55.1z"/>
			<path fill="#D3C7BE" d="M88.7,57.4c-0.5-0.1-0.8-0.2-1.3-0.3c0.1-0.2,0.2-0.3,0.3-0.4c0.6-0.2,1.2-0.5,1.6-1.1
				c0.1-0.1,0.5-0.1,0.6,0.1s0.2,0.5,0.2,0.6c-0.4,1.1-0.8,2.1-0.8,3.4c0,0.6,0.1,0.9,0.8,0.6c0,0.4-0.1,0.6-0.5,0.8
				c-0.3,0.1-0.6,0.5-0.8,0.9c-0.3,0.9-0.6,1.8-1,2.6c-0.4,1.5-1.5,2.2-2.6,3c-0.2,0.2-0.9,0-1.1-0.2c-0.2-0.2-0.4-0.6-0.3-1
				c0.1-0.5,0.3-1,0.6-1.3c1-1,2-2,3-2.9c0.2-0.2,0.4-0.4,0.5-0.7C88.1,60.2,88.5,58.8,88.7,57.4z M87.1,63c-0.6,0.9-1.3,1.7-2,2.6
				c-0.1,0.2-0.2,0.4-0.3,0.6c-0.1,0.1,0,0.3,0.1,0.4c0.2,0,0.4,0,0.5-0.1C86.2,65.6,87.2,64.6,87.1,63z"/>
			<path fill="#D3C7BE" d="M85.7,59.1c0.3,0.1,0.7,0.3,1,0.4c-0.2,0.3-0.5,0.6-0.8,0.8c-0.8,0.6-1.3,0.5-1.6-0.4
				c-0.1-0.2-0.1-0.5-0.2-0.8c-0.2,0.2-0.4,0.3-0.6,0.5c-0.7,0.6-1.5,0.9-2.4,0.9c-0.7,0-1-0.4-0.9-1.1c0.2-1,0.6-2,0.3-3
				c-0.1-0.5,1.1-1.2,1.5-1c0.2,0.1,0.2,0.5,0.2,0.8c-0.2,0.9-0.4,1.8-0.6,2.6c-0.1,0.2,0.1,0.5,0.1,0.7c0.2-0.1,0.6-0.1,0.8-0.2
				c0.3-0.4,0.7-0.7,1.3-0.9c0.3-0.1,0.6-0.6,0.8-1c0.2-0.3,0.2-0.8,0.3-1.1c0.1-0.2,0.1-0.3,0.1-0.5c0.2-0.5,1-1,1.1-0.8
				c0.2,0.3,0.2,0.8,0.1,1.1c-0.2,1-0.5,1.8-0.7,2.7C85.6,59.1,85.7,59.1,85.7,59.1z"/>
			<path fill="#D3C7BE" d="M167.7,57.7c0.4,1-0.5,1.6-1,2.4c-0.1,0.2-0.4,0.2-0.6,0.3c-0.6,0.1-1.3,0.2-2,0.1
				c-1-0.2-1.6-1.1-1.3-2.1c0.3-1.5,1-2.7,2.6-3.1c1.1-0.3,2.1,0.4,2.2,1.6C167.7,57.1,167.7,57.3,167.7,57.7z M166.2,57.5
				c0-0.3,0.1-0.5,0.1-0.8s-0.2-0.5-0.3-0.6c-0.1-0.1-0.4,0-0.5,0.1c-0.5,0.3-1.3,2.3-1,2.8c0.1,0.2,0.3,0.5,0.6,0.6
				c0.2,0.1,0.5-0.1,0.6-0.2C166.1,58.9,166.5,58.3,166.2,57.5z"/>
			<path fill="#D3C7BE" d="M152,60.7c-0.7-0.3-1.4-0.6-2-1c-0.3-0.2-0.6-0.2-1,0c-0.5,0.3-1,0.6-1.6,0.8c-0.4,0.1-0.8,0-1-0.5
				c-0.1-0.5,0-0.6,0.5-0.5c1.3,0.3,2.2-0.6,2-1.9c-0.1-0.9-0.8-1.1-1.5-0.7c-0.2,0.1-0.3,0.2-0.5,0.3s-0.5,0-0.7,0
				c0-0.2,0-0.5,0.1-0.7c0.3-0.5,1.1-0.8,1.9-0.5c0.5,0.2,1,0.3,1.3,0.6c0.3,0.2,0.6,0.2,0.9-0.1c0.2-0.2,0.5-0.5,0.8-0.6
				c0.6-0.5,1-0.5,1.5,0.1c0.1,0.1,0.2,0.2,0.2,0.3c0.1,0.2,0.1,0.5,0.1,0.8c-0.2,0-0.5,0-0.7,0c-0.3-0.1-0.8-0.3-1-0.2
				c-0.3,0.4-0.7,1-0.8,1.5c-0.1,0.4,0.2,1,0.5,1.3c0.2,0.4,0.6,0.4,1,0.2c0.2-0.1,0.5-0.1,0.8-0.2c0.1,0.2,0.1,0.5,0.1,0.5
				c-0.2,0.2-0.5,0.3-0.8,0.4C152.2,60.7,152.1,60.7,152,60.7C152,60.6,152,60.7,152,60.7z"/>
			<path fill="#D3C7BE" d="M51.6,60.1c-0.8,0.1-1.5,0.3-2.1,0.3c-1,0-1.5-0.6-1.4-1.6c0.2-1.8,1.8-3.3,4.1-2.6c0.1,0.1,0.3,0,0.4,0
				c0.2-0.1,0.3-0.2,0.5-0.2c0.3,0,0.5,0.1,0.8,0.1c-0.1,0.3,0,0.6-0.1,0.9c-0.3,0.7-0.8,1.4-1.1,2.1c-0.3,0.6,0,1,0.6,1
				c0.2,0,0.3,0.2,0.5,0.3c-0.2,0.2-0.3,0.5-0.5,0.5C52.5,60.9,51.9,60.6,51.6,60.1z M49.1,59c0,0.7,0.4,1,1,0.6
				c0.8-0.5,1.4-1,1.7-1.9c0.1-0.2,0.1-0.6,0-0.8c-0.2-0.2-0.5-0.3-0.8-0.2C50.2,56.7,49.1,58.1,49.1,59z"/>
			<path fill="#D3C7BE" d="M38.4,60.2c-0.6,0.5-1.5,0.5-2.3,0.3c-0.3-0.1-0.8-0.5-0.8-0.9c-0.5-2,1.6-3.9,3.6-3.2
				c0.5,0.2,1,0.3,1.4-0.2C40.4,56,40.8,56,41,56c0.1,0.1,0.2,0.3,0.2,0.5S41.1,57,41,57.2c-0.3,0.6-0.6,1.3-1,1.9
				c-0.2,0.5-0.2,0.7,0.3,1c0.2,0.1,0.3,0.3,0.4,0.5c-0.2,0.1-0.4,0.3-0.5,0.2C39.6,60.5,39.1,60.4,38.4,60.2z M36.7,59.7
				c1.1,0.2,2.3-1.5,2.4-2.3c0-0.2-0.2-0.5-0.4-0.5c-0.5-0.3-1-0.2-1.5,0.1c-0.5,0.4-1.1,0.7-0.9,1.5C36.6,59,36.6,59.4,36.7,59.7z"
				/>
			<path fill="#D3C7BE" d="M142.2,58.4c0.3,1.3,1.4,1.6,2.3,0.8c0.1-0.1,0.2-0.3,0.4-0.3c0.2-0.1,0.5,0,0.7,0
				c-0.1,0.2,0,0.6-0.1,0.7c-0.4,0.3-1,0.6-1.4,1c-0.1,0.1-0.3,0.1-0.5,0.1c-1.6-0.1-3.1-1.9-2.7-3.5c0.2-0.6,0.3-1.2,0.7-1.7
				c0.3-0.3,0.9-0.6,1.3-0.6c0.8-0.1,1.5,0.3,1.9,1c0.4,0.7,0.3,1.1-0.3,1.6c-0.4,0.3-1,0.5-1.5,0.7
				C142.8,58.3,142.5,58.3,142.2,58.4z M141.9,57.4c0.1,0.1,0.1,0.1,0.2,0.1c0.4-0.2,0.9-0.3,1.3-0.6c0.2-0.2,0.4-0.5,0.6-0.8
				c0.1-0.1-0.2-0.3-0.3-0.4c-0.3-0.2-0.8-0.2-1,0.2C142.4,56.5,142.2,56.9,141.9,57.4z"/>
			<path fill="#D3C7BE" d="M92.3,58.7c0,0.1,0,0.3,0.1,0.5c0.1,0.6,0.4,0.8,1,0.5c0.5-0.2,0.9-0.5,1.3-0.7c0.2-0.1,0.3-0.3,0.5-0.3
				c0.2-0.1,0.4,0,0.5,0.1c0.1,0.1,0.1,0.4,0,0.5c-1.3,1.8-3,1.9-4.4,0.2c-0.3-0.4-0.3-1.2-0.2-1.8c0.2-1.1,0.8-2.2,2-2.7
				c0.6-0.3,1.5-0.1,1.9,0.3c0.4,0.5,0.3,1.2-0.3,1.8C93.9,57.7,93.1,58.1,92.3,58.7z M91.9,57.6c0.1,0.1,0.2,0.2,0.2,0.2
				c0.5-0.3,1-0.6,1.5-1c0.2-0.2,0.6-0.5,0.2-0.8c-0.3-0.3-0.8-0.3-1,0C92.4,56.5,92.2,57,91.9,57.6z"/>
			<path fill="#D3C7BE" d="M102.7,58.1c-0.1,0.6,0.1,1.1,0.6,1.5c0.5,0.3,0.9,0,1.3-0.3c0.3-0.2,0.8-0.8,1.1-0.2
				c0.3,0.5-0.3,0.7-0.7,1c-0.6,0.3-1.3,0.5-2,0.5c-0.8-0.1-1.1-0.5-1.3-1.1c-0.4-1.2-0.4-2.4,0.5-3.5c0.6-0.8,1.3-1.1,2.3-1
				c0.7,0.1,1,0.5,1.1,1c0.2,0.5,0,0.9-0.3,1.2C104.5,57.8,103.7,58.2,102.7,58.1z M102.7,57.4c0.8-0.1,1.4-0.4,1.8-1
				c0.1-0.2,0.1-0.5,0-0.6c-0.1-0.1-0.4-0.2-0.6-0.1C103.1,55.9,102.7,56.5,102.7,57.4z"/>
			<path fill="#D3C7BE" d="M109.5,56.5c-0.3,0.3-0.6,0.5-1,0.8c-0.5,0.3-0.9,0.7-1.4,1c-0.2,0.1-0.5-0.1-0.6-0.1
				c0.1-0.2,0.1-0.5,0.2-0.6c0.7-0.5,1.5-1,2.1-1.6c0.2-0.2,0.3-0.5,0.4-0.7c0.1-0.2,0.3-0.4,0.5-0.6c0.2,0.2,0.3,0.3,0.5,0.5
				c0.3,0.7,0.5,1.4,0.8,2.1c0.3,0.9,0.3,1.7-0.6,2.3c-0.1,0.1-0.2,0.2-0.3,0.3c-0.8,0.9-1.7,1-2.7,0.3c-0.2-0.1-0.2-0.4-0.3-0.6
				c0.2-0.1,0.5-0.1,0.7-0.2c0.1,0,0.1,0,0.1,0.1c1.2,0.3,2-0.2,2-1.5c0-0.4,0-0.9,0-1.3C109.7,56.7,109.6,56.6,109.5,56.5z"/>
			<path fill="#D3C7BE" d="M101,56.4c-0.2,0.2-0.5,0.3-0.6,0.4c-1.1,0.4-1.7,1.3-2.1,2.3c-0.1,0.2-0.1,0.4-0.1,0.6
				c0.2,0,0.5,0.1,0.7,0c0.3-0.1,0.5-0.3,0.8-0.5c0.2-0.1,0.4,0.1,0.6,0.1c-0.1,0.2-0.1,0.5-0.2,0.6c-0.6,0.5-1.3,0.9-2.1,0.6
				c-0.8-0.2-1.2-0.5-1-1.3c0.2-0.5,0.5-1,0.8-1.5c0.1-0.2,0.3-0.3,0.4-0.6c-0.2,0-0.5,0-0.8,0c-0.2,0-0.4,0.2-0.6,0.2
				c-0.2,0-0.3-0.2-0.5-0.3c0.3-0.5,0.7-1,1.1-1.3c0,0,0.3,0.1,0.3,0.2c0.6,0.6,1,0.8,1.8,0.4C100,56,100.6,56,101,56.4z"/>
			<path fill="#D3C7BE" d="M160.9,56.8c-1-0.1-2,1.2-1.8,2.2c0.1,0.5,0.9,0.8,1.4,0.3c0.3-0.2,0.5-0.5,0.8-0.6
				c0.2-0.1,0.5-0.2,0.6-0.1c0.1,0.1,0.2,0.5,0.1,0.6c-0.2,0.8-1.1,1.3-2.1,1.1c-0.3-0.1-0.8-0.1-1.1-0.2c-1.1-0.3-1.6-1.5-0.9-2.4
				c0.4-0.6,0.9-1.1,1.3-1.6c0.4-0.5,1.5-0.7,2.1-0.4c0.2,0.1,0.3,0.4,0.4,0.6c-0.2,0.1-0.4,0.2-0.6,0.3
				C161.2,56.9,161,56.8,160.9,56.8z"/>
			<path fill="#D3C7BE" d="M157.1,59.6c-0.6,0.8-1.4,1-2.3,1c-0.5-0.1-0.7-0.3-0.6-0.8c0.1-0.7,0.3-1.3,0.4-1.9
				c-0.3-0.2-0.6-0.3-0.9-0.5c0.2-0.3,0.4-0.8,0.7-1c0.3-0.3,0.9-0.5,1.3-0.7c0.2-0.1,0.4-0.1,0.5,0c0.1,0.1,0.2,0.4,0.2,0.6
				c-0.3,1-0.6,1.9-1,2.8c-0.1,0.2-0.1,0.5-0.1,0.8c0.2-0.1,0.5-0.1,0.7-0.2C156.5,59.4,156.8,59.1,157.1,59.6z"/>
			<path fill="#D3C7BE" d="M113.7,60.7c-0.3-0.1-0.5-0.2-0.6-0.2c-0.2-0.2-0.6-0.6-0.6-0.7c0.1-0.3,0.4-0.7,0.8-0.8
				c1-0.3,1.5,0.3,1.5,1.3c-0.1,1.3-0.9,2.2-1.7,3c-0.1,0.1-0.3,0.2-0.4,0.1c-0.1-0.1-0.2-0.3-0.2-0.4c0.1-0.3,0.3-0.5,0.4-0.8
				C113.1,61.8,113.4,61.2,113.7,60.7z"/>
			<path fill="#D3C7BE" d="M91.1,50c-0.1,0.3-0.2,0.9-0.7,0.8c-0.3-0.1-0.8-0.5-0.8-0.8s0.4-0.8,0.8-0.9C90.7,49,91.1,49.4,91.1,50z
				"/>
			<path fill="#D3C7BE" d="M157.5,50.9c-0.1,0.1-0.3,0.3-0.6,0.3c-0.5,0.1-0.9-0.5-0.8-1c0.1-0.2,0.3-0.5,0.6-0.5
				C157.2,49.6,157.5,50,157.5,50.9z"/>
		</g>
	</g>
</g>
</svg>
