<?xml version="1.0" encoding="utf-8"?>
<!-- Generator: Adobe Illustrator 18.1.0, SVG Export Plug-In . SVG Version: 6.00 Build 0)  -->
<svg version="1.1" id="Layer_1" xmlns="http://www.w3.org/2000/svg" xmlns:xlink="http://www.w3.org/1999/xlink" x="0px" y="0px"
	 viewBox="0 0 169.7 75.4" enable-background="new 0 0 169.7 75.4" xml:space="preserve">
<g>
	<g>
		<g>
			<path fill="#D3C7BE" d="M67.2,12.4c-0.6,0.6-1.1,1.3-1.7,1.9c0.3,0.2,0.5,0.4,0.6,0.6c0.2,0.2,0.3,0.4,0.5,0.7
				c0.5,0.7,1,1.5,1.5,1.9l0.1,0.1c-0.8-2.4-0.8-4.3-0.8-5.3C67.4,12.3,67.3,12.3,67.2,12.4"/>
			<path fill="#D3C7BE" d="M68.6,11.4L68.6,11.4L68.6,11.4c0,0.1-0.6,2.6,1,6.8c0.6,0.5,1,0.8,1.3,0.9c-0.7-5-0.7-8.5-0.6-9.9
				c-0.2,0.1-0.4,0.2-0.7,0.4C68.8,10.1,68.6,11.4,68.6,11.4"/>
			<path fill="#D3C7BE" d="M75.2,21.2c0.1,0,0.2,0,0.3,0c-0.3-2.3-1-11.2,1.2-15.2c-0.3-0.1-0.6-0.1-0.9-0.1c-0.8,0-1.5,0.2-2.4,0.8
				c-1.2,0.7-1.8,1.8-1.9,2.1c-0.1,0.6-0.3,4.6,0.7,10.9C73.1,20.8,74.3,21.2,75.2,21.2"/>
			<path fill="#D3C7BE" d="M92.6,22c0.9,0.4,1.8,0.7,2.8,0.7c0.4,0,0.7-0.1,1-0.2c1.9-0.5,3.8-2.5,4.8-4.3c0.9-1.6,1.2-3.7,0.8-5.9
				c-0.8-2-1.1-3-4.3-3.7c-3.4-0.5-5.2,4.3-6,6.6c-0.3,0.7-0.5,1.4-0.7,2c-0.4,1.3-0.8,2.7-1.5,3.9c0.2,0,0.3,0.1,0.5,0.1
				C91,21.4,91.8,21.7,92.6,22"/>
			<path fill="#D3C7BE" d="M78.1,23.3c0.9,0.6,2.6,1.2,4.1,1.3c1.2,0.1,2.4-0.2,3.5-0.8c0.8-0.4,2-1.9,2.5-2.5
				c0.9-1.3,1.3-2.8,1.8-4.4c0.2-0.7,0.4-1.4,0.7-2.1c0.9-2.3,2.9-7.7,7-7.3c-0.2-0.1-0.3-0.2-0.4-0.3C97,7,96.8,6.8,96.4,6.6
				c-0.5-0.4-1-0.8-1.5-1.3c-0.9-0.8-1.9-1.8-3.3-2.6c-1.4-0.8-2.9-1.2-4.4-1.2c-1.1,0-2.2,0.2-3.5,0.6c-3.2,1-5.6,3.4-5.8,3.7
				c-2.7,3.5-1.5,14.5-1.4,15.6C76.7,21.7,77.3,22.9,78.1,23.3"/>
		</g>
		<g>
			<path fill="#D3C7BE" d="M157.6,38.5c-0.5,0-0.8-0.2-1.1-0.5c-0.3-0.3-0.5-0.7-0.5-1.2c0-0.5,0.2-0.8,0.5-1.2
				c0.3-0.3,0.7-0.5,1.2-0.5s0.8,0.2,1.2,0.5c0.3,0.3,0.5,0.7,0.5,1.2c0,0.5-0.2,0.9-0.5,1.2C158.5,38.3,158.1,38.5,157.6,38.5
				 M157.6,38.3c0.5,0,0.8-0.2,1.1-0.5c0.2-0.3,0.4-0.6,0.4-0.9c0-0.3-0.1-0.6-0.4-0.9c-0.3-0.4-0.6-0.5-1.1-0.5s-0.8,0.2-1.1,0.5
				c-0.2,0.3-0.3,0.6-0.3,0.9c0,0.4,0.2,0.7,0.4,1C156.9,38.1,157.3,38.3,157.6,38.3z M157.1,37.8V36h0.6c0.2,0,0.3,0.1,0.4,0.1
				c0.1,0.1,0.2,0.2,0.2,0.3s-0.1,0.2-0.1,0.3c-0.1,0.1-0.2,0.2-0.3,0.2l0.5,0.8H158l-0.5-0.8h-0.2v0.8H157.1z M157.4,36.8h0.1
				c0.2,0,0.3-0.1,0.4-0.1c0.1-0.1,0.1-0.2,0.1-0.3c0-0.1-0.1-0.2-0.1-0.2s-0.2-0.1-0.3-0.1h-0.2V36.8z"/>
			<g>
				<path fill="#D3C7BE" d="M71.6,35.6c0,0-3.7-0.1-4.2-0.1c0,0-0.8-0.1-0.8-0.1c-0.1,0-0.4,0-0.4,0s-0.4-0.1-0.4,0.2
					c0,0-0.1,0.2,0.3,0.2c0,0,0.8,0.1,0.9,0.1c0,0,0.8,0.1,1.3,0.7c0,0,0.4,0.4,0.4,0.8c0,0,0.1,0.5,0.1,1.3v8.4c0,0,0,1.5-0.1,1.7
					c0,0-0.1,0.9-0.3,1.2c0,0-0.2,0.4-1,0.6c0,0-0.4,0.1-0.6,0.1c0,0-0.5,0-0.5,0.2c0,0,0.1,0.3,0.4,0.2l2.8-0.1
					c0,0,2.9,0.1,3.9,0.2c0,0,2.4,0.2,2.9,0.2c0,0,1.4,0.1,2.6-0.7c0,0,0.5-0.3,0.8-0.8c0,0,0.5-0.6,0.7-1c0,0,0.3-0.6,0.1-0.7
					c0,0-0.2-0.2-0.4,0.1c0,0-0.6,0.9-1.3,1.2c0,0-1,0.7-2.7,0.8c0,0-1.9,0.3-3.2,0.1c0,0-1.1,0.1-1.6-0.5c0,0-0.3-0.2-0.3-1.1v-4.7
					c0,0-0.1-0.7,0.4-0.7H75c0,0,1.2,0.1,1.6,0.6c0,0,0.4,0.4,0.4,0.7l0.2,0.5c0,0,0.1,0.4,0.3,0.4c0,0,0.2,0.1,0.2-0.4
					c0,0-0.1-0.8-0.1-1.1c0,0-0.1-0.8,0-1.2l0.1-0.9c0,0,0.1-0.7,0.1-0.7c0,0,0.1-0.2-0.2-0.3c0,0-0.2-0.1-0.3,0.3
					c0,0-0.1,0.7-0.2,0.8c0,0-0.1,0.3-0.7,0.5c0,0-0.6,0.3-1.6,0.2h-3c0,0-0.5,0-0.7-0.2c0,0-0.1-0.1-0.2-0.6v-4.4
					c0,0-0.1-1.1,0.7-1.1h3.4c0,0,1.5,0.1,2,0.3c0,0,0.8,0.4,1,0.9c0,0,0.2,0.4,0.3,0.5c0,0,0.1,0.5,0.3,0.4c0,0,0.3,0.1,0.2-0.3
					c0,0,0.1-0.5-0.1-0.7c0,0-0.1-0.7-0.1-0.7c0,0,0-0.4,0.1-0.7c0,0,0.2-0.7-0.3-0.7c0,0-0.7,0.1-0.9,0.1c0,0-0.2,0.1-0.7,0.1
					L71.6,35.6"/>
				<path fill="#D3C7BE" d="M46.5,35.4c0.5-0.1,2.5-0.2,2.5-0.2c0.8-0.1,2.7-0.1,2.7-0.1c1.9,0,3.1,0.8,3.1,0.8
					c1.7,1,1.8,2.6,1.8,2.6c0.2,1.6-0.9,2.7-0.9,2.7c-0.8,0.9-2.3,1.6-2.3,1.6c-0.3,0.2-0.2,0.3-0.2,0.3l0.2,0.4l1.6,2.4
					c1.1,1.5,2.4,2.8,2.4,2.8c1.1,1.1,1.9,1.3,1.9,1.3c0.3,0.2,0.7,0.2,0.7,0.2l0.4,0.2c0.4,0.2,0.2,0.3,0.2,0.3
					c-0.1,0.1-0.4,0.1-0.4,0.1c-0.2,0.1-0.5,0.1-0.8,0.1c-0.4,0-0.8-0.1-0.8-0.1c-1.5-0.1-2.7-1-2.7-1c-1.1-0.9-1.9-2-1.9-2
					l-1.4-1.9C52.2,45,51.2,44,51.2,44c-0.5-0.4-1.1-0.5-1.1-0.5c-0.3-0.1-1.8-0.1-1.8-0.1c-0.2,0-0.4,0.1-0.4,0.1
					c-0.1,0-0.1,0.3-0.1,0.3v3.3c0,0.2,0.1,1,0.1,1c0.1,1.3,0.8,1.7,0.8,1.7c0.6,0.6,1.8,0.6,1.8,0.6c0.7,0,0.7,0.2,0.7,0.2
					c0,0.2-0.3,0.2-0.3,0.2c-0.6,0.2-2,0-2,0c-0.7-0.1-2.9-0.1-2.9-0.1l-2.2,0.2c-0.4,0.1-0.4-0.2-0.4-0.2c0-0.1,0.2-0.2,0.2-0.2
					l0.6-0.1c0.5-0.1,0.7-0.3,0.7-0.3c0.6-0.3,0.7-0.9,0.7-0.9c0.2-0.4,0.1-1.7,0.1-1.7v-9.1c0-0.5-0.1-1-0.1-1
					c-0.1-0.5-0.4-0.9-0.4-0.9c-0.4-0.5-1.1-0.6-1.1-0.6c-0.2-0.1-1-0.2-1-0.2c-0.3-0.1-0.3-0.2-0.3-0.2c0-0.2,0.3-0.2,0.3-0.2h0.6
					l1.4,0.1C45.5,35.5,46.5,35.4,46.5,35.4 M47.8,42c-0.1,0.8,0.7,0.8,0.7,0.8c0.7,0.2,1.2,0.1,1.2,0.1c2.7-0.2,3.7-1.5,3.7-1.5
					c1.9-2.1-0.3-4.2-0.3-4.2c-1.5-1.5-4.5-1.4-4.5-1.4C48.3,35.7,48,36,48,36c-0.3,0.3-0.2,0.9-0.2,0.9L47.8,42L47.8,42z"/>
				<path fill="#D3C7BE" d="M144.6,47.2c0,0-0.1-0.4-0.4-0.4c0,0-0.2,0.1-0.2,0.3l0.1,0.4l0.2,0.8l0.1,0.6l0.1,0.5
					c0,0,0,0.4,0.1,0.6c0,0,0.1,0.2,0.3,0.2l0.8,0.4l1.1,0.4c0,0,1,0.3,1.5,0.3c0.6,0.1,0.4,0.2,3.4,0.1c0,0,2.2-0.2,3.8-1.3
					c0,0,0.7-0.5,1-1c0,0,0.4-0.5,0.6-0.9c0,0,0.3-0.8,0.3-1.3c0,0,0.1-0.7-0.6-1.8c0,0-0.7-1-2.1-1.6c0,0-2.4-0.8-3.5-1.2
					c0,0-1.9-0.6-2-0.7c0,0-1.4-0.5-2-1.8c0,0-0.4-0.9-0.1-1.8c0,0,0.3-1.1,1.3-1.7c0,0,1.1-0.6,2.4-0.5c0,0,1.1,0.2,1.5,0.5
					c0,0,1,0.5,1.3,0.8c0,0,0.7,0.6,0.9,0.9c0,0,0.4,0.6,0.5,0.8L155,39c0,0,0.1,0.3,0.4,0.3c0,0,0.2,0,0.2-0.4c0,0-0.2-0.9-0.3-0.9
					c0,0-0.2-0.6-0.2-0.8c0,0-0.1-0.7-0.1-0.8l-0.1-0.9c0,0,0.1-0.3-0.2-0.3c0,0-0.2,0-0.3,0.2c0,0-0.1,0.4-0.4,0.4
					c0,0-0.2,0-0.5-0.1c0,0-1.7-0.5-2.3-0.5c0,0-1.9-0.3-3.2,0.1c0,0-2.9,0.5-3.5,2.8c0,0-0.5,2,0.7,3.3c0,0,0.9,0.9,2.5,1.5
					l3.5,1.2c0,0,2,0.7,2.5,1.2c0,0,1.3,1,0.8,2.9c0,0-0.3,1.6-2.4,2.2c0,0-0.7,0.4-2.6,0.3c0,0-1.6-0.1-2.5-0.7
					c0,0-1.2-0.7-1.8-1.5C145.3,48.5,144.8,47.7,144.6,47.2"/>
				<path fill="#D3C7BE" d="M14,32.9l-0.1-0.4c-0.1-0.4-0.3-0.7-0.3-0.7c-0.1-0.2-0.6-0.5-0.6-0.5c-0.1-0.1-0.6-0.3-0.6-0.3
					l-0.6-0.2l-0.5-0.1l-0.6-0.1c0,0,0.3,0.1,0,0c-0.2-0.1-0.3-0.2-0.3-0.2c-0.2-0.4,0.3-0.4,0.3-0.4c0.1,0,0.9,0,0.9,0
					c0.3,0.1,2.3,0.2,2.3,0.2c0.7,0.1,2.3-0.1,2.3-0.1c1.8-0.2,5.3-0.3,5.3-0.3c6.1,0.1,9.8,2.2,9.8,2.2c5.7,3.1,5.3,8.2,5.3,8.2
					c0,5.6-4.8,8.3-4.8,8.3c-3.8,2.7-9.3,2.3-9.3,2.3l-7.2-0.2c-0.4,0-2.4,0.1-2.4,0.1c-0.6,0.1-1.4,0.1-1.4,0.1
					c-0.7-0.2-0.2-0.5-0.2-0.5l1.2-0.3c1.3-0.4,1.5-1.2,1.5-1.2c0.4-0.7,0.1-3.1,0.2-2.7V34.8C14.2,34.4,14,32.9,14,32.9 M17.4,49.2
					c0,1,1,1,1,1c0.2,0.1,2.7,0.1,2.7,0.1c3.5,0.2,5.2-0.5,5.2-0.5c4.3-1.1,5.8-4.1,5.8-4.1c1.9-3.1,1.3-6.3,1.3-6.3
					c-0.1-3.9-4.4-6.6-4.4-6.6c-3.2-1.9-10.7-1.8-10.7-1.8c-1.2,0.1-1,1.3-1,1.3L17.4,49.2z"/>
				<path fill="#D3C7BE" d="M95.4,35.8c0.6-1.1,1-1,1-1c0.5,0,0.8,0.6,0.8,0.6l6.8,13.2c0.4,0.8,0.6,0.9,0.6,0.9l1.2,0.5
					c0.6,0.3,0.3,0.6,0.3,0.6c-0.2,0.2-0.7,0.1-0.7,0.1c-1.3-0.4-3-0.2-3-0.2c-0.3,0-1.6,0.2-1.6,0.2c-0.5,0.1-0.3-0.4-0.3-0.4
					c0.1-0.2,0.3-0.4,0.3-0.4l0.7-0.2c0.5,0,0.2-0.6,0.2-0.6l-2.3-4.6h-7.7l-2.2,4.3c-0.4,0.7,0.2,0.8,0.2,0.8l0.9,0.2
					c0.5,0.2,0.5,0.5,0.5,0.5c0.2,0.5-0.4,0.3-0.4,0.3c-1.6-0.4-3.8-0.1-3.8-0.1c-0.2,0-0.7,0.1-0.7,0.1c-0.5-0.1-0.3-0.6-0.3-0.6
					c0.1-0.2,0.7-0.3,0.7-0.3c0.6-0.2,1.1-0.4,1.1-0.4c0.4-0.3,0.9-1.1,0.9-1.1L95.4,35.8 M92.3,43.4h6.5l-3.2-6.2L92.3,43.4z"/>
				<path fill="#D3C7BE" d="M116,34.9c-0.6,0-0.7,1.2-0.7,1.2l-1.7,12.4l-0.1,0.7c-0.2,0.5-0.6,0.5-0.6,0.5
					c-0.1,0.1-0.6,0.2-0.6,0.2l-0.9,0.2c-0.4,0.1-0.3,0.4-0.3,0.4c0.1,0.3,0.5,0.3,0.5,0.3c0.1,0,0.8-0.1,0.8-0.1
					c0.5-0.1,2.3-0.2,2.3-0.2s1.6,0.1,2.4,0.2c0,0,1,0.1,1-0.1c0,0,0.1-0.3-0.3-0.6l-2.9-0.4c0,0-0.5,0.1-0.5-0.5l1.5-10.5
					c0,0,0.1-0.1,0.1,0l7.4,11c0,0,0.3,0.5,0.8,0.5c0,0,0.5,0.1,0.7-0.5l6.7-10.6c0,0,0.1-0.2,0.2,0l1.3,9.3c0,0,0.3,1.2-0.7,1.3
					l-1.3,0.3L131,50c0,0-0.1,0-0.2,0.1v0.3c0,0,0,0.3,0.4,0.3l3-0.3c0,0,2.1,0,3,0.2c0,0,0.7,0.1,0.9,0.1c0,0,0.3,0,0.3-0.4
					c0,0,0-0.2-0.3-0.3l-1.4-0.3c0,0-0.8-0.1-0.8-1.5l-2.2-12.6c0,0,0-0.6-0.5-0.6c0,0-0.5-0.1-0.7,0.5l-7.4,12.2c0,0-0.1,0.2-0.2,0
					l-1.2-1.7l-7-10C116.8,35.9,116.5,35,116,34.9"/>
			</g>
		</g>
	</g>
	<g>
		<path fill="#D3C7BE" d="M55.5,51.9c-0.4,0.1-0.8,0.3-1.2,0.4c-0.4,0.2-0.8,0.3-1.1,0.5c0.7,0.4,1.2,0.9,1.5,1.5
			c0.3,0.6,0.5,1.3,0.5,2c0,0.6-0.2,1.2-0.5,1.7c-0.3,0.5-0.7,1-1.2,1.4c-0.5,0.4-1,0.8-1.6,1c-0.6,0.3-1.1,0.4-1.7,0.4
			s-1-0.1-1.3-0.3c-0.3-0.3-0.5-0.5-0.5-0.9c0-0.2,0.1-0.4,0.2-0.6c0.2-0.2,0.3-0.3,0.6-0.3c0.1,0,0.3,0,0.4,0.1
			c0.1,0.1,0.2,0.2,0.3,0.3c-0.1,0.1-0.2,0.2-0.2,0.3c0,0.1-0.1,0.2-0.1,0.3c0,0.3,0.1,0.5,0.3,0.6c0.2,0.1,0.4,0.2,0.6,0.2
			c0.4,0,0.8-0.2,1.2-0.5s0.8-0.7,1.1-1.2c0.3-0.5,0.6-1,0.8-1.7c0.2-0.6,0.3-1.3,0.3-1.8s-0.1-1-0.3-1.4c-0.2-0.4-0.4-0.7-0.8-0.9
			c-0.8,0.5-1.6,1.2-2.3,2c-0.7,0.9-1.3,1.8-2,2.9c-0.6,1-1.3,2.1-2,3.3s-1.4,2.2-2.1,3.2c-0.8,1-1.6,1.9-2.5,2.8
			c-0.9,0.8-2,1.4-3.2,1.8v0c0.7,0.1,1.4,0.2,2,0.2c0.6,0,1.3,0,2,0c2.4,0,4.4-0.5,6.2-1.7s3.3-2.6,4.5-4.6l0.2,0.1
			c-0.7,1.1-1.5,2-2.2,2.8c-0.8,0.8-1.5,1.5-2.4,2s-1.8,0.9-2.9,1.2c-1,0.3-2.3,0.4-3.6,0.4c-0.6,0-1.3,0-2.1-0.1
			c-0.8-0.1-1.5-0.2-2-0.3c-0.1,0-0.6,0.1-1.3,0.3c-0.7,0.2-1.7,0.3-3,0.3c-0.8,0-1.4-0.1-1.7-0.2c-0.3-0.1-0.5-0.3-0.5-0.5
			c0-0.2,0.1-0.4,0.3-0.5c0.2-0.1,0.5-0.2,1-0.2c0.4,0,0.8,0,1.1,0s0.8,0.1,1.2,0.1c0.4,0,0.8,0.1,1.3,0.2c0.5,0.1,1,0.2,1.5,0.3
			c0.7-0.2,1.4-0.6,2.1-1.3c0.7-0.8,1.4-1.6,2.1-2.7c0.7-1,1.5-2.2,2.2-3.4c0.8-1.2,1.5-2.4,2.3-3.6c0.8-1.1,1.7-2.2,2.5-3.1
			c0.9-0.9,1.8-1.6,2.8-2c-0.3-0.2-0.8-0.3-1.2-0.3c-0.5,0-0.9-0.1-1.3-0.1c-0.9,0-1.8,0.1-2.8,0.3s-1.9,0.5-2.9,0.9
			c-1,0.4-1.8,0.9-2.7,1.5c-0.8,0.6-1.6,1.2-2.3,1.9c-0.7,0.7-1.2,1.5-1.5,2.3s-0.6,1.8-0.6,2.7c0,0.8,0.2,1.4,0.5,1.8
			c0.4,0.4,0.9,0.6,1.6,0.6c0.6,0,1.2-0.2,1.7-0.5c0.5-0.3,1-0.7,1.4-1.2c0.4-0.5,0.7-1,0.9-1.6c0.2-0.6,0.3-1.2,0.3-1.8v-0.9h0.3
			v0.9c0,0.6-0.1,1.2-0.4,1.8c-0.3,0.6-0.6,1.2-1,1.7c-0.4,0.5-0.9,1-1.5,1.3c-0.6,0.3-1.2,0.5-1.9,0.5c-0.4,0-0.8-0.1-1.1-0.3
			c-0.3-0.2-0.6-0.4-0.9-0.6c-0.3-0.3-0.5-0.6-0.6-1c-0.1-0.4-0.2-0.8-0.2-1.2c0-0.8,0.2-1.5,0.5-2.3c0.3-0.8,0.8-1.5,1.4-2.2
			c0.6-0.7,1.3-1.4,2.2-2c0.8-0.6,1.8-1.2,2.8-1.7c1-0.5,2.1-0.8,3.2-1.1c1.1-0.3,2.3-0.4,3.5-0.4c0.6,0,1.1,0,1.5,0.1
			c0.4,0.1,0.8,0.2,1.2,0.4c0.8-0.3,1.6-0.6,2.5-0.9L55.5,51.9z"/>
		<path fill="#D3C7BE" d="M58.6,56.5c-1,1.6-1.9,2.9-2.7,4.1c-0.8,1.1-1.4,2.1-2,2.9c-0.5,0.8-1,1.5-1.3,2c-0.3,0.5-0.6,1-0.8,1.3
			s-0.3,0.6-0.4,0.8c-0.1,0.2-0.1,0.4-0.1,0.5c0,0.3,0.1,0.4,0.4,0.4c0.3,0,0.6-0.1,1-0.4c0.4-0.3,0.8-0.6,1.3-1
			c0.5-0.4,0.9-0.9,1.4-1.5c0.5-0.5,0.9-1.1,1.4-1.8l0.2,0.1c-0.4,0.6-0.9,1.2-1.3,1.7c-0.5,0.5-0.9,1-1.3,1.4
			c-0.6,0.5-1,0.9-1.5,1.2c-0.4,0.3-0.8,0.4-1.1,0.4c-0.4,0-0.6-0.1-0.8-0.3c-0.2-0.2-0.3-0.4-0.3-0.6c0-0.3,0-0.5,0.1-0.8
			c0.1-0.3,0.3-0.6,0.5-1c0.2-0.4,0.5-0.8,0.8-1.3c0.3-0.5,0.8-1.2,1.3-1.9c0.5-0.8,1.1-1.7,1.8-2.7c0.7-1,1.5-2.3,2.4-3.7
			L58.6,56.5L58.6,56.5z"/>
		<path fill="#D3C7BE" d="M61.3,62.6h1.1c-0.4,0.6-0.8,1.2-1.3,1.8c-0.4,0.6-0.8,1.1-1,1.6c-0.3,0.5-0.5,0.9-0.8,1.3
			c-0.2,0.4-0.3,0.7-0.3,0.9c0,0.3,0.2,0.5,0.5,0.5c0.3,0,0.5-0.1,0.9-0.4c0.4-0.3,0.8-0.6,1.2-1c0.5-0.4,0.9-0.9,1.4-1.5
			c0.5-0.5,0.9-1.2,1.3-1.8l0.1,0c-0.3,0.5-0.7,1-1.1,1.5c-0.4,0.5-0.9,1.1-1.3,1.5c-0.5,0.5-0.9,0.9-1.4,1.2
			c-0.5,0.3-0.9,0.5-1.3,0.5c-0.3,0-0.6-0.1-0.8-0.3c-0.2-0.2-0.3-0.4-0.3-0.6c0-0.2,0-0.3,0.1-0.5c0-0.2,0.1-0.3,0.2-0.5h0
			c-0.2,0.2-0.3,0.3-0.6,0.6c-0.2,0.2-0.5,0.4-0.8,0.6c-0.3,0.2-0.5,0.3-0.8,0.5c-0.3,0.1-0.5,0.2-0.8,0.2c-0.4,0-0.8-0.1-0.9-0.4
			c-0.2-0.3-0.3-0.6-0.3-0.9c0-0.5,0.2-1,0.5-1.6c0.3-0.6,0.7-1.1,1.2-1.6c0.5-0.5,1-0.9,1.5-1.3s1.1-0.5,1.5-0.5
			c0.3,0,0.4,0,0.6,0.1c0.2,0.1,0.3,0.2,0.4,0.3c0.1,0.1,0.2,0.3,0.3,0.4c0.1,0.1,0.1,0.3,0.2,0.4h0L61.3,62.6z M55.6,67.5
			c0,0.3,0,0.5,0.2,0.6c0.1,0.1,0.3,0.2,0.5,0.2c0.2,0,0.4-0.1,0.7-0.2c0.3-0.1,0.5-0.3,0.8-0.6c0.3-0.3,0.6-0.5,0.9-0.8
			c0.3-0.3,0.5-0.7,0.8-1c0.2-0.4,0.4-0.7,0.5-1.1c0.1-0.4,0.2-0.7,0.2-1.1c0-0.3-0.1-0.5-0.2-0.6c-0.2-0.1-0.3-0.2-0.5-0.2
			c-0.3,0-0.8,0.2-1.2,0.5c-0.4,0.3-0.8,0.7-1.2,1.2c-0.4,0.5-0.7,1-1,1.5C55.8,66.4,55.6,66.9,55.6,67.5z"/>
		<path fill="#D3C7BE" d="M66.3,62.6c-0.4,0.6-0.8,1.2-1.3,1.8c-0.4,0.5-0.8,1.1-1.1,1.5c-0.3,0.5-0.6,0.9-0.8,1.2
			c-0.2,0.4-0.3,0.6-0.3,0.8c0,0.3,0.2,0.5,0.5,0.5c0.3,0,0.7-0.2,1.2-0.5s0.9-0.8,1.4-1.3c0.5-0.5,1-1.2,1.5-1.9
			c0.5-0.7,1-1.4,1.5-2.2h1.1c-0.7,1-1.3,1.9-1.9,2.9c-0.6,1-1.2,2-1.9,3c1.1-0.2,2.2-0.7,3.2-1.5s1.9-1.8,2.7-2.9l0.1,0
			c-0.8,1.3-1.8,2.3-2.8,3.1c-1.1,0.8-2.1,1.3-3.3,1.4c-0.5,0.6-0.9,1.3-1.4,1.9c-0.5,0.6-1,1.2-1.5,1.7c-0.6,0.5-1.2,0.9-1.9,1.3
			C60.7,73.8,59.9,74,59,74c-0.4,0-0.8,0-1.1-0.2c-0.3-0.1-0.6-0.3-0.9-0.4c-0.3-0.2-0.5-0.4-0.6-0.6c-0.2-0.3-0.2-0.5-0.2-0.8
			c0-0.6,0.2-1,0.6-1.3c0.4-0.3,0.9-0.4,1.5-0.4v0c-0.4,0.1-0.7,0.3-0.9,0.6c-0.2,0.3-0.3,0.6-0.3,1.1c0,0.3,0,0.5,0.2,0.8
			c0.1,0.3,0.3,0.4,0.5,0.6c0.2,0.2,0.4,0.3,0.6,0.3c0.3,0.1,0.5,0.1,0.8,0.1c0.5,0,1.1-0.1,1.6-0.4s1-0.6,1.5-1
			c0.5-0.4,0.9-0.9,1.3-1.4c0.4-0.5,0.8-1.1,1.2-1.6c0.4-0.6,0.8-1.1,1.1-1.7s0.6-1,0.9-1.5l0,0c-0.2,0.2-0.4,0.5-0.7,0.8
			c-0.3,0.3-0.5,0.6-0.9,0.8c-0.3,0.3-0.7,0.5-1,0.7c-0.4,0.2-0.8,0.3-1.1,0.3c-0.4,0-0.6-0.1-0.8-0.2c-0.2-0.2-0.3-0.4-0.3-0.6
			s0-0.5,0.2-0.8c0.1-0.3,0.3-0.6,0.6-1c0.3-0.4,0.6-0.9,1-1.5c0.4-0.6,0.9-1.3,1.5-2.1L66.3,62.6L66.3,62.6z"/>
		<path fill="#D3C7BE" d="M76.8,62.6h1.1c-0.4,0.6-0.8,1.2-1.3,1.8c-0.4,0.6-0.8,1.1-1,1.6c-0.3,0.5-0.5,0.9-0.8,1.3
			c-0.2,0.4-0.3,0.7-0.3,0.9c0,0.3,0.2,0.5,0.5,0.5c0.3,0,0.5-0.1,0.9-0.4c0.4-0.3,0.8-0.6,1.2-1c0.5-0.4,0.9-0.9,1.4-1.5
			c0.5-0.5,0.9-1.2,1.3-1.8l0.1,0c-0.3,0.5-0.7,1-1.1,1.5c-0.4,0.5-0.9,1.1-1.3,1.5c-0.5,0.5-0.9,0.9-1.4,1.2
			c-0.5,0.3-0.9,0.5-1.3,0.5c-0.3,0-0.6-0.1-0.8-0.3c-0.2-0.2-0.3-0.4-0.3-0.6c0-0.2,0-0.3,0.1-0.5c0-0.2,0.1-0.3,0.2-0.5h0
			c-0.2,0.2-0.3,0.3-0.6,0.6c-0.2,0.2-0.5,0.4-0.8,0.6c-0.3,0.2-0.5,0.3-0.8,0.5c-0.3,0.1-0.5,0.2-0.8,0.2c-0.4,0-0.8-0.1-0.9-0.4
			c-0.2-0.3-0.3-0.6-0.3-0.9c0-0.5,0.2-1,0.5-1.6c0.3-0.6,0.7-1.1,1.2-1.6c0.5-0.5,1-0.9,1.5-1.3c0.5-0.3,1.1-0.5,1.5-0.5
			c0.3,0,0.4,0,0.6,0.1c0.2,0.1,0.3,0.2,0.4,0.3c0.1,0.1,0.2,0.3,0.3,0.4c0.1,0.1,0.1,0.3,0.2,0.4h0L76.8,62.6z M71.1,67.5
			c0,0.3,0,0.5,0.2,0.6c0.1,0.1,0.3,0.2,0.5,0.2s0.4-0.1,0.7-0.2c0.3-0.1,0.5-0.3,0.8-0.6c0.3-0.3,0.6-0.5,0.9-0.8
			c0.3-0.3,0.5-0.7,0.8-1c0.2-0.4,0.4-0.7,0.5-1.1c0.1-0.4,0.2-0.7,0.2-1.1c0-0.3-0.1-0.5-0.2-0.6c-0.2-0.1-0.3-0.2-0.5-0.2
			c-0.3,0-0.8,0.2-1.2,0.5c-0.4,0.3-0.8,0.7-1.2,1.2c-0.4,0.5-0.7,1-1,1.5C71.2,66.4,71.1,66.9,71.1,67.5z"/>
		<path fill="#D3C7BE" d="M104.7,62.8c-0.5,1.1-1.1,2-1.8,2.9c-0.7,0.8-1.5,1.5-2.3,2c-0.9,0.5-1.8,0.9-2.8,1.2
			c-1,0.3-2,0.4-3.1,0.4c-0.3,0-0.6,0-0.8,0c-0.2,0-0.4,0-0.5,0.1c-0.1,0-0.3,0-0.4,0c-0.1,0-0.2,0-0.3,0c-0.1,0-0.3,0-0.4,0
			c-0.1,0-0.1-0.1-0.1-0.2c0-0.1,0.1-0.2,0.2-0.2s0.3,0,0.3,0c0.2,0,0.5,0,0.6,0c0.2,0,0.4,0.1,0.7,0.1c1-0.5,1.8-1.1,2.5-2
			c0.7-0.9,1.3-1.8,1.8-2.9c0.5-1.1,1-2.2,1.5-3.4c0.5-1.2,1-2.3,1.5-3.4c0.5-1,1.2-2,1.9-2.9c0.7-0.8,1.6-1.5,2.6-1.9l0,0
			c-0.7,0.1-1.4,0.4-2.2,0.9c-0.8,0.5-1.6,1.1-2.4,1.8c-0.8,0.8-1.6,1.6-2.3,2.5c-0.8,0.9-1.5,1.9-2.2,2.8c-0.5,0.8-1.1,1.5-1.7,2.3
			c-0.6,0.8-1.2,1.6-1.8,2.3c-0.6,0.8-1.3,1.5-1.9,2.2c-0.7,0.7-1.4,1.3-2.3,1.9l-0.2-0.3c0.5-0.9,1-1.8,1.3-2.8c0.3-1,0.7-2,1-3.1
			c0.3-1,0.6-2.1,0.9-3.1c0.3-1,0.7-2,1.2-2.9c0.5-0.9,1-1.8,1.8-2.5c0.7-0.8,1.6-1.5,2.7-2l0,0c-1,0.3-2,0.9-2.9,1.5
			c-0.9,0.7-1.7,1.4-2.5,2.3c-0.8,0.8-1.5,1.8-2.1,2.7c-0.6,1-1.3,1.9-1.8,2.9c-0.6,1-1.2,1.9-1.7,2.8c-0.5,0.9-1.1,1.7-1.7,2.4
			c-0.6,0.7-1.2,1.2-1.8,1.6c-0.7,0.4-1.4,0.6-2.2,0.6c-0.2,0-0.4,0-0.6,0s-0.4-0.1-0.5-0.2c-0.2-0.1-0.3-0.2-0.4-0.4
			c-0.1-0.2-0.2-0.4-0.2-0.6c0-0.3,0.1-0.5,0.3-0.6c0.2-0.2,0.4-0.3,0.6-0.3s0.4,0.1,0.5,0.3c0.1,0.2,0.2,0.3,0.2,0.5
			c0,0.1,0,0.3-0.1,0.4c0,0.1-0.2,0.3-0.3,0.3c0,0.1,0.1,0.2,0.3,0.3s0.3,0.1,0.5,0.1c0.7,0,1.4-0.2,2-0.7c0.6-0.5,1.2-1,1.8-1.8
			c0.6-0.7,1.2-1.5,1.8-2.5c0.6-0.9,1.2-1.9,1.8-2.9c0.8-1.2,1.5-2.3,2.2-3.3c0.8-1,1.5-1.9,2.4-2.8c0.8-0.8,1.8-1.5,2.8-2
			c1-0.5,2.2-1,3.5-1.2l0,0.2c-1,0.3-1.8,0.8-2.5,1.5c-0.7,0.7-1.2,1.5-1.7,2.3C94.7,57,94.2,58,93.9,59s-0.7,2.1-1,3.2
			c-0.4,1.1-0.8,2.1-1.2,3.2c-0.4,1-1,2-1.6,2.9l0,0c0.6-0.5,1.2-1.1,1.8-1.8c0.6-0.7,1.2-1.4,1.8-2.2c0.6-0.8,1.1-1.5,1.7-2.3
			c0.5-0.8,1-1.5,1.5-2.1c1.3-1.7,2.4-3.1,3.4-4.1c1-1,2-1.8,2.9-2.4s1.7-1,2.4-1.1c0.7-0.2,1.4-0.3,2-0.3c0.3,0,0.5,0,0.7,0.1
			c0.2,0.1,0.3,0.2,0.3,0.3c0,0.1,0,0.2-0.1,0.3c-0.1,0-0.2,0-0.3,0c-0.2,0-0.5,0-0.7-0.1c-0.3,0-0.5-0.1-0.8-0.1
			c-0.4,0-0.8,0.2-1.1,0.5c-0.4,0.3-0.8,0.8-1.1,1.3c-0.4,0.5-0.8,1.1-1.1,1.7c-0.3,0.6-0.7,1.3-1,1.9c-0.3,0.6-0.5,1.2-0.8,1.7
			c-0.2,0.5-0.4,1-0.5,1.3c-0.3,0.7-0.5,1.4-0.9,2.2c-0.3,0.8-0.8,1.5-1.3,2.3c-0.5,0.8-1.1,1.5-1.8,2.1c-0.7,0.7-1.6,1.2-2.6,1.7v0
			c2.4,0,4.5-0.5,6.2-1.6C102.5,66.5,103.8,64.9,104.7,62.8L104.7,62.8z"/>
		<path fill="#D3C7BE" d="M105.8,62.6c-0.5,0.6-0.9,1.2-1.3,1.8c-0.4,0.5-0.8,1.1-1.1,1.5c-0.3,0.5-0.6,0.9-0.8,1.2
			s-0.3,0.6-0.3,0.8c0,0.2,0,0.3,0.1,0.4c0.1,0.1,0.2,0.1,0.4,0.1c0.2,0,0.5-0.1,0.7-0.2c0.3-0.1,0.5-0.3,0.8-0.5
			c0.3-0.2,0.5-0.5,0.8-0.8c0.3-0.3,0.5-0.5,0.8-0.8c0.2-0.3,0.4-0.5,0.6-0.7c0.2-0.2,0.3-0.4,0.4-0.5l1.5-2.3h1.2
			c-0.6,0.9-1.2,1.6-1.6,2.2c-0.4,0.6-0.8,1.1-1.1,1.5c-0.3,0.4-0.5,0.8-0.6,1c-0.1,0.3-0.2,0.5-0.2,0.7c0,0.1,0,0.3,0.1,0.4
			c0.1,0.1,0.2,0.2,0.3,0.2c0.3,0,0.5-0.1,0.8-0.3c0.3-0.2,0.6-0.4,1-0.7c0.3-0.3,0.7-0.6,1-0.9c0.3-0.3,0.6-0.7,0.9-1
			c0.3-0.3,0.5-0.7,0.8-1c0.3-0.3,0.4-0.5,0.5-0.7l0.2,0c-0.1,0.2-0.3,0.5-0.5,0.8c-0.3,0.3-0.5,0.6-0.8,1c-0.3,0.3-0.6,0.7-0.9,1
			c-0.3,0.4-0.7,0.7-1,1c-0.3,0.3-0.7,0.5-1,0.7c-0.3,0.2-0.6,0.3-0.9,0.3c-0.3,0-0.6-0.1-0.8-0.3s-0.3-0.4-0.3-0.7
			c0-0.3,0-0.5,0.1-0.7c0.1-0.2,0.1-0.3,0.2-0.4l0,0c-0.3,0.3-0.5,0.5-0.8,0.8c-0.3,0.3-0.5,0.5-0.8,0.7s-0.5,0.3-0.8,0.5
			c-0.3,0.1-0.5,0.2-0.8,0.2c-0.4,0-0.6-0.1-0.8-0.3c-0.2-0.2-0.3-0.4-0.3-0.6c0-0.3,0.1-0.6,0.3-1s0.4-0.7,0.7-1.1s0.6-0.9,1-1.4
			c0.4-0.5,0.8-1.1,1.3-1.8L105.8,62.6L105.8,62.6z"/>
		<path fill="#D3C7BE" d="M113.3,62.6l-3.7,5.8c0.5-0.1,1-0.3,1.6-0.5s1-0.6,1.5-1c0.5-0.4,1-0.8,1.5-1.3c0.5-0.5,0.9-1.1,1.3-1.7
			l0.2,0.1c-0.4,0.5-0.8,1.1-1.2,1.6c-0.5,0.5-0.9,1-1.4,1.4c-0.5,0.4-1,0.8-1.7,1c-0.6,0.3-1.2,0.5-1.8,0.6
			c-0.4,0.6-0.8,1.2-1.3,1.8c-0.5,0.6-1,1.2-1.6,1.7s-1.2,0.9-1.9,1.2c-0.7,0.3-1.4,0.5-2.2,0.5c-0.4,0-0.8,0-1.1-0.1
			s-0.7-0.2-0.9-0.4c-0.3-0.2-0.5-0.4-0.6-0.6c-0.2-0.3-0.3-0.5-0.3-0.9c0-0.3,0-0.5,0.2-0.7s0.3-0.4,0.5-0.5
			c0.2-0.1,0.4-0.3,0.6-0.3c0.3-0.1,0.5-0.1,0.7-0.1c0.1,0,0.2,0,0.3,0c0.1,0,0.2,0,0.2,0v0.2h-0.1c-0.5,0-0.8,0.1-1.1,0.4
			c-0.3,0.3-0.4,0.6-0.4,1c0,0.7,0.2,1.2,0.6,1.5c0.4,0.3,0.9,0.5,1.6,0.5c0.7,0,1.4-0.2,2-0.6s1.2-0.9,1.8-1.5s1-1.3,1.5-2
			c0.5-0.7,0.9-1.4,1.3-2l3-4.9L113.3,62.6L113.3,62.6z M114.4,59.3c0.2,0,0.3,0,0.4,0.2c0.1,0.1,0.2,0.3,0.2,0.4
			c0,0.2,0,0.3-0.2,0.4s-0.3,0.2-0.4,0.2c-0.2,0-0.3,0-0.4-0.2c-0.1-0.1-0.2-0.3-0.2-0.4c0-0.2,0-0.3,0.2-0.4S114.3,59.3,114.4,59.3
			z"/>
		<path fill="#D3C7BE" d="M121.5,64.1c-0.2,0.3-0.4,0.6-0.7,1c-0.3,0.3-0.5,0.7-0.9,1c-0.3,0.3-0.7,0.7-1.1,1
			c-0.4,0.3-0.8,0.6-1.2,0.8c-0.4,0.3-0.8,0.5-1.2,0.6c-0.4,0.1-0.8,0.2-1.2,0.2c-0.5,0-0.9-0.1-1.1-0.4c-0.3-0.3-0.4-0.6-0.4-1.1
			c0-0.5,0.2-1,0.5-1.6c0.3-0.6,0.7-1.1,1.2-1.5c0.5-0.5,1-0.9,1.6-1.2c0.6-0.3,1.1-0.5,1.6-0.5c0.3,0,0.5,0,0.7,0.2
			c0.2,0.1,0.3,0.3,0.3,0.5c0,0.3-0.2,0.5-0.5,0.8c-0.3,0.3-0.7,0.5-1.1,0.7c-0.4,0.2-0.9,0.4-1.4,0.6c-0.5,0.2-1,0.3-1.3,0.4
			c-0.1,0.3-0.3,0.5-0.3,0.8c-0.1,0.3-0.1,0.6-0.1,0.9c0,0.1,0,0.3,0,0.4c0,0.1,0.1,0.3,0.1,0.4c0.1,0.1,0.2,0.2,0.3,0.3
			c0.1,0.1,0.3,0.1,0.4,0.1c0.4,0,0.8-0.1,1.3-0.4c0.5-0.3,1-0.6,1.6-1s1-0.9,1.5-1.4c0.5-0.5,0.9-1.1,1.3-1.7L121.5,64.1z
			 M118.6,63.1c0-0.2,0-0.3-0.1-0.4c-0.1-0.1-0.2-0.1-0.3-0.1c-0.3,0-0.5,0.1-0.8,0.3c-0.3,0.2-0.6,0.4-0.8,0.7
			c-0.3,0.3-0.5,0.6-0.8,0.9s-0.4,0.6-0.5,0.9c0.3,0,0.6-0.1,1-0.3c0.4-0.1,0.8-0.3,1.1-0.5c0.3-0.2,0.7-0.4,0.9-0.7
			C118.5,63.7,118.6,63.5,118.6,63.1z"/>
		<path fill="#D3C7BE" d="M123.1,62.6l-2.2,3.2l0,0c0.2-0.2,0.4-0.4,0.6-0.7c0.3-0.3,0.5-0.5,0.8-0.8c0.3-0.3,0.6-0.5,0.9-0.8
			c0.3-0.3,0.6-0.5,1-0.7c0-0.1,0.1-0.2,0.2-0.3c0.1-0.1,0.2-0.1,0.4-0.1c0.1,0,0.3,0,0.3,0c0.1,0,0.2,0,0.3,0
			c-0.2,0.2-0.4,0.5-0.6,0.7c-0.2,0.3-0.3,0.6-0.3,0.9c0,0.3,0.1,0.5,0.2,0.6c0.1,0.2,0.3,0.2,0.5,0.2c0.2,0,0.3,0,0.5-0.1
			c0.2-0.1,0.3-0.2,0.5-0.3c0.2-0.1,0.3-0.2,0.4-0.3c0.1-0.1,0.3-0.2,0.4-0.3l0.1,0.1c-0.1,0.1-0.3,0.3-0.4,0.4
			c-0.2,0.1-0.3,0.3-0.5,0.4c-0.2,0.1-0.4,0.2-0.5,0.3c-0.2,0.1-0.4,0.1-0.6,0.1c-0.4,0-0.7-0.1-0.9-0.3c-0.2-0.2-0.3-0.5-0.3-1
			c0-0.3,0.1-0.5,0.2-0.8l0,0c-0.5,0.3-1,0.8-1.6,1.3c-0.6,0.5-1.2,1.2-1.8,1.9c-0.3,0.3-0.5,0.6-0.7,1s-0.5,0.8-0.7,1.3h-1.1
			c0.6-1,1.3-2,1.9-3c0.6-1,1.3-2,1.9-3L123.1,62.6L123.1,62.6z"/>
		<path fill="#D3C7BE" d="M133.1,64.1c-0.2,0.3-0.4,0.6-0.7,1c-0.3,0.3-0.5,0.7-0.9,1s-0.7,0.7-1.1,1c-0.4,0.3-0.8,0.6-1.2,0.8
			c-0.4,0.3-0.8,0.5-1.2,0.6c-0.4,0.1-0.8,0.2-1.2,0.2c-0.5,0-0.9-0.1-1.1-0.4c-0.3-0.3-0.4-0.6-0.4-1.1c0-0.5,0.2-1,0.5-1.6
			s0.7-1.1,1.2-1.5c0.5-0.5,1-0.9,1.6-1.2c0.6-0.3,1.1-0.5,1.6-0.5c0.3,0,0.5,0,0.7,0.2c0.2,0.1,0.3,0.3,0.3,0.5
			c0,0.3-0.2,0.5-0.5,0.8c-0.3,0.3-0.7,0.5-1.1,0.7c-0.4,0.2-0.9,0.4-1.4,0.6c-0.5,0.2-1,0.3-1.3,0.4c-0.1,0.3-0.3,0.5-0.3,0.8
			c-0.1,0.3-0.1,0.6-0.1,0.9c0,0.1,0,0.3,0,0.4c0,0.1,0.1,0.3,0.1,0.4c0.1,0.1,0.2,0.2,0.3,0.3c0.1,0.1,0.3,0.1,0.4,0.1
			c0.4,0,0.8-0.1,1.3-0.4c0.5-0.3,1-0.6,1.6-1s1-0.9,1.5-1.4c0.5-0.5,0.9-1.1,1.3-1.7L133.1,64.1z M130.3,63.1c0-0.2,0-0.3-0.1-0.4
			c-0.1-0.1-0.2-0.1-0.3-0.1c-0.3,0-0.5,0.1-0.8,0.3c-0.3,0.2-0.6,0.4-0.8,0.7c-0.3,0.3-0.5,0.6-0.8,0.9s-0.4,0.6-0.5,0.9
			c0.3,0,0.6-0.1,1-0.3c0.4-0.1,0.8-0.3,1.1-0.5c0.3-0.2,0.7-0.4,0.9-0.7C130.2,63.7,130.3,63.5,130.3,63.1z"/>
		<path fill="#D3C7BE" d="M138.9,64.1c-0.3,0.5-0.8,1.1-1.2,1.7c-0.5,0.5-1,1-1.5,1.5c-0.5,0.5-1.1,0.8-1.8,1.1
			c-0.6,0.3-1.3,0.4-2.1,0.4c-0.3,0-0.5,0-0.8-0.1c-0.3-0.1-0.5-0.2-0.6-0.3c-0.2-0.1-0.3-0.3-0.4-0.5s-0.2-0.5-0.2-0.8
			c0-0.3,0.1-0.6,0.3-0.8c0.2-0.3,0.5-0.4,0.8-0.4c0.2,0,0.3,0,0.4,0.1c0.1,0.1,0.2,0.2,0.2,0.4c0,0.2,0,0.3-0.1,0.4
			c-0.1,0.1-0.2,0.2-0.4,0.2c-0.1,0-0.3,0-0.3-0.1c-0.1-0.1-0.1-0.2-0.2-0.3c-0.1,0.1-0.2,0.2-0.3,0.3c0,0.1-0.1,0.3-0.1,0.4
			c0,0.4,0.2,0.7,0.5,0.9s0.7,0.3,1,0.3c0.3,0,0.5,0,0.6-0.2c0.2-0.1,0.3-0.2,0.5-0.4c0.1-0.2,0.2-0.3,0.3-0.5
			c0-0.2,0.1-0.4,0.1-0.6c0-0.2,0-0.5-0.1-0.7c-0.1-0.3-0.2-0.5-0.3-0.7c-0.1-0.3-0.2-0.5-0.3-0.7c-0.1-0.2-0.1-0.5-0.1-0.6
			c0-0.3,0-0.5,0.2-0.7c0.1-0.2,0.3-0.4,0.4-0.5c0.2-0.1,0.4-0.3,0.6-0.3c0.3-0.1,0.5-0.1,0.8-0.1c0.5,0,0.8,0.1,1.1,0.3
			c0.3,0.2,0.4,0.5,0.4,0.8c0,0.3-0.1,0.5-0.3,0.7c-0.2,0.1-0.5,0.2-0.8,0.2c0.1-0.1,0.1-0.3,0.2-0.5c0-0.2,0.1-0.3,0.1-0.5
			c0-0.3-0.1-0.4-0.2-0.6s-0.3-0.3-0.6-0.3c-0.3,0-0.6,0.1-0.8,0.3c-0.2,0.2-0.3,0.5-0.3,0.8c0,0.3,0,0.5,0.1,0.8
			c0.1,0.3,0.2,0.5,0.3,0.7c0.1,0.3,0.2,0.5,0.3,0.7c0.1,0.3,0.1,0.5,0.1,0.8c0,0.2,0,0.4-0.2,0.6c-0.1,0.2-0.3,0.4-0.4,0.5
			c-0.2,0.2-0.3,0.3-0.5,0.4s-0.4,0.2-0.6,0.2l0,0c0.6-0.1,1.2-0.3,1.8-0.5c0.6-0.3,1.1-0.7,1.6-1.1c0.5-0.4,1-0.9,1.4-1.4
			c0.4-0.5,0.8-1,1.1-1.5L138.9,64.1z"/>
	</g>
</g>
</svg>
