<?xml version="1.0" encoding="utf-8"?>
<!-- Generator: Adobe Illustrator 18.1.0, SVG Export Plug-In . SVG Version: 6.00 Build 0)  -->
<svg version="1.1" id="Layer_1" xmlns="http://www.w3.org/2000/svg" xmlns:xlink="http://www.w3.org/1999/xlink" x="0px" y="0px"
	 viewBox="0 0 300 75.4" 
enableBackground="new 0 0 300 75.4" xml:space="preserve">
<g>
	<g>
		<g>
			<g>
				<g>
					<path fill="#D3C7BE" d="M54.9,38.6c0,0.3,0,0.5,0,0.9l0,0l0,0C54.9,39.1,54.9,38.8,54.9,38.6z"/>
					<path fill="#D3C7BE" d="M75.3,19c0,3.7-1,7.1-2.8,10.2c-0.9,1.5-2,2.9-3.3,4.2c-5.2,0-10.3,2-14.4,5.9c3.9-4,6-9.2,5.9-14.4
						c1.2-1.2,2.7-2.3,4.2-3.2C68.1,20,71.6,19,75.3,19z"/>
					<path fill="#D3C7BE" d="M75.3,59.9c-3.7,0-7.1-1.1-10.2-2.8c-1.5-0.9-2.9-2-4.2-3.3c0-5.2-2-10.4-6-14.4c4,4,9.2,6,14.4,6
						c1.2,1.2,2.3,2.7,3.2,4.2C74.3,52.7,75.3,56.1,75.3,59.9z"/>
					<path fill="#D3C7BE" d="M54.9,39.4c-3.9-3.9-9.1-5.9-14.3-5.9c-1.2-1.2-2.4-2.7-3.3-4.3c-1.8-2.9-2.8-6.4-2.8-10.2
						c3.7,0,7.2,1,10.2,2.8c1.5,0.9,2.9,2,4.2,3.2C48.9,30.2,50.9,35.4,54.9,39.4z"/>
					<path fill="#D3C7BE" d="M55,39.4L55,39.4c0-0.3,0-0.5,0-0.9C55,38.8,55,39.1,55,39.4z"/>
					<path fill="#D3C7BE" d="M54.9,39.5C51,43.4,49,48.6,49,53.7c-1.2,1.2-2.7,2.4-4.3,3.3c-2.9,1.8-6.4,2.8-10.2,2.8
						c0-3.7,1.1-7.1,2.8-10.2c0.9-1.5,2-2.9,3.3-4.2C45.7,45.4,50.9,43.4,54.9,39.5z"/>
					<path fill="#D3C7BE" d="M116.4,19.3l0.1,4.5H116c-0.2-1.2-0.4-2.2-1.2-3.1s-1.8-0.9-3-0.9H109v1.6v4.6h1.3
						c1.5,0,2.3-0.4,2.3-2.5V23h0.5v7h-0.5v-0.8c0-1.8-0.4-2.5-2.4-2.5H109v5v1.7h3.5c0.9,0,1.9-0.1,2.8-1c1.2-1.2,1.3-2.6,1.4-3.6
						h0.6l-0.2,5.1h-12.4v-0.5h2v-1.8V21.5v-1.8h-2v-0.5L116.4,19.3L116.4,19.3z"/>
					<polygon fill="#D3C7BE" points="129.3,19.3 129.3,19.8 127,19.8 127.8,21.1 129.6,24.7 131.9,21.2 132.7,19.8 130.8,19.8 
						130.8,19.3 135.2,19.3 135.2,19.8 133.5,19.8 132.4,21.5 130,25.4 133.3,31.5 134.4,33.6 136.3,33.6 136.3,34 129.6,34 
						129.6,33.6 131.7,33.6 130.8,31.7 128.6,27.7 126.1,31.8 125,33.6 127.1,33.6 127.1,34 122.4,34 122.4,33.6 124.1,33.6 
						125.3,31.7 128.2,27 125.3,21.5 124.3,19.8 122.5,19.8 122.5,19.3 					"/>
					<path fill="#D3C7BE" d="M152.1,32.9c-1.2,0.6-2.8,1.4-5.1,1.4c-4,0-7-2.8-7-7.6c0-4.6,2.8-7.7,7.1-7.7c2.2,0,3.7,0.7,4.8,1.2
						V24h-0.6c0-0.7-0.1-1.4-0.5-2.2c-0.4-0.7-1.3-2.2-3.6-2.2c-1.2,0-2.4,0.4-3.1,1.2c-1.2,1.2-1.5,3.1-1.5,5.7
						c0,2.9,0.4,4.8,1.4,6c0.6,0.7,1.7,1.2,2.9,1.2c1.9,0,3-1.1,3.7-2.5c0.4-1,0.5-1.7,0.5-2.4h0.6L152.1,32.9L152.1,32.9z"/>
					<path fill="#D3C7BE" d="M169.9,19.3l0.1,4.5h-0.5c-0.2-1.2-0.4-2.2-1.2-3.1c-0.8-0.9-1.8-0.9-3-0.9h-2.8v1.6v4.6h1.3
						c1.5,0,2.3-0.4,2.4-2.5V23h0.5v7h-0.5v-0.8c0-1.8-0.4-2.5-2.4-2.5h-1.2v5v1.7h3.5c0.9,0,1.9-0.1,2.8-1c1.2-1.2,1.3-2.6,1.4-3.6
						h0.6l-0.2,5.1h-12.4v-0.5h2v-1.8V21.5v-1.8h-2v-0.5L169.9,19.3L169.9,19.3z"/>
					<path fill="#D3C7BE" d="M176.8,19.3h6.2v0.5h-1.9v2.1v9.7v1.9h3.5c1,0,1.9-0.1,2.8-0.9c1-1,1.2-2.7,1.4-3.8h0.5v5.4h-12.4v-0.5
						h1.9v-2v-9.7v-2.1h-1.9L176.8,19.3L176.8,19.3z"/>
					<path fill="#D3C7BE" d="M194.1,19.3h6.2v0.5h-1.9v2.1v9.7v1.9h3.5c1,0,1.9-0.1,2.8-0.9c1-1,1.2-2.7,1.4-3.8h0.5v5.4h-12.4v-0.5
						h1.9v-2v-9.7v-2.1h-1.9L194.1,19.3L194.1,19.3z"/>
					<path fill="#D3C7BE" d="M223.2,19.3l0.1,4.5h-0.5c-0.2-1.2-0.4-2.2-1.2-3.1c-0.8-0.9-1.8-0.9-3-0.9h-2.8v1.6v4.6h1.3
						c1.5,0,2.3-0.4,2.4-2.5V23h0.5v7h-0.5v-0.8c0-1.8-0.4-2.5-2.4-2.5h-1.2v5v1.7h3.5c0.9,0,1.9-0.1,2.8-1c1.2-1.2,1.3-2.6,1.4-3.6
						h0.6l-0.2,5.1h-12.4v-0.5h2v-1.8V21.5v-1.8h-2v-0.5L223.2,19.3L223.2,19.3z"/>
					<polygon fill="#D3C7BE" points="234.8,19.3 242,29.8 242,21.7 242,19.8 239.8,19.8 239.8,19.3 244.5,19.3 244.5,19.8 
						242.7,19.8 242.6,21.7 242.6,34.2 242.3,34.4 232.6,20.3 232.6,31.5 232.6,33.6 234.9,33.6 234.9,34 230,34 230,33.6 232,33.6 
						232,31.5 232,21.7 232,19.8 230,19.8 230,19.3 					"/>
					<path fill="#D3C7BE" d="M262.3,32.9c-1.2,0.6-2.8,1.4-5.1,1.4c-4,0-7-2.8-7-7.6c0-4.6,2.8-7.7,7.1-7.7c2.2,0,3.7,0.7,4.8,1.2
						V24h-0.6c0-0.7-0.1-1.4-0.5-2.2c-0.4-0.7-1.3-2.2-3.6-2.2c-1.2,0-2.4,0.4-3.1,1.2c-1.2,1.2-1.5,3.1-1.5,5.7
						c0,2.9,0.4,4.8,1.4,6c0.6,0.7,1.7,1.2,2.9,1.2c1.9,0,3-1.1,3.7-2.5c0.4-1,0.5-1.7,0.5-2.4h0.6L262.3,32.9L262.3,32.9z"/>
					<path fill="#D3C7BE" d="M280,19.3l0.1,4.5h-0.5c-0.2-1.2-0.4-2.2-1.2-3.1s-1.8-0.9-3-0.9h-2.8v1.6v4.6h1.3
						c1.5,0,2.3-0.4,2.3-2.5V23h0.5v7h-0.5v-0.8c0-1.8-0.4-2.5-2.4-2.5h-1.2v5v1.7h3.5c0.9,0,1.9-0.1,2.8-1c1.2-1.2,1.3-2.6,1.4-3.6
						h0.6l-0.2,5.1h-12.5v-0.5h2v-1.8V21.5v-1.8h-2v-0.5L280,19.3L280,19.3z"/>
					<path fill="#E8E0DA" d="M60.9,25c0,5.2-2,10.4-5.9,14.4c0-0.3,0-0.5,0-0.9C55.2,33.2,57.4,28.5,60.9,25z"/>
					<path fill="#E8E0DA" d="M54.9,38.6c0,0.3,0,0.5,0,0.9l0,0c-3.9-4-5.9-9.2-5.9-14.4C52.4,28.5,54.7,33.3,54.9,38.6z"/>
					<path fill="#D3C7BE" d="M55,39.4C54.9,39.4,54.9,39.5,55,39.4C54.9,39.5,54.9,39.4,55,39.4L55,39.4c0-0.3,0-0.5,0-0.9
						C55,38.8,55,39.1,55,39.4z"/>
					<path fill="#D3C7BE" d="M60.9,25c-3.5,3.5-5.7,8.2-6,13.6c-0.3-5.3-2.5-10-6-13.6c0-1.8,0.3-3.6,0.7-5.3
						c0.9-3.4,2.7-6.5,5.3-9.2c2.7,2.7,4.4,5.8,5.3,9.2C60.6,21.4,60.9,23.2,60.9,25z"/>
					<path fill="#E8E0DA" d="M69.3,45.4c-5.2,0-10.4-2-14.4-6C60.6,39.5,65.7,41.7,69.3,45.4z"/>
					<path fill="#E8E0DA" d="M69.3,33.5c-3.7,3.7-8.7,6-14.4,6l0,0C58.9,35.5,64.2,33.5,69.3,33.5z"/>
					<path fill="#D3C7BE" d="M83.8,39.5c-2.7,2.7-5.8,4.4-9.2,5.3c-1.7,0.4-3.5,0.7-5.3,0.7c-3.7-3.7-8.7-6-14.4-6
						c5.6,0,10.7-2.3,14.4-6c1.8,0,3.6,0.3,5.3,0.7C78,35.1,81.1,36.8,83.8,39.5z"/>
					<path fill="#E8E0DA" d="M54.9,39.4c-5.6,0-10.6-2.2-14.3-5.9C45.8,33.5,50.9,35.5,54.9,39.4z"/>
					<path fill="#E8E0DA" d="M54.9,39.4L54.9,39.4c-4,4-9.2,6-14.4,6C44.2,41.7,49.3,39.5,54.9,39.4z"/>
					<path fill="#D3C7BE" d="M40.6,33.5c3.7,3.7,8.7,5.9,14.3,5.9c-5.6,0-10.7,2.3-14.4,6c-1.8,0-3.6-0.3-5.4-0.7
						c-3.4-0.9-6.5-2.7-9.2-5.3c2.7-2.6,5.8-4.4,9.2-5.3C37,33.7,38.8,33.5,40.6,33.5z"/>
					<path fill="#D3C7BE" d="M54.9,39.5L54.9,39.5L54.9,39.5L54.9,39.5z"/>
					<path fill="#E8E0DA" d="M54.9,39.5c0,5.6-2.3,10.6-5.9,14.3C49,48.6,51,43.5,54.9,39.5z"/>
					<path fill="#E8E0DA" d="M60.9,53.8c-3.7-3.7-6-8.7-6-14.4C58.9,43.4,60.9,48.7,60.9,53.8z"/>
					<path fill="#D3C7BE" d="M60.9,53.8c0,1.8-0.3,3.6-0.7,5.3c-0.9,3.4-2.6,6.5-5.3,9.2c-2.7-2.7-4.4-5.8-5.3-9.2
						c-0.4-1.8-0.7-3.6-0.7-5.4c3.7-3.7,5.9-8.7,5.9-14.3c0,0,0,0,0-0.1C54.9,45.1,57.2,50.2,60.9,53.8z"/>
					<path fill="#D3C7BE" d="M175,49.7c-0.4-0.2-1-0.3-1.4-0.4c-0.4-0.1-1-0.2-1.5-0.2c-0.4,0-0.9,0.1-1.2,0.2
						c-0.4,0.1-0.8,0.4-1.1,0.6c-0.3,0.3-0.5,0.6-0.7,1c-0.2,0.4-0.3,0.8-0.3,1.3c0,0.6,0.1,1.1,0.4,1.4c0.3,0.4,0.6,0.7,1,0.9
						c0.4,0.3,0.9,0.4,1.3,0.6c0.4,0.2,0.9,0.4,1.3,0.5c0.4,0.2,0.7,0.4,1,0.7s0.4,0.6,0.4,1.1c0,0.3-0.1,0.5-0.2,0.8
						c-0.1,0.2-0.3,0.4-0.5,0.5c-0.2,0.2-0.4,0.3-0.7,0.4c-0.3,0.1-0.5,0.1-0.8,0.1c-0.5,0-0.9-0.1-1.3-0.3
						c-0.4-0.2-0.7-0.4-0.9-0.8c-0.3-0.3-0.4-0.7-0.5-1.1c-0.1-0.4-0.2-0.9-0.2-1.3h-0.6v3.4c0.6,0.2,1.2,0.4,1.8,0.4
						c0.6,0.1,1.2,0.2,1.8,0.2c0.4,0,0.9-0.1,1.3-0.2c0.4-0.1,0.9-0.4,1.2-0.6c0.4-0.3,0.7-0.6,0.9-1c0.2-0.4,0.4-0.9,0.4-1.3
						c0-0.7-0.1-1.2-0.4-1.7c-0.3-0.4-0.6-0.8-1-1c-0.4-0.3-0.9-0.4-1.3-0.6c-0.5-0.2-0.9-0.3-1.3-0.4c-0.4-0.2-0.8-0.4-1-0.6
						c-0.3-0.2-0.4-0.5-0.4-1c0-0.5,0.2-0.9,0.5-1.1c0.4-0.2,0.7-0.4,1.2-0.4c0.4,0,0.9,0.1,1.2,0.2c0.3,0.2,0.5,0.4,0.8,0.6
						c0.2,0.3,0.4,0.5,0.4,0.9c0.1,0.4,0.2,0.6,0.3,1h0.5L175,49.7L175,49.7z M160.3,49.8h1.4V57c0,0.4,0,0.6,0,0.9s0.1,0.5,0.3,0.8
						c0.2,0.3,0.4,0.4,0.7,0.5c0.3,0.1,0.7,0.2,1.2,0.2c0.7,0,1.3-0.1,1.7-0.4c0.4-0.3,0.7-0.6,0.9-1l0.2-0.4l-0.4-0.2
						c-0.2,0.4-0.4,0.6-0.5,0.9c-0.2,0.3-0.5,0.4-0.9,0.4c-0.4,0-0.7-0.1-0.9-0.4c-0.2-0.3-0.2-0.7-0.2-1.3v-7.2h2.3v-0.5h-2.3v-2.7
						h-2.1v2.7h-1.4V49.8L160.3,49.8z M152.1,58.9h-1.8v0.5h5.5v-0.5h-1.7v-4.5c0-0.5,0.1-1.1,0.2-1.7c0.1-0.5,0.3-1,0.5-1.5
						c0.2-0.4,0.4-0.8,0.7-1.1c0.3-0.3,0.5-0.4,0.8-0.4c0.2,0,0.3,0,0.4,0.1c0.1,0.1,0.1,0.2,0.1,0.4c0,0.1,0,0.3,0,0.5
						c0,0.2,0,0.4,0,0.5c0,0.3,0.1,0.5,0.3,0.8c0.2,0.2,0.4,0.3,0.7,0.3c0.4,0,0.6-0.1,0.8-0.4c0.2-0.3,0.3-0.6,0.3-1
						c0-0.6-0.2-1.1-0.4-1.4c-0.3-0.4-0.8-0.5-1.4-0.5c-0.4,0-0.8,0.1-1.1,0.3c-0.3,0.2-0.5,0.4-0.8,0.6c-0.3,0.3-0.4,0.5-0.6,0.9
						c-0.2,0.3-0.3,0.6-0.4,0.9l0,0v-2.4h-3.8v0.5h1.8L152.1,58.9L152.1,58.9z M141.9,52.8c0-0.5,0.1-1.1,0.3-1.5
						c0.2-0.4,0.4-0.9,0.7-1.2s0.8-0.4,1.4-0.4s1.1,0.1,1.4,0.4s0.5,0.7,0.7,1.2c0.2,0.4,0.3,1,0.3,1.5c0,0.5,0,1.1,0,1.7
						c0,0.5,0,1.1,0,1.7c0,0.5-0.1,1.1-0.3,1.5c-0.2,0.4-0.4,0.9-0.7,1.2c-0.4,0.3-0.8,0.4-1.4,0.4c-0.6,0-1.1-0.1-1.4-0.4
						s-0.6-0.7-0.7-1.2c-0.2-0.4-0.3-1-0.3-1.5c0-0.5,0-1.1,0-1.7C141.8,53.8,141.8,53.3,141.9,52.8L141.9,52.8z M139.7,56.1
						c0.2,0.6,0.4,1.2,0.8,1.7c0.4,0.5,0.9,1,1.5,1.3c0.6,0.4,1.3,0.5,2.3,0.5c0.9,0,1.7-0.2,2.3-0.5c0.6-0.4,1.1-0.8,1.5-1.3
						c0.4-0.5,0.6-1.1,0.8-1.7c0.2-0.6,0.3-1.2,0.3-1.7c0-0.5-0.1-1.1-0.3-1.7c-0.2-0.6-0.4-1.2-0.8-1.7c-0.4-0.5-0.9-1-1.5-1.3
						c-0.6-0.4-1.3-0.5-2.3-0.5c-1,0-1.7,0.2-2.3,0.5c-0.6,0.4-1.1,0.8-1.5,1.3c-0.4,0.5-0.6,1.1-0.8,1.7c-0.2,0.6-0.3,1.2-0.3,1.7
						C139.5,54.9,139.6,55.4,139.7,56.1L139.7,56.1z M136.6,49.7c-0.4-0.2-1-0.3-1.4-0.4c-0.4-0.1-1-0.2-1.5-0.2
						c-0.4,0-0.9,0.1-1.2,0.2c-0.4,0.1-0.8,0.4-1.1,0.6c-0.3,0.3-0.5,0.6-0.7,1c-0.2,0.4-0.3,0.8-0.3,1.3c0,0.6,0.1,1.1,0.4,1.4
						c0.3,0.4,0.6,0.7,1,0.9c0.4,0.3,0.9,0.4,1.3,0.6c0.4,0.2,0.9,0.4,1.3,0.5c0.4,0.2,0.7,0.4,1,0.7s0.4,0.6,0.4,1.1
						c0,0.3-0.1,0.5-0.2,0.8c-0.1,0.2-0.3,0.4-0.5,0.5c-0.2,0.2-0.4,0.3-0.7,0.4c-0.3,0.1-0.5,0.1-0.8,0.1c-0.5,0-0.9-0.1-1.3-0.3
						c-0.4-0.2-0.7-0.4-0.9-0.8c-0.3-0.3-0.4-0.7-0.5-1.1c-0.1-0.4-0.2-0.9-0.2-1.3H130v3.4c0.6,0.2,1.2,0.4,1.8,0.4
						c0.6,0.1,1.2,0.2,1.8,0.2c0.4,0,0.9-0.1,1.3-0.2c0.4-0.1,0.9-0.4,1.2-0.6c0.4-0.3,0.7-0.6,0.9-1c0.2-0.4,0.4-0.9,0.4-1.3
						c0-0.7-0.1-1.2-0.4-1.7c-0.3-0.4-0.6-0.8-1-1c-0.4-0.3-0.9-0.4-1.3-0.6c-0.5-0.2-0.9-0.3-1.3-0.4c-0.4-0.2-0.8-0.4-1-0.6
						c-0.3-0.2-0.4-0.5-0.4-1c0-0.5,0.2-0.9,0.5-1.1c0.4-0.2,0.7-0.4,1.2-0.4c0.4,0,0.9,0.1,1.2,0.2c0.3,0.2,0.5,0.4,0.8,0.6
						c0.2,0.3,0.4,0.5,0.4,0.9s0.2,0.6,0.3,1h0.5v-2.9H136.6z M120.8,53.1c0-0.3,0-0.7,0.1-1.1c0.1-0.4,0.2-0.8,0.4-1.2
						c0.2-0.4,0.4-0.7,0.7-0.9c0.3-0.3,0.6-0.4,1.1-0.4c0.5,0,0.9,0.1,1.2,0.4c0.3,0.2,0.5,0.5,0.6,0.9s0.2,0.7,0.3,1.2
						c0.1,0.4,0,0.8,0,1.2L120.8,53.1L120.8,53.1z M127.7,53.7c0-0.7-0.1-1.3-0.4-1.9c-0.3-0.5-0.5-1.1-0.9-1.5
						c-0.4-0.4-0.9-0.7-1.4-1c-0.5-0.2-1.2-0.4-1.8-0.4c-0.8,0-1.4,0.1-2,0.4c-0.6,0.3-1.1,0.7-1.5,1.2c-0.4,0.4-0.7,1.1-0.9,1.7
						c-0.2,0.6-0.4,1.3-0.4,2c0,0.7,0.1,1.4,0.3,2.1c0.2,0.6,0.4,1.2,0.9,1.7c0.4,0.4,0.9,0.9,1.4,1.2c0.6,0.3,1.2,0.4,2.1,0.4
						c0.5,0,1.1,0,1.5-0.2c0.4-0.1,0.9-0.3,1.2-0.5c0.4-0.2,0.7-0.5,1-0.9s0.5-0.9,0.8-1.5l-0.4-0.2c-0.1,0.4-0.3,0.7-0.5,1
						c-0.2,0.4-0.4,0.6-0.7,0.9c-0.3,0.3-0.6,0.4-0.9,0.5c-0.4,0.1-0.8,0.2-1.2,0.2c-0.6,0-1.2-0.1-1.6-0.4
						c-0.4-0.3-0.7-0.6-0.9-1.1s-0.4-1-0.4-1.6c-0.1-0.6-0.1-1.2-0.1-2v-0.2H127.7L127.7,53.7z M108.9,45.2h1.1c1,0,1.8,0.3,2.1,0.8
						c0.4,0.5,0.6,1.2,0.6,2.2c0,0.4,0,0.8-0.1,1.2c-0.1,0.4-0.2,0.7-0.4,1c-0.2,0.3-0.4,0.5-0.8,0.7c-0.3,0.2-0.7,0.3-1.2,0.3h-1.4
						C108.9,51.3,108.9,45.2,108.9,45.2z M106.5,58.9h-1.9v0.5h6.2v-0.5h-1.9v-7h1.2c0.6,0,1.2,0,1.6,0.2c0.4,0.1,0.7,0.4,0.9,0.6
						c0.2,0.3,0.4,0.6,0.5,1.1c0.1,0.4,0.2,1,0.2,1.7c0,0.7,0.1,1.3,0.2,1.8c0.1,0.5,0.2,0.9,0.4,1.2c0.2,0.3,0.4,0.5,0.8,0.6
						c0.4,0.1,0.9,0.2,1.5,0.2h1.5v-0.5h-0.5c-0.3,0-0.5-0.1-0.8-0.2c-0.2-0.1-0.4-0.4-0.4-0.6c-0.1-0.3-0.2-0.6-0.2-1
						c0-0.4-0.1-0.9-0.1-1.4c0-0.8-0.1-1.4-0.3-2c-0.2-0.4-0.4-0.9-0.7-1.2c-0.4-0.3-0.7-0.4-1.2-0.6c-0.5-0.1-1.2-0.2-1.9-0.4l0,0
						c0.5,0,0.9-0.2,1.4-0.3c0.4-0.1,0.8-0.4,1.1-0.6c0.3-0.3,0.5-0.5,0.7-1c0.2-0.4,0.3-0.9,0.3-1.5c0-0.7-0.1-1.3-0.4-1.8
						c-0.2-0.4-0.5-0.8-0.9-1.1c-0.4-0.3-0.9-0.4-1.4-0.5c-0.5-0.1-1.2-0.1-1.8-0.1h-6.1v0.5h1.9L106.5,58.9L106.5,58.9L106.5,58.9z
						"/>
				</g>
			</g>
		</g>
	</g>
</g>
</svg>
