<?xml version="1.0" encoding="utf-8"?>
<!-- Generator: Adobe Illustrator 18.1.0, SVG Export Plug-In . SVG Version: 6.00 Build 0)  -->
<svg version="1.1" id="Layer_1" xmlns="http://www.w3.org/2000/svg" xmlns:xlink="http://www.w3.org/1999/xlink" x="0px" y="0px"
	 viewBox="0 0 138.2 75.4" enable-background="new 0 0 138.2 75.4" xml:space="preserve">
<g>
	<path fill="#D3C7BE" d="M11.2,68.7l0,1.5h-0.2c0-0.4-0.1-0.8-0.4-1c-0.3-0.3-0.6-0.3-1-0.3h-1v0.6V71h0.4c0.5,0,0.8-0.1,0.8-0.8V70
		h0.2v2.4H10v-0.3c0-0.6-0.1-0.8-0.8-0.9H8.7v1.7v0.6h1.2c0.3,0,0.7,0,1-0.3c0.4-0.4,0.4-0.9,0.5-1.2h0.2l0,1.7H7.3v-0.2H8v-0.5
		v-3.4v-0.6H7.3v-0.2L11.2,68.7L11.2,68.7z"/>
	<polygon fill="#D3C7BE" points="15.5,68.7 15.5,68.9 14.8,68.9 15.1,69.3 15.7,70.5 16.5,69.3 16.7,68.9 16.1,68.9 16.1,68.7 
		17.6,68.7 17.6,68.9 17,68.9 16.6,69.4 15.8,70.7 16.9,72.8 17.3,73.5 17.9,73.5 17.9,73.7 15.7,73.7 15.7,73.5 16.4,73.5 
		16.1,72.9 15.3,71.5 14.4,72.9 14.1,73.5 14.8,73.5 14.8,73.7 13.2,73.7 13.2,73.5 13.8,73.5 14.2,72.9 15.2,71.3 14.2,69.4 
		13.9,68.9 13.3,68.9 13.3,68.7 	"/>
	<path fill="#D3C7BE" d="M23.3,73.3c-0.4,0.2-1,0.5-1.7,0.5c-1.4,0-2.4-1-2.4-2.6c0-1.6,1-2.6,2.4-2.6c0.7,0,1.3,0.2,1.7,0.4v1.3
		h-0.2c0-0.3,0-0.5-0.2-0.7c-0.1-0.2-0.4-0.7-1.2-0.7c-0.4,0-0.8,0.2-1,0.4c-0.4,0.4-0.5,1-0.5,1.9c0,1,0.1,1.6,0.5,2
		c0.2,0.2,0.6,0.4,1,0.4c0.7,0,1-0.3,1.3-0.9c0.2-0.3,0.2-0.6,0.2-0.8h0.2L23.3,73.3L23.3,73.3z"/>
	<path fill="#D3C7BE" d="M29.3,68.7l0,1.5h-0.2c0-0.4-0.1-0.8-0.4-1c-0.3-0.3-0.6-0.3-1-0.3h-1v0.6V71h0.4c0.5,0,0.8-0.1,0.8-0.8V70
		h0.2v2.4H28v-0.3c0-0.6-0.1-0.8-0.8-0.9h-0.4v1.7v0.6h1.2c0.3,0,0.7,0,1-0.3c0.4-0.4,0.4-0.9,0.5-1.2h0.2l0,1.7h-4.2v-0.2H26v-0.5
		v-3.4v-0.6h-0.7v-0.2L29.3,68.7L29.3,68.7z"/>
	<path fill="#D3C7BE" d="M31.7,68.7h2.1v0.2h-0.7v0.7v3.3v0.6h1.2c0.3,0,0.7,0,1-0.3c0.3-0.3,0.4-0.9,0.5-1.3h0.2v1.8h-4.2v-0.2h0.7
		v-0.7v-3.3v-0.7h-0.7V68.7z"/>
	<path fill="#D3C7BE" d="M37.6,68.7h2.1v0.2H39v0.7v3.3v0.6h1.2c0.3,0,0.7,0,1-0.3c0.3-0.3,0.4-0.9,0.5-1.3h0.2v1.8h-4.2v-0.2h0.7
		v-0.7v-3.3v-0.7h-0.7V68.7z"/>
	<path fill="#D3C7BE" d="M47.4,68.7l0,1.5h-0.2c0-0.4-0.1-0.8-0.4-1c-0.3-0.3-0.6-0.3-1-0.3h-1v0.6V71h0.4c0.5,0,0.8-0.1,0.8-0.8V70
		h0.2v2.4h-0.2v-0.3c0-0.6-0.1-0.8-0.8-0.9h-0.4v1.7v0.6H46c0.3,0,0.7,0,1-0.3c0.4-0.4,0.4-0.9,0.5-1.2h0.2l0,1.7h-4.2v-0.2h0.7
		v-0.5v-3.4v-0.6h-0.7v-0.2L47.4,68.7L47.4,68.7z"/>
	<polygon fill="#D3C7BE" points="51.3,68.7 53.8,72.2 53.8,69.5 53.8,68.9 53,68.9 53,68.7 54.6,68.7 54.6,68.9 54,68.9 54,69.5 
		54,73.8 53.9,73.8 50.6,69 50.6,72.8 50.6,73.5 51.4,73.5 51.4,73.7 49.7,73.7 49.7,73.5 50.4,73.5 50.4,72.8 50.4,69.5 50.4,68.9 
		49.7,68.9 49.7,68.7 	"/>
	<path fill="#D3C7BE" d="M60.6,73.3c-0.4,0.2-1,0.5-1.7,0.5c-1.4,0-2.4-1-2.4-2.6c0-1.6,1-2.6,2.4-2.6c0.7,0,1.3,0.2,1.7,0.4v1.3
		h-0.2c0-0.3,0-0.5-0.2-0.7c-0.1-0.2-0.4-0.7-1.2-0.7c-0.4,0-0.8,0.2-1,0.4c-0.4,0.4-0.5,1-0.5,1.9c0,1,0.1,1.6,0.5,2
		c0.2,0.2,0.6,0.4,1,0.4c0.7,0,1-0.3,1.3-0.9c0.2-0.3,0.2-0.6,0.2-0.8h0.2L60.6,73.3L60.6,73.3z"/>
	<path fill="#D3C7BE" d="M66.6,68.7l0,1.5h-0.2c0-0.4-0.1-0.8-0.4-1c-0.3-0.3-0.6-0.3-1-0.3h-1v0.6V71h0.4c0.5,0,0.8-0.1,0.8-0.8V70
		h0.2v2.4h-0.2v-0.3c0-0.6-0.1-0.8-0.8-0.9h-0.4v1.7v0.6h1.2c0.3,0,0.7,0,1-0.3c0.4-0.4,0.4-0.9,0.5-1.2H67l0,1.7h-4.2v-0.2h0.7
		v-0.5v-3.4v-0.6h-0.7v-0.2L66.6,68.7L66.6,68.7z"/>
	<path fill="#D3C7BE" d="M76.2,73.3c-0.4,0.2-1,0.5-1.9,0.5c-1.3,0-2.4-0.9-2.4-2.6c0-1.8,1.2-2.6,2.4-2.6c0.7,0,1.2,0.2,1.7,0.4
		v1.4h-0.2c0-0.2-0.1-0.5-0.3-0.9c-0.3-0.6-0.8-0.7-1.2-0.7c-1.4,0-1.4,1.6-1.4,2.5c0,0.5,0,1,0.2,1.5c0.1,0.3,0.5,0.8,1.2,0.8
		c0.2,0,0.5,0,0.7-0.2c0.3-0.2,0.3-0.4,0.4-0.6v-0.7v-0.6h-0.7v-0.2h2v0.2h-0.6v0.6v0.7V73.3z"/>
	<path fill="#D3C7BE" d="M80.1,68.9v0.6V71h0.4c0.3,0,0.9,0,0.9-1c0-1-0.5-1-0.8-1H80.1L80.1,68.9z M78.7,68.7H81c0.3,0,0.7,0,1,0.3
		c0.1,0.1,0.3,0.4,0.3,0.9c0,0.9-0.7,1-1.1,1.1c1.3,0.1,1.3,0.4,1.4,1.7c0,0.7,0.2,0.8,0.7,0.8v0.2h-0.4c-0.2,0-0.4,0-0.7-0.1
		c-0.4-0.2-0.4-0.6-0.4-0.9l0-0.5c-0.1-0.9-0.3-1-1-1h-0.5v1.7v0.7h0.7v0.2h-2.1v-0.2h0.7v-0.7v-3.4v-0.7h-0.7V68.7L78.7,68.7z"/>
	<path fill="#D3C7BE" d="M86.5,69.2c-0.3,0.3-0.5,0.7-0.5,2c0,0.3,0,0.7,0,1c0,0.2,0,0.4,0.1,0.6c0.3,0.6,0.8,0.8,1.2,0.8
		c0.4,0,0.7-0.1,0.9-0.3c0.4-0.4,0.5-1.1,0.5-2c0-0.3,0-0.6,0-0.9c0-0.4-0.1-1.5-1.3-1.5C86.9,68.8,86.6,69,86.5,69.2 M89.7,71.1
		c0,1.2-0.6,2.7-2.3,2.7c-0.3,0-0.6,0-0.9-0.2c-0.5-0.2-0.9-0.6-1.1-1c-0.2-0.4-0.3-0.9-0.3-1.4c0-1.6,0.9-2.6,2.3-2.6
		C88.8,68.6,89.7,69.7,89.7,71.1"/>
	<path fill="#D3C7BE" d="M93.7,68.7v0.2H93v0.6v2.7c0,0.7,0,1.4,1.4,1.4c1.3,0,1.4-0.6,1.4-1.2v-2.8v-0.6h-0.7v-0.2h1.6v0.2H96v0.6
		v2.6c0,0.9,0,1.7-1.8,1.7c-0.3,0-0.9,0-1.3-0.2c-0.7-0.3-0.7-0.8-0.7-1.5v-2.6V69h-0.6v-0.2L93.7,68.7L93.7,68.7z"/>
	<path fill="#D3C7BE" d="M100,68.9v0.6v1.7h0.7c0.6,0,0.9-0.2,0.9-1.1c0-1.1-0.5-1.2-0.9-1.2H100L100,68.9z M100,71.4v1.5v0.6h0.7
		v0.2h-2.1v-0.2h0.7v-0.6v-3.4v-0.6h-0.7v-0.2h2.1c0.3,0,0.7,0,1,0.2c0.5,0.2,0.7,0.7,0.7,1.2c0,0.2,0,0.7-0.3,1
		c-0.3,0.3-0.8,0.3-1.1,0.3L100,71.4L100,71.4z"/>
	<path fill="#D3C7BE" d="M10,56.7c0.4,0,0.6-0.1,0.7-0.3c0.1-0.1,0.2-0.3,0.2-0.6c0-0.2-0.1-0.4-0.2-0.6c-0.1-0.2-0.3-0.3-0.7-0.3
		H8.7v1.6L10,56.7L10,56.7z M8.7,57.5v2.5H7.9v-5.7h2.2c0.6,0,0.9,0.1,1.2,0.4c0.3,0.3,0.6,0.7,0.6,1.2c0,0.5-0.2,0.9-0.6,1.2
		c-0.3,0.2-0.7,0.4-1.2,0.4L8.7,57.5L8.7,57.5z"/>
	<polygon fill="#D3C7BE" points="14.6,59.3 17.1,59.3 17.1,60.1 13.8,60.1 13.8,54.3 14.6,54.3 	"/>
	<path fill="#D3C7BE" d="M20.4,57.8h1.7l-0.9-2.1L20.4,57.8z M22.5,58.6h-2.4l-0.6,1.5h-0.9l2.4-5.7h0.6l2.4,5.7H23L22.5,58.6z"/>
	<polygon fill="#D3C7BE" points="27.3,57.4 27.3,60.1 26.4,60.1 26.4,57.4 24.5,54.3 25.4,54.3 26.9,56.6 28.3,54.3 29.2,54.3 	"/>
	<path fill="#D3C7BE" d="M31.5,57.8h1.7l-0.9-2.1L31.5,57.8z M33.6,58.6h-2.4l-0.6,1.5h-0.9l2.4-5.7h0.6l2.4,5.7h-0.9L33.6,58.6z"/>
	<polygon fill="#D3C7BE" points="43.4,58.8 42.8,58.8 41.1,56.2 41.1,60.1 40.3,60.1 40.3,54.3 40.8,54.3 43.1,57.8 45.3,54.3 
		45.8,54.3 45.8,60.1 45,60.1 45,56.2 	"/>
	<path fill="#D3C7BE" d="M48.9,59.4c-0.3-0.4-0.6-1-0.6-1.7v-3.4h0.8v3.4c0,0.5,0.1,0.9,0.3,1.1c0.3,0.3,0.7,0.5,1.2,0.5
		s0.9-0.2,1.2-0.5c0.2-0.3,0.3-0.6,0.3-1.1v-3.4H53v3.4c0,0.8-0.2,1.3-0.6,1.7c-0.4,0.5-1,0.7-1.8,0.7
		C49.9,60.1,49.3,59.8,48.9,59.4"/>
	<path fill="#D3C7BE" d="M55.3,58.9c0.1,0.3,0.4,0.5,0.8,0.5c0.3,0,0.5-0.1,0.7-0.3c0.1-0.1,0.2-0.3,0.2-0.7v-4.1h0.8v4
		c0,0.4,0,0.7-0.2,1c-0.3,0.5-0.8,0.8-1.4,0.8c-0.7,0-1.2-0.3-1.5-0.9L55.3,58.9z"/>
	<polygon fill="#D3C7BE" points="62.8,56.6 62.8,57.4 60.9,57.4 60.9,59.3 63.5,59.3 63.5,60.1 60.1,60.1 60.1,54.3 63.4,54.3 
		63.4,55.1 60.9,55.1 60.9,56.6 	"/>
	<path fill="#D3C7BE" d="M67.5,56.6c0.3,0,0.6-0.1,0.7-0.2s0.2-0.3,0.2-0.5c0-0.2-0.1-0.4-0.2-0.5s-0.3-0.2-0.7-0.2h-1.1v1.5H67.5z
		 M66.3,57.4v2.7h-0.8v-5.7h2c0.5,0,0.9,0.1,1.1,0.3c0.3,0.3,0.6,0.7,0.6,1.2c0,0.5-0.2,0.9-0.6,1.2c-0.2,0.1-0.4,0.3-0.7,0.3l2,2.7
		h-1l-2-2.7L66.3,57.4L66.3,57.4z"/>
	<polygon fill="#D3C7BE" points="74.5,56.6 74.5,57.4 72.6,57.4 72.6,59.3 75.1,59.3 75.1,60.1 71.8,60.1 71.8,54.3 75.1,54.3 
		75.1,55.1 72.6,55.1 72.6,56.6 	"/>
	<path fill="#D3C7BE" d="M77.4,58.6c0.3,0.4,0.8,0.7,1.4,0.7c0.5,0,1-0.3,1-0.9c0-0.9-1.2-1-2-1.5c-0.4-0.3-0.7-0.7-0.7-1.3
		c0-0.8,0.7-1.5,1.7-1.5c0.7,0,1.2,0.3,1.5,0.6l-0.5,0.6c-0.3-0.3-0.7-0.4-1-0.4c-0.5,0-1,0.3-1,0.8c0,0.7,1.2,0.9,2,1.4
		c0.4,0.3,0.7,0.7,0.7,1.3c0,1-0.8,1.7-1.8,1.7c-0.8,0-1.5-0.3-2-1L77.4,58.6z"/>
	<polygon fill="#D3C7BE" points="83.8,59.1 82.8,61.2 82.3,61.2 82.9,59.1 	"/>
	<polygon fill="#D3C7BE" points="92.9,58.8 92.3,58.8 90.6,56.2 90.6,60.1 89.8,60.1 89.8,54.3 90.4,54.3 92.6,57.8 94.8,54.3 
		95.4,54.3 95.4,60.1 94.6,60.1 94.6,56.2 	"/>
	<polygon fill="#D3C7BE" points="100.6,56.6 100.6,57.4 98.7,57.4 98.7,59.3 101.2,59.3 101.2,60.1 97.9,60.1 97.9,54.3 101.1,54.3 
		101.1,55.1 98.7,55.1 98.7,56.6 	"/>
	<polygon fill="#D3C7BE" points="102.9,60.1 104.9,56.9 103.2,54.3 104.2,54.3 105.5,56.2 106.7,54.3 107.7,54.3 106,56.9 108,60.1 
		107,60.1 105.5,57.6 103.8,60.1 	"/>
	<rect x="109.9" y="54.3" fill="#D3C7BE" width="0.8" height="5.7"/>
	<path fill="#D3C7BE" d="M115.7,54.3c0.8,0,1.6,0.3,2.1,0.9l-0.6,0.5c-0.3-0.3-0.9-0.7-1.5-0.7c-1.2,0-2.1,1-2.1,2.2
		c0,1.3,0.9,2.2,2.1,2.2c0.8,0,1.3-0.4,1.7-0.8l0.6,0.5c-0.5,0.7-1.4,1-2.2,1c-1.7,0-3-1.3-3-3C112.8,55.5,114,54.3,115.7,54.3"/>
	<path fill="#D3C7BE" d="M122.2,59.4c1.2,0,2-0.9,2-2.2c0-1.2-0.9-2.2-2-2.2s-2,0.9-2,2.2C120.2,58.4,121,59.4,122.2,59.4
		 M122.2,54.3c1.6,0,2.9,1.3,2.9,3c0,1.7-1.2,3-2.9,3s-2.9-1.3-2.9-3C119.3,55.5,120.6,54.3,122.2,54.3"/>
	<path fill="#D3C7BE" d="M54.9,38.7c0,3.6-0.8,4.8-3.6,5.1v0.5h13.8v-0.5c-3-0.4-3.7-1.4-3.7-5.3v-13c0-4.7-2-7.8-7-7.8
		c-3.1,0-6.7,2.1-8.5,4.5v0.2c1.3-0.5,2.8-0.9,4.3-0.9c3.5,0,4.8,1.7,4.8,5.1L54.9,38.7L54.9,38.7z M75.9,18.3
		c-3,0.7-4.8,4.5-4.8,10.3c0,6.5,3.3,11.2,9,11.2c4.3,0,6.8-1.7,8.1-3.7l0.3,0.3c-0.9,2.9-4.5,8.4-11.5,8.4
		c-7.9,0-12.4-6.1-12.4-13.2c0-7.6,5.4-13,11.3-13.8V18.3L75.9,18.3z M87.6,27.1c0-4.8-3.9-9.2-9.9-9.3v0.5c2.6,0.3,3.5,3.9,3.7,7.7
		l-8.1,0.7v0.4L87.6,27.1L87.6,27.1z M98.5,18.2c-1.1,0.2-2.7,1.6-2.7,3.8c0,3.2,2.7,4.3,6.1,6c3.9,2,7.4,4.2,7.4,8.2
		c0,5.6-4.3,8.4-9.3,8.6v-0.3c2.3-0.3,4.1-1.8,4.1-4.8c0-3-3-4.2-6.5-5.9c-3.2-1.7-6.8-3.6-6.8-8.2c0-4.2,3.2-7.2,7.8-7.7V18.2
		L98.5,18.2z M100.6,18.2c2.9,0.5,5.6,3.9,6.8,7.8h0.4l-0.3-7c-1-0.5-4.1-1.2-6.8-1.2L100.6,18.2L100.6,18.2z M97.7,44.8
		c-2.3,0-5.8-0.9-7.2-1.4l-0.4-8h0.4c1,3.8,4.1,8.2,7.2,9.1V44.8z M120.3,44.8c4.2,0,7.8-2.4,9-4.2v-0.3c-0.9,0.3-2.7,0.6-4.4,0.6
		c-3.5,0-4.8-1.8-4.8-5.1V21.1h8l0.7-2.7h-8.7v-6.5l-0.6-0.3l-9.2,8.7V21h3.3v16.9C113.7,42.7,115.8,44.8,120.3,44.8 M34.2,44.3
		h-0.3H20.2v-0.5c3-0.3,3.6-1.4,3.6-5.1V21h-9.3v17.6c0,3.8,1.3,5,4.2,5.1v0.5H4.3v-0.5c3-0.4,3.7-1.4,3.7-5.3V21H4.3v-0.5L8,17.9
		v-3.4C8,6.9,13.5,2.4,18.7,1.7v0.4c-3.4,1.3-4.2,5.2-4.2,10.3v5.9h7.9c4.1,0,7.6-0.6,7.9-0.7l0.2,0c0,2.5-0.2,6.1-0.2,8.5v12.3
		c0,3.7,1,4.8,3.8,5.2c3-0.4,3.6-1.4,3.6-5.2V25.7c0-2-0.7-3.1-3-4.4v-0.3l9.4-3.2l0.1,0v20.9c0,3.6,0.8,4.8,3.6,5.1v0.5L34.2,44.3
		L34.2,44.3z M22,7.1c0,2,1.6,3.5,3.5,3.5s3.5-1.5,3.5-3.5c0-1.5-0.9-2.8-2.4-3.8c-1.7-1-4.2-1.6-6.5-1.6V2c1.3,0.1,2.9,0.9,3.9,1.9
		C22.9,4.4,22,5.6,22,7.1"/>
</g>
</svg>
