<?xml version="1.0" encoding="utf-8"?>
<!-- Generator: Adobe Illustrator 18.1.0, SVG Export Plug-In . SVG Version: 6.00 Build 0)  -->
<svg version="1.1" id="Layer_1" xmlns="http://www.w3.org/2000/svg" xmlns:xlink="http://www.w3.org/1999/xlink" x="0px" y="0px"
	 viewBox="0 0 169.7 75.4" 
enableBackground="new 0 0 169.7 75.4" xml:space="preserve">
<g>
	<g>
		<path fill="#D3C7BE" d="M158.9,38.2c-0.5,0-0.9-0.2-1.2-0.5c-0.7-0.7-0.7-1.8,0-2.4c0.7-0.7,1.8-0.7,2.4,0
			c0.3,0.3,0.5,0.7,0.5,1.1c0,0.5-0.2,0.9-0.5,1.2C159.8,38,159.4,38.2,158.9,38.2z M158.9,37.9c0.4,0,0.8-0.2,1.1-0.5
			c0.5-0.5,0.5-1.3,0-1.9c-0.5-0.6-1.4-0.7-2.1-0.2c-0.1,0.1-0.1,0.1-0.2,0.2c-0.3,0.3-0.4,0.6-0.4,0.9c0,0.4,0.1,0.7,0.4,1
			C158.2,37.7,158.5,37.9,158.9,37.9L158.9,37.9z M158.4,37.4v-1.8h0.6c0.1,0,0.3,0,0.4,0.1c0.1,0.1,0.1,0.2,0.1,0.4
			c0,0.1,0,0.2-0.1,0.3c-0.1,0.1-0.1,0.2-0.3,0.3l0.5,0.8h-0.4l-0.5-0.8h-0.3v0.8L158.4,37.4z M158.7,36.4L158.7,36.4
			c0.2,0,0.3,0,0.4-0.1c0.1-0.1,0.1-0.2,0.1-0.3c0-0.1,0-0.2-0.1-0.2c-0.1-0.1-0.2-0.1-0.3-0.1h-0.2L158.7,36.4z"/>
		<path fill="#D3C7BE" d="M9.8,46.1c0,0-0.1-0.5-0.5-0.5c-0.2,0.1-0.3,0.2-0.3,0.4l0.1,0.5l0.3,1.1l0.1,0.8l0.1,0.7
			c0,0.3,0.1,0.5,0.1,0.7c0.1,0.1,0.2,0.3,0.3,0.3l1.1,0.5l1.6,0.5c0.7,0.2,1.5,0.3,2.2,0.4c0.8,0.1,0.5,0.3,4.8,0.1
			c0,0,3.2-0.2,5.2-1.8c0.5-0.4,1-0.8,1.5-1.3c0.3-0.4,0.5-0.8,0.8-1.2c0.3-0.6,0.4-1.2,0.4-1.8c0,0,0.1-0.9-0.8-2.5
			c-0.8-1-1.8-1.8-3-2.2c0,0-3.4-1.1-4.9-1.7c0,0-2.6-0.8-2.9-1c-1.2-0.4-2.2-1.4-2.7-2.6c-0.3-0.8-0.4-1.7-0.1-2.5
			c0.3-1,1-1.9,1.9-2.3c1-0.5,2.2-0.8,3.3-0.7c0.7,0.1,1.5,0.3,2.2,0.6c0.7,0.3,1.2,0.6,1.8,1c0.5,0.4,0.8,0.7,1.2,1.2
			c0.3,0.4,0.4,0.7,0.6,1.1l0.3,0.6c0,0,0.1,0.4,0.5,0.4c0,0,0.3,0,0.2-0.5c-0.1-0.4-0.3-0.8-0.4-1.2c-0.1-0.4-0.3-0.7-0.3-1.1
			C24,31.8,24,31.4,24,31l-0.1-1.1c0,0,0.1-0.4-0.3-0.4c-0.1,0-0.3,0.1-0.4,0.3c-0.1,0.3-0.3,0.5-0.6,0.5c-0.2,0-0.4-0.1-0.6-0.1
			c-1-0.3-2.1-0.5-3.2-0.7c-1.5-0.2-3-0.2-4.5,0.1c0,0-4,0.7-4.8,3.9c0,0-0.7,2.7,1,4.5c1,0.9,2.1,1.6,3.4,2.1l4.9,1.6
			c0,0,2.8,0.9,3.5,1.7c1.1,1,1.6,2.5,1.1,4c0,0-0.5,2.2-3.4,3.2c0,0-1,0.6-3.7,0.4c0,0-2.3-0.1-3.5-0.9c-1-0.5-1.9-1.2-2.5-2.1
			C10.4,47.3,10,46.7,9.8,46.1z"/>
		<path fill="#D3C7BE" d="M39.4,35.1c0,0-3.8-0.1-4.3-0.1l-0.8-0.1h-0.4c0,0-0.4-0.1-0.4,0.2c0,0-0.1,0.2,0.3,0.2
			c0.3,0,0.6,0.1,0.9,0.1c0.5,0.1,1,0.3,1.3,0.7c0.2,0.3,0.4,0.5,0.4,0.8c0.1,0.4,0.1,0.8,0.1,1.3v8.6c0,0,0,1.6-0.1,1.8
			c0,0.4-0.1,0.8-0.3,1.2c0,0-0.2,0.4-1,0.6c0,0-0.4,0.1-0.6,0.1c0,0-0.5,0-0.5,0.2c0,0,0.1,0.3,0.4,0.2l2.9-0.1c0,0,3,0.1,4,0.2
			c0,0,2.5,0.3,3,0.2c1,0,1.9-0.3,2.6-0.7c0.3-0.3,0.6-0.5,0.8-0.8c0.3-0.3,0.5-0.7,0.7-1c0,0,0.3-0.6,0.1-0.7c0,0-0.2-0.2-0.4,0.1
			c-0.4,0.5-0.8,0.9-1.3,1.2c-0.8,0.5-1.8,0.7-2.7,0.8c-1.1,0.1-2.2,0.2-3.3,0.1c-0.5,0-1.1-0.1-1.6-0.5c0,0-0.3-0.2-0.3-1.1v-4.8
			c0,0-0.1-0.7,0.4-0.7h3.5c0,0,1.2,0.1,1.7,0.6c0.2,0.2,0.4,0.4,0.4,0.7l0.2,0.5c0,0,0.1,0.4,0.3,0.4c0,0,0.2,0.1,0.1-0.4
			c0,0-0.1-0.8-0.1-1.2c-0.1-0.4-0.1-0.8,0-1.2l0.1-0.9c0,0,0.1-0.7,0.1-0.7s0.1-0.3-0.2-0.3c0,0-0.2-0.1-0.3,0.3
			c-0.1,0.3-0.1,0.5-0.3,0.8c0,0-0.1,0.3-0.7,0.5c-0.5,0.2-1.1,0.3-1.6,0.1h-3c-0.3,0-0.5,0-0.7-0.1c0,0-0.1-0.1-0.1-0.6v-4.5
			c0,0-0.1-1.1,0.7-1.1h3.4c0.7,0,1.4,0.1,2.1,0.3c0.4,0.2,0.8,0.5,1.1,1c0.1,0.2,0.2,0.4,0.3,0.5c0,0,0.1,0.5,0.3,0.4
			c0,0,0.3,0.1,0.2-0.3c0-0.3,0-0.5,0-0.7c0,0-0.1-0.7-0.1-0.7c0-0.3,0-0.5,0.1-0.7c0,0,0.2-0.7-0.3-0.7c0,0-0.7,0.1-1,0.1
			c-0.3,0.1-0.5,0.1-0.7,0.1L39.4,35.1z"/>
		<path fill="#D3C7BE" d="M108.6,35.1c0,0-3.8-0.1-4.3-0.1l-0.8-0.1h-0.4c0,0-0.4-0.1-0.4,0.2c0,0-0.1,0.2,0.3,0.2
			c0.3,0,0.6,0.1,0.9,0.1c0.5,0.1,1,0.3,1.3,0.7c0.2,0.3,0.4,0.5,0.4,0.8c0.1,0.4,0.1,0.8,0.1,1.2v8.6c0,0,0,1.6,0,1.8
			c0,0.4-0.1,0.8-0.3,1.2c0,0-0.2,0.4-1,0.6c0,0-0.4,0.1-0.6,0.1c0,0-0.5,0-0.5,0.2c0,0,0.1,0.3,0.4,0.2l2.9-0.1c0,0,3,0.1,4,0.2
			c0,0,2.5,0.3,3,0.2c1,0,1.9-0.2,2.6-0.7c0.3-0.2,0.6-0.5,0.8-0.8c0.2-0.3,0.5-0.7,0.7-1c0,0,0.3-0.6,0.1-0.7c0,0-0.2-0.2-0.4,0.1
			c-0.4,0.5-0.8,0.9-1.3,1.2c-0.8,0.5-1.8,0.7-2.7,0.8c-1.1,0.1-2.2,0.2-3.3,0.1c-0.5,0-1.1-0.1-1.6-0.5c0,0-0.3-0.2-0.3-1.1v-4.9
			c0,0-0.1-0.7,0.4-0.7h3.5c0,0,1.2,0.1,1.7,0.6c0.2,0.2,0.4,0.4,0.4,0.7l0.2,0.5c0,0,0.1,0.4,0.3,0.4c0,0,0.2,0.1,0.1-0.4
			c0,0-0.1-0.8-0.1-1.1c-0.1-0.4-0.1-0.8,0-1.2l0.1-0.9c0,0,0.1-0.7,0.1-0.7s0.1-0.3-0.2-0.3c0,0-0.2-0.1-0.3,0.3
			c-0.1,0.3-0.1,0.5-0.3,0.8c0,0-0.1,0.3-0.7,0.5c-0.5,0.2-1.1,0.3-1.6,0.1h-3.1c-0.3,0-0.5,0-0.7-0.1c0,0-0.1-0.1-0.1-0.6v-4.4
			c0,0-0.1-1.1,0.7-1.1h3.5c0.7,0,1.4,0.1,2.1,0.3c0.4,0.2,0.8,0.5,1.1,1c0.1,0.2,0.2,0.4,0.3,0.5c0,0,0.1,0.5,0.3,0.4
			c0,0,0.3,0.1,0.2-0.3c0-0.3,0-0.5,0-0.7c0,0-0.1-0.7-0.1-0.7s0-0.4,0.1-0.7c0,0,0.2-0.7-0.3-0.7c0,0-0.7,0.1-1,0.1
			c-0.3,0.1-0.5,0.1-0.7,0.1L108.6,35.1z"/>
		<path fill="#D3C7BE" d="M71.6,35.9c0.2,0,0.4-0.1,0.4-0.2c0.1-0.1,0.1-0.2,0.2-0.3c0.1-0.1,0.2-0.2,0.3-0.1c0,0,0.4-0.1,0.3,0.4
			c-0.1,0.4-0.1,0.8-0.2,1.3c0,0.3,0,0.7,0,1c0,0,0.3,1.1,0.3,1.2c0,0,0.3,0.8-0.4,0.5c0,0-0.5-1-0.5-1c-0.6-0.9-1.4-1.7-2.3-2.2
			c-0.7-0.4-1.5-0.8-2.3-1c-1.6-0.5-3.4-0.5-5.1-0.1c-1.6,0.4-3.1,1.3-4.1,2.6c-1,1.2-1.6,2.7-1.8,4.3c-0.1,1.7,0.4,3.3,1.4,4.7
			c1.1,1.5,2.7,2.6,4.6,3.2c1.1,0.3,2.2,0.5,3.3,0.5c0,0,2.2,0.1,3.3-0.3c1-0.3,1.8-0.8,2.6-1.4l0.7-0.6c0,0,0.6-0.8,0.8-0.6
			c0,0,0.4,0.1-0.4,1c-0.6,0.7-1.3,1.2-2.1,1.6c-0.9,0.5-1.9,0.8-2.9,1c0,0-5.5,1.4-10-1.5c-2.5-1.5-4-4.1-4-7.1
			c0.2-2.3,1.2-4.5,3.1-6c0,0,2.6-2.5,8.1-2.5c2.1,0.1,4,0.5,5.9,1.5C71.1,35.8,71.3,35.8,71.6,35.9z"/>
		<path fill="#D3C7BE" d="M83,35l2.6-0.2c0.9-0.1,1.9-0.1,2.7-0.1c1.1-0.1,2.2,0.3,3.3,0.8c1.7,0.8,2.3,2.8,1.6,4.5
			c-0.2,0.3-0.4,0.6-0.7,0.9c-0.7,0.7-1.5,1.2-2.3,1.6c-0.3,0.2-0.2,0.3-0.2,0.3l0.3,0.4l1.7,2.5c0.8,1,1.6,2,2.5,2.8
			c0.5,0.6,1.2,1,2,1.3c0.3,0.1,0.4,0.2,0.7,0.2l0.4,0.2c0.4,0.3,0.2,0.3,0.2,0.3c-0.1,0.1-0.3,0.1-0.4,0.1
			c-0.3,0.1-0.5,0.1-0.8,0.1c-0.4,0-0.8,0-0.8,0c-1-0.1-2-0.4-2.7-1.1c-0.7-0.6-1.4-1.3-1.9-2.1l-1.5-1.9c-0.5-0.7-1.1-1.3-1.7-1.9
			c-0.3-0.3-0.7-0.4-1.1-0.5c-0.3-0.1-1.9-0.1-1.9-0.1c-0.1,0-0.4,0.1-0.4,0.1l-0.1,0.3V47c0,0.2,0,1,0,1c0,0.7,0.3,1.3,0.8,1.8
			c0.5,0.4,1.2,0.6,1.9,0.6c0.7,0,0.7,0.2,0.7,0.2c0,0.3-0.3,0.3-0.3,0.3c-0.7,0.1-1.4,0.1-2.1,0c-1-0.1-1.9-0.1-3-0.1l-2.3,0.1
			c-0.4,0.1-0.4-0.1-0.4-0.1c0-0.1,0.2-0.2,0.2-0.2l0.5-0.1c0.3,0,0.5-0.1,0.8-0.3c0.4-0.2,0.7-0.5,0.7-1c0.1-0.6,0.1-1.2,0.1-1.8
			v-9.3c0-0.4,0-0.7-0.1-1.1c-0.1-0.8-0.7-1.5-1.5-1.5c-0.3-0.1-1-0.1-1-0.1C79,35.4,79,35.3,79,35.3c0-0.2,0.3-0.2,0.3-0.2H80
			l1.5,0.1C81.9,35.1,82.4,35.1,83,35z M84.3,41.8c-0.1,0.4,0.3,0.8,0.7,0.8H85c0.4,0.1,0.8,0.1,1.2,0.1c2.7-0.2,3.8-1.5,3.8-1.5
			c1.9-2.2-0.3-4.2-0.3-4.2c-1.6-1.6-4.6-1.4-4.6-1.4c-0.3,0-0.5,0.1-0.7,0.2c-0.3,0.3-0.3,1-0.3,1V41.8L84.3,41.8L84.3,41.8z"/>
		<path fill="#D3C7BE" d="M145.5,47c0,0-0.1-0.4-0.4-0.4c-0.1,0.1-0.2,0.2-0.3,0.3l0.1,0.4l0.2,0.8l0.1,0.6l0.1,0.5
			c0,0.2,0.1,0.4,0.1,0.5c0.1,0.1,0.2,0.2,0.3,0.2l0.8,0.4l1.2,0.4c0.5,0.1,1.1,0.3,1.6,0.3c0.6,0.1,0.4,0.2,3.5,0.1
			c1.4-0.1,2.7-0.5,3.8-1.3c0.4-0.3,0.8-0.6,1.1-1c0.3-0.3,0.4-0.6,0.5-0.9c0.2-0.4,0.3-0.9,0.3-1.3c0-0.7-0.3-1.2-0.6-1.8
			c-0.5-0.7-1.3-1.3-2.2-1.6c0,0-2.5-0.8-3.6-1.2c0,0-2-0.6-2.1-0.7c-0.9-0.3-1.6-1-2.1-1.9c-0.2-0.6-0.3-1.2-0.1-1.8
			c0.3-0.7,0.7-1.4,1.4-1.8c0.8-0.4,1.6-0.5,2.5-0.5c0.5,0.1,1.1,0.3,1.6,0.5c0.5,0.2,0.9,0.5,1.3,0.8c0.3,0.3,0.6,0.5,0.9,0.8
			c0.2,0.3,0.4,0.5,0.5,0.8l0.2,0.5c0,0,0.1,0.3,0.4,0.3c0,0,0.2,0,0.2-0.4c0,0-0.3-0.8-0.3-0.9c-0.1-0.3-0.2-0.5-0.3-0.8
			c-0.1-0.3-0.1-0.5-0.1-0.8l-0.1-0.9c0,0,0-0.3-0.2-0.3c-0.1,0-0.2,0.1-0.3,0.2c-0.1,0.3-0.3,0.4-0.4,0.4c-0.2,0-0.3-0.1-0.5-0.1
			c0,0-1.8-0.5-2.3-0.5c-1.1-0.1-2.2-0.1-3.3,0.1c0,0-2.9,0.5-3.5,2.9c0,0-0.5,2.1,0.7,3.3c0.7,0.7,1.6,1.2,2.5,1.5l3.6,1.2
			c0,0,2.1,0.7,2.6,1.2c0.8,0.7,1.2,1.9,0.8,3c0,0-0.4,1.6-2.5,2.3c0,0-0.7,0.4-2.7,0.3c0,0-1.7-0.1-2.5-0.7
			c-0.7-0.4-1.4-0.9-1.9-1.6C145.9,47.8,145.7,47.4,145.5,47z"/>
		<path fill="#D3C7BE" d="M138.1,34.9h-13.9c0,0-0.7-0.1-0.7,0.4c0,0.3,0,0.6-0.1,0.8l-0.2,0.8c0,0-0.1,0.5,0.1,0.6
			c0,0,0.3,0.1,0.4-0.4c0.1-0.3,0.2-0.5,0.4-0.8c0.4-0.4,1-0.7,1.6-0.6h3.7c0.3,0,0.5,0.3,0.5,0.5l0,0v12.2c0.1,0.7-0.4,1.5-1.1,1.6
			c-0.6,0.2-1.2,0.3-1.8,0.3c0,0-1,0.1-0.9,0.3c0,0-0.1,0.2,0.8,0.2l3-0.1c0,0,6.5,0,7.6,0.1c0,0,0.5,0,0.4-0.2c0,0,0.1-0.1-0.5-0.1
			c-1,0-2.1-0.2-3.1-0.5c0,0-1.1-0.4-1.2-1.1c-0.1-0.5-0.2-1.1-0.1-1.7V36.3c0,0,0-0.5,0.5-0.5h3.5c0,0,1.3,0.1,1.8,0.7l0.3,0.6
			c0,0,0.1,0.5,0.4,0.4c0,0,0.3,0.1,0.1-0.5l-0.2-0.9c0,0,0-0.8,0-0.9c0-0.1,0.1-0.4-0.4-0.4L138.1,34.9z"/>
		<path fill="#D3C7BE" d="M159,38.2c-0.5,0-0.9-0.2-1.2-0.5c-0.7-0.7-0.7-1.8,0-2.4c0.7-0.7,1.8-0.7,2.4,0c0.3,0.3,0.5,0.7,0.5,1.1
			c0,0.5-0.2,0.9-0.5,1.2C159.8,38,159.4,38.2,159,38.2z M159,37.9c0.4,0,0.8-0.2,1.1-0.5c0.5-0.5,0.5-1.3,0-1.9
			c-0.5-0.6-1.4-0.7-2.1-0.2c-0.1,0.1-0.1,0.1-0.2,0.2c-0.3,0.3-0.4,0.6-0.4,0.9c0,0.4,0.1,0.7,0.4,1
			C158.2,37.7,158.5,37.9,159,37.9L159,37.9z M158.4,37.4v-1.8h0.6c0.1,0,0.3,0,0.4,0.1c0.1,0.1,0.1,0.2,0.1,0.4
			c0,0.1,0,0.2-0.1,0.3c-0.1,0.1-0.1,0.2-0.3,0.3l0.5,0.8h-0.4l-0.5-0.8h-0.3v0.8L158.4,37.4z M158.7,36.4L158.7,36.4
			c0.2,0,0.3,0,0.4-0.1c0.1-0.1,0.1-0.2,0.1-0.3c0-0.1,0-0.2-0.1-0.2c-0.1-0.1-0.2-0.1-0.3-0.1h-0.2L158.7,36.4z"/>
		<path fill="#D3C7BE" d="M9.8,46.1c0,0-0.1-0.5-0.5-0.5c-0.2,0.1-0.3,0.2-0.3,0.4l0.1,0.5l0.3,1.1l0.1,0.8l0.1,0.7
			c0,0.3,0.1,0.5,0.1,0.7c0.1,0.1,0.3,0.3,0.4,0.3l1.1,0.5l1.6,0.5c0.7,0.2,1.5,0.3,2.2,0.4c0.8,0.1,0.5,0.3,4.8,0.1
			c0,0,3.2-0.2,5.2-1.8c0.5-0.4,1-0.8,1.5-1.3c0.3-0.4,0.5-0.8,0.8-1.2c0.3-0.6,0.4-1.2,0.4-1.8c0,0,0.1-0.9-0.8-2.5
			c-0.8-1-1.8-1.8-3-2.2c0,0-3.4-1.1-4.9-1.7c0,0-2.6-0.8-2.9-1c-1.2-0.4-2.2-1.4-2.7-2.5c-0.3-0.8-0.3-1.7-0.1-2.5
			c0.3-1,1-1.9,1.9-2.3c1-0.5,2.2-0.8,3.3-0.7c0.7,0.1,1.5,0.3,2.2,0.6c0.7,0.3,1.2,0.6,1.8,1c0.4,0.4,0.8,0.8,1.2,1.2
			c0.3,0.4,0.4,0.7,0.6,1.1l0.3,0.6c0,0,0.1,0.4,0.5,0.4c0,0,0.3,0,0.2-0.5c-0.1-0.4-0.3-0.8-0.4-1.2c-0.1-0.4-0.3-0.7-0.3-1.1
			c-0.1-0.4-0.1-0.7-0.1-1.1L24,29.8c0,0,0.1-0.4-0.3-0.4c-0.1,0-0.3,0.1-0.4,0.3c-0.1,0.3-0.3,0.5-0.6,0.5c-0.2,0-0.4-0.1-0.6-0.1
			c0,0-2.4-0.7-3.2-0.7c-1.5-0.2-3-0.2-4.5,0.1c0,0-4,0.7-4.8,3.9c0,0-0.7,2.7,1,4.5c1,0.9,2.1,1.6,3.4,2.1l4.9,1.6
			c0,0,2.8,0.9,3.5,1.7c1.1,1,1.6,2.5,1.1,4c0,0-0.5,2.2-3.4,3.2c0,0-1,0.6-3.7,0.4c0,0-2.3-0.1-3.5-0.9c-1-0.5-1.9-1.2-2.5-2.1
			C10.4,47.3,10.1,46.7,9.8,46.1z"/>
		<path fill="#D3C7BE" d="M39.4,35.1c0,0-3.8-0.1-4.3-0.1l-0.8-0.1h-0.4c0,0-0.4-0.1-0.4,0.2c0,0-0.1,0.2,0.3,0.2
			c0,0,0.8,0.1,0.9,0.1c0.5,0.1,1,0.3,1.2,0.7c0.2,0.3,0.4,0.5,0.4,0.8c0.1,0.4,0.1,0.8,0.1,1.3v8.6c0,0,0,1.6-0.1,1.8
			c0,0.4-0.1,0.8-0.3,1.2c0,0-0.2,0.4-1,0.6c0,0-0.4,0.1-0.6,0.1c0,0-0.5,0-0.5,0.2c0,0,0,0.3,0.4,0.2l2.9-0.1c0,0,3,0.1,4,0.2
			c0,0,2.5,0.3,3,0.2c1,0,1.9-0.3,2.6-0.7c0.4-0.3,0.6-0.5,0.8-0.8s0.5-0.7,0.7-1c0,0,0.3-0.5,0.1-0.7c0,0-0.2-0.2-0.4,0.1
			c-0.4,0.5-0.8,0.9-1.3,1.2c-0.8,0.5-1.8,0.7-2.7,0.8c-1.1,0.1-2.2,0.2-3.3,0.1c-0.5,0-1.1-0.1-1.6-0.5c0,0-0.3-0.2-0.3-1.1v-4.8
			c0,0-0.1-0.7,0.4-0.7h3.5c0,0,1.2,0.1,1.7,0.6c0.2,0.2,0.3,0.4,0.4,0.7l0.2,0.5c0,0,0.1,0.4,0.3,0.4c0,0,0.2,0.1,0.1-0.4
			c0,0-0.1-0.8-0.1-1.1c-0.1-0.4-0.1-0.8,0-1.2l0.1-0.9c0,0,0.1-0.7,0.1-0.7s0.1-0.3-0.2-0.3c0,0-0.2-0.1-0.3,0.3
			c-0.1,0.3-0.1,0.5-0.3,0.8c0,0-0.1,0.3-0.7,0.5c-0.5,0.2-1.1,0.3-1.6,0.1h-3c-0.3,0-0.5,0-0.7-0.1c0,0-0.1-0.1-0.1-0.6v-4.5
			c0,0-0.1-1.1,0.7-1.1h3.4c0.7,0,1.4,0.1,2.1,0.3c0.4,0.2,0.8,0.5,1.1,1c0.1,0.2,0.2,0.4,0.3,0.5c0,0,0.1,0.5,0.3,0.4
			c0,0,0.3,0,0.2-0.3c0-0.3,0-0.5,0-0.7c0,0-0.1-0.7-0.1-0.7c0-0.3,0-0.5,0.1-0.7c0,0,0.2-0.7-0.3-0.7c0,0-0.7,0.1-1,0.1
			c-0.3,0.1-0.5,0.1-0.7,0.1L39.4,35.1z"/>
		<path fill="#D3C7BE" d="M108.6,35.1c0,0-3.8-0.1-4.3-0.1l-0.8-0.1h-0.4c0,0-0.4-0.1-0.4,0.2c0,0-0.1,0.2,0.3,0.2
			c0.3,0,0.6,0.1,0.9,0.1c0.5,0.1,1,0.3,1.3,0.7c0.2,0.3,0.4,0.5,0.4,0.8c0.1,0.4,0.1,0.8,0.1,1.2v8.6c0,0,0,1.6,0,1.8
			c0,0.4-0.1,0.8-0.3,1.2c0,0-0.2,0.4-1,0.6c0,0-0.4,0.1-0.6,0.1c0,0-0.5,0-0.5,0.2c0,0,0.1,0.3,0.4,0.2l2.9-0.1c0,0,3,0.1,4,0.2
			c0,0,2.5,0.3,3,0.2c1,0,1.9-0.2,2.6-0.7c0.3-0.2,0.6-0.5,0.8-0.8c0.2-0.3,0.5-0.7,0.7-1c0,0,0.3-0.6,0.1-0.7c0,0-0.2-0.2-0.4,0.1
			c-0.4,0.5-0.8,0.9-1.3,1.2c-0.8,0.5-1.8,0.7-2.7,0.8c-1.1,0.1-2.2,0.2-3.3,0.1c-0.5,0-1.1-0.1-1.6-0.5c0,0-0.3-0.2-0.3-1.1v-4.9
			c0,0-0.1-0.7,0.4-0.7h3.5c0,0,1.2,0.1,1.7,0.6c0.2,0.2,0.4,0.4,0.4,0.7l0.2,0.5c0,0,0.1,0.4,0.3,0.4c0,0,0.2,0.1,0.1-0.4
			c0,0-0.1-0.8-0.1-1.2c-0.1-0.4-0.1-0.8,0-1.2l0.1-0.9c0,0,0.1-0.7,0.1-0.7s0.1-0.3-0.2-0.3c0,0-0.2-0.1-0.3,0.3
			c-0.1,0.3-0.1,0.5-0.3,0.8c0,0-0.1,0.3-0.7,0.5c-0.5,0.2-1.1,0.3-1.6,0.1h-3.1c-0.3,0-0.5,0-0.7-0.1c0,0-0.1-0.1-0.1-0.6v-4.3
			c0,0-0.1-1.1,0.7-1.1h3.5c0.7,0,1.4,0.1,2.1,0.3c0.4,0.2,0.8,0.5,1.1,1c0.1,0.2,0.2,0.4,0.3,0.5c0,0,0.1,0.5,0.3,0.4
			c0,0,0.3,0.1,0.2-0.3c0-0.3,0-0.5,0-0.7c0,0-0.1-0.7-0.1-0.7s0-0.4,0.1-0.7c0,0,0.2-0.7-0.3-0.7c0,0-0.7,0.1-1,0.1
			c-0.3,0.1-0.5,0.1-0.7,0.1L108.6,35.1z"/>
		<path fill="#D3C7BE" d="M71.7,35.9c0.2,0,0.4-0.1,0.4-0.2c0.1-0.1,0.1-0.2,0.2-0.3c0.1-0.1,0.2-0.2,0.3-0.1c0,0,0.4-0.1,0.3,0.4
			c-0.1,0.4-0.1,0.8-0.2,1.3c0,0.3,0,0.7,0,1c0,0,0.3,1.1,0.3,1.2c0,0,0.3,0.8-0.4,0.5c0,0-0.5-1-0.5-1c-0.6-0.9-1.4-1.7-2.3-2.2
			c-0.7-0.4-1.5-0.8-2.3-1c-1.6-0.5-3.4-0.5-5.1-0.1c0,0-2.6,0.7-4.1,2.6c-1,1.2-1.6,2.7-1.8,4.3c-0.1,1.7,0.4,3.3,1.4,4.7
			c1.1,1.5,2.7,2.6,4.6,3.2c1.1,0.3,2.2,0.5,3.3,0.5c0,0,2.2,0.1,3.3-0.3c1-0.3,1.8-0.8,2.6-1.4l0.7-0.6c0,0,0.6-0.8,0.8-0.6
			c0,0,0.4,0.1-0.4,1c-0.6,0.7-1.3,1.2-2.1,1.6c-0.9,0.5-1.9,0.8-2.9,1c0,0-5.5,1.4-10-1.5c-2.5-1.5-4-4.1-4-7.1
			c0.2-2.3,1.2-4.5,3.1-6c0,0,2.6-2.5,8.1-2.5c2.1,0.1,4,0.5,5.9,1.5C71.1,35.8,71.3,35.9,71.7,35.9z"/>
		<path fill="#D3C7BE" d="M83,35l2.6-0.2c0.9-0.1,1.9-0.1,2.7-0.1c1.1-0.1,2.2,0.3,3.3,0.8c1.7,0.8,2.3,2.8,1.6,4.5
			c-0.2,0.3-0.4,0.6-0.7,0.9c-0.7,0.7-1.5,1.2-2.4,1.6c-0.3,0.2-0.1,0.3-0.1,0.3l0.3,0.4l1.7,2.5c0.8,1,1.6,2,2.5,2.8
			c0.5,0.6,1.2,1,2,1.3c0.3,0.1,0.4,0.2,0.7,0.2l0.4,0.2c0.4,0.3,0.2,0.3,0.2,0.3c-0.1,0.1-0.3,0.1-0.4,0.1
			c-0.3,0.1-0.5,0.1-0.8,0.1c-0.4,0-0.8,0-0.8,0c-1-0.1-2-0.4-2.7-1.1c-0.7-0.6-1.4-1.3-1.9-2.1l-1.5-1.9c-0.5-0.7-1.1-1.3-1.6-1.9
			c-0.3-0.3-0.7-0.4-1.1-0.5c-0.3-0.1-1.9-0.1-1.9-0.1c-0.1,0-0.4,0.1-0.4,0.1l-0.1,0.3V47c0,0.2,0,1,0,1c0,0.7,0.3,1.3,0.8,1.8
			c0.5,0.4,1.2,0.6,1.9,0.6c0.7,0,0.7,0.2,0.7,0.2c0,0.3-0.3,0.3-0.3,0.3c-0.7,0.1-1.4,0.1-2.1,0c-1-0.1-1.9-0.1-3-0.1l-2.3,0.1
			c-0.4,0.1-0.4-0.1-0.4-0.1c0-0.1,0.2-0.2,0.2-0.2l0.5-0.1c0.3,0,0.5-0.1,0.8-0.3c0.4-0.2,0.7-0.5,0.7-1C82,48.6,82,48,82,47.4
			v-9.3c0-0.4-0.1-0.7-0.1-1.1c-0.1-0.4-0.2-0.7-0.4-0.9c-0.3-0.3-0.7-0.5-1.1-0.6c-0.3-0.1-1-0.1-1-0.1c-0.4-0.1-0.3-0.2-0.3-0.2
			c0-0.2,0.3-0.2,0.3-0.2h0.6l1.5,0.1C81.9,35.1,82.4,35.1,83,35z M84.3,41.8c-0.1,0.4,0.3,0.8,0.7,0.8h0.1c0.4,0.1,0.8,0.1,1.2,0.1
			c2.7-0.2,3.8-1.5,3.8-1.5c1.9-2.2-0.3-4.2-0.3-4.2c-1.6-1.6-4.6-1.4-4.6-1.4c-0.3,0-0.5,0.1-0.7,0.2c-0.3,0.3-0.3,1-0.3,1V41.8
			L84.3,41.8L84.3,41.8z"/>
		<path fill="#D3C7BE" d="M145.5,47c0,0-0.1-0.4-0.4-0.4c-0.1,0.1-0.2,0.2-0.3,0.3l0.1,0.4l0.2,0.8l0.1,0.6l0.1,0.5
			c0,0.2,0.1,0.4,0.1,0.5c0.1,0.1,0.2,0.2,0.3,0.2l0.8,0.4l1.2,0.4c0.5,0.1,1.1,0.3,1.6,0.3c0.6,0.1,0.4,0.2,3.5,0.1
			c1.4-0.1,2.7-0.5,3.8-1.3c0.4-0.3,0.8-0.6,1.1-1c0.3-0.3,0.4-0.6,0.5-0.9c0.2-0.4,0.3-0.9,0.3-1.4c0-0.7-0.3-1.2-0.6-1.8
			c-0.5-0.7-1.3-1.3-2.2-1.6c0,0-2.5-0.8-3.6-1.2c0,0-2-0.6-2.1-0.7c-0.9-0.3-1.6-1-2.1-1.9c-0.2-0.6-0.3-1.2-0.1-1.8
			c0.3-0.7,0.7-1.4,1.4-1.8c0.8-0.4,1.6-0.5,2.5-0.5c0.5,0.1,1.1,0.3,1.6,0.5c0.5,0.2,0.9,0.5,1.3,0.8c0.3,0.3,0.6,0.5,0.8,0.8
			c0.2,0.3,0.4,0.5,0.5,0.8l0.2,0.5c0,0,0.1,0.3,0.4,0.3c0,0,0.2,0,0.2-0.4c0,0-0.3-0.8-0.3-0.9c-0.1-0.3-0.2-0.5-0.3-0.8
			c-0.1-0.3-0.1-0.5-0.1-0.8l-0.1-0.9c0,0,0-0.3-0.2-0.3c-0.1,0-0.2,0.1-0.3,0.2c-0.1,0.3-0.3,0.4-0.4,0.4s-0.3-0.1-0.5-0.1
			c0,0-1.8-0.5-2.3-0.5c-1.1-0.1-2.2-0.1-3.3,0.1c0,0-3,0.5-3.5,2.9c0,0-0.5,2.1,0.7,3.3c0.7,0.7,1.6,1.2,2.5,1.5l3.6,1.2
			c0,0,2.1,0.7,2.6,1.2c0.8,0.7,1.2,1.9,0.8,3c0,0-0.4,1.6-2.5,2.3c0,0-0.7,0.4-2.7,0.3c0,0-1.7-0.1-2.5-0.7
			c-0.7-0.4-1.4-0.9-1.9-1.6C145.9,47.8,145.7,47.4,145.5,47z"/>
		<path fill="#D3C7BE" d="M138.1,34.9h-13.9c0,0-0.7-0.1-0.7,0.4c0,0.3,0,0.6-0.1,0.8l-0.2,0.8c0,0-0.1,0.5,0.1,0.6
			c0,0,0.3,0.1,0.3-0.4c0.1-0.3,0.2-0.5,0.4-0.8c0.4-0.4,1-0.7,1.6-0.6h3.7c0.3,0,0.5,0.3,0.5,0.5l0,0v12.2c0.1,0.7-0.4,1.5-1.1,1.6
			c-0.6,0.2-1.2,0.3-1.9,0.3c0,0-1,0.1-0.9,0.3c0,0-0.1,0.2,0.8,0.2l3-0.1c0,0,6.5,0,7.6,0.1c0,0,0.5,0,0.4-0.2c0,0,0.1-0.1-0.5-0.1
			c-1,0-2.1-0.2-3.1-0.5c0,0-1.1-0.4-1.2-1.1c-0.1-0.5-0.2-1.1-0.1-1.7V36.3c0,0,0-0.5,0.5-0.5h3.5c0,0,1.3,0.1,1.8,0.7l0.3,0.6
			c0,0,0.1,0.5,0.4,0.4c0,0,0.3,0.1,0.1-0.5l-0.2-0.9c0,0,0-0.8,0-0.9c0-0.1,0.1-0.4-0.4-0.4L138.1,34.9z"/>
		<path fill="#D3C7BE" d="M101.7,66.8c-1.2,1.9-3.4,3.2-5.7,3.2c-1.5,0-3-0.5-4.2-1.3c-0.8,0.8-2,1.3-3.2,1.3
			c-1.8,0.1-3.3-1.2-3.4-3c0-0.1,0-0.2,0-0.3c0-2.2,1.8-3.9,3.5-4.7c0-2.1,1.9-5.4,4.2-5.4c0.8-0.1,1.5,0.5,1.5,1.3
			c0,0.1,0,0.1,0,0.2c0,1.7-3.3,3-4.5,3.7c0.1,2.2,1,4.3,2.5,5.9c2.3-2.2,3.7-5.3,5.7-5.3c0.7-0.1,1.4,0.4,1.5,1.1v0.1
			c0,0.3-0.2,0.6-0.4,0.8c-0.3-0.7-1-1-1.7-1c-1.2,0-2.1,1.1-3,2.2c-0.7,0.8-1.4,1.6-2,2.2c1,1.1,2.3,1.7,3.8,1.8
			c2.1-0.1,3.9-1.1,5-2.9L101.7,66.8z M89,69.4c1,0,1.9-0.3,2.6-0.9c-1.8-1.6-2.8-3.8-2.8-6.3c-1.5,0.7-2.3,2.4-2.3,4
			C86.4,67.9,87.4,69.4,89,69.4L89,69.4z M92.7,56.8c-0.7,0-1.6,0.7-2.1,2c-0.4,0.8-0.5,1.8-0.5,2.6c1.9-0.8,3.5-1.8,3.5-3.5
			C93.5,57.2,93.2,56.8,92.7,56.8z"/>
		<path fill="#D3C7BE" d="M36.1,61c0,2-1.5,4.1-3.5,4.1c-1.2,0.1-2.3-0.8-2.5-2.1c0-0.1,0-0.3,0-0.4c0-3.7,5-6.6,9.3-6.6
			c1-0.1,2.1,0.2,3,0.5c0.6-0.3,1.2-0.4,1.9-0.5v0.1c-0.5,0.1-1.1,0.3-1.6,0.6c0.8,0.4,1.4,1.3,1.3,2.2c0,2.5-2.1,3.5-4.2,3.5v0.1
			c0.7,0.3,1.1,0.9,1.1,1.6c-0.1,0.7-0.3,1.5-0.5,2.2c-0.3,0.7-0.5,1.3-0.5,2.1c-0.1,0.3,0.1,0.5,0.4,0.6c0.1,0,0.1,0,0.1,0
			c0.7,0,1.7-0.5,2.7-1.5c1-1,1.9-2.2,2.6-3.4l0.2,0.1c-0.7,1.1-1.5,2.1-2.3,3.1c-1.1,1.2-2.2,1.9-3.3,1.9c-0.7,0.1-1.2-0.4-1.3-1.1
			c0-0.1,0-0.1,0-0.1c0.1-0.7,0.3-1.5,0.7-2.1c0.4-0.7,0.5-1.5,0.7-2.2c0-0.9-0.5-1.1-1.3-1.2l0.1-0.2c0.3,0.1,0.5,0.1,0.7,0.1
			c2.1,0,3.4-1.7,3.4-3.7c0-0.6-0.3-1.1-0.7-1.6c-3.6,2.2-6.2,12.2-11.2,12.2c-0.8,0-1.7-0.4-1.7-1.2c0-0.4,0.3-0.7,0.7-0.7h0.1
			c0.3,0,0.5,0.3,0.5,0.5l0,0c0,0.3-0.2,0.6-0.5,0.6c0.3,0.4,0.7,0.7,1.1,0.6c3.7,0,5.7-9.7,10.8-12.2c-0.8-0.4-1.8-0.5-2.7-0.5
			c-3.5,0-8.5,2.4-8.5,6.5c0,1.3,0.7,2.2,1.8,2.2c2.1,0,3.3-2.1,3.3-3.8C35.9,61,36.1,61,36.1,61z"/>
		<path fill="#D3C7BE" d="M51.5,64.2c-1,1.8-3.9,4.8-6.3,4.8c-0.8,0.1-1.5-0.4-1.6-1.2c0-0.1,0-0.2,0-0.3c0-2.1,2.8-5,4.9-5
			c0.6,0,1,0.3,1,0.7c0,1.1-2.7,2.2-4.3,2.5c-0.3,0.5-0.4,1.1-0.4,1.7c0,0.5,0.2,1.2,0.8,1.2c1.6,0,4.4-2.2,5.7-4.6L51.5,64.2z
			 M48.2,62.7c-1,0-2.5,1.8-3,2.9c1-0.2,3.4-1.1,3.4-2.4C48.7,62.9,48.5,62.7,48.2,62.7L48.2,62.7z"/>
		<path fill="#D3C7BE" d="M57.4,64.2c-1.5,2.3-3.7,4.8-6.7,4.8c-1.1,0-2.1-0.6-2.1-1.8c0-0.7,0.5-1.2,1.1-1.2c0.4,0,0.6,0.2,0.6,0.5
			c0,0.4-0.2,0.6-0.5,0.6c-0.3,0-0.4-0.2-0.5-0.4c-0.3,0.2-0.4,0.4-0.4,0.7c0,0.8,0.7,1.2,1.5,1.2c1,0,1.5-0.9,1.5-1.8
			c-0.1-0.5-0.2-1-0.4-1.5c-0.2-0.4-0.4-0.9-0.4-1.4c0-1.1,0.9-1.7,2-1.7c1,0,1.6,0.5,1.6,1.1c0,0.6-0.5,0.9-1.1,0.9
			c0.2-0.3,0.3-0.7,0.3-1c0.1-0.4-0.3-0.8-0.7-0.8c-0.1,0-0.1,0-0.1,0c-0.5,0-1,0.4-1,1c0,0.1,0,0.1,0,0.1c0.1,0.5,0.2,1,0.4,1.5
			c0.3,0.5,0.4,1,0.4,1.6c-0.1,1-0.8,1.7-1.8,1.9l0.1,0.1c2.5-0.3,4.6-2.6,6-4.7L57.4,64.2L57.4,64.2z"/>
		<path fill="#D3C7BE" d="M65.2,64.3c-0.5,0.6-1.2,1-2,1.1c-0.5,0-1.1-0.3-1.4-0.7h-0.1C61.3,66.4,59,69,56.9,69
			c-0.8,0.1-1.5-0.6-1.6-1.4c0-0.1,0-0.2,0-0.3c0-1.6,2.5-4.8,4.9-4.8c0.8-0.1,1.5,0.6,1.6,1.5c0,0.1,0,0.1,0,0.1
			c0.1,0.7,0.7,1.1,1.3,1.1c0.7-0.1,1.4-0.4,1.9-1L65.2,64.3L65.2,64.3z M57,68.7c1.9,0,3.9-3.4,3.9-5.2c0-0.5-0.3-0.9-0.8-0.9
			c-1.5,0-3.8,3.2-3.8,5.1C56.4,68.3,56.6,68.7,57,68.7z"/>
		<path fill="#D3C7BE" d="M66.9,62.7L64.7,66V66c1-1.1,2.1-2.2,3.4-3.2c0.1-0.3,0.4-0.4,0.6-0.4c0.3,0,0.4,0,0.7,0.1
			c-0.5,0.4-0.8,1.1-0.8,1.7c0,0.5,0.3,0.9,0.7,0.9c0.7,0,1.4-0.7,1.8-1l0.1,0.1c-0.5,0.5-1.2,1.2-2.1,1.2c-0.7,0.1-1.2-0.5-1.2-1.1
			c0-0.1,0-0.1,0-0.2c0-0.3,0.1-0.5,0.2-0.8L68,63.2c-1.2,1-2.4,2.1-3.4,3.3c-0.6,0.7-1,1.5-1.4,2.3H62c1.2-2.1,2.5-4.1,3.8-6.2
			L66.9,62.7z"/>
		<path fill="#D3C7BE" d="M74.2,60.5l-1.4,2.1h2.3l-0.2,0.2h-2.3c-1.9,3.2-3,4.5-3,5.3c0,0.4,0.4,0.6,0.8,0.6c1.7,0,4.2-3,5.5-4.7
			l0.1,0.1c-1.6,2.1-3.9,4.8-5.7,4.8c-0.7,0.1-1.3-0.5-1.3-1.2v-0.1c0-1.1,1.3-2.7,2.6-4.8h-1l0.1-0.3h1l1.4-2.1L74.2,60.5z"/>
		<path fill="#D3C7BE" d="M81.9,64.2c-1.5,2.3-3.7,4.8-6.7,4.8c-1.1,0-2.1-0.6-2.1-1.8c0-0.7,0.5-1.2,1.1-1.2c0.4,0,0.6,0.2,0.6,0.5
			c0,0.4-0.2,0.6-0.5,0.6c-0.3,0-0.4-0.2-0.5-0.4c-0.3,0.2-0.4,0.4-0.4,0.7c0,0.8,0.7,1.2,1.5,1.2c1,0,1.5-0.9,1.5-1.8
			c-0.1-0.5-0.2-1-0.4-1.5c-0.3-0.4-0.4-0.9-0.4-1.4c0-1.1,0.9-1.7,2-1.7c1,0,1.6,0.5,1.6,1.1c0,0.6-0.5,0.9-1.1,0.9
			c0.2-0.3,0.3-0.7,0.3-1c0.1-0.4-0.3-0.8-0.7-0.8c-0.1,0-0.1,0-0.1,0c-0.5,0-1,0.4-1,1c0,0.1,0,0.1,0,0.1c0.1,0.5,0.2,1,0.4,1.5
			c0.3,0.5,0.4,1,0.4,1.6c-0.1,1-0.8,1.7-1.8,1.9l0.1,0.1c2.5-0.3,4.6-2.6,6-4.7L81.9,64.2L81.9,64.2z"/>
		<path fill="#D3C7BE" d="M107.1,64.9c0,0.4-0.3,0.6-0.5,0.7h-0.1c-0.1,0-0.3-0.1-0.4-0.2c-0.3,0.4-0.4,0.8-0.3,1.1
			c0,1.2,1.2,2.3,3.2,2.3c3.3,0,4.3-3.3,4.4-6c0.1-4.2,1.6-6.9,4.3-6.9c1.2,0,2.1,0.7,2.1,1.7c0,0.7-0.6,1.2-1.2,1.1
			c-0.1,0-0.1,0-0.1,0c0.3-0.4,0.4-0.8,0.4-1.3c0.1-0.7-0.5-1.2-1.1-1.2c-0.1,0-0.1,0-0.1,0c-2.7,0-3,3.6-3.2,6.6
			c-0.4,4.9-2.9,6.3-5.5,6.3c-1.9,0.1-3.5-1.2-3.6-3.2c0-0.1,0-0.3,0-0.4c0-0.8,0.4-1.5,1-1.5C106.7,64.3,107.1,64.6,107.1,64.9z"/>
		<path fill="#D3C7BE" d="M121.9,59.2c-1.2,1.9-2.6,3.8-3.8,5.7l0.1,0.1c0.7-1,1.9-2.4,3.3-2.4c0.7-0.1,1.2,0.4,1.3,1
			c0,0.1,0,0.3,0,0.3c-0.1,1.1-0.6,2.2-1.5,3l0.1,0.1c1.7-0.3,3-1.1,4.4-2.8l0.1,0.1c-2.2,2.6-3.6,2.7-4.8,3
			c-0.8,0.6-2.1,1.9-3.3,1.9c-0.3,0-0.7-0.2-0.7-0.5c0-1,2.2-1.2,3.3-1.4c0.8-0.9,1.2-2.1,1.3-3.3c0-0.8-0.3-1-0.6-1
			c-1.6,0-4,4-4.8,5.2c-0.7,1-3.1,4.7-4.1,6.7h-1.1c3.2-5.2,6.5-10.4,9.7-15.6C120.8,59.2,121.9,59.2,121.9,59.2z M120,67.3
			L120,67.3c-0.8,0.1-2.6,0.3-2.6,1.1c0,0.3,0.3,0.4,0.5,0.4c0,0,0,0,0.1,0C118.6,68.9,119.7,67.7,120,67.3L120,67.3z"/>
		<path fill="#D3C7BE" d="M130.2,62.7h1.1c-1.8,2.5-3.4,4.8-3.4,5.6c0,0.3,0.2,0.5,0.5,0.5c1,0,3.3-2.1,4.9-4.8l0.1,0.1
			c-1.2,2-3.6,4.9-5.2,4.9c-0.5,0.1-0.9-0.3-1-0.7c0-0.1,0-0.1,0-0.1c0-0.4,0.1-0.7,0.3-1h-0.1c-0.6,0.7-1.9,1.9-3,1.9
			c-0.8,0-1.2-0.7-1.2-1.3c0-2,2.7-5.1,4.8-5.1c0.7-0.1,1.4,0.5,1.5,1.2h0.1L130.2,62.7z M125.1,68.6c1.2,0,4-2.9,4-5
			c0.1-0.4-0.3-0.8-0.7-0.8h-0.1c-1.4,0-3.8,2.8-3.8,5C124.4,68.3,124.6,68.6,125.1,68.6z"/>
		<path fill="#D3C7BE" d="M139.3,64.2c-1.5,2.3-3.7,4.8-6.7,4.8c-1.1,0-2.1-0.5-2.1-1.8c0-0.7,0.5-1.2,1.1-1.2
			c0.4,0,0.6,0.2,0.6,0.5c0,0.4-0.2,0.6-0.5,0.6c-0.3,0-0.4-0.2-0.5-0.4c-0.3,0.2-0.4,0.4-0.4,0.7c0,0.8,0.7,1.2,1.5,1.2
			c1,0,1.5-0.9,1.5-1.8c-0.1-0.5-0.2-1-0.4-1.5c-0.3-0.4-0.4-0.9-0.4-1.4c0-1.1,0.9-1.7,2-1.7c1,0,1.6,0.4,1.6,1.1
			c0,0.6-0.5,0.9-1.1,0.9c0.2-0.3,0.3-0.7,0.3-1c0.1-0.4-0.3-0.8-0.7-0.8c-0.1,0-0.1,0-0.1,0c-0.5,0-1,0.4-1,0.9c0,0.1,0,0.1,0,0.1
			c0.1,0.5,0.2,1,0.4,1.5c0.3,0.5,0.4,1,0.4,1.6c-0.1,1-0.8,1.7-1.8,1.9l0.1,0.1c2.5-0.3,4.6-2.6,6-4.7L139.3,64.2z"/>
		<path fill="#D3C7BE" d="M66.4,11.6c-0.6,0.7-1.1,1.2-1.8,1.9c0.3,0.2,0.5,0.4,0.7,0.7c0.1,0.2,0.3,0.4,0.5,0.7
			c0.4,0.7,1,1.3,1.6,1.9l0.1,0.1c-0.6-1.8-0.8-3.5-0.8-5.4L66.4,11.6z"/>
		<path fill="#D3C7BE" d="M67.7,10.6C67.7,10.6,67.7,10.6,67.7,10.6L67.7,10.6c0,0.1-0.6,2.6,1,6.9c0.4,0.4,0.8,0.7,1.4,0.9
			c-0.5-3.4-0.7-6.8-0.7-10.3c-0.3,0.1-0.5,0.3-0.7,0.4C68.2,9.1,67.9,9.8,67.7,10.6z"/>
		<path fill="#D3C7BE" d="M74.5,20.5h0.3C74.5,18.2,73.7,9,75.9,4.9c-0.3-0.1-0.6-0.1-0.8-0.1c-0.9,0-1.8,0.3-2.5,0.8
			c-0.8,0.5-1.6,1.2-2,2.1c-0.1,3.7,0.1,7.5,0.7,11.2C72,19.9,73.2,20.5,74.5,20.5z"/>
		<path fill="#D3C7BE" d="M92.3,21.4c0.9,0.4,1.9,0.7,2.8,0.7c0.4,0,0.7-0.1,1.1-0.1c2-0.5,3.9-2.6,4.9-4.4c1-1.9,1.2-4,0.8-6
			c-0.8-2.1-1.1-3.1-4.4-3.8c-3.5-0.5-5.3,4.4-6.2,6.7c-0.3,0.7-0.5,1.4-0.7,2.1c-0.4,1.4-0.9,2.7-1.5,4l0.5,0.1
			C90.6,20.8,91.5,21,92.3,21.4z"/>
		<path fill="#D3C7BE" d="M77.5,22.8c1.2,0.7,2.7,1.2,4.1,1.3c1.2,0.1,2.5-0.3,3.6-0.8c0.8-0.4,2.1-1.9,2.6-2.5
			c0.8-1.4,1.5-3,1.9-4.5c0.3-0.7,0.4-1.5,0.7-2.2c0.9-2.4,2.9-7.9,7.1-7.5l-0.4-0.3l-0.8-0.6c-0.5-0.4-1-0.8-1.6-1.3
			c-1-1-2.1-1.9-3.4-2.6c-1.4-0.8-3-1.2-4.5-1.2c-1.2,0-2.4,0.3-3.5,0.6c-2.2,0.8-4.2,2.1-6,3.8c-2.7,3.6-1.5,14.9-1.4,16
			C76.3,21.6,76.8,22.3,77.5,22.8z"/>
	</g>
</g>
</svg>
