<?xml version="1.0" encoding="utf-8"?>
<!-- Generator: Adobe Illustrator 18.1.0, SVG Export Plug-In . SVG Version: 6.00 Build 0)  -->
<svg version="1.1" id="Layer_1" xmlns="http://www.w3.org/2000/svg" xmlns:xlink="http://www.w3.org/1999/xlink" x="0px" y="0px"
	 viewBox="0 0 150 150" 
enableBackground="new 0 0 150 150" xml:space="preserve">
<circle fill="none" stroke="#4A7871" stroke-width="2.4921" stroke-miterlimit="10" cx="73.1" cy="75.3" r="60"/>
<g>
	<g>
		<g>
			<path fill="#4A7871" d="M92.1,65.2v-2.4c0-9.4-7.7-17.1-17.1-17.1s-17.1,7.7-17.1,17.1v2.4c-4,0-7.3,3.3-7.3,7.3V97
				c0,4,3.3,7.3,7.3,7.3h34.2c4,0,7.3-3.3,7.3-7.3V72.6C99.5,68.5,96.2,65.2,92.1,65.2z M62.8,62.8c0-6.7,5.5-12.2,12.2-12.2
				c6.7,0,12.2,5.5,12.2,12.2v2.4H62.8V62.8z M94.6,97c0,1.3-1.1,2.4-2.4,2.4H57.9c-1.3,0-2.4-1.1-2.4-2.4V72.6
				c0-1.3,1.1-2.4,2.4-2.4h34.2c1.3,0,2.4,1.1,2.4,2.4V97z"/>
		</g>
	</g>
	<g>
		<g>
			<path fill="#4A7871" d="M75,73.8c-4,0-7.3,3.3-7.3,7.3c0,3.2,2.1,5.9,4.9,6.9v4.1c0,1.4,1.1,2.4,2.4,2.4c1.3,0,2.4-1.1,2.4-2.4
				V88c2.8-1,4.9-3.7,4.9-6.9C82.3,77.1,79,73.8,75,73.8z M75,83.6c-1.3,0-2.4-1.1-2.4-2.4c0-1.3,1.1-2.4,2.4-2.4s2.4,1.1,2.4,2.4
				C77.4,82.5,76.3,83.6,75,83.6z"/>
		</g>
	</g>
</g>
</svg>
