<?xml version="1.0" encoding="utf-8"?>
<!-- Generator: Adobe Illustrator 18.1.0, SVG Export Plug-In . SVG Version: 6.00 Build 0)  -->
<svg version="1.1" id="Layer_1" xmlns="http://www.w3.org/2000/svg" xmlns:xlink="http://www.w3.org/1999/xlink" x="0px" y="0px"
	 viewBox="0 0 612 792" 
enableBackground="new 0 0 612 792" xml:space="preserve">
<path fill="#4A7871" d="M298.2,646.9c-137.5,0-249.7-112.2-249.7-249.7s112.2-249.7,249.7-249.7s249.7,112.2,249.7,249.7
	S436.2,646.9,298.2,646.9z M298.2,157.7C166.1,157.7,58.8,265,58.8,397.2s107.3,239.5,239.5,239.5s239.5-107.3,239.5-239.5
	S430.4,157.7,298.2,157.7z"/>
<g>
	<path fill="#4A7871" d="M429.1,420.9L428,417c-0.4-1.2-1.6-1.9-2.8-1.6l-51.5,14.8L182,485.4c-0.6,0.2-1.1,0.6-1.4,1.1
		c-0.3,0.5-0.4,1.2-0.2,1.7l1.1,3.9c0.3,1,1.2,1.7,2.2,1.7c0.2,0,0.4-0.1,0.6-0.1l190-54.6l53.2-15.3c0.6-0.2,1.1-0.6,1.4-1.1
		C429.2,422.1,429.3,421.5,429.1,420.9z"/>
	<path fill="#4A7871" d="M171.5,316.4c19,0,28.3,6,38.2,12.4c10.5,6.8,21.3,13.8,42.8,13.8s32.4-7,42.8-13.8
		c9.9-6.4,19.2-12.4,38.2-12.4s28.3,6,38.2,12.4c10.5,6.8,21.3,13.8,42.8,13.8c1.3,0,2.3-1,2.3-2.3v-4c0-1.3-1-2.3-2.3-2.3
		c-19,0-28.3-6-38.2-12.4c-10.5-6.8-21.3-13.8-42.8-13.8s-32.4,7-42.8,13.8c-9.9,6.4-19.2,12.4-38.2,12.4s-28.3-6-38.2-12.4
		c-10.5-6.8-21.3-13.8-42.8-13.8c-1.3,0-2.3,1-2.3,2.3v4C169.2,315.4,170.2,316.4,171.5,316.4z"/>
	<path fill="#4A7871" d="M171.5,356.7c19,0,28.3,6,38.2,12.4c10.5,6.8,21.3,13.8,42.8,13.8s32.4-7,42.8-13.8
		c9.9-6.4,19.2-12.4,38.2-12.4s28.3,6,38.2,12.4c10.5,6.8,21.3,13.8,42.8,13.8c1.3,0,2.3-1,2.3-2.3v-4c0-1.3-1-2.3-2.3-2.3
		c-19,0-28.3-6-38.2-12.4c-10.5-6.8-21.3-13.8-42.8-13.8s-32.4,7-42.8,13.8c-9.9,6.4-19.2,12.4-38.2,12.4s-28.3-6-38.2-12.4
		c-10.5-6.8-21.3-13.8-42.8-13.8c-1.3,0-2.3,1-2.3,2.3v4C169.2,355.7,170.2,356.7,171.5,356.7z"/>
	<path fill="#4A7871" d="M252.5,425.5c21.5,0,32.4-7,42.8-13.8c9.9-6.4,19.2-12.4,38.2-12.4c17,0,26.4,4.9,34.4,10
		c1.3,0.8,2.5,1.6,3.8,2.5l0.7,0.5c0.6,0.4,1.2,0.5,1.9,0.3l5.1-1.5c0.9-0.3,1.5-1,1.6-1.9c0.1-0.9-0.3-1.8-1.1-2.2
		c-1.2-0.8-2.4-1.5-3.6-2.3l-0.9-0.6c-9.1-5.9-20.5-13.2-42-13.2c-21.5,0-32.4,7-42.8,13.8c-9.9,6.4-19.2,12.4-38.2,12.4
		s-28.3-6-38.2-12.4c-10.5-6.8-21.3-13.8-42.8-13.8c-1.3,0-2.3,1-2.3,2.3v4c0,1.3,1,2.3,2.3,2.3c19,0,28.3,6,38.2,12.4
		C220.1,418.5,231,425.5,252.5,425.5z"/>
</g>
</svg>
