<?xml version="1.0" encoding="utf-8"?>
<!-- Generator: Adobe Illustrator 18.1.0, SVG Export Plug-In . SVG Version: 6.00 Build 0)  -->
<svg version="1.1" id="Layer_1" xmlns="http://www.w3.org/2000/svg" xmlns:xlink="http://www.w3.org/1999/xlink" x="0px" y="0px"
	 viewBox="0 0 150 150" enable-background="new 0 0 150 150" xml:space="preserve">
<path fill="#4A7871" d="M73.1,136.5c-33.7,0-61.2-27.5-61.2-61.2s27.5-61.2,61.2-61.2s61.2,27.5,61.2,61.2S106.9,136.5,73.1,136.5z
	 M73.1,16.6c-32.4,0-58.7,26.3-58.7,58.7c0,32.4,26.3,58.7,58.7,58.7s58.7-26.3,58.7-58.7C131.8,42.9,105.5,16.6,73.1,16.6z"/>
<g>
	<path fill="#4A7871" d="M101,97.5c-1.8,0-2.6-0.4-3.6-0.9C97,96.4,96.5,96.2,96,96l5.5-14.4c0.4-1.1,0.4-2.4-0.2-3.4
		c-0.5-1.1-1.5-1.8-2.7-2.1l-3.8-1V63.8c0-2.4-1.9-4.3-4.3-4.3h-7.4v-4.2c0-3.3-2.7-6-6-6h-4.2c-3.3,0-6,2.7-6,6v4.2h-7.4
		c-2.4,0-4.3,1.9-4.3,4.3V75l-3.8,1c-1.2,0.3-2.1,1.1-2.7,2.1c-0.5,1.1-0.6,2.3-0.2,3.4L54,96c-0.5,0.2-1,0.4-1.4,0.6
		c-1,0.5-1.8,0.9-3.6,0.9c-0.9,0-1.6,0.7-1.6,1.6c0,0.9,0.7,1.6,1.6,1.6c2.5,0,3.9-0.7,5.1-1.2c1-0.5,1.8-0.9,3.6-0.9
		c1.8,0,2.6,0.4,3.6,0.9c1.2,0.6,2.5,1.2,5.1,1.2c2.5,0,3.9-0.7,5.1-1.2c1-0.5,1.8-0.9,3.6-0.9c1.8,0,2.6,0.4,3.6,0.9
		c1.2,0.6,2.5,1.2,5.1,1.2c2.5,0,3.9-0.7,5.1-1.2c1-0.5,1.8-0.9,3.6-0.9s2.6,0.4,3.6,0.9c1.2,0.6,2.5,1.2,5.1,1.2
		c0.9,0,1.6-0.7,1.6-1.6C102.6,98.2,101.9,97.5,101,97.5L101,97.5z M70.1,55.3c0-1.5,1.3-2.8,2.8-2.8h4.2c1.5,0,2.8,1.3,2.8,2.8v4.2
		h-9.7V55.3z M58.4,63.8c0-0.6,0.5-1.1,1.1-1.1h31.1c0.6,0,1.1,0.5,1.1,1.1v10.4L75.4,70c-0.3-0.1-0.5-0.1-0.8,0l-16.2,4.2
		L58.4,63.8L58.4,63.8z M87.3,96.6c-1,0.5-1.8,0.9-3.6,0.9c-1.8,0-2.6-0.4-3.6-0.9c-1.2-0.6-2.5-1.2-5.1-1.2c-2.5,0-3.9,0.7-5.1,1.2
		c-1,0.5-1.8,0.9-3.6,0.9c-1.8,0-2.6-0.4-3.6-0.9c-1.2-0.6-2.5-1.2-5.1-1.2c-0.2,0-0.3,0-0.5,0l-5.7-14.9c-0.1-0.4,0-0.7,0-0.8
		c0.1-0.1,0.3-0.4,0.6-0.5L75,73.2l22.8,5.9c0.4,0.1,0.6,0.4,0.6,0.5c0.1,0.1,0.2,0.4,0,0.8l-5.7,14.9c-0.1,0-0.3,0-0.5,0
		C89.8,95.3,88.4,96,87.3,96.6L87.3,96.6z"/>
	<path fill="#4A7871" d="M90,81.5l-14.5-3.8c-0.3-0.1-0.5-0.1-0.8,0L60,81.5c-0.9,0.2-1.4,1.1-1.2,2s1.1,1.4,2,1.2L75,80.9l14.1,3.7
		c0.1,0,0.3,0.1,0.4,0.1c0.7,0,1.4-0.5,1.6-1.2C91.3,82.6,90.8,81.7,90,81.5L90,81.5z"/>
</g>
</svg>
