<?xml version="1.0" encoding="utf-8"?>
<!-- Generator: Adobe Illustrator 18.1.0, SVG Export Plug-In . SVG Version: 6.00 Build 0)  -->
<svg version="1.1" id="Layer_1" xmlns="http://www.w3.org/2000/svg" xmlns:xlink="http://www.w3.org/1999/xlink" x="0px" y="0px"
	 viewBox="0 0 150 150" enable-background="new 0 0 150 150" xml:space="preserve">
<path fill="#4A7871" d="M73.1,136.5c-33.7,0-61.2-27.5-61.2-61.2s27.5-61.2,61.2-61.2s61.2,27.5,61.2,61.2S106.9,136.5,73.1,136.5z
	 M73.1,16.6c-32.4,0-58.7,26.3-58.7,58.7c0,32.4,26.3,58.7,58.7,58.7s58.7-26.3,58.7-58.7C131.8,42.9,105.5,16.6,73.1,16.6z"/>
<path fill="#4A7871" d="M93.8,52.5c-0.1-0.6-0.6-1-1.2-1.1c-5.8-0.7-11.2-0.6-15.9,0.5c-6.1,1.4-11.3,4.2-15.5,8.4
	c-6.5,6.6-6.5,17.2,0,23.8c0.6,0.6,1.3,1.2,2,1.7v11.8c0,0.8,0.6,1.4,1.4,1.4c0.8,0,1.4-0.6,1.4-1.4V87.5c2.2,1,4.6,1.5,7.1,1.5
	c4.5,0,8.7-1.7,11.9-4.9c5-5,3.9-11.8,3.6-15.6c-0.5-5.9-1-10.9,4.6-14.4C93.6,53.7,93.9,53.1,93.8,52.5z M63.1,62.3
	c5-5,11.4-7.8,19.2-8.4c-3.4,1.6-6.6,4-9.4,7c-5.6,5.9-8.9,13.3-9.6,21.3C57.7,76.8,57.6,67.8,63.1,62.3L63.1,62.3z M85.7,68.7
	c0.4,5,0.9,9.7-2.8,13.4c-2.6,2.6-6.2,4.1-9.9,4.1c-2.5,0-4.9-0.7-7-1.9c0.3-8,3.4-15.6,9-21.4c2.5-2.7,5.5-4.9,8.6-6.4
	c1.5-0.7,3-1.3,4.5-1.7c-1.1,1.4-1.9,3-2.3,4.9C85.1,62.6,85.4,65.7,85.7,68.7L85.7,68.7z"/>
</svg>
