<?xml version="1.0" encoding="utf-8"?>
<!-- Generator: Adobe Illustrator 18.1.0, SVG Export Plug-In . SVG Version: 6.00 Build 0)  -->
<svg version="1.1" id="Layer_1" xmlns="http://www.w3.org/2000/svg" xmlns:xlink="http://www.w3.org/1999/xlink" x="0px" y="0px"
	 viewBox="0 0 150 150" 
enableBackground="new 0 0 150 150" xml:space="preserve">
<circle fill="none" stroke="#4A7871" stroke-width="2.4921" stroke-miterlimit="10" cx="75" cy="75" r="60"/>
<g>
	<path fill="#4A7871" d="M55.9,59.4c0.9-2.9,2.2-5.4,4-7.6c1.8-2.2,4-3.8,6.8-5c2.7-1.2,5.8-1.8,9.4-1.8c2.7,0,5.3,0.4,7.7,1.3
		c2.4,0.8,4.6,2,6.4,3.6c1.8,1.6,3.3,3.5,4.4,5.8c1.1,2.3,1.6,4.9,1.6,7.7c0,3-0.5,5.5-1.4,7.6c-1,2.1-2.2,4-3.8,5.7
		c-1.6,1.7-3.3,3.2-5.3,4.5c-2,1.3-4,2.7-6,4c-2,1.3-4,2.7-5.9,4.2c-1.9,1.5-3.6,3.3-5,5.3h27.8V105H53.4c0-3.4,0.5-6.4,1.5-8.9
		c1-2.5,2.3-4.8,4-6.8c1.7-2,3.7-3.8,5.9-5.5s4.7-3.4,7.2-5.1c1.3-0.9,2.7-1.8,4.1-2.7c1.5-0.9,2.8-1.9,4-3.1c1.2-1.1,2.2-2.4,3-3.8
		c0.8-1.4,1.2-3,1.2-4.8c0-2.9-0.8-5.1-2.5-6.7c-1.7-1.6-3.8-2.4-6.3-2.4c-1.7,0-3.2,0.4-4.4,1.2c-1.2,0.8-2.2,1.9-2.9,3.2
		c-0.7,1.3-1.2,2.8-1.6,4.4c-0.3,1.6-0.5,3.2-0.5,4.7H54.8C54.6,65.4,55,62.3,55.9,59.4z"/>
</g>
</svg>
