<?xml version="1.0" encoding="utf-8"?>
<!-- Generator: Adobe Illustrator 18.1.0, SVG Export Plug-In . SVG Version: 6.00 Build 0)  -->
<svg version="1.1" id="Layer_1" xmlns="http://www.w3.org/2000/svg" xmlns:xlink="http://www.w3.org/1999/xlink" x="0px" y="0px"
	 viewBox="0 0 150 150" 
enableBackground="new 0 0 150 150" xml:space="preserve">
<circle fill="none" stroke="#4A7871" stroke-width="2.4921" stroke-miterlimit="10" cx="75" cy="75" r="60"/>
<g>
	<path fill="#4A7871" d="M74.9,69.4c1.5-0.1,2.8-0.4,4.1-1c1.3-0.5,2.3-1.3,3.1-2.3c0.8-1,1.2-2.4,1.2-4c0-2.5-0.8-4.5-2.5-5.8
		c-1.7-1.3-3.6-2-5.8-2c-3,0-5.3,1-6.8,3c-1.5,2-2.3,4.5-2.2,7.5H54.6c0.1-3,0.7-5.8,1.6-8.3c1-2.5,2.4-4.6,4.1-6.4
		c1.8-1.8,3.9-3.2,6.3-4.2c2.5-1,5.2-1.5,8.2-1.5c2.4,0,4.7,0.4,7.1,1.1c2.4,0.7,4.5,1.8,6.3,3.2c1.9,1.4,3.4,3.1,4.6,5.1
		c1.2,2,1.8,4.3,1.8,7c0,2.9-0.7,5.4-2.1,7.6c-1.4,2.2-3.4,3.7-6.2,4.5v0.2c3.2,0.7,5.8,2.3,7.6,4.7c1.8,2.4,2.8,5.3,2.8,8.7
		c0,3.1-0.6,5.8-1.8,8.2c-1.2,2.4-2.8,4.4-4.8,6c-2,1.6-4.3,2.9-7,3.7c-2.6,0.8-5.4,1.3-8.2,1.3c-3.3,0-6.3-0.5-9-1.4
		c-2.7-1-5-2.3-6.9-4.2c-1.9-1.8-3.4-4-4.4-6.7c-1-2.6-1.5-5.7-1.5-9.1h11.3c0.1,1.6,0.3,3.1,0.8,4.5c0.4,1.4,1.1,2.7,1.9,3.7
		c0.8,1,1.9,1.9,3.2,2.5c1.3,0.6,2.8,0.9,4.5,0.9c2.7,0,5-0.8,6.8-2.5c1.8-1.7,2.8-3.9,2.8-6.8c0-2.2-0.4-3.9-1.3-5.1
		c-0.9-1.2-2-2-3.3-2.6c-1.3-0.5-2.8-0.8-4.4-0.9c-1.6-0.1-3.1-0.1-4.6-0.1v-8.4C72.1,69.5,73.5,69.5,74.9,69.4z"/>
</g>
</svg>
