<!-- Generator: Adobe Illustrator 25.0.0, SVG Export Plug-In  -->
<svg version="1.1" xmlns="http://www.w3.org/2000/svg" xmlns:xlink="http://www.w3.org/1999/xlink" x="0px" y="0px"   viewBox="0 0 27.6 40.1" style="overflow:visible;
enableBackground:new 0 0 27.6 40.1;" xml:space="preserve">
<style type="text/css">
	.st0{fill:#DDD3CA;}
</style>
<defs>
</defs>
<g>
	<path class="st0" d="M13.8,40.1c-0.9,0-1.7-0.5-2.1-1.2c0,0,0,0,0,0L1.7,20.7c-2.4-4.3-2.3-9.5,0.2-13.8C4.3,2.7,8.7,0.1,13.5,0
		c0.2,0,0.4,0,0.6,0c4.8,0.1,9.1,2.7,11.6,6.9c2.5,4.3,2.6,9.5,0.2,13.8l-9.9,18.2c0,0,0,0,0,0C15.5,39.7,14.7,40.1,13.8,40.1
		L13.8,40.1z M13.8,2.5c-0.1,0-0.2,0-0.3,0C9.6,2.6,6.1,4.7,4.1,8.1C2,11.7,2,15.9,3.9,19.5l9.9,18l9.9-18c2-3.6,1.9-7.8-0.2-11.3
		c-2-3.4-5.5-5.5-9.4-5.6C14,2.5,13.9,2.5,13.8,2.5L13.8,2.5z"/>
	<path class="st0" d="M13.8,18.2c-3.1,0-5.6-2.5-5.6-5.6s2.5-5.6,5.6-5.6s5.6,2.5,5.6,5.6S16.9,18.2,13.8,18.2z M13.8,9.4
		c-1.7,0-3.1,1.4-3.1,3.1s1.4,3.1,3.1,3.1s3.1-1.4,3.1-3.1S15.5,9.4,13.8,9.4z"/>
</g>
</svg>
