<?xml version="1.0" encoding="utf-8"?>
<!-- Generator: Adobe Illustrator 18.1.0, SVG Export Plug-In . SVG Version: 6.00 Build 0)  -->
<svg version="1.1" id="Layer_1" xmlns="http://www.w3.org/2000/svg" xmlns:xlink="http://www.w3.org/1999/xlink" x="0px" y="0px"
	 viewBox="0 0 330.6 76.4" enable-background="new 0 0 330.6 76.4" xml:space="preserve">
<g>
	<polygon fill="#DDD3CA" points="20.8,19 17.3,19 17.3,56.2 43.9,56.2 43.9,52.6 20.8,52.6 	"/>
	<polygon fill="#DDD3CA" points="59.5,56.2 67.2,56.2 63.4,47.4 	"/>
	<polygon fill="#DDD3CA" points="63.4,19 63.4,18.9 63.3,19 61.5,19 45.4,56.2 49.3,56.2 63.4,23.9 77.4,56.2 81.3,56.2 65.2,19 	
		"/>
	<polygon fill="#DDD3CA" points="119.5,56.2 127.1,56.2 123.3,47.4 	"/>
	<polygon fill="#DDD3CA" points="123.3,19 123.3,18.9 123.2,19 121.4,19 105.3,56.2 109.2,56.2 123.3,23.9 137.3,56.2 141.2,56.2 
		125.1,19 	"/>
	<path fill="#DDD3CA" d="M165.4,39.4L150,19h-3.2v37.2h3.6V25.5l12.7,16.9l-4,5.4v3.1h12.5v-3.1l-4-5.4l12.7-16.9v30.7h3.6V19h-3.2
		L165.4,39.4z M164,47.2l1.4-1.8l1.4,1.8H164z"/>
	<polygon fill="#DDD3CA" points="203.6,56.2 211.3,56.2 207.5,47.4 	"/>
	<polygon fill="#DDD3CA" points="207.5,19 207.5,18.9 207.4,19 205.6,19 189.5,56.2 193.4,56.2 207.5,23.9 221.5,56.2 225.4,56.2 
		209.3,19 	"/>
	<path fill="#DDD3CA" d="M244.6,19h-13.6v37.2h13.6c10.3,0,18.6-8.3,18.6-18.6S254.9,19,244.6,19z M234.6,22.6h10
		c8.3,0,15,6.7,15,15c0,8.3-6.7,15-15,15h-10V22.6z"/>
	<polygon fill="#DDD3CA" points="279.3,56.2 286.9,56.2 283.1,47.4 	"/>
	<polygon fill="#DDD3CA" points="284.9,19 283.1,19 283.1,18.9 283,19 281.2,19 265.1,56.2 269,56.2 283.1,23.9 297.1,56.2 
		301,56.2 	"/>
</g>
</svg>
