<!-- Generator: Adobe Illustrator 25.0.0, SVG Export Plug-In  -->
<svg version="1.1" xmlns="http://www.w3.org/2000/svg" xmlns:xlink="http://www.w3.org/1999/xlink" x="0px" y="0px"  viewBox="0 0 34.1 23.5" style="overflow:visible;enable-background:new 0 0 34.1 23.5;" xml:space="preserve">
<style type="text/css">
	.st0{fill:#DDD3CA;}
</style>
<defs>
</defs>
<g>
	<g>
		<g>
			<polygon class="st0" points="22.6,11.9 34.1,19.2 34.1,4.3 			"/>
		</g>
	</g>
	<g>
		<g>
			<polygon class="st0" points="0,4.3 0,19.2 11.5,11.9 			"/>
		</g>
	</g>
	<g>
		<g>
			<path class="st0" d="M32,0H2.1C1.1,0,0.2,0.8,0.1,1.8l17,11.2l17-11.2C33.9,0.8,33.1,0,32,0z"/>
		</g>
	</g>
	<g>
		<g>
			<path class="st0" d="M20.7,13.2l-3,2c-0.2,0.1-0.4,0.2-0.6,0.2s-0.4-0.1-0.6-0.2l-3-2L0.1,21.7c0.2,1,1,1.8,2.1,1.8H32
				c1.1,0,1.9-0.8,2.1-1.8L20.7,13.2z"/>
		</g>
	</g>
</g>
</svg>
