<!-- Generator: Adobe Illustrator 25.0.0, SVG Export Plug-In  -->
<svg version="1.1" xmlns="http://www.w3.org/2000/svg" xmlns:xlink="http://www.w3.org/1999/xlink" x="0px" y="0px"   viewBox="0 0 28.6 28.6" style="overflow:visible;enable-background:new 0 0 28.6 28.6;" xml:space="preserve">
<style type="text/css">
	.st0{fill:#DDD3CA;}
</style>
<defs>
</defs>
<path class="st0" d="M28.1,22.8l-3.2-2.1l-2.8-1.9c-0.5-0.4-1.3-0.2-1.7,0.3l-1.7,2.2c-0.4,0.5-1,0.6-1.6,0.3
	c-1.2-0.7-2.6-1.3-5.7-4.4S7.7,12.7,7,11.6C6.7,11,6.9,10.4,7.3,10l2.2-1.7c0.5-0.4,0.6-1.1,0.3-1.7L8,3.8L5.9,0.6
	C5.5,0,4.8-0.2,4.2,0.2L1.7,1.7C1,2.1,0.5,2.7,0.3,3.5c-0.7,2.5-0.8,8,8,16.8s14.3,8.7,16.8,8c0.8-0.2,1.4-0.7,1.8-1.4l1.5-2.5
	C28.8,23.9,28.6,23.1,28.1,22.8z"/>
</svg>
