<!-- Generator: Adobe Illustrator 25.0.0, SVG Export Plug-In  -->
<svg version="1.1" xmlns="http://www.w3.org/2000/svg" xmlns:xlink="http://www.w3.org/1999/xlink" x="0px" y="0px"   viewBox="0 0 49.3 37.2" style="overflow:visible;enable-background:new 0 0 49.3 37.2;" xml:space="preserve">
<style type="text/css">
	.st0{fill:#DDD3CA;}
</style>
<defs>
</defs>
<g>
	<path class="st0" d="M8.1,17.7H5.6v9.1H1.8v-9.1H0l0-3.2h1.8v-2.1c0-1.5,0.7-3.8,3.8-3.8l2.8,0v3.1h-2c-0.3,0-0.8,0.2-0.8,0.9v1.9
		h2.9L8.1,17.7z M8.1,17.7"/>
	<g>
		<g>
			<path class="st0" d="M47.4,8.9H31.8c-1.1,0-1.9,0.9-1.9,1.9v15.6c0,1.1,0.9,1.9,1.9,1.9h15.6c1.1,0,1.9-0.9,1.9-1.9V10.8
				C49.3,9.7,48.4,8.9,47.4,8.9L47.4,8.9z M39.6,14.7c2.5,0,4.5,2.5,3.7,5.1c-0.4,1.2-1.3,2.1-2.5,2.5c-2.7,0.8-5.1-1.2-5.1-3.7
				C35.7,16.4,37.4,14.7,39.6,14.7L39.6,14.7z M32.3,26.4c-0.3,0-0.5-0.2-0.5-0.5v-8.3h2c-0.1,0.3-0.1,0.7-0.1,1
				c0,3.2,2.6,5.8,5.8,5.8c3.2,0,5.8-2.6,5.8-5.8c0-0.3,0-0.7-0.1-1h2v8.3c0,0.3-0.2,0.5-0.5,0.5H32.3z M47.4,13.2
				c0,0.3-0.2,0.5-0.5,0.5h-1.9c-0.3,0-0.5-0.2-0.5-0.5v-1.9c0-0.3,0.2-0.5,0.5-0.5h1.9c0.3,0,0.5,0.2,0.5,0.5V13.2z M47.4,13.2"/>
		</g>
	</g>
	<path class="st0" d="M18.7,37.2c-0.4,0-0.6-0.3-0.6-0.6V0.6c0-0.3,0.3-0.6,0.6-0.6c0.4,0,0.6,0.3,0.6,0.6v35.9
		C19.4,36.9,19.1,37.2,18.7,37.2z"/>
</g>
</svg>
