<?xml version="1.0" encoding="utf-8"?>
<!-- Generator: Adobe Illustrator 18.1.0, SVG Export Plug-In . SVG Version: 6.00 Build 0)  -->
<svg version="1.1" id="Layer_1" xmlns="http://www.w3.org/2000/svg" xmlns:xlink="http://www.w3.org/1999/xlink" x="0px" y="0px"
	 viewBox="0 0 80 60" 
enableBackground="new 0 0 80 60" xml:space="preserve">
<g id="Out_line">
	<path fill="#4A7871" d="M59.9,5.2c-2.7,0-5,2.2-5,5c0,0.2,0,0.4,0,0.6h0c-1.2,0-2.3,0.5-3.1,1.3L39.4,24.5c-0.3,0.3-0.3,0.8,0,1.2
		L21.5,34c-5.5,2.5-7.8,9-5.3,14.5c0.5,1.1,1.2,2.1,2,2.9c0.1,0.1,0.1,0.1,0.2,0.2c0.1,0.1,0.1,0.1,0.2,0.2c4.4,4.2,11.3,4,15.4-0.3
		c0.8-0.9,1.5-1.9,2-2.9l8.4-17.9c0.3,0.3,0.8,0.3,1.2,0L58,18.2c0.8-0.8,1.3-1.9,1.3-3.1v0c0.2,0,0.4,0,0.6,0c2.7,0,5-2.2,5-5
		S62.6,5.2,59.9,5.2z M17.8,46.1c-0.1,0.4-0.2,0.7-0.3,1.1c-1.8-4.6,0.3-9.7,4.7-11.7l16.3-7.6l-13.8,9.6
		C21.5,39.7,18.8,43,17.8,46.1z M19.3,46.7c0.9-2.8,3.4-5.9,6.3-7.9L40,28.9L19.1,49.7C18.8,49,18.9,47.9,19.3,46.7z M20.3,50.9
		L41.1,30l-9.9,14.3c-2,2.9-5.1,5.4-7.9,6.3C22.1,51.1,21,51.2,20.3,50.9L20.3,50.9z M34.5,47.8c-2.1,4.4-7.2,6.5-11.7,4.7
		c0.4-0.1,0.7-0.2,1.1-0.3c3.1-1,6.5-3.7,8.7-7l9.6-13.8L34.5,47.8z M57.6,15.1c0,0.7-0.3,1.4-0.8,1.9L45,28.8L41.2,25L53,13.2
		c0.5-0.5,1.2-0.8,1.9-0.8c0.2,0,0.4,0,0.6,0.1c1,0.2,1.8,1,2,2C57.6,14.7,57.6,14.9,57.6,15.1z M59.9,13.5c-0.3,0-0.7-0.1-1-0.2v0
		c-0.4-0.9-1.2-1.7-2.1-2.1h0c-0.6-1.7,0.4-3.6,2.1-4.2s3.6,0.4,4.2,2.1s-0.4,3.6-2.1,4.2C60.5,13.4,60.2,13.5,59.9,13.5z"/>
	<path fill="#4A7871" d="M59.9,7.7c-1.4,0-2.5,1.1-2.5,2.5s1.1,2.5,2.5,2.5c1.4,0,2.5-1.1,2.5-2.5C62.3,8.8,61.2,7.7,59.9,7.7z
		 M59.9,11c-0.5,0-0.8-0.4-0.8-0.8s0.4-0.8,0.8-0.8s0.8,0.4,0.8,0.8C60.7,10.6,60.3,11,59.9,11z"/>
	<path fill="#4A7871" d="M18.6,51.8c-0.1-0.1-0.1-0.1-0.2-0.2l0,0C18.5,51.7,18.5,51.7,18.6,51.8z"/>
	<path fill="#4A7871" d="M18.4,51.6L18.4,51.6c-0.1,0-0.1-0.1-0.2-0.2C18.3,51.5,18.3,51.6,18.4,51.6z"/>
</g>
</svg>
