<?xml version="1.0" encoding="utf-8"?>
<!-- Generator: Adobe Illustrator 18.1.0, SVG Export Plug-In . SVG Version: 6.00 Build 0)  -->
<svg version="1.1" id="Layer_1" xmlns="http://www.w3.org/2000/svg" xmlns:xlink="http://www.w3.org/1999/xlink" x="0px" y="0px"
	 viewBox="0 0 80 60" enable-background="new 0 0 80 60" xml:space="preserve">
<g>
	<path fill="#4A7871" d="M58,5.3H22c-2.4,0-4.3,1.9-4.3,4.3v40.8c0,2.4,1.9,4.3,4.3,4.3h36c2.4,0,4.3-1.9,4.3-4.3V9.6
		C62.3,7.3,60.4,5.3,58,5.3z M20.6,9.6c0-0.8,0.6-1.4,1.4-1.4h36c0.8,0,1.4,0.6,1.4,1.4v5.7H20.6V9.6z M59.4,50.4
		c0,0.8-0.6,1.4-1.4,1.4H22c-0.8,0-1.4-0.6-1.4-1.4V18.1h38.9V50.4z"/>
	<path fill="#4A7871" d="M49.5,10.3h-2.8c-0.8,0-1.4,0.6-1.4,1.4s0.6,1.4,1.4,1.4h2.8c0.8,0,1.4-0.6,1.4-1.4S50.3,10.3,49.5,10.3z"
		/>
	<path fill="#4A7871" d="M57.1,10.3h-2.8c-0.8,0-1.4,0.6-1.4,1.4s0.6,1.4,1.4,1.4h2.8c0.8,0,1.4-0.6,1.4-1.4S57.9,10.3,57.1,10.3z"
		/>
	<path fill="#4A7871" d="M26.2,35c0,7.6,6.2,13.8,13.8,13.8c7.6,0,13.8-6.2,13.8-13.8c0-0.4,0-0.7,0-1.1l0,0
		c-0.6-7.1-6.5-12.7-13.7-12.7c-7.2,0-13.1,5.6-13.7,12.7c0,0,0,0,0,0C26.3,34.2,26.2,34.6,26.2,35z M40,45.9
		c-5.8,0-10.5-4.5-10.9-10.2c0.3,0.1,0.6,0.3,0.9,0.5c0.8,0.5,1.9,1.2,3.8,1.2s3-0.6,3.8-1.2c0.7-0.4,1.2-0.7,2.3-0.7
		s1.6,0.3,2.3,0.7c0.8,0.5,1.9,1.2,3.8,1.2c1.9,0,3-0.6,3.8-1.2c0.3-0.2,0.6-0.4,0.9-0.5C50.5,41.4,45.8,45.9,40,45.9z M40,24.1
		c5.3,0,9.7,3.7,10.7,8.7c-1,0.2-1.6,0.6-2.2,1c-0.7,0.4-1.2,0.7-2.3,0.7s-1.6-0.3-2.3-0.7c-0.8-0.5-1.9-1.2-3.8-1.2
		c-1.9,0-3,0.6-3.8,1.2c-0.7,0.4-1.2,0.7-2.3,0.7c-1.1,0-1.6-0.3-2.3-0.7c-0.6-0.3-1.2-0.8-2.2-1C30.3,27.8,34.7,24.1,40,24.1z"/>
</g>
</svg>
