<?xml version="1.0" encoding="utf-8"?>
<!-- Generator: Adobe Illustrator 18.1.0, SVG Export Plug-In . SVG Version: 6.00 Build 0)  -->
<svg version="1.1" id="Layer_1" xmlns="http://www.w3.org/2000/svg" xmlns:xlink="http://www.w3.org/1999/xlink" x="0px" y="0px"
	 viewBox="0 0 80 60" enable-background="new 0 0 80 60" xml:space="preserve">
<path id="XMLID_2_" fill="#4A7871" d="M60.2,30.1V29c0-2-1-3.8-2.6-4.8V12.3c0-3.1-2.5-5.7-5.7-5.7H28c-3.1,0-5.7,2.5-5.7,5.7v11.9
	c-1.6,1-2.6,2.8-2.6,4.8v1.1C18.2,30.5,17,32,17,33.7v12.7c0,2,1.6,3.6,3.6,3.7v1.5c0,0.9,0.7,1.7,1.7,1.7c0.9,0,1.7-0.7,1.7-1.7
	v-1.5h32.2v1.5c0,0.9,0.7,1.7,1.7,1.7s1.7-0.7,1.7-1.7v-1.5c2-0.1,3.6-1.7,3.6-3.7V33.7C63,32,61.8,30.5,60.2,30.1z M25.7,12.3
	c0-1.3,1-2.3,2.3-2.3H52c1.3,0,2.3,1,2.3,2.3v10.9h-2.2l-5.4,0h1.4v-2.9c0-2.1-1.7-3.7-3.7-3.7h-9c-2.1,0-3.7,1.7-3.7,3.7v2.9h-5.9
	V12.3z M44.8,20.3v2.5c0,0.2-0.2,0.4-0.4,0.4h-9c-0.2,0-0.4-0.2-0.4-0.4v-2.5c0-0.2,0.2-0.4,0.4-0.4h9
	C44.6,19.9,44.8,20.1,44.8,20.3z M23.1,29c0-1.3,1.1-2.4,2.4-2.4h29c1.3,0,2.4,1.1,2.4,2.4v1H23.1L23.1,29z M59.7,46.4
	c0,0.2-0.2,0.4-0.4,0.4H20.7c-0.2,0-0.4-0.2-0.4-0.4V33.7c0-0.2,0.2-0.4,0.4-0.4h38.6c0.2,0,0.4,0.2,0.4,0.4L59.7,46.4L59.7,46.4z"
	/>
</svg>
