<?xml version="1.0" encoding="utf-8"?>
<!-- Generator: Adobe Illustrator 18.1.0, SVG Export Plug-In . SVG Version: 6.00 Build 0)  -->
<svg version="1.1" id="Layer_1" xmlns="http://www.w3.org/2000/svg" xmlns:xlink="http://www.w3.org/1999/xlink" x="0px" y="0px"
	 viewBox="0 0 80 60" enable-background="new 0 0 80 60" xml:space="preserve">
<path id="XMLID_1_" fill="#4A7871" d="M65.8,30.1V29c0-2-1-3.8-2.6-4.8V12.3c0-3.1-2.5-5.7-5.7-5.7h-35c-3.1,0-5.7,2.5-5.7,5.7v11.9
	c-1.6,1-2.6,2.8-2.6,4.8v1.1c-1.6,0.4-2.8,1.9-2.8,3.6v12.7c0,2,1.6,3.6,3.6,3.7v1.5c0,0.9,0.7,1.7,1.7,1.7c0.9,0,1.7-0.7,1.7-1.7
	v-1.5h43.3v1.5c0,0.9,0.7,1.7,1.7,1.7c0.9,0,1.7-0.7,1.7-1.7v-1.5c2-0.1,3.6-1.7,3.6-3.7V33.7C68.6,32,67.4,30.5,65.8,30.1z
	 M20.2,12.3c0-1.3,1-2.3,2.3-2.3h35c1.3,0,2.3,1,2.3,2.3v10.9h-2.2v-2.9c0-2.1-1.7-3.7-3.7-3.7h-9c-2.1,0-3.7,1.7-3.7,3.7v2.9h-2.3
	v-2.9c0-2.1-1.7-3.7-3.7-3.7h-9c-2.1,0-3.7,1.7-3.7,3.7v2.9h-2.2V12.3z M54.3,20.3v2.5c0,0.2-0.2,0.4-0.4,0.4h-9
	c-0.2,0-0.4-0.2-0.4-0.4v-2.5c0-0.2,0.2-0.4,0.4-0.4h9C54.1,19.9,54.3,20.1,54.3,20.3L54.3,20.3z M35.5,20.3v2.5
	c0,0.2-0.2,0.4-0.4,0.4h-9c-0.2,0-0.4-0.2-0.4-0.4v-2.5c0-0.2,0.2-0.4,0.4-0.4h9C35.3,19.9,35.5,20.1,35.5,20.3z M17.6,29
	c0-1.3,1.1-2.4,2.4-2.4h40.1c1.3,0,2.4,1.1,2.4,2.4v1H17.6L17.6,29z M65.2,46.4c0,0.2-0.2,0.4-0.4,0.4H15.2c-0.2,0-0.4-0.2-0.4-0.4
	V33.7c0-0.2,0.2-0.4,0.4-0.4h49.6c0.2,0,0.4,0.2,0.4,0.4L65.2,46.4L65.2,46.4z"/>
</svg>
