<?xml version="1.0" encoding="utf-8"?>
<!-- Generator: Adobe Illustrator 18.1.0, SVG Export Plug-In . SVG Version: 6.00 Build 0)  -->
<svg version="1.1" id="Layer_1" xmlns="http://www.w3.org/2000/svg" xmlns:xlink="http://www.w3.org/1999/xlink" x="0px" y="0px"
	 viewBox="0 0 80 60" 
enableBackground="new 0 0 80 60" xml:space="preserve">
<path id="XMLID_874_" fill="#4A7871" d="M71.3,30.1V29c0-2-1-3.8-2.6-4.8V12.3c0-3.1-2.5-5.7-5.7-5.7H17c-3.1,0-5.7,2.5-5.7,5.7
	v11.9c-1.6,1-2.6,2.8-2.6,4.8v1.1c-1.6,0.4-2.8,1.9-2.8,3.6v12.7c0,2,1.6,3.6,3.6,3.7v1.5c0,0.9,0.7,1.7,1.7,1.7s1.7-0.7,1.7-1.7
	v-1.5h54.4v1.5c0,0.9,0.7,1.7,1.7,1.7c0.9,0,1.7-0.7,1.7-1.7v-1.5c2-0.1,3.6-1.7,3.6-3.7V33.7C74.1,32,72.9,30.5,71.3,30.1z
	 M14.6,12.3c0-1.3,1-2.3,2.3-2.3H63c1.3,0,2.3,1,2.3,2.3v10.9h-2.2v-2.9c0-2.1-1.7-3.7-3.7-3.7h-9c-2.1,0-3.7,1.7-3.7,3.7v2.9H33.3
	v-2.9c0-2.1-1.7-3.7-3.7-3.7h-9c-2.1,0-3.7,1.7-3.7,3.7v2.9h-2.2V12.3z M59.8,20.3v2.5c0,0.2-0.2,0.4-0.4,0.4h-9
	c-0.2,0-0.4-0.2-0.4-0.4v-2.5c0-0.2,0.2-0.4,0.4-0.4h9C59.6,19.9,59.8,20.1,59.8,20.3L59.8,20.3z M30,20.3v2.5
	c0,0.2-0.2,0.4-0.4,0.4h-9c-0.2,0-0.4-0.2-0.4-0.4v-2.5c0-0.2,0.2-0.4,0.4-0.4h9C29.8,19.9,30,20.1,30,20.3z M12,29
	c0-1.3,1.1-2.4,2.4-2.4h51.2c1.3,0,2.4,1.1,2.4,2.4v1H12L12,29z M70.8,46.4c0,0.2-0.2,0.4-0.4,0.4H9.6c-0.2,0-0.4-0.2-0.4-0.4V33.7
	c0-0.2,0.2-0.4,0.4-0.4h60.7c0.2,0,0.4,0.2,0.4,0.4L70.8,46.4L70.8,46.4z"/>
</svg>
