<?xml version="1.0" encoding="utf-8"?>
<!-- Generator: Adobe Illustrator 18.1.0, SVG Export Plug-In . SVG Version: 6.00 Build 0)  -->
<svg version="1.1" id="Layer_1" xmlns="http://www.w3.org/2000/svg" xmlns:xlink="http://www.w3.org/1999/xlink" x="0px" y="0px"
	 viewBox="0 0 80 60" enable-background="new 0 0 80 60" xml:space="preserve">
<g>
	<g>
		<polygon fill="#4A7871" points="40,44.8 37.2,51.3 42.8,51.3 		"/>
		<path fill="#4A7871" d="M42.8,51.7h-5.5c-0.1,0-0.3-0.1-0.4-0.2c-0.1-0.1-0.1-0.3,0-0.4l2.8-6.4c0.1-0.2,0.2-0.3,0.4-0.3l0,0
			c0.2,0,0.3,0.1,0.4,0.3l2.8,6.4c0.1,0.1,0,0.3,0,0.4C43,51.6,42.9,51.7,42.8,51.7z M37.9,50.8h4.2L40,45.9L37.9,50.8z"/>
	</g>
	<g>
		<polygon fill="#4A7871" points="38.6,8.7 20.1,51.3 22.3,51.3 40,10.4 57.7,51.3 59.9,51.3 41.4,8.7 		"/>
		<path fill="#4A7871" d="M59.9,51.7h-2.1c-0.2,0-0.3-0.1-0.4-0.3L40,11.5l-17.4,40c-0.1,0.2-0.2,0.3-0.4,0.3h-2.1
			c-0.1,0-0.3-0.1-0.4-0.2c-0.1-0.1-0.1-0.3,0-0.4L38.2,8.6c0.1-0.2,0.2-0.3,0.4-0.3h2.8c0.2,0,0.3,0.1,0.4,0.3l18.4,42.5
			c0.1,0.1,0,0.3,0,0.4C60.1,51.6,60,51.7,59.9,51.7z M58,50.8h1.2L41.1,9.2h-2.3L20.8,50.8H22l17.6-40.6c0.1-0.3,0.6-0.3,0.8,0
			L58,50.8z"/>
	</g>
</g>
</svg>
