<?xml version="1.0" encoding="utf-8"?>
<!-- Generator: Adobe Illustrator 18.1.0, SVG Export Plug-In . SVG Version: 6.00 Build 0)  -->
<svg version="1.1" id="Layer_1" xmlns="http://www.w3.org/2000/svg" xmlns:xlink="http://www.w3.org/1999/xlink" x="0px" y="0px"
	 viewBox="0 0 80 60" enable-background="new 0 0 80 60" xml:space="preserve">
<g>
	<g>
		<g>
			<path fill="#4A7871" d="M40.6,33.9h-0.1c-0.9,0-1.7-0.8-1.7-1.7c0-0.9,0.8-1.7,1.7-1.7h0.1c0.9,0,1.7,0.8,1.7,1.7
				C42.3,33.2,41.5,33.9,40.6,33.9z"/>
		</g>
		<g>
			<path fill="#4A7871" d="M60.2,33.9c-0.9,0-1.7-0.8-1.7-1.7v-19c0-0.9-0.8-1.7-1.7-1.7H24.2c-0.9,0-1.7,0.8-1.7,1.7v19
				c0,0.9-0.8,1.7-1.7,1.7c-0.9,0-1.7-0.8-1.7-1.7v-19c0-2.8,2.3-5,5-5h32.7c2.8,0,5,2.3,5,5v19C61.9,33.2,61.2,33.9,60.2,33.9z"/>
		</g>
		<g>
			<path fill="#4A7871" d="M64.2,47.3H16.9c-2.8,0-5-2.3-5-5V25.1c0-1.4,0.6-2.8,1.6-3.8c1-1,2.4-1.5,3.8-1.5
				c2.9,0.1,5.2,2.5,5.2,5.3v11.7h36.1V25.1c0-2.9,2.3-5.3,5.2-5.3c1.4,0,2.8,0.5,3.8,1.5c1,1,1.6,2.3,1.6,3.8v17.2
				C69.2,45.1,67,47.3,64.2,47.3C64.2,47.3,64.2,47.3,64.2,47.3z M17.1,23.2c-0.5,0-1,0.2-1.3,0.5c-0.4,0.4-0.6,0.8-0.6,1.4v17.2
				c0,0.9,0.8,1.7,1.7,1.7h47.2c0.9,0,1.7-0.8,1.7-1.7V25.1c0-0.5-0.2-1-0.6-1.4c-0.4-0.4-0.9-0.6-1.4-0.5c-1,0-2,1-2,2v13.4
				c0,0.9-0.8,1.7-1.7,1.7H20.8c-0.9,0-1.7-0.8-1.7-1.7V25.1C19.1,24.1,18.2,23.2,17.1,23.2C17.2,23.2,17.1,23.2,17.1,23.2z
				 M63.8,21.5L63.8,21.5L63.8,21.5z"/>
		</g>
		<g>
			<path fill="#4A7871" d="M40.5,40.2H20.8c-0.9,0-1.7-0.8-1.7-1.7v-9c0-0.9,0.8-1.7,1.7-1.7h16.3c2.8,0,5,2.3,5,5v5.6
				C42.2,39.4,41.5,40.2,40.5,40.2z M22.5,36.8h16.3v-3.9c0-0.9-0.8-1.7-1.7-1.7H22.5V36.8z"/>
		</g>
		<g>
			<path fill="#4A7871" d="M60.2,40.2H40.5c-0.9,0-1.7-0.8-1.7-1.7v-5.6c0-2.8,2.3-5,5-5h16.3c0.9,0,1.7,0.8,1.7,1.7v9
				C61.9,39.4,61.2,40.2,60.2,40.2z M42.2,36.8h16.3v-5.6H43.9c-0.9,0-1.7,0.8-1.7,1.7V36.8z"/>
		</g>
		<g>
			<path fill="#4A7871" d="M20.8,50.9c-0.9,0-1.7-0.8-1.7-1.7v-3.6c0-0.9,0.8-1.7,1.7-1.7c0.9,0,1.7,0.8,1.7,1.7v3.6
				C22.5,50.2,21.8,50.9,20.8,50.9z"/>
		</g>
		<g>
			<path fill="#4A7871" d="M60.2,50.9c-0.9,0-1.7-0.8-1.7-1.7v-3.6c0-0.9,0.8-1.7,1.7-1.7c0.9,0,1.7,0.8,1.7,1.7v3.6
				C61.9,50.2,61.2,50.9,60.2,50.9z"/>
		</g>
	</g>
</g>
</svg>
