<?xml version="1.0" encoding="utf-8"?>
<!-- Generator: Adobe Illustrator 18.1.0, SVG Export Plug-In . SVG Version: 6.00 Build 0)  -->
<svg version="1.1" id="Layer_1" xmlns="http://www.w3.org/2000/svg" xmlns:xlink="http://www.w3.org/1999/xlink" x="0px" y="0px"
	 viewBox="0 0 689.3 669.3" enable-background="new 0 0 689.3 669.3" xml:space="preserve">
<rect x="0" y="0" fill="#92B7BA" width="689.3" height="669.3"/>
<g>
	<g>
		<g opacity="0.8">
			<g>
				<path fill="#79928C" d="M395.4,261.3c0.1,0.1,0.2,0,0.4,0.1c0.1,0.1,0.2,0.2,0.3,0.3c0.1,0.1,0.2,0.2,0.3,0.1
					c0.2,0,0.2-0.2,0.2-0.4c-0.1-0.2-0.1-0.3,0-0.5c0-0.2,0-0.4-0.1-0.6c-0.1-0.1-0.3-0.2-0.4-0.4c-0.1-0.2-0.2-0.2-0.4-0.3
					c-0.2-0.1-0.4,0.1-0.5,0.2c-0.1,0.1-0.1,0.3,0,0.5c0.1,0.1,0.1,0.2,0.1,0.4c0,0,0,0.1,0,0.2
					C395.2,261.1,395.3,261.2,395.4,261.3z M399.3,259.4c0.3-0.2,1.3-0.6,1.7-0.7c0.4-0.2,0.4-0.4,0.4-0.6c0-0.2-0.3-0.6-0.6-0.8
					c-0.3-0.2-0.8-0.1-1.3-0.2c-0.4,0-1-0.7-1.2-1c-0.2-0.3-0.2-0.8-0.2-1.1c-0.1-0.3-0.3-0.4-0.5-0.4c-0.2,0-0.6,0.1-1,0.1
					c0,0-0.4,0.1-0.3,0.4c0,0.3,0.1,1,0.2,1.7c0.1,0.7,0.1,1.1,0.7,2C397.9,259.7,399,259.6,399.3,259.4z M435.3,309.3
					c0-0.1,0.3-5.2-0.6-6.1l-0.4-0.7c0,0-0.6-0.5-0.7-1c-0.1-0.5-0.1-0.7-0.3-0.7c-0.2,0-0.5,0-0.6-0.1c-0.1-0.1-1.7-0.9-1.7-1.4
					c0-0.5-1.2,0-1.2,0s-1-1.7-1.2-1.9c-0.2-0.2-1.1-1-1.1-1.3s-1.2-1-1.2-1.4c0,0-1.4-0.1-1.7-0.4c-0.3-0.3-2.6-1.8-3.7-3.6
					c-1.2-1.8-4.2-3.6-4.7-5c-0.5-1.4-3.6-4.9-3.6-4.9s-0.3,0.2-0.6-1c-0.3-1.2-0.8-1.8-0.6-2c0.2-0.2-0.1-0.7-0.1-0.9
					c0-0.2-0.3-0.2-0.5-3.3c0,0-0.2-1.1-0.6-1.6c0,0-0.8-0.5-1-1.2c0,0-0.4-2.5-0.6-2.7c-0.1-0.2-0.2-0.4-0.3-0.8
					c-0.1-0.4-0.1-0.3-0.1-0.6c0-0.3,0-0.4,0-0.7c0-0.2,0-0.3,0-0.8c0-0.4-0.2-0.4-0.3-1.1c-0.1-0.6-0.2-1.6-0.3-2
					c-0.1-0.4,0.2-0.2-0.4-1.2c-0.6-1-0.8-1.3-1-1.6c-0.2-0.3-0.1-0.2-0.3-0.5c-0.2-0.3-0.4-0.5-0.5-1.1c0,0,0-0.4-0.2-0.5
					c-0.2-0.1-0.4-0.1-0.5,0.1c-0.1,0.1-0.2,0.2-0.2,0.2l-5.9,3.5l-0.6,1.2l0,1.4l0.8,0.8l1.9,0c0,0,1.1-0.9,1.3-1
					c0.3-0.1,0.6-0.4,1.2-0.4c0.6,0,0.7-0.2,0.7-0.2l0-0.2l1.1-0.7l0.2,0l0.5-0.3l0.1,0.2l-0.5,0.3l0,0.3l-1.1,0.7l-0.3,0
					c0,0-0.2,0.1-0.4,0.2c-0.2,0.1-0.6,0-0.8,0.1c-0.2,0.1-0.6,0.2-0.8,0.4c-0.3,0.2-0.7,0.5-0.9,0.7c-0.2,0.2-0.4,0.3-0.4,0.3
					l-0.9,0l0,0.2l-1,0v0.4l1,0c0,0,0.2,4.1,0.1,4.6c-0.1,0.3-0.2,0.5,0.2,0.6c0.3,0.2,2.4,1.3,2.4,1.3l0.2-0.1c0,0,0.5,0.4,0.9,0.2
					c0.4-0.2,0.7-0.8,0.9-1.7c0.2-0.9,0.3-1.3,0.3-1.3l0.5-0.1c0,0-0.6,2.2-0.7,2.6c-0.1,0.4,0.2,0.7,0.5,0.7c0.3,0,0.8-0.4,1-0.5
					c0.2-0.1,0.2-0.1,0.2-0.1l0,0.2c0,0-1,0.6-1.3,0.8c-0.3,0.2-0.5,0.4-0.6,0.7c0,0.3-0.1,0.6-0.1,0.6l-0.6,0c0,0,0-0.3-0.2-0.7
					c-0.3-0.4-1.3-0.8-1.3-0.8l-0.1-0.2c0,0-2.1-1.2-2.4-1.3c-0.2-0.1-0.3,0-0.5,0.2c-0.2,0.2-0.4,0.5-0.9,0.6c-0.5,0.1-1,0.2-1.4,0
					c-0.4-0.2-0.4-0.2-0.4-0.2s0-0.8,0-0.9c0-0.1-0.2-0.2-0.3-0.2c-0.1,0.1-0.5,0.3-0.6,0.3c-0.1,0-0.2,0-0.2,0l-1.7,3
					c0,0-0.8-0.4-0.8-0.5c-0.1-0.1-0.2-0.1-0.1-0.3c0.1-0.1,1.5-2.8,1.7-3c0.2-0.2,0.6-0.3,0.9-0.5c0.3-0.2,0.9-0.6,0.9-1.7
					c0-1.1,0-1.8-0.2-2c-0.2-0.2-0.5,0-0.7,0.1c-0.2,0.1-0.9,0.3-0.9,0.3s-0.3,0-0.3,0c-0.1,0-0.1,0.1-0.2,0.1
					c-0.1,0-0.2,0.1-0.3,0.2c0,0.1,0.1,0.3,0,0.3c0,0.1-1.2,2.2-1.4,2.5c-0.2,0.3-0.6,0.5-0.9,0.6c-0.2,0.1-0.4,0.3-0.7,0.8
					c-0.2,0.5-0.3,0.7-0.3,0.7l-0.7-0.4c0,0,0.6-1.2,0.8-1.5c0.2-0.2,0.7-0.5,1-0.7c0.3-0.2,0.5-0.7,0.7-1.1
					c0.2-0.3,0.5-1.1,0.4-1.4c-0.1-0.3-0.5-0.7-0.6-0.7c-0.1,0-0.3,0.1-0.4,0.1c-0.2,0-0.3,0.1-0.5,0.1c-0.2,0-0.5,0-0.6,0.1
					c-0.1,0.1-0.3,0.1-0.4,0.2c-0.1,0.1-0.4,0.4-0.5,0.4c-0.1,0-0.5,0.1-0.7,0.3c-0.2,0.2-0.4,0.3-0.6,0.3c-0.2,0-0.5,0-0.8,0.1
					c-0.2,0.1-0.8,0.3-1,0.2c-0.2-0.1-0.4-0.3-0.3-0.4c0.1-0.1,0.1-0.2,0.1-0.2s1-0.3,1.3-0.4c0.3-0.2,0.6-0.3,0.8-0.3
					c0.2,0,0.5,0,0.9-0.2c0.4-0.2,0.9-0.4,1.1-0.6c0.2-0.1,0.3-0.1,0.4-0.1c0.2,0,0.6-0.1,0.8-0.2c0.2-0.1,0.6-0.2,0.5-0.4
					c0,0,0-0.1,0-0.2c0,0.1,0.1,0.1,0.1,0.2c0.3,0.3,0.6,0.3,1.1,0.1c0.2-0.1,0.3,0,0.3,0.1c-0.1,0.1-0.3,0.4-0.3,0.4l0.3,0
					c0.1-0.2,0.4-0.6,0.5-0.6c0.1,0,0.4,0,0.6-0.1c0.3-0.1,0.5-0.2,0.6-0.5c0.1-0.3,0.1-0.7,0.2-1.1c0.1-0.4,0-0.8-0.1-0.9
					c-0.1-0.2-0.7-0.7-1-0.9c-0.2-0.1-0.5-0.2-0.7-0.2c0.1,0,0.2-0.1,0.2-0.1c0-0.1,0.2-0.2,0.3-0.2c0.1,0.1,0.4,0.4,0.6,0.3
					c0.1-0.1,0-0.3-0.1-0.5c-0.1-0.2-0.1-0.6,0-0.8c0.1-0.2,0.2-0.7-0.2-0.9l-0.5-0.1c-0.1,0-0.9-0.2-0.9-0.2l-0.2-0.5
					c-0.2-0.4-0.7-0.5-0.7-0.5s-1.7-0.4-2.1-0.5c-0.4-0.1-0.6,0.1-0.6,0.1c-0.6,0.2-0.6-0.3-0.6-0.3c-0.1-0.4-0.4-0.4-0.4-0.4
					c-1,0-1.1-0.2-1.2-0.3c0-0.1-0.3-0.2-0.3-0.2l0.1-0.2c0,0,0.9-0.1,1.4-0.1c0.4,0,0.9,0.2,0.9,0.2c0.5,0.3,1.8,0.7,2.4,0.7
					c0.6,0.1,2.7,1.2,2.7,1.2c1,0.3,1.1-0.4,0.9-1.1c-0.2-0.7-0.8-0.8-0.8-0.8s-1.4-0.8-2.2-1.1c-0.8-0.3-1.1-0.3-1.5-0.3
					c-0.4,0-0.5-0.1-1-0.4c-0.5-0.3-2.6-0.3-2.6-0.3l-0.1-0.7c0,0,1.1,0,1.5-0.1c0.4-0.1,1.3,0.4,1.3,0.4s0.4,0.3,1,0.3
					c0.6,0,1.3,0.3,1.3,0.3c0.3,0,1.9,0.9,1.9,0.9c0.8,0.1,0.4-0.9,0.4-0.9c-0.3-0.9-2.4-1.5-3.3-1.6c-0.8,0-1.8-0.8-1.8-0.8
					c0-0.1,0.4-0.3,0.4-0.3c0.4,0.5,0.9,0.4,0.9,0.4c1.7,0,2.6,0.5,2.6,0.5c0.7,0.2,0.3-0.9,0.3-0.9c-0.2-0.6-0.9-0.7-0.9-0.7
					l-1.7-0.2c-0.5,0-1.7-0.1-2.2,0.6c-0.5,0.7-1.5,0.7-1.5,0.7l0.2-0.6c0.4,0,0.9-0.7,1.6-1.1c0.7-0.4,1.6-0.3,1.6-0.3
					c1.5-0.2,0.5-2,0.5-2l0.6-0.1l0.3,0.9c0,0.6,0.7,1.4,1.4,1.6c0.7,0.2,0.7,0.9,0.7,0.9c0.2,1.4,0.8,2.4,1.2,2.7
					c0.4,0.3,0.6,0.1,0.6,0.1l0.2,0.5l0.2-0.1l-0.1-0.5c0.9-0.2,0.2-1.1,0.2-1.1c-0.5-0.3-0.8-1.7-0.8-1.7s0.1-1.8-1.1-2.2
					c-1.2-0.4-1.2-1.3-1.2-1.3l1,0.1c0.1,0.5,0.6,0.8,1,0.9c0.4,0.2,0.7,1.4,0.7,1.4s0.6,1.7,1.1,2c0.5,0.3,1.3,2.3,1.3,2.3
					c0.4,1.3,0.8,1.2,1.6,1.2c0.8,0-0.4-3.2-0.9-3.8c-0.5-0.6-1.1-1.7-1.1-1.7c-0.6-3.9-5.1-3.7-5.1-3.7l0.1-0.4
					c5.7,0.2,5.8,3.4,5.8,3.6c0.1,0.2,1.1,1.2,1.3,1.3c0.2,0.1,1.1,3.8,1.1,3.8s0.7,1.8,1,2.2c0.3,0.4,1.8-0.5,2.3-0.8
					c0.5-0.3-1.1-2.6-1.3-3.3c-0.2-0.8-0.1-3.1-0.1-3.4c0-0.3-1.1-1.7-1.1-1.7s-0.9-2.6-0.9-3.2c-0.1-0.6-1.1-3.4-1.1-3.4
					c-0.6-2.4-1.2-4.8-1.2-4.8s-0.3-2.5-0.3-3.4c0-0.9-0.3-5.6,0.4-6.3c0.7-0.7,0.5-4.9,0.5-4.9s-0.7-0.1-0.2-2.8
					c0.4-2.6,3.8-12.4,3.5-14.6c-0.3-2.2-0.3-3.5-0.3-3.5s-0.5-2-0.3-2.2c0.2-0.2,0.1-1.4,0.1-2.1c0-0.7-0.4-2.8,0.4-5.4
					c0.8-2.6,1-4.5,1-4.5s1.9-9.8,3-11.4c1-1.6,1.5-14.7,0.3-24.1c0,0-1.7-3.1-2.3-4.7c-0.6-1.6-0.7-6.9-0.8-8.6
					c-0.1-1.7-0.7-9.6-0.7-9.9c0-0.3-4.2-12.5-5.8-15c-1.6-2.5-6.1-9.7-9.1-17.1c-3-7.4-9.7-23.6-9.7-23.6l-7.1-18.6
					c0,0-0.1-1.2,0.2-1.9c0.2-0.7,0-1.5-0.9-3c-0.9-1.5-1.4-3.7-1.6-5.2c-0.2-1.5-1.2-4.6-1.4-5.4c-0.2-0.8-0.6-6.8-0.4-8.9
					c0.2-2.1-0.1-5,0.6-5.8c0.8-0.8,3.3-7.2,3.2-12.2c-0.1-5,0.6-12.6,1-13.6c0.3-1,6.9-21.7,13.4-33.7c0,0,1.2-2.1,1.7-3.8
					c0.6-1.7,0.9-2.6,1.7-3.9c0.8-1.4,5.5-8.1,6.1-9.5c0.6-1.4,4.4-8.7,4.7-9.2c0.3-0.5,0.9-2,1.2-3.1c0.3-1.1,1.2-2.2,1.2-2.2
					s1.6-6.9,2.3-7.9c0.6-0.9,2.8-10.4,2.9-12.6c0.1-2.2-1.2-18.3-2.2-26.6c0,0-1.1-7.9-1.1-8.8c-0.1-0.9-1-16.3-1-17.6
					c0-1.3-1.4-11.9-1.8-14c-0.3-2.1,0.3-6.6,0.3-7.7c-0.1-1.1-2.2-11.2-2.8-12.5c-0.6-1.4-2.4-9.4-2.4-10.3
					c-0.1-0.9-1.7-5.2-2.3-6.8c-0.6-1.6-2.6-6-3.2-7.5c-0.6-1.5-2.9-5.6-3.5-6.2c-0.6-0.6-1.8-1.5-2.6-1.2c-0.8,0.3-1.7-0.2-2.3-0.2
					c-0.6-0.1-1.1,0.5-0.9,1.3c0.2,0.8,0.7,2.8,0.7,4.1c0,1.3,0.3,2,1,2.4c0.6,0.5,1.3,1.7,1.5,3.6c0.1,1.9,1.3,2.5,1.8,3.4
					c0.6,0.9,2.3,2.7,2.2,4.4c-0.1,1.7-1.2,3.1-1,3.8c0.1,0.7,1.2,1.7,2.2,2.4c0.9,0.6,1,0.8,1,1.7c0.1,0.9,0.1,1.7,0.5,2.1
					c0.4,0.4,1.2,0.7,1.3,1.5c0.1,0.8-0.2,1.6-0.8,1.7c-0.6,0-3.6,0.6-1.6,2.4c1.9,1.8,2.2,3.2-1.1,0.7c-3.3-2.5-7-8.6-7.6-9.7
					c-0.6-1.1-6-12-7.8-18c-1.7-6-1.8-10.5-2.2-12c-0.4-1.5-2.8-7.9-12.8-12.1c0,0-3.9-1.3-5.3-1.5c-1.4-0.2-2-0.4-2,0.4
					c0.1,0.8,0.4,1.6-1.2,0.1c-1.6-1.5-5.9-4.8-6.5-5.6c-0.6-0.8-4.1-3.5-4.1-3.5s-0.4-0.9-1.6-1c-1.2-0.1-2.5-0.1-2.5,0.5
					c0,0.6,0.6,1.2,1.1,1.5c0.5,0.4,1.5,1.1,0.7,1.3c-0.8,0.2-1-0.1-1.4,0.4c-0.4,0.5-0.5,1.2-0.5,1.7c0,0.5-0.6,0.4,0.8,0.7
					c1.3,0.3,1.9,0,2.5,0.1c0.6,0.2,1.3,0.3,1.7,0.7c0.3,0.4,0.6,1.6,1.8,2.1c1.2,0.5,1.1,0.7,2,1.2c0.9,0.4,1.5,1,1.5,1
					s0.7,0.5-0.1,0.6c-0.8,0.1-4.5-0.6-5.2-0.5c-0.7,0-2.4-0.9-3.2-1.3c-0.8-0.3-3.3-0.3-4.1-0.1c-0.8,0.2-2.5,0.7-2.4,1.5
					c0.1,0.8,1.6,1.1,2.8,0.9c1.2-0.2,1.6-0.1,2.4,0c0.8,0.1,0.5,0.1,1.9,0.6c1.4,0.5,1.9,1.3,2.1,1.7c0.2,0.4,1.9,2,2.3,2.3
					c0.3,0.4,1.5,0.4,2.1-0.2c0.6-0.6,2,0,2.8,0c0.8,0,0.9,0.2,2.1,0.4c1.2,0.1,2.4,0.2,2.9,0.4c0.5,0.2,2.1,1.6,2.1,1.6
					s0.3,0.9-0.9,1.1c-1.2,0.2-0.7,1.2-0.7,1.8c0,0.6,0.3,0.8,1.3,0.8c1,0,1.7-0.7,1.8,0.1c0.2,0.8,0.8,1.3,1.1,1.2
					c0.3-0.1,1.5-0.3,1,0.2c-0.5,0.5-1.2,1-2,1c-0.8,0.1-2.5,0.5-3,1.5c-0.5,1-1.2,0.9-1.2-0.2c0-1.1,0.2-1.4-0.4-1.9
					c-0.6-0.5-3.7-2.7-4.7-3.3c-1-0.6-1.9-1.7-2.3-2.2c-0.3-0.6-2.2-1.7-3.1-1.8c-0.9-0.1-5.4,0.1-6,0.3c-0.6,0.2-1.1,0.9-0.9,1.8
					c0.3,0.9,1.1,0.7,2.3,1.5c1.3,0.8,2.2,1.3,2.9,1c0.7-0.2,1-1,1.4-0.9c0.4,0.1,1.1,0.3,0.4,1c-0.8,0.7-1.1,1.2-1.9,1.2
					c-0.8,0.1-1.2,1.4-1.4,2.3c-0.2,0.9,0,3.2,2.2,4.3c2.2,1.1,2.5-0.3,3.8,0.2c1.3,0.5,1.9,0.5,3.3,1c1.3,0.5,1.5,0.4,2.1,1.7
					c0.6,1.3,1,0.4,2.1,0.7c1,0.2,2.9,1,4.3,2c1.5,1,2.9,1,3.7,1.5c0.8,0.5,3.4,2.4,4,3.7c0.6,1.4,0.3,2.8-0.8,3.2
					c-1.1,0.4-1.2,0.8-1.7,1.5c-0.5,0.7-1.4,2.4-2,3.5c-0.5,1.1-1.5,2.8-1,3.6c0.5,0.8,0.8,1.5,2.1,1.7c1.3,0.1,1.7-1,2.5-0.7
					c0.7,0.4,1.2,0.7,1.7,0.7c0.5,0,2.7,1.8,3,2.1c0.2,0.3,0.1,1.8,1.7,2.8c1.6,1,1.5,0.2,1.6,1.8c0.1,1.6-1,1.4,0.2,2.4
					c1.2,1,1.5,1.2,1.6,2.3c0.1,1.1,0.2,2.2,0.2,3.1c0.1,0.9,1,2.4,1.8,3.2c0.9,0.7,1.2,2.1,2.9,3.1c1.8,1,1.1,0.9,0.5,1.9
					c-0.5,0.9-0.7,2.5,0.2,3.3c1,0.8,1.3,1.3,1.8,2.3c0.5,1,1,2,2.3,2.2c1.2,0.1,2.2-0.4,1.8-1.1c-0.4-0.8-1-1.1-1.2-2.2
					c-0.2-1.1-0.6-2.3,0-1.8c0.5,0.5,1.1,1.1,1.4,1.1c0.3,0,0.4,1.2,0.4,2c0.1,0.8,0.6,1.8,1.1,1.9c0.5,0.2,1.5,0.6,2.4,1.1
					c0.8,0.5,2,0.9,2.9,0.7c0.9-0.2,1.7,0.1,2.2,0.9c0.5,0.8,0.6,3,2.4,6c1.8,3.1,2.2,5,2.3,6.2c0.1,1.2-1.2,4.4-1.6,5.4
					c-0.4,1-2.7,3.7-1.7,5.9c1.1,2.2,2.2,3.1,2.4,4.7c0.2,1.7,0,2.8,0.3,3.3c0.3,0.5,0.6,0.8,0.3,1.3c-0.3,0.5,0.1,1.9,0.2,2.8
					c0.1,0.9,0,4.2-0.4,4.9c-0.4,0.7-0.3,2.5-0.2,3.1c0.1,0.6,0.6,2.4,1,2.8c0.4,0.5,1.6,0.7,1.4,2c-0.1,1.3-1.1,0.8-1.1,1.8
					c0.1,1,0.6,1.4,1.4,2.8c0.8,1.5,2.5,3.6,2.7,6.7c0.2,3.1,0.8,6.5,0.8,7.6c0.1,1.1-0.9,4.5-1,5.7c-0.1,1.2-1.7,4.9-3.4,7.2
					c-1.8,2.2-1.8,3-2.3,3.4c-0.5,0.3-1.2,0.4-1.1,1.1c0,0.7-0.1,2.9-1.3,4.4c-1.2,1.5-1.9,3-2.2,3.9c-0.3,0.8-0.9,1.1-1.5,1.1
					c-0.6,0-1.6,1.3-2.1,1.7c-0.5,0.4-3.3,4.3-4.9,4.7c-1.6,0.3-3,1.2-4.4,1.7c-1.4,0.5-3.4,3.7-4.8,4.5c-1.3,0.8-3,1.9-4.7,1.6
					c-1.7-0.3-2.2,0.3-3.7,1.2c-1.5,0.9-5.5,3.9-6.6,4.8c-1,0.9-6.4,3.2-7.2,9.3c0,0,0.7,2.1,0.2,4c-0.6,1.9-0.5,2.6-0.4,4.4
					c0.1,1.8,1.6,7-0.3,10.6c-1.6,3.1-4.6,8-4.9,8.8c-0.4-0.3-2.2-1.4-0.7,2.4c0,0.3,0.3,1.9-0.5,2.2c-0.9,0.4-1.8,3-1,3.5
					c0.8,0.4,1.3,0.7,1.7-0.1c0.3-0.8,0.8-2.9,1.4-2.5c0.6,0.4,1.1,2.1,1,3.3c0,1.2,0.3,2.4,0.6,3.4c0.4,1,0.1,4,0.4,4.7
					c0.3,0.7,0.6,1,0.2,2c-0.3,1-1.2,2.4-0.1,3c1.1,0.6,2.8-1.3,3.1-0.2c0.3,1.1,0.5-0.2,0.4,2.4c-0.1,2.6-0.8,2.5,0.5,3.4
					c1.4,0.9,2.2,1.5,3.3,1.2c1.1-0.3,1.4,0.2,1.8,1.2c0.4,1,1.2,2-0.3,1.8c-1.5-0.2-1.1-0.1-2.3-0.5c-1.2-0.4-1.4-0.2-1.8,0.1
					c-0.4,0.3-1.4-0.1-1.4,0.5c0,0.6,0.1,1.5,0.9,1.6c0.8,0.1,1.2,0.6,1.5,0.9c0.2,0.3,0.6,0.4,1.1,0.2c0.5-0.1,1.6-1,1.8-0.1
					c0.2,0.9,0.6,2.4-0.4,2.6c-1,0.3-2.2,0-3.5-0.2c-1.3-0.1-2.6,0.5-2.4,1.4c0.2,0.9,0.2,2.4-0.3,2.6c-0.5,0.2-1.6,0.6-2.1,0.9
					c-0.6,0.2-2,1.4-2.8,0.5c-0.8-1-1.3-2.3-1.3-3.3c-0.1-1-0.3-2.9-2-3.2c-1.7-0.3-1.9,0.4-3,1c-1.2,0.6-2.4,2.9-3.1,4.9
					c-0.7,2.1-0.9,3.9-2.1,4.7c-1.2,0.8-1.2,0.1-1.5,1.9c-0.3,1.8,0.3,3.1-0.5,4.1c-0.8,1.1-2,0.7-1.9,3.2c0.1,2.5,0,3.7,1.8,3.1
					c1.9-0.6,2.1-1.9,4.2-2.1c2.1-0.2,3.3,0.3,4.1,0.1c0.8-0.2,2.5,0,2.1,1c-0.4,0.9-1.6,1.5-1.2,2c0.4,0.5,0.9,0.5,0.8,1.5
					c-0.1,1-0.8,1.6-0.3,2.9c0.5,1.4,2.7,1.7,2.9,2.7c0.2,1,0.3,2.2-1.3,6.6c-0.7,1.9-1,2.6-1.1,2.8c0,0,0,0,0,0.1
					c0,0.5-2,2.4-1.4,3c0.6,0.6,1.4,0,1.8,1.4c0.4,1.4,0.5,2.3,0.9,2.7c0.4,0.5,1,2.9-0.1,3.6c-1.2,0.7-1.1,1.3-1.1,2
					c0,0.7-0.8,1.8,0.5,2.7c1.3,0.9,1.8,0,2.2-0.6c0.4-0.5,1.9-0.1,2.4,0.4c0.5,0.6,1.6,0.7,3,1.6c1.4,0.9,1.7,1.5,2.3,1.4
					c0.6,0,1.5-0.1,1.8-0.1c0.3,0,1-0.2,1.5,0.5c0.5,0.7,1.1,4.3,1.1,4.9c0,0.6,1.1,0.6,1.5,2.7c0.3,2.1,0.7,1.1,1.7,2.5
					c1,1.4,1.7,1.5,2.5,1.9c0.8,0.4,2.4,1,2.4,1s-0.6,1.7-2.5,1.2c-1.9-0.6-2.5-1-3.2-0.1c-0.7,1,0.9,2.8-1,2.9
					c-1.9,0-2.6-1.3-3.4-1.7c-0.8-0.3-2.3,0-3.6-0.5c-1.3-0.5-4.5-1.7-5.2-2.8c-0.7-1.2-1.9-2.9-2.8-2.6c-0.9,0.3-1.2,0.6-1.2,1.7
					c0,1.1-0.2,2-1.4,1.8c-1.2-0.2-3.1,0.4-4.1,0.3c-1-0.1-2.1-1.4-3.3-1.3c-1.2,0.1-2.6-0.5-3.4-1.4c-0.8-0.8-2-2.3-3-2.7
					c-1-0.4-3.3-1.9-3.9-2.2c-0.5-0.4-1.5-0.9-2.4-0.5c-1,0.4-1.2,2.4-1.9,1.7c-0.6-0.7,0.4-1.3-1.7-1.2c-2.1,0.1-1.4,0.8-2.5,0.7
					c-1-0.1-0.4-0.9-2.4-0.7c-2,0.1-2.6,0-2.6,0s-1.5-1.9-2.7-4.4c-1.2-2.5-2.5-6.1-2.6-6.4c-0.1-0.3-1.3-3-2.1-3.9
					c-0.8-0.8-0.1-2.1-1-3.3c-0.9-1.2-2.5-0.9-2.9-4.3c-0.4-3.4,0.7-7.3,0.8-8.5c0.1-1.2-1.1-3.7-2.4-5c-1.3-1.3-3.9-4.7-1.9-7.2
					c2-2.4,3.8-3.6,1.8-6.6c-1.9-3.1-3.6-6.1-7.6-10.2c-4-4.1-4.7-4.8-5.9-5.9c-1.2-1.1-2.6-4.7-2.1-6.5c0.6-1.7,0.4-2.2,0.7-3.6
					c0.2-1.3,0.1-3,0.9-3.7c0.9-0.7,2-2.9,2.2-4.6c0.2-1.6-0.6-2-2-3.7c-1.3-1.7-4-2.2-5.5-4.2c-1.5-2-1.3-5.5-1.9-6.6
					c-0.6-1.1-1.5-3.4-1.6-4.6H0v660.9l354.8,8.4c0,0,0.5-16.1,0.5-19.4c0-3.3,7.5-29.9,9.5-33.8c2-3.9,4.9-11.4,4.9-11.4
					s2.7-12.5,6.6-21c3.9-8.5,7.3-27.4,11.5-33.9c0,0,5.3-10.8,5.8-11.4c0.6-0.6,11.8-13.2,19.9-12.4c0,0,6.7,0.3,6.7,1.5
					c0,0,0.2,1.2,0.4,1.5c0.2,0.2-0.1,0.4-0.1,0.4l-2.2,1c0,0,2.9,0.3,3.1-1.3c0.2-1.6-0.2-2.7,0-3.6c0.1-0.4-0.1-1.1-0.2-1.5
					c-0.1-0.7-0.5-1.4-0.7-2.1c-0.1-0.6-0.4-1-0.7-1.6c-0.2-0.5-0.5-1.2-0.8-1.7c-0.1-0.2-0.3-0.5-0.4-0.6c-0.2-0.2-0.4-0.2-0.6-0.4
					c-0.2-0.2-0.3-0.5-0.4-0.8c-0.2-0.3-0.4-0.7-0.7-0.9c-0.1-0.1-0.1,0.5-0.1,0.6c0,0.1-0.1,1.1-0.2,1.1c-0.1,0.1-0.3-0.4-0.4-0.6
					c-0.1-0.3-0.1-0.8-0.1-0.8s-2.1,0.7-2.3,0.8c-0.2,0-0.4,0.3-0.4,0.3l-0.9,1.8c0,0-0.1,0.6-0.9,0.7c-0.7,0.1-0.7,0.1-1.1,0.5
					c-0.4,0.4-0.6,0.4-1.4,0.4c-0.7,0-0.8-0.1-0.3-0.7c2.9-4.1,4.1-3.8,4.3-5.3c0.2-1.6,0.6-2.1,1.2-2.7c0.6-0.6,0.3-1.1,0.3-1.2
					c0-0.1,0-0.3,0.1-0.8c0.1-0.5,0.7-1.1,1-1.4c0.5-0.5,1.1-0.9,1.5-1.5c0.2-0.3,0.4-0.5,0.8-0.7c0.5-0.3,1.1-0.3,1.5-0.8
					c0.2-0.2,0.3-0.4,0.5-0.7c0.2-0.2,0.4-0.5,0.6-0.7c0.1-0.1,0.3-0.2,0.5-0.3c0.1-0.1,0.2-0.1,0.2-0.2c0.1-0.1,0.1-0.1,0.2-0.2
					c0,0,0,0.1,0,0.1c0.1-0.2,0.1-0.4,0.2-0.4c0.4-0.3,0.6-0.2,0.7-0.1c0.1,0.1,0.4,0.2,0.5,0.2c0.1,0,0.4,0.3,0.6,0
					c0.3-0.4,0.6-0.7,0.9-0.7c0.3,0,0.3,0.2,0.6,0.2c0.3,0,0.7-0.1,1.1-1.4c0.3-1.3,0.8-1.7,0.8-1.7s0.4-0.8,0.1-1.3
					c-0.3-0.5-0.3-0.9-0.5-0.6c-0.2,0.3-0.7,1.4-1.1,1.2c-0.4-0.1-1.7-0.4-1.9-0.6c-0.2-0.2-0.7-0.3-0.9-0.3c-0.2,0-0.6,0.6-0.9,0.6
					c-0.2,0-0.7-0.1-0.8,0c-0.1,0.1-0.1,0.4-0.4,0.4c0,0-1.3,0.1-3.4,1.1c-2.1,1-2.6,1.3-4.4,1.2c-1.8-0.2-6.5-1.6-7.4-7.6
					c0,0,0-1.1,0-1.8c0-0.7-0.8-2.1-1.6-2.3c-0.7-0.2-2.1-1.1-3.4-2.3c-1.3-1.2-2-1.9-2.1-2.1c-0.1-0.2-3.7-2.5-3.7-6.6
					c0,0-0.2-0.8-0.4-0.2c-0.2,0.6-0.1,6.1-0.3,6.5c-0.2,0.4-2.4,2.8-2.5,3c0,0.2,0,0.6,0.1,0.7c0.1,0.1,0.5,0.7,1,0.4
					c0.5-0.4,0.6-0.4,1.1-1.1c0.5-0.7,2.4-1.6,3.4,1.1c1,2.7,2.7,3.4,2.7,3.4s1.9,1.9,2.2,3.8l-0.6,0.1c0,0-1.5,2-2,1.9
					c-0.5-0.1-0.7-0.3-0.9-0.5c-0.1-0.2-3.5-1.8-3.7-1.8c-0.2,0-1.8-1.5-2-1.5c-0.2,0-2.6-0.3-2.9,0c-0.3,0.2-2.2,1.7-1.7,3.8
					c0,0,0.4,2.3,0.1,2.5c-0.2,0.2-2.2,0.4-1.2,3.7c0,0,1.9-0.1,1.7,3.7c0,0-1.3,1.9-1.3,2.3c0,0.4,0.4,1.1,0.4,1.1s0.5,2.3-3.3,7
					c0,0,0.2,0.5,0,0.8c-0.2,0.3-1.6,1.1-1.6,1.2c0,0.1-1.6,0-1.9,1.7c0,0-8.9,0.5-10.5-0.7c-1.6-1.2-2.7-3.3-3.6-3.3
					c-0.9,0-2.4-2.3-3-3.3c-0.6-1.1-0.8-3-3.3-3.2c0,0-2.4-3.1-2.5-4.1c0-1-0.1-3.2-1-4.2c-0.9-1-1.3-0.8-1.4-1.2
					c-0.1-0.4-0.6-2-1.2-2.4c-0.6-0.3-1.7-1.3-1.7-1.3s-0.6-4.7,1.9-6.9c2.5-2.3,4-3.7,4.2-5.5c0,0,0.2-2.7,2-2.7
					c1.8,0,3.1-0.2,3.1-1c0-0.9,4.8-5.6,6.6-6.7c1.8-1.1,7-2.3,8.2-2.3c1.1,0,6.2,1.5,6.2,3.7c0,2.3,0.3,4.2,0.8,4.7
					c0.5,0.5,0.5,2.3,0.5,2.3s0.1,0.5,2.1,1.8c0,0,0.1,1.6,1,1.6s2.9-3,2.9-4.4c0-1.4,0-2.4-0.8-3.2l1-1.5c0,0,0.3-1-0.2-1.2
					c-0.5-0.2-2.3-1.5-2.9-2.5c-0.7-1-1.6-0.1-2.8-1.6c-1.2-1.5,0-2.3-3.4-3.2c0,0-2.6-1-2.9-3.1c0,0-0.5-1.2-0.5-1.6
					c0-0.4,0.2-0.6,0.2-1c0-0.4,0-2.8-0.4-3.1c-0.3-0.3,0-1,0.1-1.1c0.1-0.1-0.3-0.8,0-1.1c0.3-0.3,0.8-1.1,0.8-1.8
					c0-0.7,2.2-4.3,4.3-5.2c0,0,1.4-0.6,1.7,0.5c0.4,1.2,1.2,0.7,1.4-0.2c0.3-0.9,2.9-4.2,6.9-4.6c4-0.4,7.4-1,8.5-2.9
					c1.1-1.9,4-3.1,4.2-3.4c0.2-0.2,0.9-0.8,1.2-2.3c0.3-1.5,1.6-4.3,8.7-3.7c0,0,4.1,0.4,5.2,2c0,0,4.7,4,4.4,8.1
					c-0.2,4.1,0.3,4.9,2.6,5.2c0,0,1.4,0.1,1-1.9c-0.4-2-0.9-1-0.5-5.1c0.4-4.1,0.6-4,0.2-5.5c-0.5-1.5-0.2-1.4-0.5-1.6
					c-0.3-0.3-12.4-11.3-32.3-5.5c0,0-4.4,1.6-4.7,1.9c-0.3,0.3-2.1,2.5-2.4,3.6c0,0-0.9,1.4-1.9,1.9c-1,0.5-1,1.6-2.1,1.6
					c0,0-0.7,2-1.1,2c-0.4,0-1.1,0-1.1,0l-1.4,0.2c0,0,0.1-1.8-1-2.5c-1-0.7-3-0.3-2.7,0.7c0,0,0.4,0.9-0.2,0.8
					c-0.7-0.1-0.9-0.8,0-1.7c0.9-0.9,1.1-2.5,0.1-3.2c0,0-1.1,0.3-0.8-0.8c0,0,0.2-0.9,0.2-1.4c0-0.5-0.6-0.9-0.3-1.2
					c0.3-0.3,0.3-0.5,0.3-0.7c0-0.3,0.2-1.3,0.4-1.3c0.2,0,0.8,0.3,1.3-1.4c0,0-0.5,2.9,2.3,3.3c0,0,0.7,0,1.1-0.7
					c0.4-0.7,1.4-2.3,1-3c-0.4-0.7-0.9-2-0.9-2s-0.4-0.8-0.9-0.8c-0.6,0-1-0.3-0.9-0.5c0.1-0.3,0.2-0.5,0.2-0.7c0-0.3,0-1.3,0-1.3
					s0.5-0.4,0.5-0.6c0-0.2,0.1-1.6-0.2-2.2c-0.3-0.6-0.9-2.2-0.4-3.4c0.5-1.2,0.4,1.5,1.4,0.5c1-1,1.1-3.2,1.1-3.4
					c0-0.2,0.5-1.3,1.2-2c0.7-0.7,0.9-1.9,0.9-1.9s3.6-3.2,2-4.8c-1.6-1.6-2.7-1.5-3.6-4.3c0,0,0.1-1.3-0.4-1.6
					c-0.5-0.2-2-1.2-2-2.2c0-1.1-0.1-2-0.3-2.2c-0.2-0.2-0.8-1.7-0.6-3.1c0.1-1.5-0.5-1.5,0.1-2.1c0.6-0.6,0.7-0.5,0.7-1.4
					c0,0,0.6-0.6,0.6-0.8s-0.1-1.2,0.2-1.9c0.3-0.7,0.4-1.2,0.4-2.2c0-1,0.5-1.4,0.8-1.7c0.3-0.3,1.8-2.9,1.6-5.8
					c-0.2-2.9,0.5-3.6,3.2-6.6c0,0,0.8-1.2,1-1.7c0.2-0.5,2.1-2.7,3.2-3.8c0,0,0.7-0.7,0.1-1.5c0,0,0.5,0.4,0.9-0.2
					c0.5-0.6,0.8-1,1-1.2c0.2-0.2,1.4-1.4,1.6-1.9c0.2-0.5,2.9-3.6,3.9-3.6c0,0,0.5-0.1,0.5-0.5c0-0.4,0.1-0.9,1.1-1.9
					c1-1,3.9-2.8,5.8-2.8c0,0,1.5-0.2,2.1-0.7c0.7-0.5,3.9-2.5,4.5,0.3c0,0,0.5,1.3,1.4,1.1c0.9-0.2,4-3.4,4-3.4s0.2,0.5,0.3,0.7
					c0.2,0.2,1.5,0.6,2.3,0.8c0.9,0.2-0.1,0.5-0.6,0.5c-0.5,0-1.9-0.6-1.9-0.6s-0.7-0.3-1.4,0.4c-0.7,0.7-1.9,1.9-1.3,2.8
					c0,0,3.2,6,3.4,6.3c0.3,0.3,2.6,3.8,4.8,3.2c0,0,0.8-0.4,0.6-0.9c-0.2-0.5-0.5-0.7-0.7-0.9c-0.2-0.2-2.5-2.3-2.5-4.4
					c0-2.1-0.9-2.5,2.8-4.7c0,0,2.4-1.3,0-3.1c0,0-3-2.5-2.1-3.9l0.6-0.3c0,0,0.6-0.4,0.6-0.6c0-0.2-1.4-0.8-1.6-0.8
					c-0.2,0-1.3-0.1-1.6-0.3c-0.3-0.3-1.9-1.9-2-3.4c0,0-0.1-0.4-0.2-0.5c-0.1-0.1-3-2.5-3.8-3.8c0,0-0.7-0.7-1.3-0.7
					c-0.6,0-8.2,0.6-16.2-5.3c0,0-0.5-0.5-0.6-0.5c-0.1,0-0.8,0.1-0.9-1.2c0,0-0.3-0.2-0.4-0.2c-0.1,0-0.4,0.2-0.7,0.2
					c-0.3,0-4.9-2-6.3-3.8l-0.7-3.9l2.1-2.8l-4.7-3.3c0,0-2.3-1.5-0.6-14.4c0,0,0.4-2,4.4-5.5c0,0,4.1-1.1,6.4,2.4
					c2.4,3.5,3.6,8.5,8.1,8.9c0,0,0.6-0.2,0.8,0c0.3,0.3,0.2,0.8,0.8,0.9c0.6,0.1,0.9,0.5,0.9,0.5s0.7,0.2,0.8,0.3
					c0.1,0.1,0.7,0.6,1.1,0.8c0.4,0.1,0.6,0,0.8,0.2c0.2,0.2,0.8,1.2,0.8,1.1c0-0.2,2.3,0.2,2.7,0.6c0.4,0.4,1.9,1.1,2.5,1.1
					c0,0,3.1,2.2,3.9,3.5c0.8,1.3,5.1,2.3,6.1,4.3c0,0-0.3,1.4,0.1,1.8c0.4,0.4,1.3,0.6,1.3,0.9c0,0.3-0.5,1.1-0.5,1.3
					c0,0.2-0.7,0.7,0.3,0.9c0.9,0.2,1.1,0.7,1.1,0.7s-1.5,0-1.6,1.5c-0.1,1.5,0.6,0,0.6,0l0.5,0.2c0,0-0.7,0.7-0.4,1
					c0.2,0.3,0.7,0.7,0.7,0.5c0.1-0.2,0.3-1.6,0.6-1.7c0.3-0.1,0.9-0.1,1.2-0.2c2.3-0.6,3.4-3.4,3.4-3.5c0-0.2-0.9-0.3-0.9-0.4
					c0-0.1,0.6-0.4,0.8-0.7c0.3-0.2,0.3-1.8,0.3-1.8c-0.1-1.7,0.2-3.4,0.7-4.9c0.1-0.3,0.2-0.6,0.3-0.9c0-0.1,0.1-0.2,0.1-0.3
					c0.1-0.3,0-0.7,0.1-1c0.1-0.2,0.2-0.5,0.2-0.7c0-0.2,0-0.5,0-0.7c0.1,0,0.2,0,0.4,0C435.6,309.5,435.3,309.4,435.3,309.3z
					 M393.1,262.1c0.1-0.1,0.3-0.3,0.4-0.4c0,0,0,0,0,0c-0.2,0.3-0.4,0.6-0.6,0.8c0,0,0,0,0,0C392.9,262.3,393,262.1,393.1,262.1z
					 M392.4,263.4c0,0,0-0.1,0-0.1c0,0.2-0.1,0.5-0.1,0.7C392.3,263.8,392.3,263.6,392.4,263.4z M352.9,9.5
					c-0.5,0.5-0.8,0.9-1.5,0.5c-0.6-0.4-0.6-0.7-1.1-1.5c-0.5-0.9-0.7-0.9-0.5-2.1c0.1-1.2,0.9-1.9,0.9-1.9l1.1-0.3
					c0,0,0.8,0.4,0.3,0.9c-0.6,0.4-0.7,0.4-0.6,1.1c0.1,0.7,0.1,1.1,0.7,1.5c0.6,0.4,1.1,0.4,1.2,0.8C353.3,8.9,353.4,8.9,352.9,9.5
					z M357.4,4.4c-0.8,0.7-1.7,0.6-1.6,1.2c0,0.6-0.6,0.4-0.6-0.2c0-0.6,0.2-0.7-0.5-1c-0.6-0.3-0.9-0.5-0.9-0.5s-0.7-0.8,0.5-0.6
					c0,0,1.2-0.3,2.2,0C357.5,3.7,358.2,3.8,357.4,4.4z M309,109.6c-0.3,0.6-0.8,0.7-0.9,1c-0.2,0.3-0.6,0.9-1.5,0
					c-0.9-0.9-1.2-1.1-1.8-1.3c-0.6-0.2-1-0.7-0.8-1.6c0.2-0.8,0.1-1.2-0.4-1.4c-0.5-0.2-2.5-0.9-2.3-1.3c0.2-0.4,0.1-1.8,0.1-1.8
					s-0.6-1.1,0.3-0.8c0,0,1.1,0,1.2,0.5c0.1,0.5,0.6,1.5,1.1,0.9c0.5-0.5-0.1-1.5,0.5-1.1c0.6,0.4,1.1,0.3,1.3,0.7
					c0.1,0.4,0.3,0.6,0.8,0.8c0.4,0.2,1.2-0.5,1.5,0.7c0.4,1.2,0.2,1.5,0.5,2.4C308.8,108.1,309.2,109,309,109.6z M373.7,129.8
					c-0.4-0.7-0.5-1.5,0.5-2.1c1-0.7,1-1.7,0.8-2.3c-0.1-0.6,0.5-1,1.1-2.2c0.5-1.1,1.5-0.8,3.8,0c2.3,0.8,3.4,0.7,3.4,0.7
					s0.5,0.2,0.8,0.7c0.2,0.6,0.5,0.6,0.9,1.5c0.4,1,1.4,0.2,2.2,0.7c0.7,0.4,1,1.2,0.9,1.6c-0.1,0.4-0.1,0.5-1.1,0.6
					c-1,0.1-0.5,0-0.9,0.1c-0.4,0-0.4,0-0.5-0.4c-0.1-0.4-0.2-0.3-2.1-1c-1.9-0.7-0.2,0.8-0.1,2c0.1,1.2,0,0.6,0.2,2.7
					c0.1,2.1-0.4,0.1-0.9-0.3c-0.5-0.5-0.4-0.8-1.1-1.3c-0.7-0.5-0.4-0.7-1.4-1.7c-1-1-0.8-0.6-2.1-0.9c-1.2-0.2-0.5,0.3-0.5,1.3
					c0,1,0.2,1.6,1.4,3.2c1.2,1.6,1.1,2.6,0.8,3.4c-0.2,0.7-0.7,1.4-1.5,1.9c-0.8,0.5-0.5,1.3-0.4,2.3c0.1,1-0.3,1.7-1.5-0.1
					c-1.2-1.8-1.2-0.6-1.6-1.7c-0.4-1.1-0.1-1.5-0.2-2.9c-0.1-1.4-0.8-0.8-1.3-1.8c-0.6-1,0.1-1.5,0.5-2.1
					C374,131.1,374.2,130.4,373.7,129.8z M367,129c0.9-0.1,1.3,1,1.6-0.1c0.3-1.1,0.8-1.8,0.8-1.8l0.4-0.4c0,0,0.8,0.3,0.2,1
					c-0.7,0.6-0.2,0.4,0,1c0.1,0.6,0,0.9-0.3,1.4c-0.3,0.5-0.5,0.1-1,0c-0.5-0.2-0.4,0.2-1.3-0.1C366.3,129.7,366.1,129.1,367,129z
					 M355,127.3c0.3-1,0-0.9,0.7-1.5c0.7-0.5,1.6-0.1,2.1,0c0.5,0.1,1.4,0.1,1.4,0.1s1.1,1,0.6,1.2c-0.5,0.1-1.2,0.1-1.2,0.6
					c0,0.5,0.6,1.1,0.9,1.5c0.3,0.5,0.7,0.8-0.2,0.7c-0.9,0-1.4-0.2-1.8-1c-0.4-0.8-0.7-1.1-1.2-0.8
					C355.9,128.4,354.7,128.4,355,127.3z M336.3,119.9c0.4-0.4,0.4,0.2,1.2-0.5c0.8-0.7,0.6-1.1,0.8-1.8c0.2-0.6-0.5-1-0.3-1.5
					c0.2-0.5,0.4-0.6,0.9-0.8c0.5-0.1,1.3,0,0.9,0.5c0,0,0.1,0.9,0.9,1.1c0.8,0.2,0.9-0.3,1.2,0.5c0.4,0.8,0.5,1.2,0.9,1.5
					c0.4,0.4,0.6,0.6,0.9,0.6c0.3,0.1,0.9-0.3,1.7,1c0.8,1.2,1,1.2,1.2,1.9c0.3,0.7,0.2,2-0.6,1.5c-0.8-0.4-1-0.4-1.6-0.4
					c-0.6,0-0.3,0-1.1-0.5c-0.8-0.5-1.5-0.5-2.2-0.4c-0.7,0-1.8-0.9-2.4-1.2c-0.6-0.4-1.1-0.1-1.5-0.2
					C336.8,121.4,336,120.3,336.3,119.9z M372.9,152.7c-0.4,0.5-0.8,0.8-2.1,0.9c-1.4,0.1-2.4-0.4-3.6-1.3c-1.2-0.8-1.4-0.6-2.5-1.6
					c-1.1-1-1.6-1.1-2-2.3c-0.4-1.2-0.3-1.9-0.4-2.7c-0.1-0.8-0.3-1.4-1.6-1.2c-1.3,0.2-1.1-1.1-2.2,1c-1.2,2.1-0.2,1.9-1.6,2.6
					c-1.5,0.7-2.2,1.4-2.4,1.9c-0.2,0.5-0.1,1.9,0.1,3.3c0.2,1.4,0.2,3.1,0.8,4.3c0.6,1.2,1.5,1.9,2.4,3c0.9,1.1,1.8,3.6,2.9,4.5
					c1.2,0.9,1.9,2.1,1.1,2.1c-0.9,0.1-1.5,0.1-1.7-1.1c-0.2-1.2-0.2-1.8-2.1-2.5c-1.9-0.7-2.8-0.5-4.3-1.5c-1.5-1-3.7-3.3-4-4.3
					c-0.3-1.1-1.5-2.2-2.1-3.7c-0.6-1.5-0.8-2-1.6-2.7c-0.7-0.6-1.3,0-0.9-2.2c0.4-2.2-1.2-2.4-1.2-2.9c0-0.5-1-2.4-1-3.1
					c0-0.7-0.9-1.4-1.5-1.8c-0.6-0.4-0.4-0.1-1.8-2.1c-1.4-2-0.8-2.5-1.8-2.6c-1-0.1-1.8-0.3-2.8-1.4c-1-1.1-0.8-1.1-1.8-1.3
					c-1-0.2-0.5-0.5-1.4-0.7c-0.8-0.2-1-0.5-1.9-0.5c-0.9,0.1-1.8-1.2-1-1.4c0.8-0.3,0.9-0.4,1-1.5c0.1-1.1,0.5-0.9,0.8-1.1
					c0.3-0.1-0.3-1.2,0.9-0.8c1.2,0.4,1.2-0.3,1-1.3c-0.2-1,0.1-0.5-0.5-1.1c-0.5-0.6-0.7-1.1,0.5-0.7c0,0-0.2,0.1,0.7,0.3
					c0.9,0.1,2.3,0,3.5,0.4c1.2,0.3,2.2,0.5,3.7,2.3c1.4,1.7,1.7,1.2,2.7,2.2c1,1,1.4,1.2,1.9,1.8c0.5,0.6,0.9,0.1,0.9,1.6
					c0,1.5-0.6,2-0.4,2.7c0.1,0.7,0.2,1.4,0.7,2.1c0.5,0.7,0.6,0.9,0.6,1.9c0.1,1,0.1,0.9,0.6,2.3c0.5,1.4,0.4,0.9,1.2,3
					c0.9,2.1,0.5,2.5,2.2,3.1c1.7,0.6,2.6,1.1,3.4,0.3c0.8-0.9,1.3-0.7,1.2-1.9c-0.1-1.2-1-0.7-0.4-2.6c0.6-1.8,0.4-1.7,0.7-3.2
					c0.3-1.4-0.1-3.2,0.9-3.6c1-0.4,2.6-1.9,3.9-1.6c1.3,0.3,1.9,0.3,2.5-0.2c0.6-0.4,0.2-1.2,1.4-0.9c1.2,0.3,1.9,1.1,2.1,2
					c0.3,0.9-0.7,0.5,1.2,2.3c1.8,1.8,2.5,2.1,2.5,3.2c0.1,1.1,0.7,2.4,1.3,2.6c0.6,0.3,0.1,1.5,0.4,3.6
					C372.7,150.7,373.3,152.1,372.9,152.7z M385.9,178.1c-0.9,1.3-0.8,1.9-1.6,1.4c-0.8-0.4-2.8-2.1-4.7-2.7
					c-1.9-0.6-2.3-0.7-3.1-2.2c-0.8-1.4-0.6-1.6-1.5-1.8c-0.9-0.2-3-1.6-1.1-2.5c1.9-0.9,1.7,0.5,3.3-1.2c1.6-1.7,1.8,0.3,2.2-3.1
					c0.4-3.3,0.1-3.5,0.7-4.1c0.7-0.6,0.6-2,0.5-2.7c0-0.7,2.4-0.9,2.6-0.6c0,0,2,2.2,2,3.9c0,1.7-0.2,2,0.8,3.4
					c1,1.4,1.4,1.7,1.4,2.3c-0.1,0.6,0.6,0.9,0.4,1.7c-0.1,0.8-0.7,0.5-0.6,2c0.1,1.5,0.5,2.7,0.3,4.2
					C387.4,177.7,386.8,176.9,385.9,178.1z M523.9,321.2c0-0.2,0.3-1.3-0.2-1.8c-0.5-0.5-1,1-1,1l-0.1,0.8c0,0-1.2,0.9-1.8,0.9
					c-0.7,0-1,0.2-1.3,0.6c-0.3,0.3-1.5-0.1-1.5-0.1l-0.4,0.1c0,0-2.4-0.1-3.5-1.2c0,0-0.3-0.1-0.3,0.5c0,0-0.9,0.6-3.3-2.2
					c-2.4-2.7-1.4-3.6-3.4-3.6c0,0,0.2-0.5-0.4-0.3c-0.7,0.3-0.9,0.3-0.9,0.5c0,0.2-0.2,0.7-1.6-0.3c0,0-1.1,0.2-1.6,0.7
					c-0.5,0.5-0.5,0.8-0.7,0.8c-0.2,0-0.2,0.4-0.2,0.4s-0.2,0.3-0.4,0.5c-0.1,0.1-0.4,1.1-0.8,1.5c-0.4,0.4-2,1.2-2,1.2
					s-3,1.9-3.5,1.9c-0.5,0-0.6-0.1-1.1-0.1c-0.5,0-2.6,0.3-3,0.3c-0.5,0-1.9-0.6-2.2-0.6h-2.2c-0.3,0-1.2-0.7-1.4-0.7
					c-0.2,0-0.6,0.4-1.2,0.4c-0.6,0-1.7-0.6-2.7-0.6c0,0-0.9-0.2-1.2-0.5c-0.3-0.3-3.2-2.1-3.8-2.2c-0.6-0.1-3.2-1.7-3.4-1.9
					c-0.2-0.2-0.5-0.3-0.6-0.2c-0.1,0.1,0.1,0.1-0.4,0.1c-0.4,0-1.8-1.1-1.8-1.1s-3.6-4.1-3.8-4.6c-0.2-0.5-2.1-2.8-2.5-1.7
					c0,0-1.1,0.2-1.7-0.4c-0.6-0.6-1.7-1.1-1.7-2.2c0,0-0.1-0.2-0.3,0c-0.2,0.2-0.4,0.5-0.7,0.5c-0.3,0-2-1.7-2.5-1.9
					c-0.5-0.2-0.7-0.5-1-0.5c-0.3,0-2.6,0-2.9-0.4c-0.3-0.3-0.5-0.2-0.9-0.2c-0.3,0-1.5-0.3-1.7-1.4c0,0-0.2,0-0.2,0.3
					c0,0.3-0.7,1.6-0.9,1.6c-0.2,0-1.4,0.1-1.7,0c-0.3-0.2-0.4-0.3-0.5-0.2c-0.1,0.1-0.5,0.5-0.6,0.5c-0.1,0-0.9,0-1,0
					c-0.1,0-0.1,0.5-0.8,0.5c-0.7,0-3,0.1-3,0.1s-1.1,0-2.1,0.5c-1,0.6-1.2,0.5-1.5,0.5c-0.2,0-0.8,0.3-1.1,0.5
					c-0.2,0.2-0.6,0.7-0.6,1c0,0.2,0,0.9,0,1.1c0.1,0,0.1,0.1,0.2,0.1c0.2,0.3,0,0.6,0,0.9c0,0.3,0.1,0.6,0,0.9
					c-0.2,0.5-0.5,0.9-0.7,1.4c-0.2,0.5-0.3,1-0.4,1.6c-0.2,1.2-0.3,2.5-0.4,3.8c-0.1,0.9-0.1,1.8-0.1,2.7c0,0.1,0,0.2,0,0.2
					c0,0.6-0.1,0.2-0.3,0.3c-0.2,0.1-1.5,2.2-1.5,2.4c0,0.2-1.1,0.6-1.5,0.8c-0.3,0.2-0.7,0.6-0.7,0.6c-0.1,0.4-0.2,1,0.4,0.7
					c0.6-0.3,1.5-0.4,2.6,0.2c1,0.6,4.4,0.3,4.7-0.2c0.3-0.5,0.5-1.3,0.4-2.6c-0.1-1.2,0.3-0.7,0.3-1.4c0-0.7,1.1-2.2,1.9-2.5
					c0.8-0.3,0.9-0.3,1.4-1.2c0,0,1.5-0.3,2.3,0.1c0.8,0.4,1.1,0.4,1.3,0.4c0.2,0,0.7,0,0.9,0c0.2,0.1,0.7,0.8,1.7,0
					c0,0,1.6,0.4,1.5-0.4c0-0.8-0.3-2.1-0.3-2.7c0,0-0.1-0.5-0.3-0.6c-0.2-0.2-1.4-1.3-1.4-1.8c0-0.6,0.4-2,0.6-1.8
					c0.3,0.2,0.4,0.5,0.7,0.6c0.3,0,1.1,0.3,1.1-0.3c0.1-0.7,0-0.9-0.3-1c-0.3-0.1-0.9-0.2-1.2-0.3c-0.3-0.1-0.3-0.4-0.6-0.4
					c-0.3,0-1.5-0.1-1.6-0.2c-0.1-0.1,0.2-0.6,0.9-0.7c0.8-0.1,3.6-0.1,3.9,0.3c0.3,0.4,0.9,0.8,1.5,1c0.6,0.2,2.2,0.1,2.8,0.2
					c0.6,0,1.7,0.1,2,0.5c0.3,0.4,2.1,3.7,2.1,3.7s0.5,0.1,0.8,0.1c0.3,0,0.6-0.6,0.8-0.6c0.3,0,0.9,0.1,1.3,0.4
					c0.4,0.3,3.2,2.4,3.4,2.8c0.3,0.4,0.8,1.4,1.4,1.9c0.6,0.5,0.6,1,0.8,1.4c0.2,0.4,1.4,1.9,1.8,2.3c0.5,0.3,0.3,0.9,1.7,1.5
					c1.4,0.6,2.7,1.1,2.9,1.2c0.2,0.1,1.4,0.2,1.7,0.3c0.3,0,2.7-0.1,2.8,0.8c0,0.9,0.8,0.7,1.8,0.8c0,0,2,0.7,1.9,2.3l0,0.5H483
					c0,0-1-1.8-1.1-1.8c-0.2,0-0.6,0.6-0.7,0.7c-0.1,0.1-2.5,0.2-2.5,0.2s0.2-0.9-0.1-0.9c-0.3,0-2.5,1.1-2.1,2.1
					c0,0,0.4,2.6,0.1,3.7c-0.3,1-0.8,0.9-0.9,0.9c-0.1,0-1,0.5-1.1,0.7c-0.1,0.3-0.6,0.8-0.6,0.8s-0.4,0.1-0.4,0.4
					c0,0.2,0.3,0.4,0.3,0.5c0,0.1-0.9,2.5-1.1,2.5c-0.1,0.1-1.2,0.5-1.3,1c-0.1,0.5-0.9,1.6-1,1.8c-0.1,0.3-0.4,1.1-0.5,1.2
					c-0.1,0.1-1,1.6-1,1.9c0,0.4,0.1,0.8-0.1,1.3c-0.2,0.4-0.7,0.9-0.7,1.1c0,0.2,0.3,1.4,0.3,1.8c-0.1,0.3-0.3,0.7-0.3,1
					c0,0.2,0.2,1.4,1.4,1.4c1.2,0,2.1,0.5,2.5,0.1c0.4-0.4,2.5-5,2.9-5.3c0.4-0.3,0.8-0.4,1.8-2.6c1.1-2.2,2.3-2.1,2.3-2.1
					s1.2-0.4,1.4-1c0,0,0.4-0.1,0.5-0.3c0.1-0.2,1.3-1.2,1.4-2.2c0.2-1,1.3-3.6,1.2-4.3c0,0,0.6-0.8,1-1.2c0.3-0.3,0.3-0.5,0.6-0.5
					c0.3,0,0.6,0.4,0.7,0.4c0.1,0,0.9,0.2,1.5,0.2c0.6,0,4.4,0.1,4.8-0.5c0.4-0.6,0.2-1.1,0.7-1.3c0.4-0.2,1.3-1,1.1-2.2
					c-0.2-1.2,0.5-2.1,0.9-2.1c0.3,0,0.3,0.4,0.8,0.3c0.5-0.1,1.4,0,1.8-1c0,0,5.7,1.1,5.9-3.4c0,0,2-2.8,4.9-0.9
					c0,0,1.3,1.2,1.3,1.4l-1.6,1.5l-2.4,0l-0.1,1.3c0,0,0.3,0.5,0.7,0.6c0.4,0.1,1.1,0.7,1.2,1c0.1,0.3,0.1,0.9,0.3,1
					c0.2,0.1,0.3,0.9,0.2,1c0,0.1-2.1,1.9-1.9,4.3c0,0-0.5,0.8-0.4,1c0,0-1,1.8-3.5,4c-2.5,2.1-5.5,6.3-5.2,10.6
					c0,0-2.9,5.5-3.8,6.4c-0.8,0.9-1.7,2.1-1.7,3.8c0,0-1.3,3.9-3.2,6c-1.9,2.1-3.1,3-3.4,3c-0.3,0-1-0.2-1.2-0.9
					c-0.1-0.7-2.3-4.1-4.9-5.3c-2.6-1.2-5.3-3.9-7-7.7c0,0-2.3,1.2-2.5,1.2c-0.2,0-0.6,0.2-0.6,0.3c0,0.1,0.2,1.3,0.3,1.5
					c0.1,0.2-1.3,3.6,0,6c0,0,1.2,3-0.1,5.4c0,0-0.6,1.3-0.6,1.4s0.6,0.7,0.7,0.9c0.1,0.1,0.4,0.9,0.8,0.8c0.4,0,0.9-0.1,1.1,0.1
					c0.2,0.1,0.6,0.4,0.8,0.2c0.2-0.2,1.2-0.2,1.3-0.5c0.1-0.3,1-1.5,1.2-1.5c0.3,0,0.7,0.4,0.7,0.7c0,0.3,0.1,0.8,0.3,0.9
					c0.2,0.1,0.8,0.7,1.3-0.5c0,0,0.6-0.3,0.9,0.2c0.3,0.5,2.5,3.6,1.9,10.4c0,0-1.6,2.5-1.6,4.4c0,0-2.3,4.9-2.6,5.4
					c-0.4,0.5-2.3,4.3-2.6,5.1c-0.3,0.9-2.6,5.3-2.7,6.1c-0.1,0.8-0.2,1.2-0.4,1.5c-0.2,0.3-0.8,1.1-0.9,1.5
					c-0.1,0.4-0.4,1.5-0.6,1.4c-0.3,0-1.2,1.4-1.2,1.5c0,0.1-0.2,1.2-0.4,1.6c-0.2,0.4-1.4,2.4-1.5,3c-0.1,0.6-0.5,2.5-1.7,4
					c-1.2,1.5-2.8,5.6-3,7.5c-0.2,1.9-0.9,2.1-0.9,2.3c0,0.2-0.1,1.3-0.1,1.3s-1.3,3.3-1.3,3.5c0,0.1,0,1.4-0.2,1.7
					c-0.2,0.3-1.6,0.7-1.8,3.9c0,0-0.4,1.2-0.5,1.5c0,0.3-0.2,1.2-0.3,1.6c-0.1,0.4-0.8,1.2-0.8,1.7c0,0.5-0.7,2.5-0.9,3.3
					c-0.2,0.8-0.8,1.3-0.8,1.5c0,0.2,0,0.5-0.2,0.5c-0.1,0-0.8-0.4-1.2-0.3c-0.4,0.1-1.7,0.7-1.9,1.1c-0.2,0.3-4,0.8-4,0.8
					s-0.7,0.3-1.2,0c-0.4-0.3-2.9-1.5-2.9-1.5s-1.4-0.6-1.9-0.7c-0.5,0-0.5,0-0.7-0.3c-0.2-0.3-0.5-1.9-0.7-2
					c-0.2-0.1-0.5-0.3-0.5-0.6c0-0.4,0.8-0.9,0.6-1.7c-0.2-0.8-0.9-0.9-0.9-0.9s-0.3-1.8-0.4-2.3c-0.1-0.5-1.6-1.8-2.2-1.7
					c-0.6,0.1-2.3,0.1-2,5.4c0.2,5.3,2.6,6.4,2.9,6.5c0.3,0,1,0.7,0.7,1.1c-0.3,0.5-1.2,1.6-1.2,1.6s-0.4,1.2,0,1.9
					c0.4,0.7,2.1,3,2.1,3.2c0,0.2,0.5,0.8,0.9,1.2c0.4,0.3,0.7,0.4,0.7,1.1c0,0.7-0.1,1,0.1,1.2c0.2,0.2,1.8,2.1,2,2.1
					c0.1,0,0.5,0.1,0.5,0.2c0.1,0.1,0.7,0.5,0.7,0.9c0,0.3,0.9,1.1,0.9,1.3c0,0.2,0.1,4.5-1.3,5.7c-1.4,1.2-0.7,1.2-0.7,1.3
					c0,0.2,0.4,0.8,0.4,1.2c0,0.4-0.2,0.6-0.4,0.7c-0.2,0.1-1.1,0.2-1.5,3.1c0,0-1.2,0.6-0.7,2.5c0.5,1.9,0.9,2.6,0.9,2.8
					s0.1,0.5,0.2,0.6c0.1,0.1,1.7,1.8,1.7,3.3c0,0,0.2,0.9,0.8,0.9s0.6,0.2,0.6,0.2c0,0.1-0.3,1-0.2,1.2c0.1,0.2,0.5,0.5,0.5,0.8
					c0,0.3-0.3,1-0.1,1.4c0.1,0.4,0.5,1.9,0.5,2.2c-0.1,0.3,1.2,7.3,0.4,11.8c0,0-0.1,0.2-0.4,0.2c-0.3,0-0.8,0.8-0.8,0.9
					c0,0.1,0,0.4,0.1,0.4c0.1,0,1,0,1,0.1c0,0.1,0,1.8-0.1,1.9c-0.1,0.2-0.2,0.8-0.2,1.2c0,0.4,0,1.3,0,1.5
					c-0.1,0.2-0.1,0.4-0.1,0.4s0,0.6,0,0.8c-0.1,0.2-1,2-1,2.2c0,0.3-0.1,0.5,0.5,1c0,0,1,1.3,1.2,0.7c0.2-0.6,0.4-0.7,0.4-0.7
					s0.6,0.1,0.7,0.4c0.1,0.3,1.1,1,1.6,1.6c0.4,0.5,1.7,2.4,2.1,3c0.3,0.6,0.8,1,1.1,0.8c0.3-0.2,0.7-0.4,1.1-0.2
					c0.4,0.1,1.8,1.6,1.9,2.6c0,0-0.4,1.9-0.8,1.6c-0.4-0.2-0.6-0.3-0.8-0.2c-0.2,0.1-0.6,0.6-0.6,0.8s0.2,0.8-0.1,0.7
					c-0.3-0.1,0-0.6-0.3-0.7c-0.3-0.1-2.5,0-2.9-0.3c-0.4-0.3-0.3,0.3-0.3,0.3c0,0.1,0.5,1.1-0.2,1.1c-0.7,0-1.7,0.7-2.1,0.8
					c-0.4,0.2-1.3,0.6-2.1,0.4c-0.8-0.2-2.4-0.8-1.9-1.9c0.5-1.1,0.3-0.6,0.3-0.8c0-0.1,0.5-1.7,0.5-2.1c0-0.4,0.1-2.4,0.3-2.7
					c0.2-0.3,0.7-2.8,0.9-2.8c0.2,0,0.5,0.1,0.6,0c0,0,0.5-0.5,0.1-0.9c-0.4-0.4-2.1-2.2-2.3-2.2c-0.1,0-1.1-0.4-0.7,0.5
					c0.3,0.9,1,0.9,0.8,1.5c-0.2,0.6-1.1,2.2-1.1,2.4c0,0.2-0.1,1.3-0.2,1.7c-0.1,0.4,0.1,1.4-0.2,1.7c-0.2,0.3-1,1.2-1.2,1.2
					c-0.2,0-1.4-0.1-1.8-0.1c-0.4,0-1.1,0.1-1.5-0.2c-0.4-0.3-1.4-0.6-1.5-1.2c0-0.5-0.4-1.6-0.5-1.6c-0.1,0-0.3,0.1-0.5-0.2
					c-0.2-0.3-1.6-2.2-1.8-2.3c-0.2-0.1-0.3,0-0.5-0.2c-0.2-0.2-1.4-0.8-1.8-0.7c-0.4,0.1,0-0.7,0-0.7s0.7-0.1,0.7-0.4
					c0-0.2-0.9-0.9-1.4-1c0,0-0.1-1.3,0.2-1.6c0.4-0.3,1.1-0.3,1.4-0.3c0.3,0,1.5,0.4,1.1-0.5c0,0-0.6-0.5-0.9-1
					c-0.2-0.5-0.8-0.3-0.9-0.3c-0.1,0-1.1,0.2-1.4,0.1c-0.3-0.2-0.9-1-1.3-1.2c-0.4-0.2-0.2-2.4,0-2.7c0.1-0.3-0.2-0.9-0.7-0.8
					c-0.5,0.1-1.5,0.9-1.5,1c0,0.1-0.9,0.1-1,0c-0.1-0.1-0.4-0.4-0.5-0.4c-0.1,0-0.5,0.3-0.7,0.1c-0.2-0.1-1.2-0.7-0.4-2
					c0,0,0.5-1.5,0.5-2c0-0.2,0-0.6,0-1c0,0.2,0,0.4,0,0.4c-0.3,0-1.1,0.6-1.3,0.8c-0.1,0.1-0.1,0.2-0.2,0.4
					c-0.1,0.3-0.4,0.5-0.5,0.8c-0.2,0.3-0.2,0.3-0.5,0.4c-0.3,0-0.3,0.2-0.4,0.4c-0.1,0.2-0.2,0.2-0.3,0.4c-0.1,0.1-0.2,0.2-0.3,0.4
					c0,0-0.2-0.1-0.5,0.2c-0.3,0.3-0.2,0.7-0.2,0.7c0.3,1.3,0.7,2.7,1.1,4c0.3,1,0.7,1.9,1.1,2.9c0.2,0.5,0.2,1,0.4,1.5
					c0.2,0.7,0.6,1.3,0.8,1.9c0.3,0.7,0.3,1.4,0.7,2c0.4,0.7,0.7,1.5,0.9,2.2c0.1,0.7,0.1,1.4,0.2,2.2c0.1,0.5,0,1.4,0.4,1.8
					c-0.1-0.1,0.2-1.1,0.2-1.3c0.2-0.7,0.6-0.5,1.1-0.3c0.7,0.2,1.4,0.2,2.1,0.3c0,0,3.3,0.3,4.4,2c1.1,1.8,2,1.6,2.5,2.2
					c0,0,0.1,0.4,0.2,0.6c0.2,0.2,1.1,1.4,3.3,2.5c0,0-0.2,2.4,0.6,1.2c0.4-0.6,1.1-1.2,1.1-1.2c0.8-0.2,5.5-2.2,7.9-2.2
					c2.4,0,4.1-0.4,4.3,0.5c0,0-0.3,1.1-0.1,1.3c0.2,0.2,0.2,0,0.4-0.7c0.2-0.7,1.4-2.5,1.6-2.7c0.2-0.2,0.2-0.6,0.2-0.6
					s0.4-1.4,1-2.5l0.5-1.7c0,0,0.3-0.9,0.5-1.5c0.2-0.6,0.5-2,0.3-2.1c-0.1-0.1-0.5-0.1-0.7,0c-0.2,0.2-0.5,1.7-0.6,1.7
					c-0.2,0-0.9,0.1-1.1-0.1c-0.2-0.2-1.9-0.4-3.2-2.5c0,0-0.4-1.3-0.8-1.7c-0.4-0.4-1.3-3.6-1.3-3.6s0.3-4-0.5-5.4
					c0,0-0.5-5.7,0.1-10.7c0.6-5,0.6-11.1,12.8-48.5c12.2-37.4,32.2-91,46.5-110.9c0,0,2.8-2.3,3.9-4.6c1.1-2.3,4.9-5.5,5.3-5.9
					c0.4-0.4,2.2-1.7,3.7-1.5c1.5,0.2,2-1.1,2-1.1s1-0.4,1.4,0c0.4,0.4,0.8-0.5,0.8-0.5s0.8-0.4,0.5-3.3
					C523.9,323.1,523.9,321.4,523.9,321.2z M421.7,503.8c0,0,0,0.1,0,0.1c0-0.1,0-0.2,0-0.3C421.7,503.7,421.7,503.7,421.7,503.8z
					 M436.2,309.8C436.2,309.8,436.2,309.8,436.2,309.8c-0.1-0.1-0.2-0.1-0.3-0.1C436.1,309.7,436.2,309.8,436.2,309.8z
					 M421.6,504.2c0,0,0,0.3,0,0.6c0-0.3,0-0.6,0.1-0.9C421.6,504,421.6,504.1,421.6,504.2z"/>
			</g>
		</g>
		<g>
			<path fill="#79928C" d="M515.5,54.4"/>
			<path fill="#79928C" d="M574.7,190.9c0,0,0.5,0.2,0.5,0.5c0,0.2-0.1,0.5,0,0.7c0.1,0.2,0.9,1,1,1c0.1-0.1,0.3-0.2,0.3-0.2
				c0.1,0,0.3-0.2,0.6,0c0.3,0.2,0.9,0.1,0.8,0c0-0.1,0.3,0.1,0.4,0c0.1-0.1,0.4-0.5,0.4-0.5s0-1-0.6-1.7c-0.6-0.7-1.2-0.5-1.3-0.4
				c-0.1,0-0.3-0.6-0.5-1c-0.2-0.5-0.3-0.6-0.3-0.8c0-0.2-0.3-0.5-0.3-0.6c0-0.1-1.6-4-1.6-4.1c0-0.1,0.1-0.1,0.2-0.1
				c0.1,0,0.1-0.2,0-0.3c-0.1-0.1-0.1-0.8,0-0.8c0.1,0,0.3,0,0-0.3c-0.3-0.3-1.4-1.3-1.4-1.4c-0.1-0.2,0-0.1,0-0.3
				c0-0.2-0.1-0.2-0.3-0.4c-0.2-0.2-0.7-0.9-1.1-1.1c-0.4-0.1-1.2-0.4-1.1-0.5c0.1-0.1,0.4,0,0.5,0c0.1,0-0.1-0.2-0.2-0.3
				c-0.1-0.1-0.5-0.1-0.6-0.6c-0.1-0.5,0.2-1.6,0-1.9c-0.3-0.3-1-1.2-1-1.5c0-0.3-0.1-0.5-0.2-0.8c-0.1-0.2-0.4-1.1-1.4-2.2
				c0,0-0.5-0.7-0.8-1.5c-0.3-0.7-1.2-2.5-1.2-2.5c0-0.1-0.8-1.6-0.8-1.6c0,0-1-2.2-1.5-3.2c-0.5-1-3.3-5.7-3.8-6.2
				c-0.6-0.5-0.4-1.1-0.8-1.6c-0.4-0.5-0.9-1.9-1.3-2.9c-0.3-1-0.3-1.7-1.1-2.8c-0.8-1.1-1.5-1.8-1.6-2c-0.1-0.2-0.6-0.6-0.5-1.1
				c0.1-0.5-0.1-0.9-0.1-0.9s-1.7-3-1.8-3.4c-0.1-0.4-0.3-1.1-0.7-1.4c-0.4-0.3-2.4-1.7-2.8-3.5c-0.4-1.7-0.5-1.9-0.6-2
				c-0.2-0.1-1.5-2.5-2.1-3c-0.5-0.5-2.4-3.4-2.4-4.1c-0.1-0.7,0-1.1-0.5-1.6c-0.4-0.6-0.5-0.8-0.7-1.1c-0.1-0.3-0.3-0.4-0.5-0.5
				c-0.1,0-0.5,0-0.7-0.8c-0.1-0.8-0.4-0.9-0.7-1.1c-0.3-0.2-0.7-0.9-0.9-1.4c-0.2-0.5-0.8-0.9-0.8-0.9s-0.3-0.2-0.6-1.4
				c-0.3-1.2-1.4-1.8-1.4-1.8c0,0-1.4-2-1.8-2.7c0,0-0.4-0.2-0.5-0.4c-0.1-0.2-1-0.8-1.5-1.8c0,0-0.5-0.4-0.6-0.7
				c0-0.3,0-0.4-0.1-0.5c0-0.1-0.3-0.2-0.4-0.4c-0.1-0.2-0.2-0.5-0.2-0.6c0-0.1-0.5-0.5-0.7-1c-0.2-0.5-0.5-0.7-0.5-0.8
				c-0.1-0.1-0.4-0.6-0.8-0.7c-0.3,0-0.7-0.8-0.7-1.2c0-0.4-0.2-0.4-0.3-0.4c0,0-0.5-0.4-0.5-0.6c0-0.2-0.5-0.5-0.5-0.6
				c0-0.1-1.7-2-2.2-3.7c0,0-1.5-3.5-2.1-3.8c-0.5-0.3-1.6-1.7-2.1-2.7l-0.5-0.5c0,0-0.1-0.1,0-0.3c0-0.2,0.1-1,0.1-1.2
				c0-0.3-0.4-1.1-0.4-1.1s-0.8-1.8-1.4-2.1c-0.6-0.3-1.2-0.6-1-1.1c0.3-0.5,0.4-0.8,0.3-1.1c-0.1-0.3-0.9-1.2-1-1.7
				c-0.2-0.5-1.3-2.4-1.4-2.5c-0.1-0.1-0.4-0.2-0.5-0.3c-0.1,0-0.2,0-0.2-0.2c0-0.2,0.2-0.7-0.1-1.2c-0.2-0.5-2.5-3.6-2.5-3.7
				c0,0-2.2-2.8-2.2-3.7c0-1-0.3-1.6-0.3-1.6c0,0-0.2-0.9-0.2-1c-0.1-0.1-0.3-0.7-0.5-0.7c-0.1,0-0.4-0.1-0.5,0.2
				c-0.1,0.3-0.5,0.7-0.7,0.8c-0.2,0.1-0.9,0.1-1.3-0.1c0,0-0.6-0.4-0.7-0.5c-0.1-0.1-1.1-0.6-1.4-0.6c-0.3,0.1-1,0.4-1,0.5
				c-0.1,0.1-1.3,2.1-1.3,2.1s-0.5,0.6-0.7,1.6c0,0,0.1,0-0.3,0.2c-0.3,0.2-2,1.5-2,4.1c-0.1,2.6,1.5,3.4,3.3,4
				c1.9,0.6,1.5,0.8,1.8,0.9c0.3,0,0.6-0.1,0.7-0.1c0.1,0,0.6,0,0.9,0.1c0.3,0.1,0.4,0.1,0.4,0.1l-0.3,1l0.3,0l0.4-0.9
				c0,0,0.8-0.2,1.1-0.1l-0.3,1.1l0.3,0.1l0.4-1.1c0,0,0.8,0.3,1.5,0.3c0.7,0.1,0.9,0.3,0.9,0.3l-0.3,0.9l0.3,0.1l0.4-1
				c0,0,1.1,0.4,1.2,0.6l-0.2,0.6l0.3,0.1l0.3-0.6c0,0,0.5,0.4,0.7,0.6c0.2,0.2,0.7,0.6,0.8,0.9c0.1,0.2,0.1,0.3,0.2,0.4
				c0.1,0.1,0,0.4,0.2,0.6c0.2,0.2,0.5,0.7,0.5,0.8c0,0.2-0.1,0.6,0,0.6c0,0,0.3,0.1,0.4,0.2c0,0.1-0.7,0.4-0.7,0.4l-0.2-0.3
				l-0.2,0.2l0.4,0.8l0.3-0.2l-0.2-0.3l0.7-0.3c0,0,1.1,1.7,1.1,2.2c0,0.5-0.1,1.3,0.1,1.7c0.2,0.4,0.6,0.8,0.7,1
				c0.1,0.1,0.2,0.6,0.2,0.9c0.1,0.2,0.1,0.7,0.3,0.9c0.1,0.2,0.8,1.3,0.7,1.4c-0.1,0.1-0.1,0.5,0.3,1c0.5,0.5,0.7,1,0.7,1.1
				c0,0.1-0.1,0.7,0.8,1.9c0,0,0.1,0.2,0.2,0.4c0,0.2,0,0.3,0.2,0.4c0.2,0.2,0.3,0.2,0.4,0.3c0.1,0.1,0.1,0.7,0.1,0.8
				c0,0.1,0.4,1.7,0.5,1.8c0.2,0.1,0.3,0.4,0.4,0.7c0.1,0.3,0.6,2.3,0.6,2.3l-0.7,0.2l0.1,0.2l0.7-0.1c0,0,0.4,0.9,0.4,1.2
				c0,0.2,0,0.8,0,0.8c0,0.1,0.1,0.2,0.1,0.6c0,0.3,0.1,1.3,0.5,1.6c0.4,0.3,0.8,0.8,0.8,1.3c0,0.5,0,0.7-0.1,0.8
				c-0.1,0.1-0.3,0.2-0.3,0.4c0,0.2-0.1,0.7,0,0.8c0,0.1,0.2,1,0.3,1.1c0.1,0.1,0.2,0.6,0.2,0.7c0,0.1,0.4,0.4,0.4,0.5
				c0.1,0.1,0.3,0.7,0.4,0.8c0.1,0.1,1.1,2.2,1.4,3.5c0,0,0.1,0.8,0.5,0.9c0.4,0.1,1.3,0.5,1.3,0.6c0,0.1-0.3,1.6-0.3,1.6l0.3,0.1
				l0.3-1.5c0,0,0.3,0.5,0.3,1c0,0.5,0.6,1.3,0.7,1.4c0,0.1,0.2,0.5,0.2,0.7c0,0.2,0.6,1.3,0.6,1.5c0,0.3,0.4,0.8,0.5,1.1
				c0.1,0.3-0.1,1.3,0.4,1.6c0.5,0.3,1,0.6,1.3,0.6c0.3-0.1,0.6,0,0.7,0.1c0.1,0.1,0.8,0.9,1.5,3.5c0.7,2.6,0.7,4,1.8,5.4
				c0,0,1.2,1.9,1.2,2.2c0,0.2,0.2,1,0.3,1.3c0.1,0.3,0.3,0.8,0.4,0.9c0.1,0.2,0.1,0.1,0.1,0.4c0,0.3-0.2,0.6-0.1,0.7
				c0.1,0.2,0.5,0.2,0.5,0.5c0,0.3,0,0.6,0.2,0.9c0.2,0.3,0.7,0.4,0.8,1.3c0.1,0.8,0.4,1.6,0.5,1.9c0.1,0.3,0.1,0.4,0.1,0.4
				c0,0-0.3-0.5-0.4-0.5c-0.1-0.1-1.8-2.6-2.1-3c-0.2-0.4-0.4-0.6-0.4-0.7c-0.1-0.1-1-1.4-1.2-1.5c-0.1-0.2-0.3-0.7-0.4-0.8
				c-0.1-0.2-0.9-1.5-1-1.5c0-0.1-0.1-0.2-0.6-0.6c-0.4-0.3-2-1.7-2.6-3c0,0-0.2-0.4-0.5-0.5c-0.2-0.2-0.5-0.6-0.7-0.9
				c-0.2-0.3-0.1-0.6-0.2-0.7c-0.1-0.1-0.2-0.9-0.6-1.1c-0.4-0.1-0.6-0.3-0.6-0.4c0-0.1-0.3-0.8-0.5-1.1c-0.2-0.3-0.7-0.9-0.7-0.9
				s-0.1-0.8-0.4-0.9c-0.3-0.1-0.4-0.4-0.4-0.4l-1.1-1.5c0,0-0.1-0.4-0.3-0.6c-0.1-0.1-0.3-0.1-0.4-0.3c-0.1-0.1-0.2-0.3-0.2-0.4
				c0-0.2,0.2-0.5-0.1-0.6c-0.3-0.1-0.6-0.2-0.7-0.5c0-0.3-0.8-1.7-0.8-1.7s-0.1-0.4-0.1-0.6c0-0.2,0.1-0.6,0.7-1
				c0.6-0.4,1.3-0.9,1.5-1.6c0.1-0.7,0.2-0.9,0.1-1.5c-0.2-0.6-1.1-2.7-1.8-4c-0.7-1.2-0.9-2.6-0.9-2.6s0-0.1-0.3-0.1
				c-0.2,0-2.4,0.2-3,0.1c-0.6,0-2.2,0.4-2.1,1c0.1,0.6,0.1,0.8,0.3,1.1c0.2,0.3,0.4,0.8,0.2,1.1c-0.1,0.3-0.4,0.6-0.5,0.6
				c-0.1-0.1-0.4-0.6-0.6-0.5c-0.2,0-0.8,0.4-0.8,0.5c0,0.1,0.5,0.4,0.6,0.7c0.1,0.2-0.1,0.4,0,0.7c0.1,0.3,0.6,0.8,0.7,0.9
				c0.1,0.2-0.1,0.5,0.1,0.8c0.1,0.4,0.6,0.6,0.6,0.9c0,0.3,0.2,0.8,0.5,0.9c0.3,0.1,0.9,0.1,1,0.2c0,0.2,0.1,0.6,0.1,0.9
				c0,0.3,0,0.8,0.1,1c0.2,0.1,1.3,0.8,1.3,1.1c-0.1,0.3-0.2,0.7,0.3,1c0.4,0.3,0.8,0.5,0.8,0.8c0.1,0.3,0.8,2,1,2.1
				c0.2,0.1,0.5,0.2,0.6,0.5c0.1,0.2,1,1.6,1.4,2.1c0.4,0.5,1.4,1.6,1.3,1.9c0,0.3,0.4,0.8,0.6,0.9c0.1,0.1,2,1.9,2.8,4.3
				c0,0,0,0.4,0.2,0.8c0.2,0.4,1,1.8,1.1,1.9c0.1,0.1,0.9,1.6,1.2,2c0.3,0.4,0.6,0.8,0.7,1.1c0.1,0.3,0.5,0.5,0.7,0.6
				c0.1,0.1,0.4,0.4,0.4,0.7c0,0.3-0.1,0.6,0.2,0.7c0.3,0.2,0.5,0.3,0.6,0.4c0.1,0.1,0.9,1.2,0.9,1.4c0.1,0.2,0.2,1.3,0.5,1.4
				l-0.2,0.5l0.3,0.1l0.3-0.4c0,0,0.6,0,0.9,0.4c0.2,0.4,2.2,2.5,2.5,2.7c0.3,0.2,0.5,0.3,0.6,0.6c0.1,0.2,0.3,0.6,0.4,0.8
				c0.1,0.1,1.3,0.6,1.7,1.2c0.4,0.7,0.8,1.1,0.9,1.7c0.2,0.6,0.7,0.8,0.9,0.9c0.2,0.1,0.2,0.5,0.3,0.9c0.2,0.3,0.5,0.9,1.5,2.5
				c1,1.6,2,3.1,2.6,3.4c0.7,0.3,1.1,0.6,1.3,0.9c0.2,0.4,2.7,3.2,3,3.4c0.3,0.2,3.7,3,4.2,3.5c0.5,0.5,3.7,3.9,5.7,3.6
				c0,0,1-0.3,1-0.3c0.1,0,0.8-0.1,1.2,0.7c0.3,0.8,0.3,1.2,0.7,1.5c0.3,0.3,0.7,0.4,0.8,0.4c0.2,0,0.8,0.5,1,0.6
				c0.1,0.2,0.6,0.4,0.8,0.9c0.2,0.5,0.4,0.6,0.6,0.7c0.2,0.1,0.3,0.2,0.4,0.4c0,0.2-0.3,0.8,0.4,1.4c0.6,0.6,1.2,1.6,1.2,1.6
				s-0.2,0.7-0.1,0.8c0.1,0.1,0.4,0.1,0.4,0.2c0,0.1-0.1,0.3,0.1,0.4c0.1,0,0.4,0.1,0.4,0.1s0.1,0.3,0.7,0.5c0,0,0.2,0.2,0.2,0.4
				C573.9,190.2,573.5,190.3,574.7,190.9z"/>
			<path fill="#79928C" d="M579,192.4c0,0-0.1,0.2-0.1,0.3c0,0.1-0.2,0.4,0,0.4c0.1,0.1,0.3,0,0.4-0.1c0.1-0.1,0.1-0.2,0.2-0.3
				C579.4,192.7,579.2,192.3,579,192.4z"/>
			<path fill="#79928C" d="M515.5,118.7c0,0-0.5-0.6-0.9-1c-0.4-0.4-0.3-1-0.5-1.3c-0.1-0.3-0.7-0.9-1.1-1.1c-0.4-0.2-0.7-0.9-1-1.6
				c-0.3-0.7-0.4-1.1-0.7-1.5c-0.2-0.4-0.4-0.8-1.3-1.2c-0.9-0.4-0.3-0.9-0.4-1c-0.1-0.1-0.9-0.9-0.1-1.2c0.8-0.3,0.7-0.2,0.5-0.8
				c-0.2-0.6-0.7-0.9-0.3-1.2c0.4-0.3,0.7-0.1,1.1,0.2c0.4,0.3,0.8,1,1,1.3c0.2,0.3,0.8,0.6,0.9,1.1c0.1,0.5,0.1,0.9,0.2,1.2
				c0.1,0.3,0.3,0.8,0.2,1.4c-0.1,0.6-0.4,0.8-0.2,1.2c0.2,0.4,0.4,0.6,0.4,0.7c0,0.1,1.3,1.4,1.3,1.5c0,0.1-0.2,0.4,0,0.6
				c0.2,0.2,1.8,0.7,1.8,0.7s0.6,0.4,0.6,0.8c0,0.4-0.3,0.4-0.1,0.7c0.2,0.3,0.2,0.5,0.2,0.5c-0.1,0-0.1,0-0.1,0.1
				c0,0.1,0,0.3,0,0.3c0,0-0.6,0.5-0.8,0.3C516.1,119.3,515.5,118.7,515.5,118.7z"/>
			<path fill="#79928C" d="M507,103.2c0,0,0.5-0.6,0.6-0.8c0.1-0.2,0.5-0.7,0.7-0.7c0.1,0.1,0.3,0,0.3,0.3c0.1,0.4,0,1.5,0,1.6
				c0,0.2-0.3,0.6-0.3,0.8c0,0.2-0.4,0.6-0.2,1.1c0.2,0.5,1.2,1.5,1.2,1.6c0,0.1,0.1,0.8-0.2,0.8c-0.3,0-0.8-0.3-0.9-0.3
				c-0.1,0,0.1-0.3,0-0.7c-0.1-0.4-0.6-0.7-0.6-0.8c-0.1-0.1-0.6-0.4-0.6-0.8c0-0.4,0.1-0.6,0.3-0.6c0.2-0.1,0.4,0,0.5-0.3
				c0.1-0.3,0.2-0.5,0.2-0.5s0.1-0.1,0.2-0.3c0-0.2-0.1-0.4-0.1-0.6c0-0.2,0.1-0.5,0-0.4c-0.1,0.1-0.4,0.2-0.5,0.6
				c-0.1,0.3-0.3,0.6-0.4,0.5c-0.1-0.1-0.3-0.2-0.3-0.2S506.5,103.5,507,103.2z"/>
			<path fill="#79928C" d="M507.8,100.2c0,0-0.3,0.2-0.5,0.2c-0.1,0-0.5-0.4-0.4-0.5C507.1,99.8,507.5,99.8,507.8,100.2z"/>
			<path fill="#79928C" d="M508.2,69.6c0,0,0.3,0.2,0.3,0.3c0.1,0.1,0.3,0.2,0.3,0.1c0-0.1,0.2-0.3,0.4-0.5c0.1-0.1,0.3-0.1,0.2-0.3
				c-0.1-0.2-0.1-0.2-0.2-0.4c0-0.2-0.1-0.7-0.3-1c-0.2-0.3-0.6-0.5-0.8-1.2c-0.2-0.6,0-1.5-0.3-1.8c-0.3-0.3-0.7-0.8-0.7-0.5
				c-0.1,0.2-0.3,0.4-0.3,0.9c-0.1,0.5-0.3,2-0.2,2.4c0.2,0.4,0.1,0.3,0.3,0.8c0.2,0.5,0.7,1,0.8,1
				C507.8,69.4,508.2,69.6,508.2,69.6z"/>
		</g>
	</g>
</g>
<path fill="#CD2035" d="M405,257.7l3.7-1.9c0,0,0.2-0.2,0.4-0.1c0.2,0.1,0.1,0.4,0.1,0.4c0,0,0,0.1-0.3,0.1l-3.4,1.8L405,257.7z"/>
<path fill="#CD2035" d="M404.6,255.7c0,0,0-0.1,0-0.2c0-0.1-0.1-0.1,0-0.2c0.1-0.1,0.2-0.1,0.3-0.1c0.2-0.1,0.4-0.2,0.5-0.3
	c0.1-0.1,0.4-0.1,0.5-0.3c0,0,0.2-0.2,0.4-0.1c0.2,0.1,0.1,0.4,0.1,0.4c0,0,0,0.1-0.3,0.1c-0.1,0-0.3,0.1-0.3,0.2
	c-0.3,0.1-0.6,0.2-0.8,0.5c-0.1,0.1-0.1,0.1-0.2,0.1C404.6,255.8,404.6,255.8,404.6,255.7z"/>
<path fill="#00A44E" d="M328.8,313.1l11.9-14.1c0,0,3.3,3.1,3.8,4.4c0.5,1.4,3.1,9.6,3.1,9.6H328.8z"/>
<path fill="#B3B4B6" d="M405,257.7l3.7-1.9c0,0,0.2-0.2,0.4-0.1c0.2,0.1,0.1,0.4,0.1,0.4c0,0,0,0.1-0.3,0.1l-3.4,1.8L405,257.7z"/>
<path fill="#B3B4B6" d="M404.6,255.7c0,0,0-0.1,0-0.2c0-0.1-0.1-0.1,0-0.2c0.1-0.1,0.2-0.1,0.3-0.1c0.2-0.1,0.4-0.2,0.5-0.3
	c0.1-0.1,0.4-0.1,0.5-0.3c0,0,0.2-0.2,0.4-0.1c0.2,0.1,0.1,0.4,0.1,0.4c0,0,0,0.1-0.3,0.1c-0.1,0-0.3,0.1-0.3,0.2
	c-0.3,0.1-0.6,0.2-0.8,0.5c-0.1,0.1-0.1,0.1-0.2,0.1C404.6,255.8,404.6,255.8,404.6,255.7z"/>
<path fill="none" stroke="#FFFFFF" stroke-width="5.0697" stroke-linecap="round" stroke-linejoin="round" d="M377.6,293.2l1-0.6
	c0,0,0.7-0.5,1.8-0.1c1.1,0.3,2.9,0,3.3-1.8c0,0,0.1-1.2-1.4-1.1c0,0-0.4,0-0.7,0.2c-0.3,0.2-0.8,0.3-1.2-0.5
	c-0.4-0.8-0.5-1.9-1.8-1.4c-1.3,0.5-0.3,2.4-0.3,2.4s0.6,0.7,0.5,2c0,0,0.1,0.3-0.9,0.7"/>
<circle fill="none" stroke="#711114" stroke-width="5.0697" stroke-miterlimit="10" cx="364" cy="268.3" r="0.8"/>
<line fill="none" stroke="#F8F1E4" stroke-width="2.4899" stroke-miterlimit="10" x1="350.6" y1="327.9" x2="304.9" y2="328.3"/>
<circle fill="none" stroke="#711114" stroke-width="5.0697" stroke-miterlimit="10" cx="364.8" cy="281.5" r="0.8"/>
<g>
	<path fill="none" stroke="#F8F1E4" stroke-width="2.4899" stroke-miterlimit="10" d="M321.6,524.8c0,0-1.3,1.7-2.8,3.5"/>
	<path fill="none" stroke="#F8F1E4" stroke-width="2.4899" stroke-miterlimit="10" d="M314.4,528.6c2.2,0.3,3.1,0.5,4.4-0.3"/>
</g>
<line fill="none" stroke="#F8F1E4" stroke-width="2.4899" stroke-miterlimit="10" x1="327.2" y1="313.3" x2="317.3" y2="295.8"/>
<circle fill="none" stroke="#F8F1E4" stroke-width="2.4899" stroke-miterlimit="10" cx="372.1" cy="283.9" r="0.8"/>
<g>
	<g>
		<path fill="#F8F1E4" d="M438.8,534.3c-0.3,0-0.6-0.1-0.9-0.2c-1.1-0.5-1.4-1.7-1.4-2l-1.2-4.3l2.4-0.7l1.2,4.3c0,0.1,0,0.1,0,0.2
			c1.4-0.7,4.6-2.1,5.2-2.4c0.4-0.3,1.6-0.8,3.5-0.3c1.6,0.4,2.6,0.5,2.6,0.5l0.2,0c0.6-1.2,1.7-3.8,1.8-3.8l0.2-0.4l0.4-0.2
			c0,0,0.1-0.1,0.2-0.1l-0.1-0.3c0-0.1,0-0.2-0.1-0.3c-1.9-0.9-5.6-3.6-5.9-4c-0.1-0.2-0.6-0.7-1-1c-1.6-1.6-2.2-2.2-2.2-2.9l0-0.3
			c0-0.1,0-0.4-0.1-0.5c0,0.1,0.2,0.2,0.4,0.3l0.6-2.4c1.4,0.4,1.5,1.8,1.6,2.5c0.3,0.4,1.1,1.1,1.5,1.5c0.6,0.6,1,1,1.3,1.3
			c0.5,0.5,4.2,2.9,5.1,3.3c1,0.2,1.2,1.3,1.3,2.1l0,0.3c0.2,1.2-0.5,2-1.1,2.5c-0.4,0.8-1.3,2.8-1.7,3.6c-0.4,0.8-1,1.1-1.4,1.3
			c-0.5,0.2-1,0.1-1.4,0c-0.4,0-1.5-0.2-2.9-0.5c-1.1-0.3-1.6,0-1.6,0l-0.2,0.1c0,0-4.1,1.8-5.3,2.4
			C439.6,534.2,439.2,534.3,438.8,534.3z M453.2,524.5c0.2,0.1,0.4,0.2,0.6,0.2C453.7,524.7,453.5,524.6,453.2,524.5z"/>
		<path fill="#F8F1E4" d="M458,312c-7.2-3.7-14.3-1.3-14.4-1.2l-0.8-2.4c0.3-0.1,8.2-2.8,16.3,1.4L458,312z"/>
		<path fill="#F8F1E4" d="M312.1,536.2c-0.1-1.6-0.3-3.6-0.5-4.2l-0.1-0.1c-0.5-0.9-2.1-3.5-3.5-4.6l-0.1-0.1
			c-0.7-0.8-7.7-5.4-14-9.4l1.3-2.1c2.1,1.4,12.7,8.2,14.3,9.7c1.9,1.5,3.6,4.5,4,5.1c0.3,0.4,0.7,1.3,0.9,5.5L312.1,536.2z"/>
		<path fill="#F8F1E4" d="M379,196.2l-2.5-0.4c0-0.2,0.9-5.6,6.3-6.8c0.7-0.2,1.3-0.2,2-0.3c3.9-0.5,7.9-1.1,11.7-17.5l0-0.1
			c0-0.1,1.9-5.9-0.7-12.4c-2.9-7.3-2.6-14.4-2-19.7c0.5-4.5,0.5-7.9,0.5-8.3c-0.1-1.4-0.6-4-1.3-4.9c-1.1-1.4-2.5-3.4-2.8-3.9
			c-0.3-0.3-1.2-1.2-2-2.4c-0.7-1-1-2.2-1.2-3c-0.1-0.2-0.1-0.4-0.2-0.6c0,0-0.1-0.1-0.1-0.1c-0.5-0.5-1.3-1.3-1.3-2.4
			c0-0.5-0.7-2.3-1.3-2.7c-1.1-0.9-2.1-1.8-3-4.1l-0.1-0.2c0,0-0.1-0.1-0.3-0.2c-1-0.4-3.2-1.2-3.7-4.7c-0.1-0.7-0.4-1.5-0.5-1.6
			c-0.4-0.3-1.1-1.1-1.8-1.9c-0.5-0.6-1.1-1.2-1.3-1.5c-0.9-0.8-2.1-3.9-2.1-4.5c0-0.8,0.8-1.8,1.6-2.6l-0.1-0.1
			c-0.1-0.2-0.2-0.5-0.4-0.9c-0.3-0.6-0.9-1.9-1.2-2.4c-0.1-0.1-0.2-0.1-0.3-0.2c-2.4-1.8-3.6-2.2-4.2-2.1c-2.6,1.9-2.8,2-3.1,2
			c-0.8,0.2-1.8-0.5-2.4-1.2c-0.5-0.6-1.1-2,0-3.8l0.2-0.3c1-1,2-2.2,2.2-2.6c0,0,0,0,0-0.1c0-0.5-0.1-1.7,0.7-2.7
			c-1.4-1.2-3.2-3.6-3-7.5l0-0.2c0.4-1.7,0.9-4.8,0.6-6c0-0.2-0.1-0.5-0.2-1c-1.7-6.7-3.9-16-2.7-19.6c1.4-4.2,1.8-7.5,1.6-8.6
			l-0.1-0.4c-0.4-1.7-1.2-5.2,0.3-9.1c1.1-2.9-0.6-7.8-1.4-9.5l-0.1-0.2c-0.2-0.5-0.7-3.5,3.6-10.7c0.1-0.4,0.3-1.1,0.3-1.5
			c0-0.2-0.1-0.8-0.1-1.8c-0.6-7.6-0.9-13.1-0.3-14.8c0.8-2.3,5.4-14.8,5.6-15.3l0.1-0.2l0.1-0.2c0,0,1.2-1.5,1.5-1.8
			c0.2-0.3,5.3-6.3,6.9-8.1l1.9,1.6c-2.6,3-6.6,7.7-6.8,8c-0.2,0.2-1,1.3-1.4,1.7c-0.6,1.6-4.7,12.9-5.5,15.1
			c-0.5,1.6,0.2,10.8,0.4,13.8c0.1,1.3,0.1,1.8,0.1,2c0,1-0.4,2.3-0.5,2.4l-0.1,0.2c-3.5,5.8-3.4,8.4-3.4,8.8
			c0.4,1,2.9,7.1,1.4,11.2c-1.2,3.3-0.6,6.2-0.2,7.7l0.1,0.5c0.4,2.1-0.6,6.5-1.7,9.9c-0.5,1.5-0.4,5.9,2.7,18.2
			c0.1,0.5,0.2,0.8,0.3,1c0.5,2.1-0.4,6.2-0.6,7c-0.3,4.4,3.1,6,3.2,6l2.6,1.2l-2.7,1.1c-1,0.4-0.9,0.8-0.9,1.5c0,0.1,0,0.2,0,0.4
			c0,0.4,0,1.2-2.8,4.1c-0.1,0.3-0.2,0.6-0.2,0.9c0,0.1,0.1,0.2,0.1,0.2c0.5-0.4,1.4-1,2.1-1.6l0.2-0.2l0.2-0.1
			c2.1-0.5,4.6,1.1,6.6,2.5c0.1,0.1,0.2,0.1,0.3,0.2c0.5,0.3,0.8,0.8,2,3.4c0.2,0.4,0.3,0.6,0.4,0.8l0.1,0.1
			c0.3,0.5,0.8,1.5-0.4,2.8c-0.4,0.4-0.7,0.8-0.9,1.1c0.2,0.7,0.9,2.2,1.2,2.6c0.4,0.3,0.9,0.9,1.6,1.7c0.5,0.6,1.2,1.4,1.5,1.6
			c1,0.8,1.3,2.6,1.4,3.2c0.3,2,1.4,2.4,2.2,2.7c1,0.4,1.6,1.2,1.8,1.8c0.7,1.7,1.3,2.3,2.2,3c1.2,1,2.2,3.5,2.2,4.6
			c0.1,0.2,0.4,0.5,0.6,0.7c0.1,0.1,0.3,0.3,0.3,0.4c0.3,0.3,0.4,0.8,0.6,1.4c0.2,0.7,0.5,1.6,0.9,2.3c0.8,1.2,1.7,2.1,1.7,2.1
			l0.2,0.2c0,0,1.6,2.3,2.8,3.9c1.5,1.8,1.8,5.8,1.9,6.3c0,0.2,0,3.8-0.5,8.7c-0.5,5.1-0.8,11.8,1.9,18.5c2.8,7.1,1,13.3,0.8,14.1
			c-3.9,16.7-8.4,18.6-13.8,19.3c-0.6,0.1-1.2,0.2-1.8,0.3C379.6,192.3,379,196.2,379,196.2z"/>
		<path fill="none" stroke="#F8F1E4" stroke-width="2.4899" stroke-miterlimit="10" d="M366.5,308.1"/>
		<g>
			<path fill="#F8F1E4" d="M314.6,529.9c-0.3,0-2-0.1-2.9-1.5l0-0.1c-0.3-0.5-0.3-1.1-0.1-1.7c0.2-0.5,0.6-1,1.1-1.2
				c0.3-0.1,0.6-0.2,0.9-0.2c0.8,0,1.5,0.4,1.9,1.1c0.2,0.3,0.6,1.2,0.3,2.6l-0.2,0.9L314.6,529.9z"/>
			<path fill="#F8F1E4" d="M313.3,531.8c-0.6,0-1.1-0.2-1.5-0.6c-0.4-0.4-0.6-1-0.6-1.5c0-0.6,0.2-1.1,0.6-1.5l0.1-0.1
				c0.5-0.4,1.2-0.7,1.9-0.7c0.7,0,1.2,0.2,1.3,0.2l0.9,0.3l-0.1,0.9c-0.1,1.4-0.8,2.1-1.1,2.4C314.3,531.6,313.8,531.8,313.3,531.8
				z"/>
		</g>
		<g>
			<path fill="#F8F1E4" d="M315.8,530L315.8,530c-0.7,0-1.2-0.2-1.3-0.2l-0.9-0.3l0.1-0.9c0.1-1.4,0.8-2.1,1.1-2.4
				c0.8-0.8,2.2-0.7,3,0.1c0.4,0.4,0.6,0.9,0.6,1.5c0,0.6-0.2,1.1-0.6,1.5l-0.1,0.1C317.2,529.8,316.5,530,315.8,530z"/>
			<path fill="#F8F1E4" d="M315.9,532.2c-0.8,0-1.5-0.4-1.9-1.1c-0.2-0.3-0.6-1.2-0.3-2.6l0.2-0.9l0.9,0c0,0,0,0,0,0
				c0.4,0,2.1,0.1,2.9,1.5l0,0.1c0.5,1.1,0.1,2.4-1,2.9C316.5,532.1,316.2,532.2,315.9,532.2z"/>
		</g>
		<path fill="#F8F1E4" d="M314.2,529.9c-0.6-0.1-1-0.2-1.4-0.2c-0.9-0.1-1.2-0.2-1.9-0.4c-0.8-0.3-2.8-1.8-3.4-2.3l1.5-2
			c1.1,0.8,2.5,1.8,2.8,1.9c0.4,0.1,0.4,0.2,1.3,0.3c0.3,0,0.8,0.1,1.4,0.2L314.2,529.9z"/>
		<path fill="#F8F1E4" d="M314.7,536.9l-2.5-0.4l1.3-8.2c0-0.2,1.1-4.4,1.9-6.2l2.3,1c-0.7,1.5-1.6,5.3-1.8,5.8L314.7,536.9z"/>
		<path fill="#F8F1E4" d="M516.2,326.7c-1.6,0-3.1-0.9-3.3-1l0,0c0,0-0.8-0.5-2.5-1.2c-1.5-0.7-2-1.5-2.7-2.4
			c-0.3-0.5-0.7-0.9-1.2-1.5c-0.8-0.9-2.3,0.2-2.7,0.5c-0.2,0.5-0.8,2.1-1.1,3.4l-2.4-0.7c1.1-3.9,1.5-4.3,1.8-4.5
			c1.4-1.3,4.3-2.5,6.2-0.4c0.7,0.7,1.1,1.3,1.4,1.8c0.5,0.8,0.8,1.1,1.6,1.5c1.9,0.8,2.7,1.4,2.8,1.4c0.5,0.3,1.6,0.8,2.3,0.6
			c1.2-0.3,1.7-0.7,1.7-0.7l1.5,2c-0.1,0.1-0.9,0.7-2.6,1.1C516.8,326.7,516.5,326.7,516.2,326.7z"/>
		<path fill="#F8F1E4" d="M507.7,336.7l-2.1-1.4c1-1.5,3.9-5,5.5-6.9l0.5-0.6c1.3-1.6,2.3-2,3.4-2.4l0.2-0.1
			c1.1-0.4,3.7-1.1,3.8-1.1l0.6,2.4c-0.7,0.2-2.7,0.7-3.5,1l-0.2,0.1c-0.9,0.3-1.4,0.5-2.3,1.7l-0.5,0.6
			C511.6,331.7,508.7,335.3,507.7,336.7z"/>
		<path fill="#F8F1E4" d="M519.5,326.5c-1,0-1.8-0.8-1.8-1.8c0-1,0.8-1.8,1.8-1.8c1,0,1.8,0.8,1.8,1.8
			C521.3,325.7,520.5,326.5,519.5,326.5z M519.5,324c-0.4,0-0.7,0.3-0.7,0.7s0.3,0.7,0.7,0.7c0.4,0,0.7-0.3,0.7-0.7
			S519.9,324,519.5,324z"/>
		<path fill="#F8F1E4" d="M274.6,315.9l-0.1-2.5l76.3-1.8c0,0,0.7,0,1.2-0.4c0.9-0.7,4-3.1,4.4-3.4c0.3-0.3,1.5-1.2,3-1.2
			c1,0,4.4-0.4,5.6-0.5l5.8-0.3c0.2,0,1.3,0,2.6,1c0.2,0.2,0.5,0.2,1.1,0.3c0.7,0.1,1.5,0.2,2.5,0.7c0.4,0.2,0.7,0.4,1,0.5
			c0.8,0.4,0.9,0.5,1.7,0.3c0.5-0.1,0.8-0.2,0.9-0.3c0.7-0.2,1-0.2,2.1-0.1l-0.4,2.5c-0.2,0-0.7-0.1-0.8-0.1c0,0-0.1,0-0.2,0.1
			c-0.2,0.1-0.6,0.2-1.2,0.3c-1.7,0.4-2.4,0.1-3.5-0.5c-0.3-0.1-0.5-0.3-0.9-0.5c-0.7-0.3-1.3-0.4-1.8-0.5c-0.7-0.1-1.5-0.2-2.2-0.8
			c-0.5-0.4-0.9-0.4-0.9-0.4l-5.6,0.3c-0.1,0-4.5,0.5-5.8,0.5c-0.7,0-1.4,0.6-1.4,0.6l-0.1,0.1c0,0-3.4,2.6-4.3,3.3
			c-1.2,1.1-2.7,1-2.8,1L274.6,315.9z"/>
		
			<rect x="333.4" y="296.6" transform="matrix(0.7671 0.6416 -0.6416 0.7671 274.284 -143.4061)" fill="#F8F1E4" width="2.5" height="18.7"/>
		<path fill="none" stroke="#F8F1E4" stroke-width="2.4899" stroke-miterlimit="10" d="M346.3,269.9"/>
		<path fill="#F8F1E4" d="M348,276.1c-0.4,0-0.8-0.1-1.1-0.3l-0.6-0.3c-0.5-0.3-0.9-0.5-1.2-0.6c-0.6-0.2-1.1-0.7-1.3-1.3
			c-0.3-0.7-0.2-1.6,0.2-2.2c0.4-0.7,1.3-2.1,1.3-2.1l0.1-0.1c0.1-0.1,1-1.3,2.3-1.3c0.4,0,0.7,0.1,1.1,0.3c0.9,0.4,1.5,0.8,1.7,0.9
			c0.4,0.2,0.9,0.6,1.1,1.2c0.2,0.4,0.3,1.2-0.1,2.1c-0.6,1.3-1.2,2.4-1.2,2.4C349.8,275.4,349,276.1,348,276.1z M346.1,272.6
			c0.4,0.2,0.8,0.4,1.4,0.7l0.5,0.2c0.1-0.1,0.6-1.1,1.1-2.2c0-0.1,0-0.1,0.1-0.2c-0.2-0.1-0.8-0.4-1.5-0.8c0,0-0.2,0.1-0.3,0.2
			C347.1,270.9,346.5,272,346.1,272.6z"/>
		
			<rect x="341.9" y="261.6" transform="matrix(0.867 0.4983 -0.4983 0.867 178.0176 -141.3048)" fill="#F8F1E4" width="23.7" height="2.5"/>
		<path fill="#F8F1E4" d="M289.3,293.7l-1.2-2.2l47.5-25.9l14.5-7.5c0.1,0,1.3-0.8,3.1-0.6c0,0,0.1,0,0.3-0.1l8.2-3.8l10.7-4.8
			c0.3-0.1,0.6-0.4,0.6-0.5l2.5,0.2c-0.1,1.7-1.9,2.5-2.1,2.6l-10.6,4.8l-8.2,3.8c-0.8,0.4-1.4,0.3-1.6,0.3
			c-0.9-0.1-1.6,0.3-1.6,0.3l-14.5,7.5L289.3,293.7z"/>
		
			<rect x="347.7" y="272.8" transform="matrix(6.249759e-02 0.998 -0.998 6.249759e-02 608.4007 -99.5978)" fill="#F8F1E4" width="19.1" height="2.5"/>
		<path fill="#F8F1E4" d="M307.7,300.6l-0.8-2.3l27.7-9.8l16.2-5.7c0.2,0,1.9-0.5,3.3-0.7c1.4-0.2,3.5-0.3,3.6-0.3l0.1,2.5
			c0,0-2.1,0.1-3.4,0.3c-1.2,0.2-2.9,0.6-2.9,0.6l-16.1,5.6L307.7,300.6z"/>
		<path fill="#F8F1E4" d="M353.8,289.8c0,0-4.9-0.1-5.8-0.1c-1.2,0-1.9-0.6-2.1-1c-0.2-0.3-0.6-0.8-0.8-3c-0.1-1.3-0.6-1.7-0.6-1.7
			l-0.2-0.1c-1.2-1.1-4.9-4.8-5.6-5.7c-0.2-0.2-0.6-0.4-0.7-0.4l-0.1,0.1l-2.8,1.5l-1.1-2.2l2.8-1.4c1.3-0.9,3-0.2,3.9,0.7l0.1,0.1
			c0.3,0.4,3,3,5.4,5.4c0.4,0.3,1.4,1.3,1.6,3.5c0.1,0.6,0.2,1.4,0.3,1.7c0,0,0.1,0,0.1,0c0.9,0,5.8,0.1,5.8,0.1L353.8,289.8z"/>
		<path fill="#F8F1E4" d="M337.7,278.1l-0.9-2.3c0.8-0.3,1-1,1-1.2l-0.8-14.8l2.5-0.1l0.8,15.1l0,0.1
			C340.3,275.6,339.6,277.4,337.7,278.1z"/>
		<path fill="#F8F1E4" d="M310.8,329.9l-2-1.5l29.1-38.4c0.1-0.1,0.6-0.9,0-2c-1.1-2-7.5-14.9-7.7-15.4c-0.4-0.8-0.7-2.7,1-3.8
			l1.4,2c-0.3,0.2-0.2,0.6-0.2,0.7c0.1,0.1,6.6,13.4,7.7,15.3c1.2,2.1,0.4,4-0.3,4.8L310.8,329.9z"/>
		<path fill="#F8F1E4" d="M356.9,308.4c-0.2-0.5-0.4-1.2-0.5-1.3l0,0c0,0-0.1,0-0.1-0.1c-0.5-0.3-1.8-1.1-1.3-3
			c0.1-0.2,0.1-0.5,0.2-0.8c0.2-0.7,0.7-2.5,0.5-3c-0.5-0.5-6.6-5.3-10.3-8.2c0,0,0,0-0.1,0c0,0,0,0-0.1,0.1
			c-0.9,1.2-4.3,5.2-4.5,5.4l-1.9-1.6c0,0,3.6-4.2,4.4-5.2c0.6-0.8,1.3-1,1.7-1.1c1-0.1,1.8,0.4,1.9,0.5c1.6,1.3,9.7,7.6,10.6,8.5
			c1.2,1.3,0.6,3.5,0,5.4c-0.1,0.3-0.2,0.5-0.2,0.8c0,0.1,0,0.2,0,0.2c0,0,0.2,0.1,0.2,0.1c0.2,0.1,0.3,0.2,0.5,0.3
			c0.6,0.6,1.1,1.8,1.2,2.5L356.9,308.4z"/>
		
			<rect x="372.8" y="300.3" transform="matrix(0.9999 1.146253e-02 -1.146253e-02 0.9999 3.481 -4.3146)" fill="#F8F1E4" width="10.7" height="2.5"/>
		<path fill="#F8F1E4" d="M360.6,294.9c-2.5-3-9.1-10.9-10.2-11.9c-1.5-1.5-2-3.4-2-3.7l-0.6-2.1c-0.2-0.5-0.8-2.4,0.1-3.7l2.1,1.4
			c-0.1,0.2-0.1,1,0.1,1.5l0.7,2.3c0,0,0.3,1.5,1.4,2.5c1.4,1.4,9.9,11.7,10.3,12.1L360.6,294.9z"/>
		
			<rect x="336.9" y="325.1" transform="matrix(0.7601 0.6499 -0.6499 0.7601 304.9891 -137.0686)" fill="#F8F1E4" width="2.5" height="38.8"/>
		<path fill="#F8F1E4" d="M346.1,302.7l-2.1-1.4l10.6-16.2c0.3-0.5,1.6-2.6,4.4-3.4c0.6-0.1,1-0.3,1.5-0.4c1.2-0.4,2.3-0.7,3.7-0.6
			l-0.3,2.5c-0.9-0.1-1.6,0.1-2.7,0.5c-0.5,0.2-1,0.3-1.6,0.5c-2,0.5-2.8,2.1-2.9,2.1l-0.1,0.1L346.1,302.7z"/>
		<path fill="#F8F1E4" d="M371.3,285.6c-1.3-0.2-2.7-0.8-4.6-1.5l-1-0.4c-0.3-0.1-0.5-0.2-0.7-0.3l0.7-2.4c0.3,0.1,0.6,0.2,0.9,0.3
			l1,0.4c1.7,0.7,3,1.2,4,1.4L371.3,285.6z"/>
		<path fill="#F8F1E4" d="M372.7,285.7l-0.1-2.5c0,0,0.1,0,0.1,0l-0.2-1.2l12.7-2.4l-5.2,3.4C378,284.4,374.6,285.6,372.7,285.7z"/>
		
			<rect x="365.4" y="280.9" transform="matrix(0.9423 0.3347 -0.3347 0.9423 115.6905 -107.1042)" fill="#F8F1E4" width="6.3" height="2.5"/>
		
			<rect x="357.3" y="278.2" transform="matrix(0.9423 0.3347 -0.3347 0.9423 114.3354 -104.705)" fill="#F8F1E4" width="7.4" height="2.5"/>
		<path fill="#F8F1E4" d="M385,546.3c-1.2,0-2.7-0.2-4.4-0.7l-0.1,0l-55.9-20.4c-1.3-0.4-2,0.5-2,0.5l-2-1.5
			c0.7-0.9,2.5-2.1,4.8-1.3l55.9,20.4c2.7,0.7,4.5,0.8,5.5,0.2c0.8-0.5,1-1.4,1.4-2.9c0.1-0.4,0.2-0.8,0.3-1.1
			c0.9-3.4,3-5.1,3.1-5.2l10.2-7.8c2.1-1.1,8-4.3,9.3-5.2c1.8-1.3,3.5-1.4,3.9-1.4c0.5,0,4.1-0.4,7.1-0.6c3.1-0.2,4.5,0.7,5,1.1
			l9.4,5.8c1.6,0.9,2.2,0.5,2.2,0.5c1.3-1.4,1.3-1.5,1.1-2.1l-0.1-0.4c-0.4-1.6,0-3,0.3-4.3l0-0.2c0.3-1.4,1.9-3.5,2.2-3.9l0.1-0.1
			c2.4-2.5,2-5.5,1.9-5.6c-1.5-8.1-0.2-16.1,0-17c0.2-2.5,0.4-6.6,0.4-7.3c-0.1-0.8,0.3-2.2,1.2-5.5c0.3-1,0.6-2.1,0.6-2.4
			c0.1-1,0.7-1.6,1.4-2.2c0.4-0.4,0.8-0.8,1.5-1.5c1.3-1.5,1.6-3.9,1.5-5.1c0-0.9-1-5.6-1.6-7.3c-0.8-2-0.8-4.4-0.8-4.5l0-0.1
			c0.4-3.5,3.6-8.2,4.2-9.1c0.9-1.3,2.1-3.7,2.6-6.3c0.6-2.6,2.2-7.7,2.2-8c0.1-0.2,2.9-7.5,3.5-9.7l0.1-0.5
			c0.6-2.2,1.3-4.8,3.1-7.9c1.9-3.4,3.8-7.9,4.9-10.8c0.1-0.4,3-7.5,4.2-9.3l0,0c0.4-0.6,5.3-10.1,5.9-11.5c0.6-1.5,1-3.1,1.6-6.5
			c0.6-3.3,3.2-6.8,4-7.9c0.1-0.1,0.1-0.2,0.2-0.2c0.1-0.2,0.3-0.5,1.4-1.5c1.4-1.4,3.8-3.7,4.7-5.1c0.8-1.2,0.8-2.6,0.7-3.6
			c0-0.5,0-0.9,0.1-1.3c0.1-0.4,0.4-0.9,1.3-2.1c0.9-1.3,2.2-3.4,2.6-4.4c0.4-1.1,0.5-1.8,0.6-2.7c0.1-0.6,0.2-1.3,0.4-2.3
			c0.5-2.3,2.8-4.5,4.9-6.6c0.6-0.6,1.2-1.1,1.7-1.7c2.2-2.3,4.1-5.5,4.9-8.3l0.2-0.8c0.7-2.3,0.9-2.9-0.2-4.3
			c-0.4-0.5-1.6-2-4.2-0.2c-0.2,0.1-0.4,0.3-0.6,0.4c-2.1,1.5-6,4.4-15.4,3c-10.6-1.6-20.8-8.8-22.8-10.5c-2.2-1.9-8.1-6-8.2-6
			l-1.5-1c-3.3-2.4-6.9-2.2-9.2-0.9c-2.6,1.5-4.2,1.8-4.4,1.8c-8.2,1.6-12.3-4.4-12.5-4.7l-5.6-7.6c-1.2-1.9-5.6-5.9-6.4-6.5
			c-0.6-0.4-1.1-0.9-1.5-1.3c-0.2-0.2-0.4-0.4-0.6-0.5c-0.4-0.4-2.7-3.5-6.7-9.2c-3.6-4.6-10.1-2.7-10.2-2.7l-18.8,4.5l-0.6-2.4
			l18.7-4.5c0.3-0.1,8.1-2.3,12.8,3.6c2.8,3.9,5.9,8.3,6.4,8.8c0.2,0.1,0.4,0.4,0.7,0.6c0.4,0.4,0.7,0.7,1.2,1.1
			c0.9,0.6,5.6,4.8,7.1,7.2l5.5,7.5c0.2,0.2,3.4,4.9,10.1,3.7c0.1,0,1.4-0.2,3.5-1.5c2.9-1.7,7.8-2.1,11.9,1l1.4,0.9
			c0.3,0.2,6.1,4.2,8.4,6.2c2.5,2.2,12.3,8.5,21.6,9.9c8.3,1.3,11.6-1.1,13.6-2.5c0.3-0.2,0.5-0.4,0.7-0.5c2.8-1.9,5.6-1.6,7.5,0.7
			c2,2.4,1.4,4.2,0.7,6.6l-0.2,0.8c-1,3.2-3.1,6.8-5.5,9.4c-0.6,0.6-1.2,1.2-1.8,1.7c-1.9,1.9-3.9,3.8-4.2,5.4
			c-0.2,1-0.3,1.6-0.4,2.2c-0.2,1-0.3,1.7-0.7,3c-0.5,1.4-1.8,3.4-2.9,5.1c-0.4,0.5-0.8,1.2-0.9,1.4c0,0.1,0,0.3,0,0.5
			c0.1,1.1,0.2,3.3-1.2,5.2c-1.1,1.5-3.5,4-5,5.4c-0.4,0.4-0.9,0.9-1,1c-0.1,0.1-0.2,0.2-0.3,0.4c-0.8,1-3.1,4.1-3.6,6.8
			c-0.6,3.6-1.1,5.3-1.7,7c0,0.1-4.8,9.9-6.2,11.9l0,0c-0.3,0.5-2.7,5.7-3.8,8.8c-1.1,3-3,7.7-5.1,11.2c-1.6,2.8-2.3,5.1-2.9,7.3
			l-0.1,0.5c-0.7,2.3-3.4,9.6-3.5,9.9l0,0c0,0-1.6,5.2-2.2,7.7c-0.6,2.6-1.8,5.4-3,7.2c-1.3,1.8-3.4,5.4-3.7,7.8
			c0,0.4,0.1,2.2,0.6,3.6c0.7,1.9,1.8,6.9,1.8,8.1c0,0.4,0.1,4.3-2.1,6.8c-0.7,0.8-1.2,1.3-1.6,1.7c-0.6,0.5-0.6,0.6-0.6,0.7
			c-0.1,0.4-0.3,1.3-0.7,2.7c-0.4,1.4-1.1,4-1.1,4.6c0.1,1.1-0.3,6.6-0.4,7.7l0,0.1c0,0.1-1.5,8.2,0,16.2c0,0.2,0.7,4.3-2.6,7.8
			c-0.6,0.8-1.5,2.2-1.7,2.9l0,0.2c-0.3,1.1-0.5,2.1-0.3,3.1l0.1,0.3c0.5,1.7,0.2,2.4-1.7,4.5c-0.2,0.2-1.8,1.9-5.3-0.1l-9.8-6.1
			c0,0,0,0,0,0c0,0-0.9-0.6-3.2-0.5c-3.1,0.2-7,0.6-7,0.6l-0.1,0c0,0-1.3,0-2.6,0.9c-1.6,1.1-8.5,4.8-9.5,5.3l-9.9,7.6l0,0
			c0,0-1.6,1.4-2.2,3.9c-0.1,0.3-0.2,0.7-0.2,1c-0.3,1.5-0.8,3.5-2.5,4.5C387.3,546,386.3,546.3,385,546.3z"/>
		<path fill="#F8F1E4" d="M332.1,289.3l-0.8-2.4l24.7-8.6c0.1-0.1,0.3-0.2,0.3-0.2c0,0,0,0.1-0.1,0.2l2.5,0.4
			c-0.2,1.2-1.5,1.9-1.7,2L332.1,289.3z"/>
		<path fill="#F8F1E4" d="M376.8,298.5c-0.5,0-0.9-0.2-1.2-0.4c-0.3-0.2-1.6-0.5-2.5-0.7l-7.4-1c-0.5,0-3.2-0.2-5-1.6l1.5-2
			c1.4,1.1,3.6,1.1,3.6,1.1l0.2,0l7.5,1c0.5,0.1,2,0.3,3,0.8c0.2-1,0.1-1.8,0.1-1.8c-0.1-0.5-0.2-1.1-0.3-1.2
			c-0.6-0.7-1.3-2-1.4-2.2l-0.1-0.1c-0.1-0.2-0.2-0.8-0.2-1.8l0-0.5c0-0.8,0.1-2.2-0.1-2.9c-0.1-0.3-0.2-0.6-0.3-0.9l0,0l0,0
			c-0.2-0.7-0.1-1.3,0.7-1.6l1.2-0.4l0.4,1.2l-0.5,0.2l0.5-0.2l0.3,0.9c0.4,1.2,0.3,2.7,0.3,3.9l0,0.5c0,0.4,0,0.7,0,0.8
			c0.3,0.5,0.7,1.3,1,1.6c0.7,0.8,0.9,2.1,0.9,2.5c0,0.1,0.2,1.5-0.2,3.1c-0.3,1.2-0.9,1.6-1.4,1.7
			C377.1,298.5,376.9,298.5,376.8,298.5z"/>
		<path fill="#F8F1E4" d="M364.4,269.3l-0.9-2.3c0.3-0.1,1.1-0.4,3.2-0.3c1.2,0,1.9-0.1,2.4-0.2c0.3-0.1,0.6-0.1,1-0.2
			c0.8,0,2.8,0.1,3.1,0.1c1.6,0.2,4.5,0.3,5.6,0l0.7,2.4c-1.9,0.5-6,0.1-6.4,0.1c-0.8-0.1-2.3-0.1-2.8-0.1c-0.1,0-0.3,0-0.5,0.1
			c-0.6,0.1-1.4,0.3-3,0.3C365,269.1,364.4,269.3,364.4,269.3z"/>
		<path fill="#F8F1E4" d="M351.8,272.1c-0.4,0-1.7-0.1-2.9-1.1l1.6-1.9c0.6,0.5,1.2,0.5,1.3,0.5l3.1-0.3c0.6,0,0.9-0.2,0.9-0.3
			c0,0,0,0,0,0.1l2.4,0.5c-0.2,0.8-1,2.1-3.2,2.2L351.8,272.1C351.8,272.1,351.8,272.1,351.8,272.1z"/>
		<path fill="#F8F1E4" d="M348,270.5c-0.2-0.1-1.8-0.6-2.6-2.7l-1.5-4.6l2.4-0.8l1.5,4.6c0.4,0.9,1,1.2,1,1.2L348,270.5z"/>
		<path fill="#F8F1E4" d="M313,280.7l0-2.5l3.2,0c0.1,0,1.3,0,2.4-0.4c1.3-0.6,8.9-4.1,9-4.1c0.3-0.1,1.2-0.8,1.5-1.5
			c0.7-1.4,1.4-3.1,3.6-4.4c1.9-1.1,17.4-9.1,18.4-9.6c0.3-0.1,0.8-0.3,1.7-0.3l19.9-9l0.2,0c0.5-0.1,1.1,0.1,1.7,0.6
			c0.6,0.6,0.8,1.4,0.8,2.5l-2.5-0.2c0-0.1,0-0.2,0-0.2l-19.6,8.8l-0.3,0c-0.4,0-0.6,0-0.7,0c-0.8,0.4-16.5,8.5-18.3,9.6
			c-1.5,0.8-2,2-2.6,3.2c-0.8,1.7-2.5,2.7-2.7,2.8c-0.4,0.2-7.8,3.6-9.2,4.2c-1.6,0.7-3.2,0.6-3.4,0.6L313,280.7z"/>
		<path fill="#F8F1E4" d="M338.4,277.5c-0.2-0.9-0.1-2.7,1.7-3.6c1.3-0.6,2.9-1.4,3.1-1.5c0.4-0.2,1.2-0.5,2.6,0.1l-1,2.3
			c-0.2-0.1-0.4-0.1-0.5-0.1c-0.3,0.2-1.9,1-3.2,1.6c-0.3,0.1-0.4,0.4-0.3,0.7L338.4,277.5z"/>
		<path fill="#F8F1E4" d="M343.7,275l-1.1-2.2c0.9-0.4,1.3-1.3,1.3-1.3l2.2,1.1C346.1,272.7,345.3,274.2,343.7,275z"/>
		<path fill="#F8F1E4" d="M347.3,270.7l-2.1-1.3c0.2-0.4,0.2-1.4,0.1-2.1l2.4-0.5C347.7,267.3,348.1,269.4,347.3,270.7z"/>
		<path fill="#F8F1E4" d="M348,277.6c-0.5-1.4-1.1-1.8-1.2-1.8l1.2-2.2c0.3,0.1,1.5,0.9,2.3,3.2L348,277.6z"/>
		<path fill="#F8F1E4" d="M351.2,272.6l-2.2-1.1c0.1-0.2,0.9-1.7,3-1.9l0.2,2.5C351.5,272.1,351.2,272.5,351.2,272.6z"/>
		<path fill="#F8F1E4" d="M340.4,276.1c-0.6,0-1.1-0.2-1.5-0.5c-1.1-0.8-1.1-2-1.1-2.2l2.5,0l-1.2,0l1.2,0c0,0.1,0,0.1,0,0.2
			c0,0,0.2,0,0.8-0.2l0.8,2.3C341.4,276,340.9,276.1,340.4,276.1z"/>
		<path fill="#F8F1E4" d="M339,278.1L339,278.1c-0.3,0-0.5-0.1-0.7-0.2c-0.9-0.5-1.1-1.6-0.5-2.9c0.2-0.4,0.7-1.6,1.9-1.6
			c0.2,0,0.4,0,0.6,0.1c0.4,0.1,0.7,0.4,0.8,0.8c0.3,0.7,0.1,1.5-0.1,2.1C340.7,277,340,278.1,339,278.1z M338.9,275.6l0.8,0.4
			c0,0,0,0,0,0c-0.1-0.1-0.2-0.2-0.3-0.3C339.3,275.6,339.1,275.6,338.9,275.6L338.9,275.6C338.9,275.6,338.9,275.6,338.9,275.6z"/>
		<path fill="#F8F1E4" d="M364.9,301.5c-0.1-1.7-0.8-2.5-0.9-2.6l-3.7-4.4l1.9-1.6l3.6,4.3c0.1,0.1,1.3,1.4,1.5,4L364.9,301.5z"/>
		<path fill="#F8F1E4" d="M369.3,307l-0.1-2.3c-0.6-0.4-1.5-1-1.5-2.3c0-0.4-0.1-1.8-0.2-2.6l0-0.1c0-0.2,0-1,0.7-1.7
			c0.1-0.1,0.2-0.2,0.3-0.3c1.8-2,2.4-2.5,3.1-2.5l0.5,0l0.4,0.4l-1.8,1.8c0.5,0.5,1.1,0.4,1.3,0.2c-0.2,0.1-0.8,0.7-1.7,1.8
			c-0.1,0.2-0.3,0.3-0.3,0.4c0,0.3,0.2,2,0.2,2.6c0.1,0.1,0.2,0.2,0.5,0.4c0.9,0.6,1.1,1.2,1,1.7l0.1,2.5L369.3,307z"/>
		<polygon fill="#F8F1E4" points="288.2,676.8 285.9,676.1 296.6,643 308,566.8 312.3,536.5 314.7,536.9 310.4,567.2 299.1,643.5 		
			"/>
		<path fill="#F8F1E4" d="M314.7,537l-2.4-0.6c0.1-0.5,0.8-3.1,1.8-4.2c0.3-0.4,1.7-2.1,3.7-4.6l1.9,1.5c-1.5,1.9-3.4,4.2-3.9,4.8
			C315.5,534.3,315,535.8,314.7,537z"/>
		<g>
			<defs>
				<rect id="SVGID_1_" x="366.2" y="123.6" width="49.7" height="72.4"/>
			</defs>
			<clipPath id="SVGID_2_">
				<use xlink:href="#SVGID_1_"  overflow="visible"/>
			</clipPath>
			<path clip-path="url(#SVGID_2_)" fill="#FDCD08" d="M379.1,196.2l-2.7-0.4c0-0.2,0.9-5.6,6.4-6.9c0.7-0.2,1.3-0.2,2-0.3
				c3.9-0.5,7.8-1,11.6-17.4l0-0.1c0-0.1,1.9-5.8-0.7-12.3c-2.9-7.3-2.6-14.4-2-19.8c0.5-4.5,0.5-7.8,0.5-8.3
				c-0.1-1.5-0.6-4-1.3-4.8c-1.1-1.4-2.5-3.4-2.8-3.9c-0.3-0.3-1.2-1.2-2-2.4c-0.7-1-1-2.2-1.2-3c-0.1-0.2-0.1-0.4-0.2-0.5
				c0,0-0.1-0.1-0.1-0.1c-0.5-0.5-1.4-1.4-1.4-2.4c0-0.5-0.7-2.2-1.2-2.6c-1.1-0.9-2.1-1.8-3-4.1l-0.1-0.2c0,0-0.1-0.1-0.2-0.1
				c-0.9-0.3-3.3-1.3-3.8-4.8c-0.1-0.6-0.3-1.4-0.5-1.6c-0.4-0.3-1.1-1.1-1.8-1.9c-0.5-0.6-1.1-1.2-1.3-1.5c-1-0.8-2.1-4-2.1-4.6
				c0-0.6,0.5-1.5,1.5-2.6l0,0c-0.1-0.2-0.2-0.5-0.4-0.9c-0.3-0.6-0.9-1.9-1.2-2.3c-0.1-0.1-0.2-0.1-0.3-0.2
				c-2.4-1.8-3.6-2.2-4.1-2.1c-2.5,1.9-2.8,2-3.1,2c-0.9,0.2-1.9-0.5-2.5-1.3c-0.5-0.7-1.1-2,0-4l0.2-0.3c1-1,1.9-2.1,2.2-2.6
				c0,0,0,0,0,0c0-0.5-0.1-1.7,0.7-2.7c-1.4-1.3-3.2-3.6-2.9-7.5l0-0.2c0.4-1.7,0.9-4.7,0.6-5.9c0-0.2-0.1-0.5-0.2-1
				c-1.7-6.7-3.9-16-2.7-19.7c1.4-4.2,1.8-7.5,1.6-8.6l-0.1-0.4c-0.4-1.7-1.2-5.2,0.3-9.2c1.1-2.8-0.6-7.8-1.4-9.4l-0.1-0.2
				c-0.2-0.5-0.7-3.6,3.6-10.8c0.1-0.4,0.3-1.1,0.3-1.5c0-0.2-0.1-0.8-0.1-1.8c-0.6-7.6-0.9-13.1-0.3-14.9
				c0.8-2.3,5.4-14.8,5.6-15.3l0.1-0.2l0.1-0.2c0,0,1.2-1.5,1.5-1.8c0.2-0.3,4.9-5.8,6.9-8.1l2.1,1.8c-2.6,3-6.6,7.6-6.8,8
				c-0.2,0.2-1,1.3-1.4,1.7c-0.6,1.7-4.7,12.9-5.4,15c-0.5,1.6,0.2,10.8,0.4,13.8c0.1,1.3,0.1,1.8,0.1,2c0,1.1-0.4,2.3-0.5,2.5
				l-0.1,0.3c-3.4,5.7-3.4,8.3-3.4,8.7c0.5,1.1,2.9,7.2,1.4,11.3c-1.2,3.2-0.6,6.1-0.2,7.7l0.1,0.5c0.4,2.1-0.6,6.5-1.7,10
				c-0.5,1.5-0.4,5.9,2.7,18.1c0.1,0.5,0.2,0.8,0.3,1c0.5,2.1-0.4,6.2-0.6,7.1c-0.3,4.3,3.1,5.9,3.1,5.9l2.9,1.3l-2.9,1.2
				c-0.9,0.4-0.9,0.7-0.8,1.3c0,0.1,0,0.3,0,0.4c0,0.4,0,1.2-2.8,4.1c-0.2,0.3-0.2,0.6-0.1,0.8c0,0,0,0.1,0,0.1c0.5-0.4,1.3-1,2-1.5
				l0.2-0.2l0.3-0.1c2.1-0.6,4.7,1.1,6.7,2.5c0.1,0.1,0.2,0.1,0.2,0.2c0.5,0.3,0.8,0.8,2.1,3.4c0.2,0.4,0.3,0.6,0.4,0.8l0.1,0.1
				c0.3,0.5,0.9,1.6-0.4,2.9c-0.3,0.4-0.6,0.7-0.8,1c0.2,0.7,0.8,2.1,1.1,2.4c0.4,0.3,0.9,0.9,1.6,1.7c0.5,0.6,1.2,1.4,1.5,1.6
				c1,0.8,1.3,2.7,1.4,3.2c0.3,2,1.3,2.4,2.1,2.6c1.1,0.4,1.7,1.3,1.9,1.9c0.7,1.7,1.3,2.2,2.2,2.9c1.3,1,2.2,3.5,2.3,4.6
				c0.1,0.2,0.4,0.5,0.6,0.6c0.1,0.1,0.3,0.3,0.3,0.4c0.3,0.4,0.4,0.8,0.6,1.5c0.2,0.7,0.5,1.6,0.9,2.3c0.8,1.2,1.7,2,1.7,2.1
				l0.2,0.2c0,0,1.6,2.3,2.8,3.8c1.5,1.9,1.8,5.9,1.9,6.4l0,0.1c0,0.1,0,3.7-0.5,8.7c-0.5,5.1-0.8,11.8,1.9,18.5
				c2.9,7.1,1,13.4,0.8,14.2c-3.9,16.8-8.4,18.7-13.9,19.4c-0.6,0.1-1.2,0.2-1.7,0.3C379.7,192.4,379.1,196.2,379.1,196.2z"/>
		</g>
		<polygon fill="#FDCD08" points="373.5,283 370.8,282.8 373.8,234.7 376.4,195.9 379.1,196.1 375.3,254.5 		"/>
		<path fill="#FDCD08" d="M357.8,336.7l-1.7-2.2c0.1-0.1,0.6-0.5,1.3-0.7l0.1,0c0.3-0.1,0.6-0.2,1-1.1c4.5-9.2,11.3-23.2,11.7-24.3
			c0.3-0.9,0.4-1.2,0.5-1.4c0-0.4,0.1-1.4,0.2-2.2c0.1-0.5,0.4-3.2,0.6-4.8c0-0.4,0-0.9-0.1-1l-0.1-0.2c-0.5-0.8-1.4-2.1-1.2-4.6
			c0.2-2.3,0.5-8.7,0.5-8.8l0-0.8l2.7,0.2l0,0.7c0,0.3-0.4,6.5-0.5,8.8c-0.1,1.6,0.3,2.2,0.8,2.8l0.2,0.3c0.7,1,0.6,2.5,0.5,2.8
			c-0.1,0.7-0.5,4.3-0.6,5.1c-0.1,0.5-0.2,1.3-0.2,1.7c0,0.3-0.1,0.8-0.7,2.3c-0.6,1.6-10.7,22.2-11.8,24.6c-0.9,1.8-2,2.2-2.6,2.4
			C358.2,336.4,357.9,336.6,357.8,336.7z"/>
		<path fill="#FDCD08" d="M310.8,527.7c-1.4,0-2.5-0.4-2.6-0.4l0.9-2.6c0,0,2.3,0.8,4.3-0.5c1.6-1,2.6-3,3.1-6.1l2.7,0.4
			c-0.6,3.9-2,6.6-4.4,8C313.4,527.5,312,527.7,310.8,527.7z"/>
	</g>
	<path fill="#FDCD08" d="M317.7,523.3l-2.3-1.4c0.6-1,1-2.9,1.1-3.5l21-145.2c0-0.1,0.3-1.8,1.2-3.7l14.9-33.5l2.5,1.1l-14.9,33.5
		c-0.7,1.6-1,3-1,3l-21,145.2C319.1,519,318.8,521.6,317.7,523.3z"/>
	<path fill="#F8F1E4" d="M274.7,295.3l-1.2-2.2l120.1-64.6l0.1,0l0,0c0,0,1.4-0.7,1.9-4c0.1-0.4,1.6-9.2,2.6-12.7
		c0.9-3.3,1.7-7,1.8-7.6c-0.1-1.5,0-11.2,0.5-14.5c0.6-3.5,4.1-18.2,4.3-18.8c0-0.2,2.3-7.2,1.7-14.1l2.5-0.2
		c0.6,7.4-1.7,14.7-1.8,15c0,0.1-3.6,15.1-4.2,18.5c-0.6,3.3-0.6,13.1-0.5,13.8c0.2,1.1-1.8,8.5-1.8,8.6c-0.9,3.3-2.5,12.3-2.5,12.4
		c-0.7,4.4-2.8,5.6-3.3,5.9L274.7,295.3z"/>
	<path fill="#F8F1E4" d="M353.3,336.8c0,0-1.1-0.8-1.8-1.2c-1.2-0.8-1.7-1.7-1.9-3.4c0-0.1-0.1-2-0.1-3.1c0-1-0.1-5.5-0.1-6.1
		c-0.1-0.6-0.2-1.3-0.3-1.5c-0.2-0.4-4.6-14.2-5.5-17.2c-0.1-0.2-0.5-1.2-1.2-1.8c-0.9-0.9-34.1-34.5-35.5-35.9l1.8-1.7
		c0.3,0.3,34.6,35,35.5,35.9c1.1,1.1,1.7,2.5,1.8,2.7l0,0.1c2.1,6.6,5.3,16.6,5.5,17.1c0.2,0.5,0.4,1.6,0.4,2.1l0,0.1
		c0,0,0.1,5.1,0.1,6.2c0,1.1,0.1,3,0.1,3c0.1,1.1,0.4,1.3,0.8,1.5c0.7,0.4,1.9,1.3,1.9,1.3L353.3,336.8z"/>
	<path fill="#F8F1E4" d="M354.7,334.6c-0.7-0.5-0.8-0.9-1.2-2l-0.2-0.5c-0.5-1.3-0.5-2.1-0.4-3.1c0-0.4,0-0.9,0-1.5
		c-0.1-1.5-0.4-2.4-0.5-2.6c-0.7-1.1-1.4-2.3-1.5-2.5c-0.3-0.4-0.6-1.2-0.7-1.6c-0.2-0.4-4.6-14.2-5.5-17.1
		c-0.1-0.2-0.5-1.2-1.2-1.8c-0.9-0.9-35-35.8-36.4-37.2l1.8-1.7c0.4,0.4,35.5,36.3,36.4,37.2c1.1,1.1,1.7,2.5,1.8,2.7l0,0.1
		c2.1,6.6,5.3,16.6,5.5,17.1c0.1,0.4,0.3,0.9,0.4,1c0.2,0.3,1.3,2.1,1.7,2.7l0.1,0.1c0.1,0.1,0.6,1.4,0.7,3.6c0,0.7,0,1.2,0,1.7
		c0,0.9,0,1.3,0.3,2.2l0.2,0.5c0.1,0.4,0.3,0.8,0.3,0.9L354.7,334.6z"/>
	<path fill="#F8F1E4" d="M357.7,334.4l-2.3-1l7-15.8l1.8-3.7c0.9-1.5,1.4-2.8,1.3-3.8c-0.1-1.1-1.1-15.7-1.8-27.8l2.5-0.2
		c1.1,17.1,1.8,26.9,1.8,27.7c0.2,1.9-0.8,4-1.7,5.4l0,0l-1.7,3.4L357.7,334.4z"/>
	
		<rect x="358.7" y="273.6" transform="matrix(6.497305e-02 0.9979 -0.9979 6.497305e-02 614.9693 -106.6862)" fill="#F8F1E4" width="11.4" height="2.5"/>
	<path fill="#F8F1E4" d="M362.7,267.7l-1.3-20.2l0-0.1c0-0.2-0.2-1.2-1.7-3.5c-2.2-3.3-14.6-26.6-15.2-27.6l2.2-1.2
		c0.1,0.2,12.9,24.2,15,27.4c1.9,2.9,2.2,4.4,2.1,5.1l1.3,19.9L362.7,267.7z"/>
	<path fill="#F8F1E4" d="M355.4,337.9c-1.5,0-2.8-1.2-2.8-2.8c0-1.5,1.2-2.8,2.8-2.8s2.8,1.2,2.8,2.8
		C358.2,336.6,356.9,337.9,355.4,337.9z M355.4,334.8c-0.2,0-0.3,0.1-0.3,0.3c0,0.2,0.1,0.3,0.3,0.3s0.3-0.1,0.3-0.3
		C355.7,334.9,355.6,334.8,355.4,334.8z"/>
</g>
<circle fill="none" stroke="#F8F1E4" stroke-width="2.4899" stroke-miterlimit="10" cx="364.8" cy="281.5" r="0.8"/>
<circle fill="#711114" cx="364" cy="268.3" r="0.8"/>
<circle fill="none" stroke="#F8F1E4" stroke-width="2.4899" stroke-miterlimit="10" cx="364" cy="268.3" r="0.8"/>
<path fill="none" stroke="#F8F1E4" stroke-width="2.4899" stroke-miterlimit="10" d="M377.6,293.2l1-0.6c0,0,0.7-0.5,1.8-0.1
	c1.1,0.3,2.9,0,3.3-1.8c0,0,0.1-1.2-1.4-1.1c0,0-0.4,0-0.7,0.2c-0.3,0.2-0.8,0.3-1.2-0.5c-0.4-0.8-0.5-1.9-1.8-1.4
	c-1.3,0.5-0.3,2.4-0.3,2.4s0.6,0.7,0.5,2c0,0,0.1,0.3-0.9,0.7"/>
<g>
	<path fill="none" stroke="#FFFFFF" stroke-width="5.0697" stroke-linecap="round" stroke-linejoin="round" d="M308.5,567.1
		c0,0-0.3-4.4-0.7-4.8c0,0-1.9-3.5-3.8-4.9c-1.2-1.3-46.7-12.4-46.7-12.4"/>
	<path fill="none" stroke="#FFFFFF" stroke-width="5.0697" stroke-linecap="round" stroke-linejoin="round" d="M303.7,556.9
		c0,0,7,1,8.4-9.3"/>
	<g>
		<g>
			<path fill="#FFFFFF" d="M308.7,557.4c-0.1,0-0.3,0-0.4,0.1c-0.5,0.2-0.6,0.8-0.4,1.2c0.5,0.9,1.7,0.9,1.8,0.9c0,0,0,0,0,0
				c0.3-1.1-0.1-1.7-0.1-1.7C309.4,557.6,309.1,557.4,308.7,557.4L308.7,557.4z"/>
		</g>
		<g>
			<path fill="#FFFFFF" d="M308.8,559.5c-0.4,0-0.8,0.1-1.1,0.4c-0.4,0.4-0.4,0.9,0,1.3c0.2,0.2,0.4,0.3,0.6,0.3
				c0.2,0,0.5-0.1,0.7-0.3c0,0,0.6-0.4,0.7-1.5C309.7,559.6,309.3,559.5,308.8,559.5L308.8,559.5z"/>
		</g>
	</g>
	<g>
		<g>
			<path fill="#FFFFFF" d="M311.3,557.8c-0.2,0-0.5,0.1-0.7,0.3c0,0-0.6,0.4-0.7,1.5c0,0,0.4,0.1,0.9,0.1c0.4,0,0.8-0.1,1.1-0.4
				c0.4-0.4,0.4-0.9,0-1.3C311.8,557.9,311.5,557.8,311.3,557.8L311.3,557.8z"/>
		</g>
		<g>
			<path fill="#FFFFFF" d="M310,559.6C310,559.6,310,559.6,310,559.6c-0.3,1.1,0.1,1.7,0.1,1.7c0.2,0.3,0.5,0.5,0.8,0.5
				c0.1,0,0.3,0,0.4-0.1c0.5-0.2,0.6-0.8,0.4-1.2C311.3,559.7,310.1,559.6,310,559.6L310,559.6z"/>
		</g>
	</g>
	<path fill="none" stroke="#FFFFFF" stroke-width="5.0697" stroke-linecap="round" stroke-linejoin="round" d="M308.6,567.6l1.2-8.1
		c0,0,1.1-4.3,1.8-6"/>
	
		<line fill="none" stroke="#FFFFFF" stroke-width="5.0697" stroke-linecap="round" stroke-linejoin="round" x1="308.6" y1="567.6" x2="304.3" y2="597.9"/>
	<path fill="none" stroke="#F8F1E4" stroke-width="2.4899" stroke-miterlimit="10" d="M308.5,567.1c0,0-0.3-4.4-0.7-4.8
		c0,0-1.9-3.5-3.8-4.9c-1.2-1.3-46.7-12.4-46.7-12.4"/>
	<path fill="none" stroke="#F8F1E4" stroke-width="2.4899" stroke-miterlimit="10" d="M312.2,547.6c-1.5,10.3-8.4,9.3-8.4,9.3"/>
	<g>
		<path fill="none" stroke="#F8F1E4" stroke-width="2.4899" stroke-miterlimit="10" d="M307.9,558.7c-0.2-0.5,0-1,0.4-1.2
			c0.5-0.2,1,0,1.2,0.4c0,0,0.4,0.6,0.1,1.7C309.7,559.6,308.4,559.6,307.9,558.7z"/>
		<path fill="none" stroke="#F8F1E4" stroke-width="2.4899" stroke-miterlimit="10" d="M307.7,559.9c-0.4,0.4-0.4,0.9,0,1.3
			c0.4,0.4,0.9,0.4,1.3,0c0,0,0.6-0.4,0.7-1.5C309.7,559.6,308.5,559.2,307.7,559.9z"/>
	</g>
	<g>
		<path fill="none" stroke="#F8F1E4" stroke-width="2.4899" stroke-miterlimit="10" d="M312,559.4c0.4-0.4,0.4-0.9,0-1.3
			c-0.4-0.4-0.9-0.4-1.3,0c0,0-0.6,0.4-0.7,1.5C310,559.6,311.2,560,312,559.4z"/>
		<path fill="none" stroke="#F8F1E4" stroke-width="2.4899" stroke-miterlimit="10" d="M311.8,560.5c0.2,0.5,0,1-0.4,1.2
			c-0.5,0.2-1,0-1.2-0.4c0,0-0.4-0.6-0.1-1.7C310,559.6,311.2,559.6,311.8,560.5z"/>
	</g>
	<path fill="none" stroke="#F8F1E4" stroke-width="2.4899" stroke-miterlimit="10" d="M303.4,556.9c0,0,2.4,1.8,3.1,2.1
		c0.7,0.3,0.7,0.2,2.9,0.6"/>
	<path fill="none" stroke="#F8F1E4" stroke-width="2.4899" stroke-miterlimit="10" d="M308.6,567.6l1.2-8.1c0,0,2.1-10.5,2.4-13"/>
	<line fill="none" stroke="#F8F1E4" stroke-width="2.4899" stroke-miterlimit="10" x1="308.6" y1="567.6" x2="301.7" y2="618.3"/>
</g>
<path fill="#5A595C" d="M269.5,517.9l7.5-0.3c0,0,1.3-0.2,0.3-1l0.8-4.2l4.1-1.2l1.1,1.3c0,0,2.5-0.2,2.5,0.3c0,0.6-0.4,0.7-0.6,0.7
	l-0.9,0.1l0.6,1.1l2.4,0.1l0.8,1c0,0,6.9-0.6,10,0.1c3.1,0.6,6.7,1.1,6.2,2.4c-0.5,1.3-7.4,2.9-21,2.5l-5,1.8l1.1,0.3
	c0,0,1.4,0.7,0.4,1.3c-0.9,0.5-2.3,0.6-5.3-0.4l-5,1.6c0,0,1.3,0.2,1.3,1c0,0.8-2.1,1.1-5.3,0l-16.5,5.2l-2.3-0.7l2.4-0.3l23.3-9.1
	l-9.3-0.2l-6.4-1.5c0,0,0.2-0.2,0.4-0.4c0.2-0.1,0.1-0.4,0-0.4c-0.1-0.1-5.5-3-5.5-3s1.5-0.3,2.3,0.1c0.8,0.4,8,2.8,8,2.8
	L269.5,517.9z"/>
<path fill="#FFFFFF" d="M283,510.6l11.3-0.6c0,0,6.6-0.8,9.1-2.9c0,0,2.3-2.3-0.6-3.4c-2.9-1.2-3.9-1.1-4.9-1.5
	c-1-0.4-2.6-0.9-10.2-0.2c0,0,0-1.1-0.5-1.5c-0.5-0.3-1.3,0.2-1.3,0.2l-1.6-2.5c0,0,0.7,0,0.7-0.4c0-0.4-0.1-1.2-0.4-1.3
	c-0.4-0.1-0.9,0-0.9,0l-1.8-3.3l-2.6,0.2c0,0,1.2,2.9-2.2,11.2l-12.1,1.8l0.2-2.4c0,0,0-0.5-0.3-0.6c-0.4-0.1-0.9-0.1-0.9-0.1
	l-2.3,3.4l-8.4-4.7c0,0-0.4-0.1-0.6-0.1c-0.2,0-1.3,0-1.3,0l5.9,5.7c0,0-0.3,0.8,0,1c0.2,0.2,1.7,0.6,1.7,0.6l-5.7,4.5
	c0,0,0.6,0.5,1.1,0.4c0.5-0.1,6.8-3.9,6.8-3.9s3.4,1.7,11.5,1l-26.2,16.3l2,0.8l16.9-8.5c0,0,0.7,0.9,3.8,1c0,0,1.5,0.1,1.5-1.5
	c0-1.6-1.2-1.7-1.4-1.7c-0.2,0,4.9-2.5,4.9-2.5s-0.1,0.4,0.2,0.5c0.3,0.1,3.3,0.9,3.3,0.9s1.8,0.2,2.2-1c0.3-1.2,0.1-2.3-2-2.3
	C278.1,513.4,282.9,511,283,510.6z"/>
<g>
	
		<text transform="matrix(1 6.790000e-03 -6.790000e-03 1 478.1277 455.6535)" fill="#FFFFFF" font-family="'PillGothic300mg-Light'" font-size="12.429">Hotel Zone</text>
</g>
<g>
	
		<text transform="matrix(1 6.790000e-03 -6.790000e-03 1 478.4206 442.4364)" fill="#FFFFFF" font-family="'PillGothic300mg-Light'" font-size="12.429">Zona Hotelera</text>
</g>
<g>
	
		<text transform="matrix(1 6.790000e-03 -6.790000e-03 1 486.5414 170.8145)" fill="#FFFFFF" font-family="'PillGothic300mg-Light'" font-size="12.429">Isla Mujeres</text>
</g>
<g>
	<g>
		<g>
			<g>
				<g>
					
						<text transform="matrix(0.1522 -0.9884 0.9884 0.1522 312.841 634.4094)" fill="#FFFFFF" font-family="'PillGothic300mg-Light'" font-size="9.8028">a / to Playa del Carmen</text>
				</g>
				<g>
					
						<text transform="matrix(0.1374 -0.9905 0.9905 0.1374 336.7669 482.2276)" fill="#FFFFFF" font-family="'PillGothic300mg-Light'" font-size="9.8028">Blvd. Luis Donaldo Colosio</text>
				</g>
				
					<text transform="matrix(0.4383 -0.8989 0.8989 0.4383 361.429 353.0435)" fill="#FFFFFF" font-family="'PillGothic300mg-Light'" font-size="9.8025">Bonampak</text>
			</g>
		</g>
	</g>
</g>
<g>
	
		<text transform="matrix(0.9997 -2.476975e-02 2.477000e-02 0.9997 249.7252 326.819)" fill="#FFFFFF" font-family="'PillGothic300mg-Light'" font-size="10.9787">DOWNTOWN</text>
</g>
<g>
	
		<text transform="matrix(1 -3.589964e-03 3.590000e-03 1 188.2995 388.2539)" fill="#FFFFFF" font-family="'PillGothic300mg-Bold'" font-size="21.8484">CANCN</text>
</g>
<text transform="matrix(0.9997 -2.476975e-02 2.477000e-02 0.9997 261.8608 311.0937)" fill="#FFFFFF" font-family="'PillGothic300mg-Light'" font-size="10.9787">CENTRO</text>
<g>
	
		<text transform="matrix(0.9998 -1.992000e-02 1.992000e-02 0.9998 189.7625 489.8351)" fill="#FFFFFF" font-family="'PillGothic300mg-Light'" font-size="12.4287">AEROPUERTO</text>
</g>
<g>
	
		<text transform="matrix(0.9998 -1.992000e-02 1.992000e-02 0.9998 217.9283 501.4091)" fill="#FFFFFF" font-family="'PillGothic300mg-Light'" font-size="12.4287">AIRPORT</text>
</g>
<g>
	
		<text transform="matrix(0.9664 0.2571 -0.2571 0.9664 251.3406 539.2238)" fill="#FFFFFF" font-family="'PillGothic300mg-Light'" font-size="9.8029">A / To Mrida</text>
</g>
<g>
	
		<text transform="matrix(0.3582 -0.9336 0.9336 0.3582 449.4618 434.3869)" fill="#FFFFFF" font-family="'PillGothic300mg-Light'" font-size="9.8026">Blvd. Kukulkan</text>
</g>
<polygon fill="#92BBB1" points="305.2,579.2 249.1,563.6 241.7,593.1 300.7,611 "/>
<path fill="#FDCD08" d="M398.5,125.8c1.6,0.2,3.2,0.4,4.7,0.6c2.5,0.4,4.9,0.9,7.2,2.1c0.8,0.4,1.5,0.9,2.1,1.6
	c0.8,0.8,0.8,1.8,0,2.6c-0.6,0.6-1.4,1.2-2.1,1.6c-2.5,1.3-5.1,1.9-7.9,2.2c-3.2,0.3-6.4,0.5-9.6,0.5c-4.3,0-8.5-0.5-12.6-2
	c-1-0.4-2-0.8-2.8-1.4c-2-1.3-2-3.1,0-4.3c1.4-0.8,3-1.5,4.5-1.9c2.4-0.6,5-0.9,7.5-1.3c0.4-0.1,0.7-0.1,1.2-0.1
	c-1-1.7-2.1-3.3-3.1-4.9c-1.9-3.1-3.8-6.1-5.6-9.3c-2.9-5-2.4-11.4,1.3-15.8c3.9-4.7,8.9-6.5,14.8-5.1c5.8,1.4,9.3,5.2,10.7,11
	c0.8,3.4,0.3,6.8-1.5,9.8c-2.6,4.4-5.4,8.8-8,13.1C399,125,398.8,125.4,398.5,125.8z M401,104.7c0-3.5-2.9-6.3-6.4-6.3
	c-3.5,0-6.3,2.9-6.3,6.4c0,3.5,2.9,6.3,6.3,6.3C398.1,111.1,401,108.2,401,104.7z M394.6,131.9c-0.9-1.4-1.7-2.7-2.5-3.9
	c-0.2-0.4-0.5-0.5-0.9-0.5c-1.6,0.2-3.1,0.4-4.7,0.7c-1.4,0.3-2.8,0.7-4,1.6c-0.8,0.6-0.9,1.2,0,1.8c0.8,0.5,1.6,0.9,2.5,1.2
	c3.6,1.2,7.4,1.4,11.2,1.2c2.8-0.1,5.6-0.4,8.3-1.4c0.8-0.3,1.6-0.7,2.2-1.2c0.7-0.5,0.7-1.1,0-1.6c-0.5-0.4-1-0.7-1.5-0.9
	c-2.3-1-4.8-1.3-7.3-1.5c-0.2,0-0.6,0.2-0.7,0.5C396.3,129.2,395.5,130.5,394.6,131.9z"/>
<circle fill="none" cx="354.6" cy="329.1" r="334.7"/>
</svg>
