<?xml version="1.0" encoding="utf-8"?>
<!-- Generator: Adobe Illustrator 18.1.0, SVG Export Plug-In . SVG Version: 6.00 Build 0)  -->
<svg version="1.1" id="Layer_1" xmlns="http://www.w3.org/2000/svg" xmlns:xlink="http://www.w3.org/1999/xlink" x="0px" y="0px"
	 viewBox="0 0 100 100" enable-background="new 0 0 100 100" xml:space="preserve">
<path fill="#4A7871" d="M50,96.8c-25.8,0-46.8-21-46.8-46.8c0-25.8,21-46.8,46.8-46.8s46.8,21,46.8,46.8
	C96.8,75.8,75.8,96.8,50,96.8z M50,5.1C25.2,5.1,5.1,25.2,5.1,50c0,24.8,20.1,44.9,44.9,44.9S94.9,74.8,94.9,50
	C94.9,25.2,74.8,5.1,50,5.1z"/>
<path fill="#4A7871" d="M40.1,67.9c-0.9,0-1.9-0.5-3.6-1.6l-0.4-0.2C36,66,35.9,66,35.8,66c-0.2,0-0.4,0.1-0.7,0.2
	c-0.3,0.1-0.8,0.3-1.3,0.3c-0.5,0-1-0.2-1.4-0.5c-0.8-0.7-1.8-1.5-3-1.3c-1.1,0.2-3.1,0.3-3.7,0.3c0,0,0,0,0,0
	c-1.1,0-1.6-0.6-1.8-1.1c-0.6-1.8,2.4-3.8,3-4.2c1.6-1.1,3.4-1.7,5.6-1.8c0.4,0,0.7-0.2,1-0.7c0.4-0.6,0.6-1.5,0.9-2.4
	c0.2-0.9,0.4-1.6,0.7-2.2c1.5-3.3,4-6.3,7.4-9.1c2-1.6,4.3-3,7-4.1c0.1-0.5,0.1-1.2-0.2-2.2c-0.2-0.8-0.5-1.4-0.6-1.8
	c-0.3-0.8-0.7-1.6-0.1-2.5c0.2-0.3,0.6-0.7,1.5-0.7c0.1,0,0.2,0,0.3,0c1.8,0.2,5.4,1.3,8.5,7.1c5.2,1.9,10,5.1,13.8,9.2
	c1.4,1.5,2.3,3.2,2.7,4.8c0.3,1.1,0.3,2,0.1,2.8c-0.1,0.5-0.3,0.9-0.5,1.3c0.7,1.1,1.6,3.1,0.3,4.3C75,62,74.6,62.2,74,62.2l0,0
	c-1.4,0-3.1-1.3-5.5-3.7c-0.2-0.2-0.3-0.3-0.4-0.4c-1.2-1.1-2.7-1.9-4.1-2.5c-0.4,0.4-0.9,0.8-1.4,1c-0.8,0.5-2.2,0.9-3.3,0.9
	c-0.6,0-1-0.1-1.4-0.3C57,57,56.8,56.3,56.8,56c-0.2-1.1,0.7-1.8,1.3-2.3l0.1-0.1c0,0,0.1-0.1,0.1-0.1c-1.7-0.6-3.6-1.1-5.5-1.1
	c-0.7,0-1.4,0.1-2,0.2c-2.9,0.6-5.7,2.5-8.3,4.4c-0.3,0.2-2.6,2-3.9,3.2c1.7,2,3.4,4.5,3.2,6.2c-0.1,0.6-0.4,1.1-0.9,1.3
	C40.7,67.8,40.4,67.9,40.1,67.9z M35.8,63.5c0.5,0,1,0.1,1.5,0.3c0.1,0.1,0.2,0.1,0.3,0.2l0.2,0.1c0.4,0.3,0.8,0.5,1.1,0.6
	c-0.5-1-1.5-2.4-3-3.9L35,59.9l0.9-0.8c0.7-0.7,4.6-3.8,5.1-4.1c2.8-2.1,5.9-4.1,9.3-4.8c0.8-0.2,1.7-0.3,2.5-0.3
	c2.8,0,5.5,0.9,7.6,1.7h2l-1.1,2c-0.3,0.6-0.6,1-1,1.5c0.4-0.1,0.8-0.3,1.1-0.4c0.7-0.4,1.1-0.8,1.4-1.1l0.6-0.8l0.9,0.4
	c1.7,0.7,3.9,1.7,5.6,3.3c0.1,0.1,0.3,0.2,0.5,0.4c1.6,1.6,2.6,2.3,3.2,2.7c-0.1-0.3-0.3-0.7-0.7-1.3l-0.1-0.3
	c-0.2-0.6,0.1-1.1,0.3-1.5c0,0,0-0.1,0.1-0.1c0.1-0.2,0.2-0.5,0.3-0.7c0.1-0.5,0.1-1-0.1-1.7c-0.3-1.3-1.1-2.6-2.2-3.7
	c-3.7-3.9-8.2-6.9-13.2-8.7l-0.5-0.2L57,40.8c-2.1-4-4.2-5.4-5.7-5.9c0.2,0.4,0.4,1,0.5,1.6c0.6,2.2,0.2,3.7,0,4.2l-0.2,0.5l-1,0.4
	c-2.4,1-4.6,2.3-6.4,3.8c-3.1,2.5-5.3,5.3-6.7,8.2c-0.2,0.5-0.4,1.1-0.6,1.7c-0.3,1.1-0.6,2.2-1.2,3.1c-0.7,1.2-1.7,1.8-3,1.9
	c-1.8,0.1-3.2,0.6-4.5,1.4c-0.2,0.2-0.5,0.4-0.8,0.6c0.6,0,1.1-0.1,1.5-0.2c0.3-0.1,0.6-0.1,0.9-0.1c1.7,0,3,0.9,4,1.8
	c0.1,0,0.2-0.1,0.2-0.1C34.6,63.7,35.2,63.5,35.8,63.5z"/>
</svg>
