<?xml version="1.0" encoding="utf-8"?>
<!-- Generator: Adobe Illustrator 18.1.0, SVG Export Plug-In . SVG Version: 6.00 Build 0)  -->
<svg version="1.1" id="Layer_1" xmlns="http://www.w3.org/2000/svg" xmlns:xlink="http://www.w3.org/1999/xlink" x="0px" y="0px"
	 viewBox="0 0 100 100" enable-background="new 0 0 100 100" xml:space="preserve">
<path fill="#4A7871" d="M50,96.8c-25.8,0-46.8-21-46.8-46.8c0-25.8,21-46.8,46.8-46.8s46.8,21,46.8,46.8
	C96.8,75.8,75.8,96.8,50,96.8z M50,5.1C25.2,5.1,5.1,25.2,5.1,50c0,24.8,20.1,44.9,44.9,44.9S94.9,74.8,94.9,50
	C94.9,25.2,74.8,5.1,50,5.1z"/>
<g>
	<path fill="#4A7871" d="M53.7,76.7h-7.4L46,66l-2.6-2.2h-0.8L41,57.1h18l-1.5,6.7h-0.8L54,66L53.7,76.7z M48.8,74.2h2.5l0.3-9.4
		l3.9-3.3l0.4-1.9H44.2l0.5,2l3.8,3.2L48.8,74.2z"/>
	<path fill="#4A7871" d="M50,62.1c-10.7,0-19.4-8.7-19.4-19.4c0-10.7,8.7-19.4,19.4-19.4c10.7,0,19.4,8.7,19.4,19.4
		C69.4,53.4,60.7,62.1,50,62.1z M50,25.8c-9.3,0-16.9,7.6-16.9,16.9c0,9.3,7.6,16.9,16.9,16.9c9.3,0,16.9-7.6,16.9-16.9
		C66.9,33.4,59.3,25.8,50,25.8z"/>
	<path fill="#4A7871" d="M47.6,56.6c-0.2,0.5-1.7,0.4-3.2-0.4c-1.5-0.7-2.5-1.7-2.3-2.3c0.3-0.5,1.7-0.4,3.2,0.4
		C46.9,55.1,47.9,56.1,47.6,56.6"/>
	<path fill="#4A7871" d="M54.8,56.3c0,0.6-1.3,1.2-3,1.3c-1.7,0.1-3.1-0.2-3.1-0.8c0-0.6,1.3-1.2,2.9-1.3
		C53.3,55.4,54.7,55.8,54.8,56.3"/>
	<path fill="#4A7871" d="M60.8,52.6c0.3,0.5-0.5,1.6-1.9,2.6c-1.4,0.9-2.8,1.3-3.1,0.8c-0.3-0.5,0.5-1.6,1.9-2.6
		C59.1,52.5,60.5,52.1,60.8,52.6"/>
	<path fill="#4A7871" d="M64.1,46.3c0.5,0.3,0.4,1.7-0.4,3.2C63,51,62,52,61.5,51.8c-0.5-0.3-0.4-1.7,0.4-3.2
		C62.6,47,63.6,46,64.1,46.3"/>
	<path fill="#4A7871" d="M63.9,39.2c0.6,0,1.2,1.3,1.3,2.9c0.1,1.7-0.2,3.1-0.8,3.1c-0.6,0-1.2-1.3-1.3-3
		C62.9,40.6,63.3,39.2,63.9,39.2"/>
	<path fill="#4A7871" d="M50.8,53.3c-0.1,0.4-1.2,0.5-2.4,0.3c-1.2-0.3-2.1-0.9-2-1.3c0.1-0.4,1.2-0.5,2.4-0.3
		C50,52.3,50.9,52.9,50.8,53.3"/>
	<path fill="#4A7871" d="M56,52c0.1,0.4-0.7,1.1-1.9,1.4c-1.2,0.4-2.3,0.3-2.4-0.1c-0.1-0.4,0.7-1.1,1.9-1.4
		C54.7,51.5,55.8,51.6,56,52"/>
	<path fill="#4A7871" d="M59.7,48.2c0.3,0.3-0.1,1.3-1,2.2c-0.9,0.9-1.8,1.4-2.1,1.1c-0.3-0.3,0.1-1.3,1-2.2
		C58.5,48.4,59.4,47.9,59.7,48.2"/>
	<path fill="#4A7871" d="M61.1,43c0.4,0.1,0.5,1.2,0.3,2.4c-0.3,1.2-0.9,2.1-1.3,2c-0.4-0.1-0.5-1.2-0.3-2.4
		C60.1,43.9,60.7,42.9,61.1,43"/>
	<path fill="#4A7871" d="M52.7,50.3c0,0.3-0.7,0.6-1.7,0.6c-0.9,0-1.7-0.2-1.7-0.6c0-0.3,0.8-0.6,1.7-0.6C52,49.7,52.7,50,52.7,50.3
		"/>
	<path fill="#4A7871" d="M56.3,48.4c0.2,0.3-0.3,0.9-1.2,1.4c-0.8,0.5-1.6,0.7-1.8,0.4c-0.2-0.3,0.3-0.9,1.2-1.4
		C55.3,48.3,56.1,48.1,56.3,48.4"/>
	<path fill="#4A7871" d="M58.3,44.9c0.3,0.2,0.2,1-0.3,1.8c-0.5,0.8-1.1,1.4-1.3,1.2c-0.3-0.2-0.2-1,0.3-1.8
		C57.4,45.3,58,44.8,58.3,44.9"/>
	<path fill="#4A7871" d="M53.4,47.8c0.1,0.2-0.5,0.6-1.1,0.7c-0.7,0.2-1.3,0.1-1.3-0.1c-0.1-0.2,0.5-0.6,1.1-0.7
		C52.8,47.5,53.4,47.6,53.4,47.8"/>
	<path fill="#4A7871" d="M55.7,45.9c0.2,0.2-0.1,0.7-0.6,1.2c-0.5,0.5-1.1,0.7-1.2,0.6c-0.2-0.2,0.1-0.7,0.6-1.2
		C55,45.9,55.5,45.7,55.7,45.9"/>
</g>
</svg>
