<?xml version="1.0" encoding="utf-8"?>
<!-- Generator: Adobe Illustrator 18.1.0, SVG Export Plug-In . SVG Version: 6.00 Build 0)  -->
<svg version="1.1" id="Layer_1" xmlns="http://www.w3.org/2000/svg" xmlns:xlink="http://www.w3.org/1999/xlink" x="0px" y="0px"
	 viewBox="0 0 100 100" enable-background="new 0 0 100 100" xml:space="preserve">
<path fill="#4A7871" d="M50,96.8c-25.8,0-46.8-21-46.8-46.8c0-25.8,21-46.8,46.8-46.8s46.8,21,46.8,46.8
	C96.8,75.8,75.8,96.8,50,96.8z M50,5.1C25.2,5.1,5.1,25.2,5.1,50c0,24.8,20.1,44.9,44.9,44.9S94.9,74.8,94.9,50
	C94.9,25.2,74.8,5.1,50,5.1z"/>
<g>
	<path fill="#4A7871" d="M70.5,67.7c-1.4,0-2-0.3-2.8-0.7c-0.3-0.2-0.7-0.3-1.1-0.5l4.3-11.3c0.3-0.9,0.3-1.9-0.2-2.7
		c-0.4-0.8-1.2-1.5-2.1-1.7l-3-0.8v-8.9c0-1.9-1.5-3.4-3.4-3.4h-5.9v-3.3c0-2.6-2.1-4.8-4.8-4.8h-3.3c-2.6,0-4.8,2.1-4.8,4.8v3.3
		h-5.9c-1.9,0-3.4,1.5-3.4,3.4V50l-3,0.8c-0.9,0.2-1.7,0.9-2.1,1.7c-0.4,0.8-0.5,1.8-0.2,2.7l4.3,11.3c-0.4,0.2-0.7,0.3-1.1,0.5
		c-0.8,0.4-1.4,0.7-2.8,0.7c-0.7,0-1.3,0.6-1.3,1.3s0.6,1.3,1.3,1.3c2,0,3.1-0.5,4-1c0.8-0.4,1.4-0.7,2.8-0.7s2,0.3,2.8,0.7
		c0.9,0.5,2,1,4,1c2,0,3.1-0.5,4-1c0.8-0.4,1.4-0.7,2.8-0.7s2,0.3,2.8,0.7c0.9,0.5,2,1,4,1c2,0,3.1-0.5,4-1c0.8-0.4,1.4-0.7,2.8-0.7
		s2,0.3,2.8,0.7c0.9,0.5,2,1,4,1c0.7,0,1.3-0.6,1.3-1.3S71.2,67.7,70.5,67.7L70.5,67.7z M46.2,34.5c0-1.2,1-2.2,2.2-2.2h3.3
		c1.2,0,2.2,1,2.2,2.2v3.3h-7.7V34.5z M36.9,41.1c0-0.5,0.4-0.8,0.8-0.8h24.5c0.5,0,0.8,0.4,0.8,0.8v8.2L50.3,46
		c-0.2-0.1-0.4-0.1-0.6,0l-12.8,3.3L36.9,41.1L36.9,41.1z M59.7,67c-0.8,0.4-1.4,0.7-2.8,0.7c-1.4,0-2-0.3-2.8-0.7c-0.9-0.5-2-1-4-1
		c-2,0-3.1,0.5-4,1c-0.8,0.4-1.4,0.7-2.8,0.7c-1.4,0-2-0.3-2.8-0.7c-0.9-0.5-2-1-4-1c-0.1,0-0.2,0-0.4,0l-4.5-11.7
		c-0.1-0.3,0-0.5,0-0.6c0.1-0.1,0.2-0.3,0.5-0.4L50,48.6l17.9,4.7c0.3,0.1,0.4,0.3,0.5,0.4c0.1,0.1,0.1,0.4,0,0.6L64,66
		c-0.1,0-0.2,0-0.4,0C61.6,66,60.6,66.6,59.7,67L59.7,67z"/>
	<path fill="#4A7871" d="M61.8,55.1l-11.5-3c-0.2-0.1-0.4-0.1-0.6,0l-11.5,3c-0.7,0.2-1.1,0.9-0.9,1.6c0.2,0.7,0.9,1.1,1.6,0.9
		L50,54.7l11.1,2.9c0.1,0,0.2,0,0.3,0c0.6,0,1.1-0.4,1.2-1C62.9,56,62.5,55.3,61.8,55.1L61.8,55.1z"/>
</g>
</svg>
