<?xml version="1.0" encoding="utf-8"?>
<!-- Generator: Adobe Illustrator 18.1.0, SVG Export Plug-In . SVG Version: 6.00 Build 0)  -->
<svg version="1.1" id="Layer_1" xmlns="http://www.w3.org/2000/svg" xmlns:xlink="http://www.w3.org/1999/xlink" x="0px" y="0px"
	 viewBox="0 0 100 100" 
enableBackground="new 0 0 100 100" xml:space="preserve">
<path fill="#4A7871" d="M50,96.8c-25.8,0-46.8-21-46.8-46.8c0-25.8,21-46.8,46.8-46.8s46.8,21,46.8,46.8
	C96.8,75.8,75.8,96.8,50,96.8z M50,5.1C25.2,5.1,5.1,25.2,5.1,50c0,24.8,20.1,44.9,44.9,44.9S94.9,74.8,94.9,50
	C94.9,25.2,74.8,5.1,50,5.1z"/>
<g id="XMLID_76_">
	<g id="XMLID_77_">
		<g id="XMLID_78_">
			<g>
				<path id="XMLID_12_" fill="#4A7871" d="M68.5,64.1H67V35c0-0.4-0.3-0.8-0.8-0.8h-5.5v-2.7c0-0.4-0.3-0.8-0.8-0.8H40.1
					c-0.4,0-0.8,0.3-0.8,0.8v2.7h-5.5c-0.4,0-0.8,0.3-0.8,0.8v29.2h-1.5c-0.4,0-0.8,0.3-0.8,0.8v3.6c0,0.4,0.3,0.8,0.8,0.8h15.1
					c0.4,0,0.8-0.3,0.8-0.8c0-0.4-0.3-0.8-0.8-0.8H32.3v-2.1h35.5v2.1H53.4c-0.4,0-0.8,0.3-0.8,0.8c0,0.4,0.3,0.8,0.8,0.8h15.1
					c0.4,0,0.8-0.3,0.8-0.8v-3.6C69.2,64.5,68.9,64.1,68.5,64.1L68.5,64.1z M40.8,32.3h18.4v2H40.8V32.3z M49.2,64.1h-3.9v-4.5
					c0-2.3,1.7-4.2,3.9-4.6V64.1z M50.8,64.1V55c2.2,0.4,3.9,2.3,3.9,4.6v4.5H50.8z M56.2,64.1v-4.5c0-3.4-2.8-6.2-6.2-6.2
					c-3.4,0-6.2,2.8-6.2,6.2v4.5h-9.3V35.7h31v28.4H56.2z"/>
				<path fill="#4A7871" d="M68.5,69.6H53.4c-0.6,0-1.1-0.5-1.1-1.1s0.5-1.1,1.1-1.1h14V66H32.6v1.4h14c0.6,0,1.1,0.5,1.1,1.1
					s-0.5,1.1-1.1,1.1H31.5c-0.6,0-1.1-0.5-1.1-1.1v-3.6c0-0.6,0.5-1.1,1.1-1.1h1.1V35c0-0.6,0.5-1.1,1.1-1.1h5.2v-2.3
					c0-0.6,0.5-1.1,1.1-1.1h19.9c0.6,0,1.1,0.5,1.1,1.1v2.3h5.2c0.6,0,1.1,0.5,1.1,1.1v28.8h1.1c0.6,0,1.1,0.5,1.1,1.1v3.6
					C69.6,69.1,69.1,69.6,68.5,69.6z M53.4,68.1c-0.2,0-0.4,0.2-0.4,0.4s0.2,0.4,0.4,0.4h15.1c0.2,0,0.4-0.2,0.4-0.4v-3.6
					c0-0.2-0.2-0.4-0.4-0.4h-1.9V35c0-0.2-0.2-0.4-0.4-0.4h-5.9v-3.1c0-0.2-0.2-0.4-0.4-0.4H40c-0.2,0-0.4,0.2-0.4,0.4v3.1h-5.9
					c-0.2,0-0.4,0.2-0.4,0.4v29.5h-1.9c-0.2,0-0.4,0.2-0.4,0.4v3.6c0,0.2,0.2,0.4,0.4,0.4h15.1c0.2,0,0.4-0.2,0.4-0.4
					s-0.2-0.4-0.4-0.4H31.9v-2.9h36.2v2.9H53.4z M65.9,64.5H55.8v-4.9c0-3.2-2.6-5.8-5.8-5.8s-5.8,2.6-5.8,5.8v4.9H34.1V35.3h31.7
					V64.5z M56.5,63.8h8.6V36.1H34.9v27.7h8.6v-4.1c0-3.6,2.9-6.5,6.5-6.5s6.5,2.9,6.5,6.5V63.8z M55,64.5h-4.7v-9.9l0.4,0.1
					c2.4,0.4,4.2,2.5,4.2,5V64.5z M51.1,63.8h3.2v-4.1c0-2-1.3-3.6-3.2-4.1V63.8z M49.6,64.5H45v-4.9c0-2.5,1.8-4.6,4.2-5l0.4-0.1
					V64.5z M45.7,63.8h3.2v-8.3c-1.9,0.5-3.2,2.2-3.2,4.1V63.8z M59.6,34.6H40.4v-2.7h19.1V34.6z M41.2,33.8h17.6v-1.2H41.2V33.8z"
					/>
			</g>
			<g>
				<path id="XMLID_11_" fill="#4A7871" d="M41,39h-3.6c-0.4,0-0.8,0.3-0.8,0.8v3.6c0,0.4,0.3,0.8,0.8,0.8H41c0.4,0,0.8-0.3,0.8-0.8
					v-3.6C41.7,39.4,41.4,39,41,39z M40.2,42.6h-2.1v-2.1h2.1V42.6z"/>
				<path fill="#4A7871" d="M41,44.5h-3.6c-0.6,0-1.1-0.5-1.1-1.1v-3.6c0-0.6,0.5-1.1,1.1-1.1H41c0.6,0,1.1,0.5,1.1,1.1v3.6
					C42.1,44,41.6,44.5,41,44.5z M37.4,39.4c-0.2,0-0.4,0.2-0.4,0.4v3.6c0,0.2,0.2,0.4,0.4,0.4H41c0.2,0,0.4-0.2,0.4-0.4v-3.6
					c0-0.2-0.2-0.4-0.4-0.4H37.4z M40.6,43h-2.9v-2.9h2.9V43z M38.5,42.3h1.4v-1.4h-1.4V42.3z"/>
			</g>
			<g>
				<path id="XMLID_10_" fill="#4A7871" d="M48.2,39h-3.6c-0.4,0-0.8,0.3-0.8,0.8v3.6c0,0.4,0.3,0.8,0.8,0.8h3.6
					c0.4,0,0.8-0.3,0.8-0.8v-3.6C48.9,39.4,48.6,39,48.2,39z M47.4,42.6h-2.1v-2.1h2.1V42.6z"/>
				<path fill="#4A7871" d="M48.2,44.5h-3.6c-0.6,0-1.1-0.5-1.1-1.1v-3.6c0-0.6,0.5-1.1,1.1-1.1h3.6c0.6,0,1.1,0.5,1.1,1.1v3.6
					C49.3,44,48.8,44.5,48.2,44.5z M44.6,39.4c-0.2,0-0.4,0.2-0.4,0.4v3.6c0,0.2,0.2,0.4,0.4,0.4h3.6c0.2,0,0.4-0.2,0.4-0.4v-3.6
					c0-0.2-0.2-0.4-0.4-0.4H44.6z M47.8,43H45v-2.9h2.9V43z M45.7,42.3h1.4v-1.4h-1.4V42.3z"/>
			</g>
			<g>
				<path id="XMLID_9_" fill="#4A7871" d="M55.4,39h-3.6c-0.4,0-0.8,0.3-0.8,0.8v3.6c0,0.4,0.3,0.8,0.8,0.8h3.6
					c0.4,0,0.8-0.3,0.8-0.8v-3.6C56.2,39.4,55.8,39,55.4,39z M54.7,42.6h-2.1v-2.1h2.1V42.6z"/>
				<path fill="#4A7871" d="M55.4,44.5h-3.6c-0.6,0-1.1-0.5-1.1-1.1v-3.6c0-0.6,0.5-1.1,1.1-1.1h3.6c0.6,0,1.1,0.5,1.1,1.1v3.6
					C56.5,44,56,44.5,55.4,44.5z M51.8,39.4c-0.2,0-0.4,0.2-0.4,0.4v3.6c0,0.2,0.2,0.4,0.4,0.4h3.6c0.2,0,0.4-0.2,0.4-0.4v-3.6
					c0-0.2-0.2-0.4-0.4-0.4H51.8z M55,43h-2.9v-2.9H55V43z M52.9,42.3h1.4v-1.4h-1.4V42.3z"/>
			</g>
			<g>
				<path id="XMLID_8_" fill="#4A7871" d="M62.6,39H59c-0.4,0-0.8,0.3-0.8,0.8v3.6c0,0.4,0.3,0.8,0.8,0.8h3.6c0.4,0,0.8-0.3,0.8-0.8
					v-3.6C63.4,39.4,63,39,62.6,39z M61.9,42.6h-2.1v-2.1h2.1V42.6z"/>
				<path fill="#4A7871" d="M62.6,44.5H59c-0.6,0-1.1-0.5-1.1-1.1v-3.6c0-0.6,0.5-1.1,1.1-1.1h3.6c0.6,0,1.1,0.5,1.1,1.1v3.6
					C63.8,44,63.3,44.5,62.6,44.5z M59,39.4c-0.2,0-0.4,0.2-0.4,0.4v3.6c0,0.2,0.2,0.4,0.4,0.4h3.6c0.2,0,0.4-0.2,0.4-0.4v-3.6
					c0-0.2-0.2-0.4-0.4-0.4H59z M62.3,43h-2.9v-2.9h2.9V43z M60.1,42.3h1.4v-1.4h-1.4V42.3z"/>
			</g>
			<g>
				<path id="XMLID_7_" fill="#4A7871" d="M41,46.2h-3.6c-0.4,0-0.8,0.3-0.8,0.8v3.6c0,0.4,0.3,0.8,0.8,0.8H41
					c0.4,0,0.8-0.3,0.8-0.8V47C41.7,46.6,41.4,46.2,41,46.2z M40.2,49.8h-2.1v-2.1h2.1V49.8z"/>
				<path fill="#4A7871" d="M41,51.7h-3.6c-0.6,0-1.1-0.5-1.1-1.1V47c0-0.6,0.5-1.1,1.1-1.1H41c0.6,0,1.1,0.5,1.1,1.1v3.6
					C42.1,51.2,41.6,51.7,41,51.7z M37.4,46.6c-0.2,0-0.4,0.2-0.4,0.4v3.6c0,0.2,0.2,0.4,0.4,0.4H41c0.2,0,0.4-0.2,0.4-0.4V47
					c0-0.2-0.2-0.4-0.4-0.4H37.4z M40.6,50.2h-2.9v-2.9h2.9V50.2z M38.5,49.5h1.4v-1.4h-1.4V49.5z"/>
			</g>
			<g>
				<path id="XMLID_6_" fill="#4A7871" d="M48.2,46.2h-3.6c-0.4,0-0.8,0.3-0.8,0.8v3.6c0,0.4,0.3,0.8,0.8,0.8h3.6
					c0.4,0,0.8-0.3,0.8-0.8V47C48.9,46.6,48.6,46.2,48.2,46.2z M47.4,49.8h-2.1v-2.1h2.1V49.8z"/>
				<path fill="#4A7871" d="M48.2,51.7h-3.6c-0.6,0-1.1-0.5-1.1-1.1V47c0-0.6,0.5-1.1,1.1-1.1h3.6c0.6,0,1.1,0.5,1.1,1.1v3.6
					C49.3,51.2,48.8,51.7,48.2,51.7z M44.6,46.6c-0.2,0-0.4,0.2-0.4,0.4v3.6c0,0.2,0.2,0.4,0.4,0.4h3.6c0.2,0,0.4-0.2,0.4-0.4V47
					c0-0.2-0.2-0.4-0.4-0.4H44.6z M47.8,50.2H45v-2.9h2.9V50.2z M45.7,49.5h1.4v-1.4h-1.4V49.5z"/>
			</g>
			<g>
				<path id="XMLID_5_" fill="#4A7871" d="M55.4,46.2h-3.6c-0.4,0-0.8,0.3-0.8,0.8v3.6c0,0.4,0.3,0.8,0.8,0.8h3.6
					c0.4,0,0.8-0.3,0.8-0.8V47C56.2,46.6,55.8,46.2,55.4,46.2z M54.7,49.8h-2.1v-2.1h2.1V49.8z"/>
				<path fill="#4A7871" d="M55.4,51.7h-3.6c-0.6,0-1.1-0.5-1.1-1.1V47c0-0.6,0.5-1.1,1.1-1.1h3.6c0.6,0,1.1,0.5,1.1,1.1v3.6
					C56.5,51.2,56,51.7,55.4,51.7z M51.8,46.6c-0.2,0-0.4,0.2-0.4,0.4v3.6c0,0.2,0.2,0.4,0.4,0.4h3.6c0.2,0,0.4-0.2,0.4-0.4V47
					c0-0.2-0.2-0.4-0.4-0.4H51.8z M55,50.2h-2.9v-2.9H55V50.2z M52.9,49.5h1.4v-1.4h-1.4V49.5z"/>
			</g>
			<g>
				<path id="XMLID_4_" fill="#4A7871" d="M62.6,46.2H59c-0.4,0-0.8,0.3-0.8,0.8v3.6c0,0.4,0.3,0.8,0.8,0.8h3.6
					c0.4,0,0.8-0.3,0.8-0.8V47C63.4,46.6,63,46.2,62.6,46.2z M61.9,49.8h-2.1v-2.1h2.1V49.8z"/>
				<path fill="#4A7871" d="M62.6,51.7H59c-0.6,0-1.1-0.5-1.1-1.1V47c0-0.6,0.5-1.1,1.1-1.1h3.6c0.6,0,1.1,0.5,1.1,1.1v3.6
					C63.8,51.2,63.3,51.7,62.6,51.7z M59,46.6c-0.2,0-0.4,0.2-0.4,0.4v3.6c0,0.2,0.2,0.4,0.4,0.4h3.6c0.2,0,0.4-0.2,0.4-0.4V47
					c0-0.2-0.2-0.4-0.4-0.4H59z M62.3,50.2h-2.9v-2.9h2.9V50.2z M60.1,49.5h1.4v-1.4h-1.4V49.5z"/>
			</g>
			<g>
				<path id="XMLID_3_" fill="#4A7871" d="M41,53.5h-3.6c-0.4,0-0.8,0.3-0.8,0.8v3.6c0,0.4,0.3,0.8,0.8,0.8H41
					c0.4,0,0.8-0.3,0.8-0.8v-3.6C41.7,53.8,41.4,53.5,41,53.5z M40.2,57.1h-2.1V55h2.1V57.1z"/>
				<path fill="#4A7871" d="M41,58.9h-3.6c-0.6,0-1.1-0.5-1.1-1.1v-3.6c0-0.6,0.5-1.1,1.1-1.1H41c0.6,0,1.1,0.5,1.1,1.1v3.6
					C42.1,58.4,41.6,58.9,41,58.9z M37.4,53.8c-0.2,0-0.4,0.2-0.4,0.4v3.6c0,0.2,0.2,0.4,0.4,0.4H41c0.2,0,0.4-0.2,0.4-0.4v-3.6
					c0-0.2-0.2-0.4-0.4-0.4H37.4z M40.6,57.4h-2.9v-2.9h2.9V57.4z M38.5,56.7h1.4v-1.4h-1.4V56.7z"/>
			</g>
			<g>
				<path id="XMLID_2_" fill="#4A7871" d="M62.6,53.5H59c-0.4,0-0.8,0.3-0.8,0.8v3.6c0,0.4,0.3,0.8,0.8,0.8h3.6
					c0.4,0,0.8-0.3,0.8-0.8v-3.6C63.4,53.8,63,53.5,62.6,53.5z M61.9,57.1h-2.1V55h2.1V57.1z"/>
				<path fill="#4A7871" d="M62.6,58.9H59c-0.6,0-1.1-0.5-1.1-1.1v-3.6c0-0.6,0.5-1.1,1.1-1.1h3.6c0.6,0,1.1,0.5,1.1,1.1v3.6
					C63.8,58.4,63.3,58.9,62.6,58.9z M59,53.8c-0.2,0-0.4,0.2-0.4,0.4v3.6c0,0.2,0.2,0.4,0.4,0.4h3.6c0.2,0,0.4-0.2,0.4-0.4v-3.6
					c0-0.2-0.2-0.4-0.4-0.4H59z M62.3,57.4h-2.9v-2.9h2.9V57.4z M60.1,56.7h1.4v-1.4h-1.4V56.7z"/>
			</g>
			<g>
				<path id="XMLID_1_" fill="#4A7871" d="M50,67.7c-0.2,0-0.4,0.1-0.5,0.2c-0.1,0.1-0.2,0.3-0.2,0.5c0,0.2,0.1,0.4,0.2,0.5
					c0.1,0.1,0.3,0.2,0.5,0.2c0.2,0,0.4-0.1,0.5-0.2c0.1-0.1,0.2-0.3,0.2-0.5c0-0.2-0.1-0.4-0.2-0.5C50.4,67.8,50.2,67.7,50,67.7z"
					/>
				<path fill="#4A7871" d="M50,69.6c-0.3,0-0.6-0.1-0.8-0.3c-0.2-0.2-0.3-0.5-0.3-0.8c0-0.3,0.1-0.6,0.3-0.8c0.4-0.4,1.2-0.4,1.6,0
					c0.2,0.2,0.3,0.5,0.3,0.8c0,0.3-0.1,0.6-0.3,0.8S50.3,69.6,50,69.6z M50,68.1c-0.1,0-0.2,0-0.3,0.1c-0.1,0.1-0.1,0.2-0.1,0.3
					c0,0.1,0,0.2,0.1,0.3c0.1,0.1,0.4,0.1,0.5,0c0.1-0.1,0.1-0.2,0.1-0.3s0-0.2-0.1-0.3C50.2,68.2,50.1,68.1,50,68.1z"/>
			</g>
		</g>
	</g>
</g>
</svg>
