<?xml version="1.0" encoding="utf-8"?>
<!-- Generator: Adobe Illustrator 25.2.1, SVG Export Plug-In . SVG Version: 6.00 Build 0)  -->
<svg version="1.1" id="Layer_1" xmlns="http://www.w3.org/2000/svg" xmlns:xlink="http://www.w3.org/1999/xlink" x="0px" y="0px"
	 viewBox="0 0 137 128.8" style="enable-background:new 0 0 137 128.8;" xml:space="preserve">
<g>
	<path d="M6.6,64.4c0-34.3,27.9-61.8,61.8-61.9c34-0.1,62,27.3,62.1,61.8c0,34.4-27.8,62-61.9,62C34.2,126.3,6.6,98.5,6.6,64.4z
		 M7.1,64.4C7,98.2,34.5,125.9,68.6,125.8c33.9,0,61.4-27.5,61.4-61.4C130,30.5,102.5,3,68.5,3C34.6,3,7.1,30.4,7.1,64.4z"/>
	<path d="M59.9,107.7c-1.7,2.1-3.3,4.1-4.9,6c-0.7,0.9-1.4,1.7-2.1,2.6c-0.2,0.3-0.5,0.4-0.8,0.3c-0.5-0.1-1.1-0.2-1.7-0.5
		c0.3-0.1,0.6-0.3,0.9-0.4c0.4-0.1,0.6-0.4,0.7-0.8c0.7-3.3,1.3-6.7,2-10c0.1-0.4,0-0.8-0.3-1c-0.3-0.2-0.6-0.5-0.9-0.7
		c0.1-0.1,0.1-0.2,0.2-0.3c1.5,0.3,2.9,0.6,4.4,0.9c0,0.1,0,0.1,0,0.2c-0.4,0.2-0.9,0.3-1.3,0.6c-0.2,0.1-0.4,0.3-0.5,0.5
		c-0.6,2.8-1.2,5.7-1.7,8.5c0,0.2,0,0.3,0,0.6c2.4-2.9,4.6-5.6,6.9-8.4c0.1,0,0.1,0,0.2,0c1,3.4,2.1,6.8,3.1,10.2c0,0,0.1,0,0.1,0
		c0.1-0.3,0.1-0.6,0.2-1c0.5-2.6,1-5.2,1.6-7.8c0.1-0.4,0-0.7-0.3-0.9c-0.3-0.3-0.6-0.6-0.8-1c1.2,0.2,2.3,0.5,3.5,0.7
		c0,0,0,0.1,0,0.1c-0.3,0.2-0.7,0.4-1,0.5c-0.5,0.1-0.7,0.5-0.8,1c-0.6,2.9-1.1,5.7-1.7,8.6c-0.3,1.1-0.1,2,0.5,3
		c0,0-0.1,0.1-0.1,0.1c-0.6-0.1-1.3-0.2-1.9-0.4c-0.1,0-0.2-0.3-0.2-0.5c-0.9-3-1.8-6.1-2.7-9.1C60.2,108.7,60.1,108.3,59.9,107.7z"
		/>
	<path d="M94.8,103.8c2.1-1.6,4.1-3.3,6.2-4.9c-0.3-0.4-0.6-0.7-0.8-1.1c-0.7-0.9-1.5-1.8-2.1-2.7c-0.3-0.4-0.6-0.7-1.2-0.5
		c-0.3,0.1-0.6,0-0.8,0c0,0,0-0.1-0.1-0.1c1.1-0.9,2.1-1.7,3.2-2.6c0.1,0,0.1,0,0.2,0.1c-0.1,0.3-0.1,0.7-0.3,1
		c-0.1,0.4-0.1,0.6,0.2,0.9c2.2,2.7,4.4,5.5,6.6,8.2c0.1,0.2,0.4,0.3,0.7,0.3c0.4,0,0.7,0,1.1,0c0,0,0.1,0.1,0.1,0.1
		c-1.1,0.9-2.1,1.7-3.2,2.6c0,0-0.1-0.1-0.1-0.1c0.1-0.4,0.2-0.8,0.3-1.1c0-0.2,0.1-0.5-0.1-0.6c-1-1.3-2-2.6-3.1-3.9
		c-2.1,1.7-4.1,3.3-6.2,4.9c1.1,1.3,2.1,2.7,3.2,3.9c0.1,0.1,0.4,0.2,0.5,0.2c0.4,0,0.7,0,1.1,0c0,0,0.1,0.1,0.1,0.1
		c-1,0.8-2.1,1.7-3.1,2.5c0,0-0.1,0-0.1-0.1c0.1-0.4,0.2-0.7,0.2-1.1c0-0.3,0-0.6-0.2-0.8c-2.2-2.8-4.4-5.5-6.6-8.3
		c-0.1-0.2-0.4-0.2-0.6-0.3c-0.4,0-0.8,0-1.4,0c1.2-1,2.3-1.8,3.3-2.7c0,0,0.1,0,0.1,0.1c-0.1,0.4-0.2,0.8-0.3,1.1
		c0,0.2-0.1,0.5,0,0.6C92.6,101.1,93.7,102.4,94.8,103.8z"/>
	<path d="M96,33.8c0.3,0.1,0.5,0.1,0.6,0.1c0.8,0.5,1.4,0.1,2.1-0.5c2.4-2,4.9-4,7.4-6c0.4-0.3,0.7-0.6,0.5-1.2
		c-0.1-0.3,0-0.6,0-1.1c0.5,0.6,0.8,1,1.2,1.4c1.2,1.6,2.7,3,3.5,4.8c1,2.3,1.2,4.6-0.4,6.7c-1.6,2.1-3.7,3.3-6.4,3
		c-1.8-0.2-3.3-1.1-4.5-2.5c-1.2-1.5-2.4-3-3.6-4.4C96.2,34.1,96.2,34,96,33.8z M108.1,27.9c-0.2,0.2-0.3,0.2-0.4,0.3
		c-2.8,2.3-5.6,4.6-8.5,6.9c-0.4,0.3-0.4,0.6-0.2,1c0.3,0.5,0.6,1.1,0.9,1.5c1.6,2.2,3.9,2.9,6.3,1.9c1.3-0.6,2.5-1.4,3.4-2.5
		c1.4-1.8,1.8-3.9,0.7-6C109.8,29.9,108.9,28.9,108.1,27.9z"/>
	<path d="M26.8,41.3c1.6,1,3.2,2,4.7,2.9c0.1,0.1,0.4,0,0.6-0.1c0.4-0.2,0.8-0.4,1.2-0.6c0,0,0.1,0.1,0.1,0.1
		c-0.8,1.2-1.5,2.5-2.3,3.8C31,47.3,31,47.2,31,47.1c0.1-1.1-0.4-1.6-1.3-2.1c-2.7-1.6-5.3-3.2-7.9-4.8c-0.5-0.3-0.9-0.4-1.4-0.1
		c-0.2,0.1-0.5,0.2-0.8,0.3c0.1-0.2,0.1-0.3,0.1-0.4c0.9-1.5,1.8-3,2.8-4.4c0.3-0.4,0.7-0.8,1.1-1.1c1.6-1.1,3.5-0.5,4.3,1.3
		c0.3,0.7,0.4,1.6,0.6,2.6c1.3,0,2.8,0,4.3,0c1.5,0,3-0.1,4.3-0.8c0,0.7-0.6,1.7-1.5,2c-0.6,0.2-1.3,0.3-2,0.3c-1.7,0-3.4,0-5.1-0.1
		c-0.6,0-1,0.1-1.2,0.7C27.2,40.7,27,41,26.8,41.3z M26.3,41c0.3-0.5,0.6-1,0.9-1.4c0.9-1.3,0.3-2.8-0.7-3.6c-1.3-1-2.7-1-3.7,0.1
		c-0.5,0.5-0.9,1.2-1.3,1.8C23.1,39.1,24.7,40,26.3,41z"/>
	<path d="M108.7,56.3c0.1,0.1,0.3,0.2,0.4,0.4c0.4,0.7,1,0.8,1.8,0.7c3.1-0.3,6.3-0.5,9.4-0.8c0.7,0,1.1-0.3,1.4-0.9
		c0.1-0.2,0.2-0.4,0.5-0.5c0,0.3,0.1,0.5,0.1,0.8c0.1,1.2,0.2,2.3,0.3,3.5c0,0.7,0,1.4-0.1,2.1c-0.4,1.9-2.3,2.7-4,1.7
		c-0.6-0.4-1.1-0.9-1.6-1.3c-0.2,0.6-0.4,1.4-0.8,2c-1.4,2.1-4.6,1.9-6-0.2c-0.6-0.9-0.9-1.8-1-2.9c-0.1-1.6-0.3-3.1-0.4-4.7
		C108.6,56.4,108.7,56.3,108.7,56.3z M115.9,58.6c-0.4,0-0.7,0-1,0c-1.3,0.1-2.6,0.2-3.9,0.4c-1.4,0.1-1.4,0.1-1.5,1.5
		c-0.1,1.9,1.2,3.3,3,3.5c2,0.1,3.4-1,3.5-3C116.1,60.2,116,59.4,115.9,58.6z M121.9,58.1c-1.9,0.2-3.6,0.3-5.3,0.4
		c0,0.3,0,0.5,0,0.7c0.1,1.9,0.6,2.7,2.6,3c1.3,0.2,2.6-0.5,2.7-2C121.9,59.6,121.9,58.9,121.9,58.1z"/>
	<path d="M83.6,26.1c1.6,0.4,2-0.7,2.5-1.7c1.4-2.7,2.9-5.3,4.3-8c0.2-0.4,0.2-0.7,0-1.1c-0.2-0.3-0.3-0.6-0.4-0.9
		c0,0,0.1-0.1,0.1-0.1c2.6,1.4,5.1,2.8,7.7,4.2c-0.4,0.7-0.7,1.3-1,2c-0.1,0-0.1,0-0.2,0c-0.1-0.5-0.1-1.1-0.3-1.6
		c-0.1-0.3-0.3-0.6-0.5-0.7c-1.1-0.7-2.3-1.3-3.5-1.9c-0.9,1.6-1.7,3.2-2.6,4.8c0.7,0.4,1.4,0.8,2.1,1.1c0.1,0,0.1,0.1,0.2,0.1
		c1,0.5,2,1.5,3.1,0c0,0.1,0.1,0.2,0.1,0.3c-0.5,0.9-1,1.9-1.5,2.9c-0.1-0.1-0.1-0.2-0.1-0.2c0.2-1.1-0.4-1.7-1.4-2.2
		c-0.9-0.4-1.8-0.9-2.7-1.4c-1,1.9-2,3.7-3,5.6c1.1,0.6,2.2,1.1,3.2,1.8c0.8,0.5,1.4,0.6,2.2,0c0.3-0.3,0.7-0.4,1.2-0.5
		c-0.4,0.7-0.8,1.5-1.2,2.3c-2.7-1.5-5.5-3-8.2-4.4C83.6,26.3,83.6,26.2,83.6,26.1z"/>
	<path d="M50,27.7c-1.1,0.8-2.2,1.5-3.2,2.3c0,0-0.1-0.1-0.1-0.1c0.2-0.5,0.3-1,0.5-1.5c-1.4-0.9-2.9-1.8-4.3-2.6
		c-0.1-0.1-0.4,0-0.5,0.1c-0.9,0.7-1.9,1.3-2.8,2c-0.1,0.1-0.2,0.4-0.2,0.6c0.3,1.4,0.7,2.8,1.1,4.2c0.1,0.4,0.3,0.6,0.7,0.5
		c0.4,0,0.7,0,1.1,0c0,0.1,0,0.1,0,0.2c-0.8,0.6-1.6,1.2-2.5,1.8c0.6-1.9-0.3-3.5-0.7-5.2c-0.8-3.1-1.6-6.2-2.4-9.3
		c0-0.1,0-0.2-0.1-0.5c0.3,0.1,0.5,0.2,0.6,0.3c3.6,2.2,7.2,4.5,10.8,6.7C48.5,27.4,49.2,27.4,50,27.7z M42,25.2
		c-1.4-0.9-2.7-1.7-4.1-2.5c0,0-0.1,0.1-0.1,0.1c0.4,1.5,0.8,3,1.2,4.5C40.1,26.6,41,25.9,42,25.2z"/>
	<path d="M82,117.3c-0.1-0.2-0.3-0.3-0.4-0.5c-2.6-3.4-5.1-6.8-7.7-10.2c-0.2-0.2-0.4-0.4-0.7-0.6c-0.3-0.2-0.6-0.3-0.9-0.4
		c0-0.1,0-0.1,0-0.2c1.3-0.3,2.5-0.7,3.8-1c0,0,0.1,0.1,0.1,0.1c-0.3,0.4-0.7,0.8-1,1.3c1,1.3,2,2.6,3,3.9c0.1,0.1,0.4,0.2,0.6,0.2
		c1.1-0.2,2.1-0.5,3.2-0.8c0.3-0.1,0.5-0.2,0.5-0.6c0.2-1.4,0.3-2.9,0.5-4.3c0-0.4,0-0.6-0.5-0.7c-0.3-0.1-0.7-0.3-1-0.5
		c1-0.3,2-0.5,3-0.8c0,0.1,0,0.1,0,0.1c-1.1,1.3-1,3-1.2,4.5c-0.4,3.4-0.8,6.8-1.2,10.2C82.1,117.3,82.1,117.3,82,117.3z
		 M82.4,109.7c-1.2,0.3-2.3,0.6-3.6,0.9c1,1.3,1.9,2.6,2.9,3.8c0.1,0,0.1,0,0.2,0C82.1,112.9,82.2,111.4,82.4,109.7z"/>
	<path d="M38.9,93.1c1.1,0.8,2.1,1.6,3.1,2.4c0,0.1,0,0.1,0,0.2c-0.4,0-0.8,0-1.2,0c-0.2,0-0.4,0.2-0.5,0.4
		c-0.4,1.4-0.8,2.9-1.1,4.4c0,0.2,0.1,0.5,0.2,0.7c0.9,0.7,1.8,1.4,2.7,2c0.2,0.1,0.5,0.1,0.6,0c1.3-0.8,2.6-1.6,3.8-2.4
		c0.1-0.1,0.2-0.4,0.2-0.6c-0.1-0.4-0.2-0.8-0.3-1.3c0.8,0.6,1.6,1.2,2.4,1.8c-0.1,0.1-0.1,0.1-0.1,0.1c-1.8-0.1-3,1.2-4.3,2
		c-2.8,1.7-5.5,3.4-8.3,5.1c-0.1,0.1-0.3,0.2-0.6,0.3c0.2-0.9,0.4-1.8,0.6-2.6c0.9-3.4,1.8-6.8,2.6-10.3
		C39.1,94.7,38.9,94,38.9,93.1z M37.7,106.1c0,0,0.1,0.1,0.1,0.1c1.3-0.8,2.6-1.6,4-2.5c-1-0.8-2-1.5-3-2.3
		C38.5,103.1,38.1,104.6,37.7,106.1z"/>
	<path d="M60.1,15.4c0.3,1,0.5,2,0.8,3.1c-0.2-0.2-0.4-0.2-0.5-0.3c-0.5-0.7-1.2-0.8-2-0.5c-1.1,0.3-2.2,0.6-3.3,0.9
		c0.5,1.9,0.9,3.7,1.4,5.5c0,0.2,0.3,0.3,0.5,0.3c0.5,0.1,1.1,0.2,1.6,0.4c0,0.1,0,0.1,0,0.2c-1.5,0.4-3,0.8-4.6,1.2
		c0-0.1-0.1-0.1-0.1-0.2c0.2-0.3,0.5-0.5,0.7-0.8c0.1-0.2,0.3-0.6,0.2-0.8c-0.8-3.3-1.7-6.5-2.5-9.8c-0.2-0.6-0.4-1-1.1-1.2
		c-0.2-0.1-0.4-0.2-0.6-0.4c0.8-0.2,1.5-0.4,2.3-0.6c1.9-0.5,3.7-0.9,5.6-1.4c0.4-0.1,0.6,0,0.7,0.4c0.1,0.6,0.3,1.1,0.4,1.7
		c0,0-0.1,0.1-0.1,0.1c-0.4-0.3-0.8-0.7-1.2-1c-0.3-0.3-0.6-0.4-1.1-0.3c-1.2,0.3-2.4,0.6-3.7,1c0.4,1.4,0.7,2.8,1,4.2
		C55,18,55,18,56.1,17.7c0.9-0.2,1.7-0.5,2.6-0.7c0.6-0.1,0.9-0.4,1-1c0-0.2,0.1-0.4,0.2-0.7C60,15.4,60,15.4,60.1,15.4z"/>
	<path d="M26.6,51.9c0.7,0.1,1.1,0.1,1.6,0.2c0.1,0,0.3,0.2,0.3,0.3c0.7,2.6,0.3,6.5-2.1,8.8c-3.2,3-8.9,2-11-2
		c-1.1-2.2-0.9-4.4-0.2-6.6c0.2-0.6,0.4-1.2,0.6-1.7c0.1-0.1,0.3-0.3,0.4-0.3c0.5,0,1.1,0.2,1.7,0.3c-0.2,0.2-0.3,0.2-0.4,0.3
		c-3.1,2.1-3.2,6.6,0,8.7c2.6,1.7,5.3,2,8,0.4c2.7-1.6,3.4-5.1,1.5-7.7C26.9,52.4,26.8,52.3,26.6,51.9z"/>
	<path d="M118.5,83.1c0.5-0.4,0.9-0.7,1.2-1c0,0,0.1,0.1,0.1,0.1c-0.3,1-0.6,2-0.9,3.1c-1.2-2.5-3.3-4.3-4.9-6.3
		c-0.2-0.2-0.4-0.4-0.7-0.5c-1.5-0.4-2.9-0.8-4.4-1.3c-0.6-0.2-0.9-0.1-1.3,0.3c-0.2,0.2-0.4,0.3-0.6,0.5c0,0-0.1-0.1-0.1-0.1
		c0.4-1.3,0.8-2.6,1.1-3.9c0.1,0,0.1,0,0.2,0c0.1,0.3,0.2,0.7,0.4,1c0.1,0.2,0.3,0.5,0.5,0.5c1.4,0.4,2.8,0.8,4.2,1.2
		c0.4,0.1,0.8,0.1,1.1,0c2-0.6,4-1.3,6-2c0.6-0.2,1.1-0.6,1.8-0.9c-0.4,1.5-0.8,2.8-1.2,4.1c-0.1,0-0.1,0-0.2,0
		c-0.1-0.4-0.2-0.7-0.4-1.1c-0.1-0.2-0.3-0.4-0.4-0.3c-1.9,0.5-3.7,1.1-5.7,1.7C115.8,79.9,117.1,81.5,118.5,83.1z"/>
	<path d="M68.8,12.2c0.1-0.8,0.2-1.5,0.3-2.4c3.9,0.5,7.7,0.9,11.5,1.4c-0.1,0.8-0.2,1.6-0.3,2.3c-0.1,0-0.1,0-0.2,0.1
		c-0.3-0.5-0.6-1.1-0.9-1.5c-0.1-0.2-0.4-0.4-0.6-0.4c-0.9-0.1-1.8-0.2-2.6-0.3c-0.3,0-0.5,0-0.5,0.4c-0.4,3.6-0.8,7.1-1.2,10.7
		c-0.1,0.5,0.1,0.9,0.5,1.2c0.2,0.2,0.4,0.4,0.6,0.6c0,0,0,0.1-0.1,0.1c-1.3-0.2-2.6-0.3-3.9-0.5c0-0.1,0-0.1-0.1-0.2
		c0.3-0.2,0.7-0.4,0.9-0.6c0.2-0.2,0.4-0.4,0.5-0.6c0.5-3.7,0.9-7.3,1.3-11c0-0.1,0-0.2,0-0.4c-0.7-0.1-1.5-0.1-2.2-0.3
		c-0.9-0.2-1.6,0-2.1,0.8c-0.2,0.3-0.5,0.5-0.7,0.7C68.9,12.2,68.9,12.2,68.8,12.2z"/>
	<path d="M34.1,86.2c0.7,1.2,1.4,2.4,2.2,3.7c-0.4-0.1-0.6-0.2-0.8-0.3c-0.6-0.4-1.2-0.3-1.8,0.1c-2.8,1.7-5.6,3.3-8.4,4.9
		c-0.5,0.3-0.7,0.6-0.7,1.1c0,0.3-0.1,0.5-0.2,0.8c-0.7-1.2-1.4-2.4-2.1-3.5c0,0,0.1-0.1,0.1-0.1c0.2,0.1,0.4,0.1,0.6,0.2
		c0.6,0.4,1.1,0.3,1.7-0.1c2.8-1.7,5.6-3.3,8.4-4.9c0.5-0.3,0.8-0.6,0.7-1.2c0-0.3,0-0.5,0.1-0.8C34,86.2,34,86.2,34.1,86.2z"/>
	<path d="M30.1,79.4c0.8,1.3,1.6,2.6,2.3,4c0,0-0.1,0.1-0.1,0.1c-0.5-0.2-0.9-0.4-1.5-0.6C30.4,84,30,85,29.7,86.1
		c-0.4,1.1-0.8,2.2-1.2,3.2c-0.1,0.3-0.1,0.7-0.2,1.1c-2.4-0.6-4.8-1.2-7.3-1.8c-0.1,0.6-0.1,1.1-0.2,1.6c0,0-0.1,0-0.1,0.1
		c-0.6-1.1-1.3-2.1-1.9-3.2c2.5,1.4,5.3,1.5,7.9,2.4c0.6-1.5,1.1-2.9,1.7-4.3c0.4-1,0.8-1.9,1.1-2.9C29.7,81.4,29.9,80.4,30.1,79.4z
		"/>
	<path d="M99.1,64.4c0,1.5-1.2,2.7-2.7,2.7c-1.5,0-2.8-1.2-2.8-2.7c0-1.5,1.3-2.8,2.8-2.7C98,61.7,99.1,62.9,99.1,64.4z"/>
	<path d="M40.6,67.2c-1.5,0-2.7-1.2-2.7-2.7c0-1.5,1.2-2.7,2.7-2.7c1.6,0,2.8,1.2,2.8,2.8C43.4,65.9,42.1,67.2,40.6,67.2z"/>
	<path d="M68.6,61.7c1.5,0,2.7,1.2,2.7,2.7c0,1.6-1.3,2.8-2.8,2.8c-1.6,0-2.7-1.2-2.7-2.8C65.8,62.8,66.9,61.7,68.6,61.7z"/>
	<path d="M93.9,53.4c-1.1,1.1-2.1,2.1-3.2,3.1c-6.2,6.2-12.4,12.4-18.6,18.6c-0.2,0.2-0.6,0.3-0.9,0.5c0-0.1-0.1-0.1-0.1-0.2
		c0.1-0.1,0.2-0.3,0.3-0.4c7.1-7.1,14.3-14.3,21.4-21.4C93.1,53.3,93.4,53.2,93.9,53.4z"/>
	<path d="M66,53.4c-1.7,1.7-3.3,3.2-4.9,4.8c-5.6,5.6-11.3,11.3-16.9,16.9c-0.3,0.3-0.6,0.5-1.1,0.3c0.1-0.2,0.2-0.3,0.4-0.4
		c7-7,14-14,21-21C64.9,53.6,65.2,53.1,66,53.4z"/>
</g>
</svg>
